<svg xmlns="http://www.w3.org/2000/svg"><defs><font id="Indigo-v2" horiz-adv-x="1024"><font-face units-per-em="1024" ascent="960" descent="-64"/><glyph horiz-adv-x="512"/><glyph unicode="" d="M930.133 66.048v541.355c0 17.579-14.336 31.915-31.915 31.915s-31.915-14.336-31.915-31.915V143.019L131.242 878.08c-12.459 12.459-32.597 12.459-45.056 0s-12.459-32.597 0-45.056L821.247 97.963H356.863c-17.579 0-31.915-14.336-31.915-31.915 0-8.875 3.584-16.725 9.387-22.528s13.824-9.387 22.528-9.387h541.355c17.579 0 31.915 14.336 31.915 31.915z" horiz-adv-x="1032" data-tags="trend-down"/><glyph unicode="" d="M898.219 887.467H356.864c-17.579 0-31.915-14.336-31.915-31.915s14.336-31.915 31.915-31.915h464.384L86.187 88.576c-12.459-12.459-12.459-32.597 0-45.056s32.597-12.459 45.056 0l735.061 735.061V314.197c0-17.579 14.336-31.915 31.915-31.915 8.875 0 16.725 3.584 22.528 9.387s9.387 13.824 9.387 22.528v541.355c0 17.579-14.336 31.915-31.915 31.915z" horiz-adv-x="1032" data-tags="trend-up"/><glyph unicode="" d="M512 358.4c-169.395 0-307.2 137.805-307.2 307.2S342.605 972.8 512 972.8s307.2-137.805 307.2-307.2S681.395 358.4 512 358.4zm0 563.2c-141.158 0-256-114.842-256-256s114.842-256 256-256c141.158 0 256 114.842 256 256s-114.842 256-256 256zM947.2-51.2H76.8C34.458-51.2 0-16.755 0 25.6c0 3.034.768 75.034 67.84 145.626 38.131 40.128 90.099 71.936 154.483 94.528C300.697 293.248 398.157 307.2 512 307.2s211.302-13.939 289.677-41.446c64.384-22.592 116.365-54.4 154.483-94.528C1023.232 100.634 1024 28.621 1024 25.6c0-42.355-34.445-76.8-76.8-76.8zM512 256C56.474 256 51.2 27.904 51.2 25.6 51.2 11.482 62.682 0 76.8 0h870.4c14.08 0 25.536 11.418 25.6 25.472-.064 3.251-2.048 57.882-56.55 113.382C863.77 192.294 751.028 256 512 256z" data-tags="user"/><glyph unicode="" d="M506.88 665.6c-30.72 0-61.44-35.84-61.44-71.68v-61.44c0-40.96 25.6-71.68 61.44-71.68s61.44 30.72 61.44 71.68v61.44c5.12 35.84-25.6 71.68-61.44 71.68zm209.92 0c-35.84 0-61.44-30.72-61.44-71.68v-61.44c0-40.96 25.6-71.68 61.44-71.68s61.44 30.72 61.44 71.68v61.44c5.12 35.84-25.6 71.68-61.44 71.68zm199.68 76.8c-25.6 56.32-66.56 102.4-112.64 138.24C701.44 962.56 578.56 972.8 512 972.8s-189.44-10.24-291.84-92.16c-51.2-35.84-87.04-81.92-112.64-138.24-30.72-61.44-46.08-138.24-46.08-220.16V-51.2h30.72c107.52 0 153.6 30.72 189.44 56.32 25.6 15.36 35.84 25.6 61.44 25.6 30.72 0 46.08-15.36 66.56-35.84s51.2-51.2 102.4-51.2 81.92 25.6 102.4 51.2c20.48 20.48 35.84 35.84 66.56 35.84 25.6 0 40.96-10.24 61.44-25.6 35.84-25.6 81.92-56.32 189.44-56.32h30.72v573.44c0 81.92-15.36 158.72-46.08 220.16zM906.24 5.12c-71.68 5.12-102.4 25.6-128 46.08s-51.2 35.84-97.28 35.84c-56.32 0-81.92-25.6-102.4-51.2C558.08 15.36 542.72 0 512 0s-46.08 15.36-66.56 35.84c-20.48 20.48-51.2 51.2-102.4 51.2-46.08 0-71.68-20.48-97.28-35.84-30.72-20.48-61.44-40.96-128-46.08v517.12c0 138.24 46.08 245.76 138.24 317.44 92.16 66.56 199.68 76.8 256 76.8s168.96-10.24 256-76.8c92.16-66.56 138.24-174.08 138.24-317.44V5.12z" data-tags="ghost"/><glyph unicode="" d="M821.408 670.353c-3.927-4.159-6.7-7.162-9.472-9.935l-200.08-200.08c-3.466-3.466-6.7-7.393-9.011-11.552-6.007-10.858-4.159-21.487 4.39-28.88 9.242-8.086 22.18-8.317 31.884-.924 1.617 1.155 2.772 2.541 4.159 3.927l268.7 268.7c1.155 1.155 2.08 2.31 3.696 3.696-2.31 2.541-4.621 4.852-6.931 7.162-88.026 88.026-175.821 175.821-263.616 263.847-6.238 6.238-12.707 9.703-21.949 9.703-10.858.231-18.483-5.083-21.024-13.862-2.08-6.931-.693-15.479 1.386-22.642 1.617-5.314 6.931-9.935 11.321-14.093 64.922-65.153 130.076-130.076 195.229-195.229 3.004-3.004 5.545-6.007 10.166-10.859h-14.324c-124.762 0-249.523.462-374.285-.231-38.583-.231-77.168-5.082-115.289-12.938-30.497-6.238-59.609-15.018-88.72-25.876-33.039-12.245-62.842-29.804-90.336-51.06-27.494-21.024-51.522-46.208-70.698-75.088-28.88-42.512-47.363-89.181-53.833-140.241-3.004-23.335-6.7-46.901-6.469-70.236.231-30.729 2.772-61.687 6.7-92.185 3.927-30.96 8.317-62.381 16.635-92.416 10.628-38.815 24.49-76.705 39.046-114.134 9.242-23.798 22.18-46.208 34.194-68.85 4.159-7.856 9.935-14.787 21.255-14.556 20.332.694 31.421 16.866 22.642 35.58-6.7 14.324-15.018 27.956-21.718 42.281-24.49 53.139-44.359 108.127-54.756 165.887-4.852 27.263-9.011 54.756-11.321 82.25-2.31 28.649-4.39 57.529-2.08 86.178 4.852 62.381 24.259 120.372 63.305 170.508 24.028 30.729 54.525 53.601 88.257 72.547 33.962 18.945 70.467 31.19 107.895 39.738 23.798 5.314 48.518 8.317 73.008 9.935 142.32 9.935 285.104 2.772 427.655 4.852.694-.231 1.617-.462 4.39-.924z" horiz-adv-x="922" data-tags="redo"/><glyph unicode="" d="M100.332 670.353c3.927-4.159 6.7-7.162 9.472-9.935l200.08-200.08c3.466-3.466 6.7-7.393 9.011-11.552 6.007-10.858 4.159-21.487-4.389-28.88-9.242-8.086-22.18-8.317-31.884-.924-1.617 1.155-2.772 2.541-4.159 3.927-89.412 89.412-179.056 179.056-268.7 268.468-1.155 1.155-2.08 2.309-3.696 3.696 2.311 2.541 4.621 4.852 6.931 7.162 88.026 88.257 176.052 176.052 263.847 264.079 6.238 6.238 12.707 9.703 21.949 9.703 10.859.231 18.483-5.083 21.024-13.862 2.08-6.931.694-15.479-1.386-22.642-1.617-5.314-6.931-9.935-11.321-14.093-64.691-65.153-129.844-130.076-194.767-195.229-3.004-3.004-5.545-6.007-10.166-10.859h14.324c124.762 0 249.523.462 374.285-.231 38.583-.231 77.168-5.083 115.289-12.938 30.497-6.238 59.609-15.018 88.72-25.876 33.039-12.245 62.842-29.804 90.336-51.06 27.494-21.024 51.522-46.208 70.698-75.088 28.418-42.742 46.901-89.412 53.371-140.473 3.004-23.335 6.7-46.901 6.469-70.236-.231-30.729-2.772-61.687-6.7-92.185-3.927-30.96-8.317-62.381-16.635-92.416-10.628-38.815-24.491-76.705-39.046-114.134-9.242-23.798-22.18-46.208-34.194-68.851-4.159-7.856-9.935-14.787-21.255-14.556-20.332.693-31.421 16.866-22.642 35.58 6.7 14.324 15.018 27.956 21.718 42.281 24.489 53.139 44.359 108.127 54.756 165.887 4.852 27.031 9.011 54.525 11.321 82.019 2.309 28.649 4.389 57.529 2.08 86.178-4.852 62.381-24.259 120.372-63.305 170.508-24.028 30.729-54.525 53.601-88.257 72.547-33.962 18.945-70.467 31.189-107.895 39.738-23.797 5.314-48.518 8.317-73.008 9.935-142.32 9.935-285.104 2.772-427.655 4.852-.924.231-1.617 0-4.621-.462z" horiz-adv-x="922" data-tags="undo"/><glyph unicode="" d="M512-51.2C382.72-51.2 259.84 0 167.68 90.88S25.6 305.92 25.6 435.2s51.2 252.16 142.08 344.32S382.72 921.6 512 921.6s252.16-51.2 344.32-142.08S998.4 564.48 998.4 435.2 947.2 183.04 856.32 90.88 641.28-51.2 512-51.2zm0 921.6c-239.36 0-435.2-195.84-435.2-435.2S272.64 0 512 0s435.2 195.84 435.2 435.2S751.36 870.4 512 870.4zm-87.04-665.6h-83.2c-23.04 0-40.96 23.04-40.96 51.2v358.4c0 28.16 19.2 51.2 40.96 51.2h83.2c23.04 0 40.96-23.04 40.96-51.2V256c1.28-28.16-17.92-51.2-40.96-51.2zm256 0h-83.2c-23.04 0-40.96 23.04-40.96 51.2v358.4c0 28.16 19.2 51.2 40.96 51.2h83.2c23.04 0 40.96-23.04 40.96-51.2V256c1.28-28.16-17.92-51.2-40.96-51.2z" data-tags="pause"/><glyph unicode="" d="M947.2 102.4H384c-42.342 0-76.8 34.458-76.8 76.8 0 2.458.538 60.954 47.334 118.541 26.88 33.088 63.539 59.315 108.954 77.939 54.861 22.502 122.854 33.92 202.112 33.92s147.264-11.405 202.112-33.92c45.414-18.624 82.061-44.851 108.954-77.939C1023.463 240.154 1024 181.658 1024 179.2c0-42.342-34.458-76.8-76.8-76.8zm-588.8 76.672c.077-14.054 11.533-25.472 25.6-25.472h563.2c14.067 0 25.523 11.418 25.6 25.472-.051 1.792-1.651 45.798-37.85 88.781C885.068 327.091 791.936 358.4 665.6 358.4s-219.469-31.309-269.35-90.547c-36.198-42.982-37.798-87.002-37.85-88.781zM665.6 460.8c-112.922 0-204.8 91.878-204.8 204.8s91.878 204.8 204.8 204.8 204.8-91.878 204.8-204.8c0-112.922-91.878-204.8-204.8-204.8zm0 358.4c-84.698 0-153.6-68.902-153.6-153.6S580.902 512 665.6 512s153.6 68.902 153.6 153.6-68.902 153.6-153.6 153.6zM230.4 102.4H76.8C34.458 102.4 0 136.845 0 179.2c0 1.92.384 47.45 33.92 92.16 19.379 25.83 45.773 46.298 78.477 60.838C151.527 349.593 199.834 358.4 256 358.4c9.165 0 18.227-.23 26.957-.704 14.118-.755 24.96-12.813 24.205-26.931s-12.787-24.96-26.931-24.205c-7.821.422-15.974.627-24.23.627-199.36 0-204.672-121.83-204.8-128.128.077-14.054 11.533-25.472 25.6-25.472h153.6c14.144 0 25.6-11.456 25.6-25.6s-11.456-25.6-25.6-25.6zM256 409.6c-84.698 0-153.6 68.902-153.6 153.6S171.302 716.8 256 716.8s153.6-68.902 153.6-153.6S340.698 409.6 256 409.6zm0 256c-56.461 0-102.4-45.939-102.4-102.4S199.539 460.8 256 460.8s102.4 45.939 102.4 102.4c0 56.461-45.939 102.4-102.4 102.4z" data-tags="users2"/><glyph unicode="" d="M819.52 307.2H307.2C137.805 307.2 0 445.005 0 614.4s137.805 307.2 307.2 307.2c82.035 0 160.589-32.922 218.099-90.867a155.203 155.203 0 0016.64 28.403c28.877 39.117 75.098 62.464 123.648 62.464 84.698 0 153.6-68.902 153.6-153.6 0-17.958-3.123-35.52-9.101-52.045 3.123.141 6.272.205 9.421.205 112.755 0 204.48-91.725 204.48-204.48S932.262 307.2 819.507 307.2zM307.2 870.4c-141.158 0-256-114.842-256-256s114.842-256 256-256h512.32c84.518 0 153.28 68.762 153.28 153.28s-68.762 153.28-153.28 153.28c-18.125 0-35.789-3.098-52.506-9.216-11.162-4.083-23.68.051-30.208 9.984s-5.35 23.066 2.842 31.68C757.926 716.646 768 741.709 768 768c0 56.461-45.939 102.4-102.4 102.4-32.858 0-62.912-15.181-82.458-41.664-11.802-15.987-18.675-34.701-19.866-54.144-.666-10.854-8.115-20.096-18.573-23.053s-21.645 1.011-27.904 9.894a257.939 257.939 0 01-18.125 22.899c-48.589 54.694-118.374 86.067-191.475 86.067zM128 153.6c-14.144 0-25.6 11.456-25.6 25.6v51.2c0 14.144 11.456 25.6 25.6 25.6s25.6-11.456 25.6-25.6v-51.2c0-14.144-11.456-25.6-25.6-25.6zm204.8 0c-14.144 0-25.6 11.456-25.6 25.6v51.2c0 14.144 11.456 25.6 25.6 25.6s25.6-11.456 25.6-25.6v-51.2c0-14.144-11.456-25.6-25.6-25.6zm204.8 0c-14.144 0-25.6 11.456-25.6 25.6v51.2c0 14.144 11.456 25.6 25.6 25.6s25.6-11.456 25.6-25.6v-51.2c0-14.144-11.456-25.6-25.6-25.6zm204.8 0c-14.144 0-25.6 11.456-25.6 25.6v51.2c0 14.144 11.456 25.6 25.6 25.6s25.6-11.456 25.6-25.6v-51.2c0-14.144-11.456-25.6-25.6-25.6zm204.8 0c-14.144 0-25.6 11.456-25.6 25.6v51.2c0 14.144 11.456 25.6 25.6 25.6s25.6-11.456 25.6-25.6v-51.2c0-14.144-11.456-25.6-25.6-25.6zM844.8 51.2c-14.144 0-25.6 11.456-25.6 25.6V128c0 14.144 11.456 25.6 25.6 25.6s25.6-11.456 25.6-25.6V76.8c0-14.144-11.456-25.6-25.6-25.6zm-204.8 0c-14.144 0-25.6 11.456-25.6 25.6V128c0 14.144 11.456 25.6 25.6 25.6s25.6-11.456 25.6-25.6V76.8c0-14.144-11.456-25.6-25.6-25.6zm-204.8 0c-14.144 0-25.6 11.456-25.6 25.6V128c0 14.144 11.456 25.6 25.6 25.6s25.6-11.456 25.6-25.6V76.8c0-14.144-11.456-25.6-25.6-25.6zm-204.8 0c-14.144 0-25.6 11.456-25.6 25.6V128c0 14.144 11.456 25.6 25.6 25.6S256 142.144 256 128V76.8c0-14.144-11.456-25.6-25.6-25.6z" data-tags="cloud-rain"/><glyph unicode="" d="M865.28 819.2h-128v25.6c0 14.336-11.264 25.6-25.6 25.6s-25.6-12.288-25.6-25.6v-25.6H256v25.6c0 14.336-11.264 25.6-25.6 25.6s-25.6-12.288-25.6-25.6v-25.6h-128C34.816 819.2 0 784.384 0 733.184V37.888C0 4.096 34.816-30.72 76.8-30.72h788.48c41.984 0 76.8 34.816 76.8 68.608v695.296c0 51.2-34.816 86.016-76.8 86.016zM76.8 768h128v-76.8c0-14.336 11.264-25.6 25.6-25.6s25.6 11.264 25.6 25.6V768h430.08v-76.8c0-14.336 11.264-25.6 25.6-25.6s25.6 11.264 25.6 25.6V768h128c14.336 0 25.6-11.264 25.6-25.6V606.208H51.2V742.4c0 13.312 11.264 25.6 25.6 25.6zM865.28 20.48H76.8c-14.336 0-25.6 11.264-25.6 25.6v507.904h839.68V46.08c0-13.312-11.264-25.6-25.6-25.6zM465.92 314.368c16.384 26.624 18.432 64.512 6.144 93.184-11.264 29.696-41.984 46.08-73.728 52.224-29.696 6.144-61.44 6.144-91.136 3.072-35.84-3.072-71.68-12.288-91.136-41.984-8.192-12.288-16.384-27.648-8.192-40.96 6.144-10.24 18.432-11.264 29.696-8.192 16.384 4.096 15.36 16.384 23.552 28.672 7.168 11.264 22.528 15.36 35.84 17.408 24.576 5.12 53.248 4.096 78.848 1.024 14.336-2.048 30.72-4.096 41.984-13.312 8.192-9.216 11.264-24.576 12.288-36.864 0-13.312-3.072-29.696-14.336-38.912s-25.6-11.264-38.912-13.312c-11.264-2.048-22.528-2.048-34.816-2.048-11.264 0-20.48 0-28.672-8.192-11.264-11.264-7.168-28.672 6.144-34.816 8.192-4.096 17.408-3.072 25.6-3.072 22.528 0 58.368-1.024 72.704-19.456 15.36-19.456 16.384-60.416-7.168-74.752-25.6-15.36-65.536-14.336-94.208-12.288-13.312 1.024-28.672 2.048-40.96 9.216-5.12 3.072-10.24 6.144-14.336 11.264-5.12 6.144-5.12 15.36-11.264 21.504-8.192 9.216-22.528 9.216-32.768 3.072-13.312-8.192-12.288-24.576-7.168-36.864 28.672-58.368 111.616-62.464 171.008-56.32 31.744 4.096 64.512 13.312 83.968 38.912 19.456 26.624 20.48 66.56 9.216 96.256-6.144 17.408-17.408 27.648-29.696 38.912 8.192 8.192 15.36 16.384 21.504 26.624zm-140.288-35.84zm409.6 169.984l-3.072 6.144c-1.024 2.048-2.048 3.072-4.096 4.096-2.048 2.048-4.096 3.072-8.192 4.096-2.048 1.024-3.072 1.024-5.12 1.024h-8.192c-2.048 0-4.096-1.024-7.168-2.048-2.048-1.024-4.096-3.072-5.12-4.096L640 406.528c-1.024-2.048-3.072-4.096-3.072-5.12-2.048-3.072-2.048-6.144-2.048-9.216-1.024-3.072 0-6.144 0-8.192 1.024-3.072 3.072-5.12 5.12-8.192 2.048-2.048 4.096-4.096 8.192-5.12 5.12-2.048 12.288-2.048 17.408 0 3.072 1.024 5.12 3.072 8.192 5.12l12.288 11.264V137.216c0-2.048 1.024-4.096 2.048-7.168s3.072-5.12 5.12-7.168 4.096-4.096 8.192-5.12c3.072-1.024 7.168-2.048 10.24-2.048s7.168 1.024 9.216 2.048c3.072 1.024 5.12 3.072 8.192 5.12 2.048 2.048 3.072 4.096 5.12 7.168 1.024 3.072 2.048 6.144 2.048 9.216v305.152s-1.024 2.048-1.024 4.096z" data-tags="calendar"/><glyph unicode="" d="M449.536 786.432c-2.048 24.576 12.288 44.032 35.84 44.032h53.248c23.552 0 38.912-19.456 36.864-44.032l-25.6-417.792c-2.048-22.528-17.408-36.864-37.888-36.864s-34.816 14.336-36.864 36.864l-25.6 417.792zM512 257.024c41.984 0 72.704-30.72 72.704-70.656v-10.24c0-39.936-30.72-70.656-72.704-70.656-40.96 0-72.704 30.72-72.704 70.656v10.24c0 39.936 31.744 70.656 72.704 70.656zm362.496 566.272C777.216 919.552 649.216 972.8 512 972.8s-265.216-53.248-362.496-149.504S0 598.016 0 460.8 53.248 195.584 149.504 98.304 374.784-51.2 512-51.2 777.216 2.048 874.496 98.304 1024 323.584 1024 460.8s-53.248 265.216-149.504 362.496zM512 3.072C259.072 3.072 54.272 208.896 54.272 460.8S259.072 918.528 512 918.528s457.728-204.8 457.728-457.728S764.928 3.072 512 3.072z" data-tags="circle-exclamation"/><glyph unicode="" d="M501.76 256c-43.008 0-71.68-24.576-71.68-61.44v-31.744c0-36.864 28.672-70.656 71.68-70.656s71.68 34.816 71.68 71.68v26.624c0 35.84-28.672 65.536-71.68 65.536zm14.336 573.44c-80.896 0-153.6-29.696-204.8-95.232-7.168-7.168-14.336-22.528-14.336-36.864 0-29.696 21.504-51.2 51.2-51.2 14.336 0 29.696 7.168 36.864 14.336 36.864 44.032 80.896 66.56 132.096 66.56 65.536 0 109.568-36.864 109.568-103.424 0-80.896-88.064-103.424-139.264-103.424-14.336 0-29.696-7.168-36.864-14.336s-14.336-22.528-7.168-36.864l7.168-117.76c0-22.528 14.336-44.032 44.032-44.032h7.168c21.504 0 36.864 14.336 44.032 44.032l7.168 80.896c116.736 22.528 183.296 88.064 183.296 198.656 0 117.76-88.064 198.656-220.16 198.656zm361.472-3.072C782.336 921.6 651.264 972.8 512 972.8s-263.168-51.2-365.568-146.432C51.2 731.136 0 599.04 0 460.8S51.2 197.632 146.432 95.232C241.664 0 372.736-51.2 512-51.2S775.168 0 877.568 95.232C972.8 189.44 1024 321.536 1024 460.8c0 146.432-51.2 270.336-146.432 365.568zM512 7.168c-248.832 0-460.8 204.8-460.8 460.8 0 248.832 204.8 460.8 460.8 460.8s460.8-204.8 460.8-460.8S760.832 7.168 512 7.168z" data-tags="circle-question"/><glyph unicode="" d="M164.633 922.807l434.424-356.848q6.034-5.172 6.034-12.067 0-8.62-6.034-12.067L164.633 184.977q-6.896-6.034-16.377-1.724-8.62 4.31-8.62 13.791v713.697q0 9.481 8.62 13.791 9.481 4.31 16.377-1.724z" horiz-adv-x="745"/><glyph unicode="" d="M741.279 761.622L384.431 327.198q-5.172-6.034-12.067-6.034-8.62 0-12.067 6.034L3.449 761.622q-6.034 6.896-1.724 16.377 4.31 8.62 13.791 8.62h713.697q9.481 0 13.791-8.62 4.31-9.481-1.724-16.377z" horiz-adv-x="745"/><glyph unicode="" d="M487.68 225.28c-16.64 0-32 14.08-34.56 35.84L439.04 409.6c-2.56 25.6 12.8 43.52 38.4 46.08 140.8 10.24 229.12 72.96 229.12 184.32v2.56c0 94.72-74.24 171.52-193.28 171.52-88.32 0-158.72-38.4-218.88-103.68-8.96-7.68-21.76-14.08-35.84-14.08-26.88 0-47.36 19.2-47.36 46.08 0 11.52 5.12 25.6 15.36 35.84 70.4 76.8 160 129.28 288 129.28 179.2 0 295.68-111.36 295.68-262.4v-2.56c0-165.12-124.16-247.04-275.2-268.8l-8.96-113.92c-2.56-21.76-15.36-35.84-34.56-35.84h-3.84zm1.28-110.08c35.84 0 64-26.88 64-62.72V25.6c0-35.84-28.16-64-64-64s-64 28.16-64 64v26.88c1.28 35.84 29.44 62.72 64 62.72z" data-tags="question"/><glyph unicode="" d="M179.2 153.6c-14.139 0-25.6 11.461-25.6 25.6v552.597l-58.698-58.699c-9.998-9.997-26.206-9.997-36.205 0-9.997 9.998-9.997 26.206 0 36.205l102.4 102.4a25.6 25.6 0 0043.702-18.102v-614.4c0-14.139-11.461-25.6-25.6-25.6z" horiz-adv-x="256" data-tags="svg"/><glyph unicode="" d="M490.455 177.584c8.468 8.468 13.173 20.7 13.173 32.932s-4.704 24.463-13.173 32.932L278.748 455.155l211.707 211.707c8.468 8.468 13.173 20.7 13.173 32.932s-4.704 24.463-13.173 32.933c-8.468 8.468-20.7 14.114-32.932 14.114s-24.463-4.704-32.932-13.173L179.953 489.03c-8.468-8.468-13.173-20.7-13.173-32.932s4.704-24.463 13.173-32.932l244.638-244.638c18.819-19.759 47.986-19.759 65.864-.94z" horiz-adv-x="666" data-tags="navigateleft"/><glyph unicode="" d="M205.553 732.725c-8.468-8.468-13.173-20.7-13.173-32.932s4.704-24.463 13.173-32.933L417.26 455.153 205.553 243.446c-8.468-8.468-13.173-20.7-13.173-32.932s4.704-24.463 13.173-32.932c8.468-8.468 20.7-14.114 32.932-14.114s24.463 4.704 32.932 13.173l244.638 244.638c8.468 8.468 13.173 20.7 13.173 32.933s-4.704 24.463-13.173 32.932L271.417 731.782c-17.878 19.759-47.986 19.759-65.864.941z" horiz-adv-x="666" data-tags="navigateright"/><glyph unicode="" d="M616.016 595.351c-8.468 8.468-20.7 13.173-32.932 13.173s-24.463-4.704-32.932-13.173L338.445 383.644 126.738 595.351c-8.468 8.468-20.7 13.173-32.932 13.173s-24.463-4.704-32.933-13.173c-8.468-8.468-14.114-20.7-14.114-32.932s4.704-24.463 13.173-32.932L304.57 284.849c8.468-8.468 20.7-13.173 32.932-13.173s24.463 4.704 32.933 13.173l244.638 244.638c19.759 18.819 19.759 47.986.94 65.864z" horiz-adv-x="666" data-tags="navigatedown"/><glyph unicode="" d="M60.875 284.849c8.468-8.468 20.7-13.173 32.932-13.173s24.463 4.704 32.933 13.173l211.707 211.707 211.707-211.707c8.468-8.468 20.7-13.173 32.932-13.173s24.463 4.704 32.932 13.173c8.468 8.468 14.114 20.7 14.114 32.932s-4.704 24.463-13.173 32.932L372.321 595.351c-8.468 8.468-20.7 13.173-32.933 13.173s-24.463-4.704-32.932-13.173L61.818 350.713c-19.759-17.878-19.759-47.986-.94-65.864z" horiz-adv-x="666" data-tags="navigateup"/><glyph unicode="" d="M978.101 926.902c-28.77 28.768-67.018 44.611-107.701 44.611-40.685 0-78.933-15.843-107.701-44.611l-652.8-652.8a25.6 25.6 0 01-5.957-9.354l-102.4-281.6a25.595 25.595 0 015.957-26.85 25.586 25.586 0 0126.848-5.958l281.6 102.4a25.619 25.619 0 019.354 5.958l652.8 652.8c28.768 28.768 44.613 67.018 44.613 107.702s-15.843 78.933-44.613 107.701zM293.114 98.917L68.405 17.207l81.712 224.707L716.8 808.597 859.797 665.6 293.114 98.917zm648.785 648.785L896 701.803 753.003 844.8l45.899 45.899c19.098 19.098 44.49 29.614 71.498 29.614s52.4-10.518 71.499-29.616c19.098-19.098 29.616-44.49 29.616-71.498s-10.52-52.4-29.616-71.498z" data-tags="pencil"/><glyph unicode="" d="M617.162 596.884c-14.883 0-26.947 12.065-26.947 26.947 0 74.294-60.443 134.737-134.737 134.737-14.882 0-26.947 12.065-26.947 26.947s12.065 26.947 26.947 26.947c74.294 0 134.737 60.443 134.737 134.737 0 14.882 12.064 26.947 26.947 26.947s26.947-12.065 26.947-26.947c0-74.294 60.443-134.737 134.737-134.737 14.883 0 26.947-12.065 26.947-26.947s-12.064-26.947-26.947-26.947c-74.294 0-134.737-60.443-134.737-134.737 0-14.882-12.064-26.947-26.947-26.947zm-64.604 188.632a190.17 190.17 0 0064.604-64.606 190.158 190.158 0 0064.606 64.606 190.158 190.158 0 00-64.606 64.606 190.17 190.17 0 00-64.604-64.606zM78.215 435.2c-14.882 0-26.947 12.065-26.947 26.947 0 14.858-12.089 26.947-26.947 26.947-14.882 0-26.947 12.065-26.947 26.947s12.065 26.947 26.947 26.947c14.858 0 26.947 12.089 26.947 26.947 0 14.882 12.065 26.947 26.947 26.947s26.947-12.065 26.947-26.947c0-14.858 12.089-26.947 26.947-26.947 14.882 0 26.947-12.065 26.947-26.947s-12.065-26.947-26.947-26.947c-14.858 0-26.947-12.089-26.947-26.947 0-14.882-12.065-26.947-26.947-26.947zm897.159-320.101l-570.521 570.52c-15.227 15.227-35.528 23.613-57.164 23.613s-41.937-8.385-57.164-23.613l-31.571-31.571c-15.227-15.227-23.613-35.528-23.613-57.164s8.385-41.937 23.613-57.164l570.52-570.518C844.699-46.025 865-54.413 886.636-54.413s41.937 8.384 57.164 23.615L975.373.773c15.227 15.225 23.613 35.528 23.613 57.162s-8.384 41.939-23.611 57.164zm-678.311 500.84l31.571 31.571c5.047 5.047 11.815 7.826 19.055 7.826s14.007-2.779 19.055-7.826l77.569-77.572-69.681-69.681-77.569 77.569c-10.507 10.509-10.507 27.604 0 38.112zM937.261 38.882L905.688 7.311c-5.046-5.046-11.815-7.825-19.052-7.825s-14.006 2.779-19.052 7.825L412.74 462.152l69.681 69.679L937.261 76.99c10.506-10.506 10.506-27.602 0-38.108zM186.004 704.674c-14.882 0-26.947 12.065-26.947 26.947 0 44.576-36.266 80.842-80.842 80.842-14.882 0-26.947 12.065-26.947 26.947s12.065 26.947 26.947 26.947c44.576 0 80.842 36.266 80.842 80.842 0 14.882 12.065 26.947 26.947 26.947s26.947-12.065 26.947-26.947c0-44.576 36.266-80.842 80.842-80.842 14.882 0 26.947-12.065 26.947-26.947s-12.065-26.947-26.947-26.947c-44.576 0-80.842-36.266-80.842-80.842 0-14.882-12.065-26.947-26.947-26.947zm-27.031 134.737a135.894 135.894 0 0027.032-27.032 135.894 135.894 0 0027.032 27.032 135.894 135.894 0 00-27.032 27.032 135.947 135.947 0 00-27.032-27.032zm27.031-673.685c-14.882 0-26.947 12.064-26.947 26.947 0 44.576-36.266 80.842-80.842 80.842-14.882 0-26.947 12.064-26.947 26.947s12.065 26.947 26.947 26.947c44.576 0 80.842 36.266 80.842 80.842 0 14.883 12.065 26.947 26.947 26.947s26.947-12.064 26.947-26.947c0-44.576 36.266-80.842 80.842-80.842 14.882 0 26.947-12.064 26.947-26.947s-12.065-26.947-26.947-26.947c-44.576 0-80.842-36.266-80.842-80.842 0-14.883-12.065-26.947-26.947-26.947zm-27.031 134.737a135.841 135.841 0 0027.032-27.032 136 136 0 0027.032 27.032 135.841 135.841 0 00-27.032 27.032 135.894 135.894 0 00-27.032-27.032z" horiz-adv-x="998" data-tags="magic, wand, tool"/><glyph unicode="" d="M747.917 358.882L634.455 472.344c-11.075 11.077-29.037 11.077-40.114 0L480.879 358.882c-11.077-11.075-11.077-29.037 0-40.114s29.037-11.077 40.117 0l65.04 65.04v-243.54c0-15.666 12.699-28.365 28.365-28.365s28.365 12.699 28.365 28.365v243.54l65.043-65.04c5.537-5.537 12.795-8.306 20.055-8.306s14.518 2.769 20.055 8.312c11.08 11.075 11.08 29.034 0 40.108zm178.86-246.98H727.863c-15.666 0-28.365 12.699-28.365 28.365s12.699 28.365 28.365 28.365h198.914c93.648 0 169.839 76.191 169.839 169.839S1020.425 508.31 926.777 508.31c-20.086 0-39.661-3.436-58.18-10.218-12.373-4.529-26.235.056-33.465 11.068s-5.927 25.556 3.149 35.108c20.255 21.313 31.409 49.094 31.409 78.215 0 62.564-50.899 113.462-113.462 113.462-36.407 0-69.708-16.827-91.364-46.168-13.073-17.713-20.686-38.457-22.014-59.986a28.362 28.362 0 00-20.581-25.544 28.36 28.36 0 00-30.921 10.96 288.227 288.227 0 01-20.084 25.376c-53.836 60.605-131.162 95.364-212.155 95.364-156.407 0-283.657-127.246-283.657-283.657S202.7 168.633 359.109 168.633h141.828c15.665 0 28.365-12.699 28.365-28.365s-12.7-28.365-28.365-28.365H359.109c-187.689 0-340.387 152.698-340.387 340.387S171.42 792.677 359.109 792.677c90.897 0 177.938-36.473 241.666-100.682a171.945 171.945 0 0018.441 31.472c31.988 43.338 83.205 69.209 137.012 69.209 93.846 0 170.194-76.348 170.194-170.194 0-19.897-3.455-39.361-10.079-57.675 3.464.157 6.944.234 10.434.234 124.931 0 226.571-101.64 226.571-226.571s-101.64-226.571-226.571-226.571z" horiz-adv-x="1178" data-tags="cloud-upload, cloud"/><glyph unicode="" d="M742.4 512h-25.6v76.8c0 127.043-103.357 230.4-230.4 230.4S256 715.843 256 588.8V512h-25.6c-42.347 0-76.8-34.453-76.8-76.8V25.6c0-42.347 34.453-76.8 76.8-76.8h512c42.347 0 76.8 34.453 76.8 76.8v409.6c0 42.347-34.453 76.8-76.8 76.8zm-435.2 76.8c0 98.811 80.389 179.2 179.2 179.2s179.2-80.389 179.2-179.2V512H307.2v76.8zM768 25.6C768 11.485 756.515 0 742.4 0h-512c-14.115 0-25.6 11.485-25.6 25.6v409.6c0 14.115 11.485 25.6 25.6 25.6h512c14.115 0 25.6-11.485 25.6-25.6V25.6z" data-tags="lock, security"/><glyph unicode="" d="M691.2 870.4c-127.043 0-230.4-103.357-230.4-230.4V512h-384C34.453 512 0 477.547 0 435.2V25.6c0-42.347 34.453-76.8 76.8-76.8h512c42.347 0 76.8 34.453 76.8 76.8v409.6c0 42.347-34.453 76.8-76.8 76.8H512v128c0 98.811 80.389 179.2 179.2 179.2S870.4 738.811 870.4 640v-51.2c0-14.138 11.461-25.6 25.6-25.6s25.6 11.462 25.6 25.6V640c0 127.043-103.357 230.4-230.4 230.4zM588.8 460.8c14.115 0 25.6-11.485 25.6-25.6V25.6c0-14.115-11.485-25.6-25.6-25.6h-512C62.685 0 51.2 11.485 51.2 25.6v409.6c0 14.115 11.485 25.6 25.6 25.6h512z" data-tags="unlock, open"/><glyph unicode="" d="M390.71-35.955c-2.109 0-4.248.262-6.378.81-45.976 11.803-90.149 30.042-131.291 54.21-11.923 7.003-16.13 22.21-9.501 34.344 8.15 14.925 12.459 31.866 12.459 48.992 0 56.464-45.936 102.4-102.4 102.4-17.125 0-34.066-4.309-48.992-12.459-12.133-6.627-27.339-2.421-34.342 9.501-24.17 41.142-42.408 85.315-54.211 131.293-3.333 12.989 3.92 26.349 16.629 30.629 41.699 14.037 69.717 53.034 69.717 97.037s-28.018 83-69.718 97.04c-12.707 4.278-19.962 17.638-16.627 30.627 11.803 45.976 30.042 90.149 54.211 131.291 7.003 11.923 22.21 16.13 34.344 9.501 14.923-8.15 31.864-12.459 48.99-12.459 56.464 0 102.4 45.936 102.4 102.4 0 17.126-4.309 34.067-12.459 48.99-6.629 12.134-2.422 27.341 9.501 34.344 41.141 24.168 85.314 42.408 131.291 54.211 12.994 3.334 26.349-3.92 30.627-16.627 14.04-41.701 53.037-69.718 97.04-69.718s83 28.018 97.038 69.717c4.28 12.71 17.645 19.965 30.629 16.629 45.976-11.802 90.15-30.042 131.293-54.211 11.922-7.003 16.128-22.208 9.501-34.342C772.309 853.269 768 836.328 768 819.203c0-56.464 45.936-102.4 102.4-102.4 17.126 0 34.067 4.309 48.992 12.459 12.138 6.629 27.341 2.421 34.344-9.501 24.166-41.141 42.406-85.314 54.21-131.291 3.334-12.989-3.918-26.349-16.627-30.627-41.701-14.04-69.718-53.037-69.718-97.04s28.018-83 69.718-97.038c12.707-4.28 19.962-17.638 16.627-30.629-11.803-45.976-30.042-90.15-54.21-131.291-7.005-11.925-22.208-16.128-34.344-9.502-14.926 8.152-31.867 12.461-48.992 12.461-56.464 0-102.4-45.936-102.4-102.4 0-17.125 4.309-34.066 12.461-48.992 6.627-12.136 2.421-27.341-9.502-34.344-41.141-24.166-85.314-42.406-131.291-54.21-12.992-3.336-26.349 3.918-30.629 16.627-14.038 41.701-53.035 69.718-97.038 69.718s-83-28.018-97.04-69.718c-3.578-10.624-13.502-17.437-24.25-17.437zM512 102.4c57.715 0 109.693-32.138 135.917-82.029a458 458 0 0177.299 31.846 154.209 154.209 0 00-8.416 50.182c0 84.696 68.904 153.6 153.6 153.6 17.107 0 34.106-2.875 50.181-8.418a457.835 457.835 0 0131.846 77.299c-49.89 26.226-82.027 78.203-82.027 135.918s32.138 109.691 82.029 135.918a458.034 458.034 0 01-31.846 77.299 154.18 154.18 0 00-50.182-8.418c-84.696 0-153.6 68.904-153.6 153.6 0 17.107 2.875 34.106 8.418 50.181a457.835 457.835 0 01-77.299 31.846c-26.226-49.89-78.203-82.027-135.918-82.027s-109.691 32.138-135.917 82.027a457.752 457.752 0 01-77.299-31.846 154.158 154.158 0 008.416-50.181c0-84.696-68.904-153.6-153.6-153.6a154.107 154.107 0 00-50.181 8.418 457.738 457.738 0 01-31.846-77.299c49.89-26.227 82.027-78.203 82.027-135.918s-32.138-109.693-82.027-135.917a457.835 457.835 0 0131.846-77.299 154.194 154.194 0 0050.181 8.416c84.696 0 153.6-68.904 153.6-153.6 0-17.109-2.875-34.106-8.418-50.181a457.903 457.903 0 0177.299-31.846c26.227 49.89 78.203 82.027 135.918 82.027zm0 204.8c-84.696 0-153.6 68.904-153.6 153.6S427.304 614.4 512 614.4s153.6-68.904 153.6-153.6S596.696 307.2 512 307.2zm0 256c-56.464 0-102.4-45.936-102.4-102.4S455.536 358.4 512 358.4c56.464 0 102.4 45.936 102.4 102.4S568.464 563.2 512 563.2z" data-tags="gear"/><glyph unicode="" d="M793.6 870.4H614.4V896c0 42.347-34.453 76.8-76.8 76.8H435.2c-42.347 0-76.8-34.453-76.8-76.8v-25.6H179.2c-42.347 0-76.8-34.453-76.8-76.8v-51.2c0-33.373 21.403-61.829 51.2-72.397V25.6c0-42.349 34.453-76.8 76.8-76.8h512c42.349 0 76.8 34.451 76.8 76.8v644.403c29.797 10.568 51.2 39.024 51.2 72.397v51.2c0 42.347-34.451 76.8-76.8 76.8zm-384 25.6c0 14.115 11.485 25.6 25.6 25.6h102.4c14.115 0 25.6-11.485 25.6-25.6v-25.6H409.6V896zM742.4 0h-512c-14.115 0-25.6 11.485-25.6 25.6v640H768v-640C768 11.485 756.515 0 742.4 0zm76.8 742.4c0-14.115-11.485-25.6-25.6-25.6H179.2c-14.115 0-25.6 11.485-25.6 25.6v51.2c0 14.115 11.485 25.6 25.6 25.6h614.4c14.115 0 25.6-11.485 25.6-25.6v-51.2zM640 614.4c-14.139 0-25.6-11.462-25.6-25.6v-512c0-14.139 11.461-25.6 25.6-25.6s25.6 11.461 25.6 25.6v512c0 14.138-11.461 25.6-25.6 25.6zm-153.6 0c-14.138 0-25.6-11.462-25.6-25.6v-512c0-14.139 11.462-25.6 25.6-25.6S512 62.661 512 76.8v512c0 14.138-11.462 25.6-25.6 25.6zm-153.6 0c-14.138 0-25.6-11.462-25.6-25.6v-512c0-14.139 11.462-25.6 25.6-25.6s25.6 11.461 25.6 25.6v512c0 14.138-11.462 25.6-25.6 25.6z" data-tags="trash"/><glyph unicode="" d="M874.038 822.838C777.334 919.542 648.76 972.8 512 972.8s-265.334-53.258-362.038-149.962C53.258 726.134 0 597.56 0 460.8S53.258 195.466 149.962 98.762C246.666 2.058 375.24-51.2 512-51.2c80.33 0 157.243 18.085 228.606 53.752 68.026 33.998 128.746 83.774 175.598 143.95 8.688 11.157 6.685 27.24-4.47 35.926-11.157 8.686-27.238 6.686-35.926-4.47C787.75 64.862 655.147 0 512 0 257.914 0 51.2 206.714 51.2 460.8S257.914 921.6 512 921.6s460.8-206.714 460.8-460.8c0-90.437-52.635-153.6-128-153.6-70.579 0-128 57.421-128 128V640c0 14.138-11.461 25.6-25.6 25.6s-25.6-11.462-25.6-25.6v-43.898C628.043 638.688 573.109 665.6 512 665.6c-112.928 0-204.8-91.872-204.8-204.8C307.2 347.874 399.072 256 512 256c73.232 0 137.597 38.643 173.808 96.603C715.723 295.249 775.762 256 844.8 256c49.542 0 94.885 20.136 127.67 56.698C1006.18 350.29 1024 401.501 1024 460.8c0 136.76-53.258 265.334-149.962 362.038zM512 307.2c-84.696 0-153.6 68.904-153.6 153.6S427.304 614.4 512 614.4s153.6-68.904 153.6-153.6S596.696 307.2 512 307.2z" data-tags="at-sign, email"/><glyph unicode="" d="M896 768H76.8C34.453 768 0 733.547 0 691.2V230.4c0-42.349 34.453-76.8 76.8-76.8H896c42.349 0 76.8 34.451 76.8 76.8v460.8c0 42.347-34.451 76.8-76.8 76.8zm0-51.2c1.514 0 2.99-.158 4.434-.411l-385.632-257.09c-14.862-9.907-41.938-9.907-56.802 0L72.366 716.389a25.62 25.62 0 004.434.411H896zm0-512H76.8c-14.115 0-25.6 11.485-25.6 25.6v438.566l378.4-252.267c15.925-10.618 36.363-15.925 56.8-15.925s40.877 5.307 56.802 15.925L921.6 668.966V230.4c0-14.115-11.485-25.6-25.6-25.6z" data-tags="envelope, email, letter"/><glyph unicode="" d="M1017.429 503.526c-2.429 2.698-60.515 66.826-151.349 131.706-53.587 38.277-107.499 68.826-160.234 90.8C639.009 753.88 573.79 768 512 768s-127.01-14.12-193.846-41.97c-52.736-21.973-106.646-52.523-160.234-90.8C67.088 570.352 9 506.224 6.571 503.526c-8.763-9.736-8.763-24.515 0-34.251C9 466.576 67.088 402.448 157.92 337.568c53.587-38.277 107.498-68.827 160.234-90.8C384.991 218.92 450.21 204.8 512 204.8s127.01 14.12 193.846 41.968c52.734 21.973 106.645 52.523 160.234 90.8 90.834 64.88 148.92 129.008 151.349 131.706 8.762 9.736 8.762 24.517 0 34.253zm-373.64 190.831C690.247 655.283 716.8 598.434 716.8 537.6c0-112.926-91.874-204.8-204.8-204.8-112.928 0-204.8 91.874-204.8 204.8 0 60.835 26.554 117.685 73.014 156.757C422.321 708.101 466.816 716.8 512 716.8c45.186 0 89.682-8.699 131.789-22.443zm191.629-315.77C756.93 322.662 637.109 256 512 256s-244.93 66.662-323.416 122.587c-59.24 42.21-104.574 84.89-127.458 107.813 22.888 22.928 68.222 65.606 127.458 107.813 27.13 19.331 59.2 39.942 94.72 58.643C265.538 617.632 256 578.336 256 537.6c0-141.16 114.842-256 256-256 141.16 0 256 114.84 256 256 0 40.734-9.538 80.032-27.301 115.256 35.517-18.701 67.589-39.312 94.718-58.643 59.238-42.21 104.573-84.89 127.456-107.813-22.888-22.928-68.222-65.606-127.456-107.813z" data-tags="eye"/><glyph unicode="" d="M1017.429 503.526c-2.429 2.698-60.515 66.826-151.349 131.706-30.728 21.949-61.562 41.341-92.218 58.048l88.301 81.509c10.389 9.59 11.037 25.786 1.446 36.174-9.59 10.39-25.786 11.035-36.174 1.446L724.88 717.743a669.734 669.734 0 01-19.034 8.286c-66.837 27.85-132.056 41.97-193.846 41.97s-127.01-14.12-193.846-41.97c-52.736-21.973-106.646-52.523-160.234-90.8C67.088 570.351 9 506.223 6.571 503.525c-8.763-9.736-8.763-24.515 0-34.251C9 466.575 67.088 402.447 157.92 337.567c30.728-21.949 61.56-41.342 92.218-58.048l-88.301-81.509c-10.389-9.59-11.037-25.786-1.446-36.174 5.046-5.467 11.922-8.235 18.818-8.235a25.512 25.512 0 0117.358 6.789l102.555 94.667a678.142 678.142 0 0119.034-8.288c66.835-27.85 132.054-41.97 193.845-41.97s127.01 14.12 193.846 41.968c52.734 21.973 106.645 52.523 160.234 90.8 90.834 64.88 148.92 129.008 151.349 131.706 8.762 9.736 8.762 24.517 0 34.253zM716.8 537.6c0-112.926-91.872-204.8-204.8-204.8-36.384 0-70.573 9.549-100.218 26.253l286.294 264.272c12.203-26.486 18.723-55.614 18.723-85.725zm-73.013 156.757a206.792 206.792 0 0026.613-26.901l-300.397-277.29C331.312 427.443 307.2 479.756 307.2 537.6c0 60.835 26.552 117.683 73.013 156.757C422.322 708.101 466.815 716.8 512 716.8s89.68-8.699 131.787-22.443zm-455.203-315.77c-59.24 42.21-104.574 84.89-127.458 107.813 22.888 22.928 68.222 65.606 127.458 107.813 27.13 19.331 59.2 39.942 94.72 58.643C265.538 617.634 256 578.336 256 537.6c0-71.224 29.248-135.738 76.35-182.19l-42.248-38.997c-38.229 19.614-72.669 41.619-101.518 62.174zm646.834 0C756.93 322.662 637.109 256 512 256c-59.717 0-118.224 15.194-171.61 37.152l32.275 29.792C412.79 296.81 460.649 281.6 511.999 281.6c141.158 0 256 114.84 256 256 0 40.734-9.538 80.032-27.301 115.256 35.518-18.701 67.589-39.312 94.718-58.643 59.238-42.21 104.573-84.89 127.456-107.813-22.888-22.928-68.222-65.606-127.456-107.813z" data-tags="eye, block, forbidden"/><glyph unicode="" d="M691.2 665.6H588.8c-14.139 0-25.6 11.462-25.6 25.6v153.6c0 14.138 11.461 25.6 25.6 25.6h102.4c14.139 0 25.6-11.462 25.6-25.6V691.2c0-14.138-11.461-25.6-25.6-25.6zm-76.8 51.2h51.2v102.4h-51.2V716.8zm402.101 120.502l-128 128A25.601 25.601 0 01870.4 972.8H25.6C11.462 972.8 0 961.338 0 947.2V-25.6c0-14.139 11.462-25.6 25.6-25.6h972.8c14.139 0 25.6 11.461 25.6 25.6v844.8a25.6 25.6 0 01-7.499 18.102zM307.2 921.6H768V614.4H307.2v307.2zM819.2 0H204.8v409.6h614.4V0zm153.6 0H870.4v435.2c0 14.139-11.461 25.6-25.6 25.6H179.2c-14.138 0-25.6-11.461-25.6-25.6V0H51.2v921.6H256V588.8c0-14.138 11.462-25.6 25.6-25.6h512c14.139 0 25.6 11.462 25.6 25.6v332.8h40.595L972.8 808.597V0z" data-tags="floppy-disk, save"/><glyph unicode="" d="M947.2 768h-76.8v128c0 42.347-34.453 76.8-76.8 76.8H230.4c-42.347 0-76.8-34.453-76.8-76.8V768H76.8C34.453 768 0 733.547 0 691.2V230.4c0-42.349 34.453-76.8 76.8-76.8h76.8v-128c0-42.347 34.453-76.8 76.8-76.8h563.2c42.347 0 76.8 34.453 76.8 76.8v128h76.8c42.349 0 76.8 34.451 76.8 76.8v460.8c0 42.347-34.451 76.8-76.8 76.8zM204.8 896c0 14.115 11.485 25.6 25.6 25.6h563.2c14.115 0 25.6-11.485 25.6-25.6V768H204.8v128zM793.6 0H230.4c-14.115 0-25.6 11.485-25.6 25.6v332.8h614.4V25.6c0-14.115-11.485-25.6-25.6-25.6zm179.2 230.4c0-14.115-11.485-25.6-25.6-25.6h-76.8v153.6H896c14.139 0 25.6 11.461 25.6 25.6s-11.461 25.6-25.6 25.6H128c-14.138 0-25.6-11.461-25.6-25.6s11.462-25.6 25.6-25.6h25.6V204.8H76.8c-14.115 0-25.6 11.485-25.6 25.6v460.8c0 14.115 11.485 25.6 25.6 25.6h870.4c14.115 0 25.6-11.485 25.6-25.6V230.4zM742.4 256H281.6c-14.138 0-25.6 11.461-25.6 25.6s11.462 25.6 25.6 25.6h460.8c14.139 0 25.6-11.461 25.6-25.6S756.539 256 742.4 256zm0-102.4H281.6c-14.138 0-25.6 11.461-25.6 25.6s11.462 25.6 25.6 25.6h460.8c14.139 0 25.6-11.461 25.6-25.6s-11.461-25.6-25.6-25.6zm0-102.4H281.6c-14.138 0-25.6 11.461-25.6 25.6s11.462 25.6 25.6 25.6h460.8c14.139 0 25.6-11.461 25.6-25.6s-11.461-25.6-25.6-25.6zM844.8 512c-42.349 0-76.8 34.453-76.8 76.8s34.451 76.8 76.8 76.8 76.8-34.453 76.8-76.8-34.451-76.8-76.8-76.8zm0 102.4c-14.115 0-25.6-11.485-25.6-25.6s11.485-25.6 25.6-25.6 25.6 11.485 25.6 25.6-11.485 25.6-25.6 25.6z" data-tags="printer"/><glyph unicode="" d="M914.101 683.701l-230.4 230.4A25.594 25.594 0 01665.6 921.6H179.2c-42.347 0-76.8-34.453-76.8-76.8V25.6c0-42.349 34.453-76.8 76.8-76.8h665.6c42.349 0 76.8 34.451 76.8 76.8v640c0 6.79-2.698 13.301-7.499 18.101zM859.797 665.6H691.2c-14.115 0-25.6 11.485-25.6 25.6v168.597L859.797 665.6zm10.603-640c0-14.115-11.485-25.6-25.6-25.6H179.2c-14.115 0-25.6 11.485-25.6 25.6v819.2c0 14.115 11.485 25.6 25.6 25.6h435.2V691.2c0-42.347 34.451-76.8 76.8-76.8h179.2V25.6z" data-tags="file, paper, new"/><glyph unicode="" d="M947.2 614.4h-384c-4.386 0-12.189 4.822-14.152 8.747l-28.302 56.603c-10.56 21.122-36.331 37.05-59.946 37.05H102.4c-23.614 0-49.386-15.928-59.946-37.048L14.15 623.147C6.083 607.011 0 581.24 0 563.2V25.6c0-42.349 34.453-76.8 76.8-76.8h870.4c42.349 0 76.8 34.451 76.8 76.8v512c0 42.347-34.451 76.8-76.8 76.8zm25.6-588.8c0-14.115-11.485-25.6-25.6-25.6H76.8C62.685 0 51.2 11.485 51.2 25.6v537.6c0 10.053 4.25 28.058 8.746 37.048l28.304 56.605c1.962 3.925 9.765 8.747 14.15 8.747h358.4c4.386 0 12.189-4.822 14.152-8.747l28.302-56.603c10.562-21.122 36.331-37.05 59.946-37.05h384c14.115 0 25.6-11.485 25.6-25.6v-512z" data-tags="folder"/><glyph unicode="" d="M896 870.4H435.2c-42.347 0-76.8-34.453-76.8-76.8V640c0-14.138 11.462-25.6 25.6-25.6s25.6 11.462 25.6 25.6v153.6c0 14.115 11.485 25.6 25.6 25.6h387.278l-196.702-84.301C590.688 719.861 563.2 678.176 563.2 640V153.6h-128c-14.115 0-25.6 11.485-25.6 25.6v153.6c0 14.139-11.462 25.6-25.6 25.6s-25.6-11.461-25.6-25.6V179.2c0-42.347 34.453-76.8 76.8-76.8h128V25.6c0-22.181 9.234-40.99 25.331-51.606 8.886-5.861 19.243-8.814 30.171-8.814 8.867 0 18.109 1.946 27.242 5.859L910.221 84.3c35.091 15.038 62.579 56.723 62.579 94.901v614.4c0 42.347-34.451 76.8-76.8 76.8zm25.6-691.2c0-17.963-15.035-40.765-31.546-47.838L625.777 18.101c-4.912-2.107-8.163-1.955-9.062-1.363-.894.59-2.315 3.518-2.315 8.862V640c0 17.962 15.035 40.763 31.546 47.838l273.043 117.019a25.44 25.44 0 002.611-11.258v-614.4zM427.701 504.501l-153.6 153.6c-9.997 9.998-26.206 9.998-36.203 0s-9.998-26.206 0-36.203L347.797 512H25.6C11.462 512 0 500.538 0 486.4s11.462-25.6 25.6-25.6h322.197L237.899 350.901c-9.998-9.997-9.998-26.206 0-36.203 4.998-4.998 11.549-7.498 18.101-7.498s13.102 2.499 18.101 7.499l153.6 153.6c9.998 9.997 9.998 26.205 0 36.202z" data-tags="enter, sign-in, log-in, door"/><glyph unicode="" d="M874.038 822.838C777.334 919.542 648.76 972.8 512 972.8s-265.334-53.258-362.038-149.962C53.258 726.134 0 597.56 0 460.8S53.258 195.466 149.962 98.762C246.666 2.058 375.24-51.2 512-51.2S777.334 2.058 874.038 98.762C970.742 195.466 1024 324.04 1024 460.8s-53.258 265.334-149.962 362.038zm67.88-196.216c-9.989 17.987-35.05 26.512-67.853 37.661-35.182 11.957-47.608 48.122-61.994 89.997-12.49 36.35-25.398 73.874-56.069 97.238 83.898-52.584 149.733-131.406 185.915-224.896zM798.235 451.043c3.872-34.683 7.875-70.546-35.163-118.874-11.629-13.056-18.44-31.238-25.653-50.49-16.701-44.582-32.486-86.709-99.642-87.325-1.882 2.262-7.242 10.734-11.981 37.533-4.366 24.698-6.886 56.606-9.555 90.389-4.093 51.834-8.731 110.582-21.544 159.32-16.382 62.325-43.867 99.141-84.026 112.554-17.522 5.853-35.411 8.698-54.693 8.698-14.211 0-27.125-1.522-38.517-2.864-8.875-1.045-17.258-2.034-24.341-2.034h-.003c-11.987 0-25.573 0-42.278 38.29-24.021 55.053-6.304 143.267 64.202 189.787 38.661 25.509 65.336 36.392 89.2 36.392 19.026 0 39.581-6.622 68.73-22.146 34.418-18.33 61.379-20.68 81.026-20.68 7.789 0 14.85.419 21.682.826 5.726.339 11.134.661 16.139.661 11.259 0 20.387-1.467 31.088-8.776 19.723-13.472 29.936-43.195 40.747-74.664 16.392-47.715 34.973-101.798 93.941-121.837 7.925-2.693 21.576-7.333 31.216-11.366-8.328-8.608-22.285-21.067-35.92-33.24-8.808-7.862-18.789-16.773-29.851-26.858-31.965-29.133-28.16-63.221-24.803-93.296zM51.25 464.73a554.147 554.147 0 0017.605-3.446c28.776-6.141 42.235-11.686 48.117-14.798-2.706-5.277-8.187-13.056-11.81-18.195-12.669-17.976-28.435-40.349-22.437-64.984 4.046-16.618.632-37.032-5.248-55.883C60.483 355.429 51.2 407.048 51.2 460.802c0 1.314.038 2.618.05 3.93zM512 0C336.621 0 183.827 98.494 105.986 243.062c13.422 25.554 38.314 82.054 26.68 131.547.806 4.97 9.248 16.95 14.349 24.186 13.874 19.688 31.141 44.189 18.35 70.152-8.976 18.222-32.957 30.534-80.181 41.17-10.939 2.464-21.594 4.47-30.65 6.019C81.958 744.226 276.641 921.6 512 921.6c80.776 0 156.749-20.918 222.83-57.582-16.33 7.134-31.154 8.266-43.014 8.266-6.523 0-12.957-.382-19.176-.752-6.085-.362-12.374-.734-18.645-.734-14.542 0-32.682 1.742-56.958 14.67-37.056 19.734-64.808 28.155-92.795 28.155-34.635 0-69.744-13.414-117.397-44.856-41.197-27.181-72.229-68.779-87.381-117.133-14.779-47.166-13.2-95.418 4.448-135.867 20.824-47.728 48.336-69.013 89.203-69.014h.006c10.09 0 19.923 1.158 30.333 2.386 10.482 1.235 21.32 2.512 32.525 2.512 13.869 0 26.094-1.926 38.472-6.061 22.488-7.512 39.082-32.701 50.728-77.008 11.648-44.31 16.098-100.638 20.021-150.334 3.274-41.454 6.366-80.61 13.176-110.126 4.136-17.923 9.494-31.538 16.379-41.621 10.283-15.058 25.032-23.35 41.526-23.35 45.269 0 81.429 14.594 107.47 43.374 21.659 23.934 32.722 53.466 41.613 77.194 5.245 14.003 10.67 28.482 15.941 34.402 58.219 65.373 52.203 119.258 47.813 158.603-3.226 28.888-3.285 39.123 8.408 49.781 10.864 9.904 20.741 18.722 29.454 26.499 18.568 16.576 31.984 28.554 41.397 38.83 6.464 7.058 21.603 23.584 17.395 44.28-.037.184-.088.358-.126.539 17.558-48.701 27.154-101.174 27.154-155.851C972.8 206.716 766.086.002 512 .002z" data-tags="earth, globe, international, language"/><glyph unicode="" d="M935.264 315.475C861.939 388.8 822.596 493.351 784.547 594.459c-28.231 75.017-54.894 145.873-94.112 199.868-46.4 63.882-104.766 94.936-178.436 94.936s-132.036-31.054-178.436-94.936c-39.219-53.996-65.883-124.853-94.112-199.868C201.403 493.351 162.059 388.8 88.733 315.475c-21.379-21.379-15.992-42.271-12.684-50.259 8.763-21.157 34.524-44.992 159.152-61.369 34.052-4.474 73.024-8.028 115.181-10.575a163.196 163.196 0 01-.067-4.642c0-89.154 72.531-161.684 161.684-161.684S673.683 99.477 673.683 188.63c0 1.547-.023 3.096-.067 4.642 42.158 2.548 81.131 6.102 115.181 10.575 124.626 16.377 150.388 40.213 159.152 61.369 3.309 7.989 8.697 28.879-12.685 50.259zM619.789 188.632c0-59.436-48.354-107.789-107.789-107.789s-107.789 48.354-107.789 107.789c0 .668.044 1.336.056 2.004 34.676-1.319 70.853-2.004 107.734-2.004 36.879 0 73.058.685 107.734 2.004.014-.668.056-1.336.056-2.004zm151.223 67.29c-70.934-8.638-162.92-13.396-259.012-13.396s-188.076 4.758-259.013 13.396c-76.798 9.354-108.377 20.621-120.764 26.927 78.099 81.177 120.322 193.378 157.671 292.628 60.637 161.134 103.804 259.891 222.107 259.891 118.301 0 161.471-98.757 222.107-259.891 37.349-99.251 79.571-211.451 157.671-292.628-12.387-6.305-43.966-17.573-120.766-26.927z" data-tags="bell, notification"/><glyph unicode="" d="M1013.771 762.87a25.594 25.594 0 01-22.509 4.115c-7.088-2.058-710.805-205.77-888.933-205.77-10.8 0-17.114.81-20.509 1.488-15.458 3.091-34.41 15.941-40.368 20.598-7.701 6.072-18.197 7.213-27.022 2.933S0 573.007 0 563.199v-204.8a25.6 25.6 0 0141.452-20.1c5.522 4.354 24.787 17.483 40.368 20.597 3.395.682 9.709 1.491 20.509 1.491 35.685 0 92.491-8.186 160.558-21.285l-6.501-29.326c-4.429-19.971-.786-40.518 10.259-57.853 11.043-17.334 28.125-29.32 48.098-33.749l149.958-33.245a76.877 76.877 0 0116.635-1.83c35.21 0 67.037 24.421 74.968 60.186l6.062 27.349C780.177 215.72 987.428 155.73 991.26 154.615a25.596 25.596 0 0122.51 4.114 25.605 25.605 0 0110.227 20.47v563.2a25.596 25.596 0 01-10.229 20.47zM506.32 254.366c-3.056-13.779-16.746-22.51-30.536-19.45l-149.958 33.243c-6.621 1.467-12.302 5.47-15.998 11.272-3.696 5.8-4.923 12.64-3.454 19.261l6.718 30.301c62.069-12.989 130.618-28.984 199.582-45.971l-6.354-28.656zm466.48-41.172c-143.746 41.029-705.821 198.392-870.47 198.392-12.203 0-22.197-.813-30.549-2.483-7.048-1.411-14.01-3.691-20.579-6.387v116.166c6.57-2.699 13.531-4.978 20.579-6.387 8.354-1.67 18.346-2.482 30.549-2.482 164.701 0 726.736 157.363 870.47 198.392V213.194z" data-tags="bullhorn"/><glyph unicode="" d="M6.548 387.854c5.26-5.265 12.155-7.896 19.052-7.896s13.792 2.631 19.052 7.893l61.931 61.928c2.767-111.038 47.312-215.021 126.142-293.853C314.16 74.491 422.434 29.642 537.601 29.642c160.293 0 306.444 88.104 381.415 229.935 6.956 13.157 1.928 29.46-11.231 36.418-13.156 6.953-29.46 1.926-36.418-11.232C805.755 160.642 677.865 83.537 537.601 83.537c-204.225 0-371.052 163.122-377.076 365.915l61.602-61.602c10.523-10.523 27.585-10.523 38.108 0s10.523 27.587 0 38.108L152.446 533.747c-10.523 10.523-27.585 10.523-38.108 0L6.549 425.958c-10.524-10.523-10.524-27.584.002-38.105zm162.763 241.938c13.08-7.107 29.438-2.26 36.542 10.816C272.017 762.404 399.135 838.063 537.6 838.063c204.227 0 371.052-163.122 377.08-365.915l-61.602 61.602c-10.526 10.523-27.585 10.523-38.112 0-10.523-10.523-10.523-27.587 0-38.108l107.789-107.789c5.263-5.263 12.16-7.896 19.055-7.896s13.792 2.631 19.055 7.896l107.789 107.789c10.523 10.521 10.523 27.585 0 38.108-10.526 10.523-27.585 10.523-38.112 0l-61.926-61.928c-2.768 111.038-47.312 215.021-126.142 293.853-81.435 81.437-189.707 126.284-304.874 126.284-158.238 0-303.503-86.454-379.105-225.622-7.104-13.08-2.263-29.438 10.816-36.544z" horiz-adv-x="1075" data-tags="sync, arrows, loading"/><glyph unicode="" d="M830.338 779.136C738.469 871.005 616.322 921.6 486.4 921.6s-252.067-50.595-343.936-142.464C50.595 687.267 0 565.122 0 435.2S50.595 183.131 142.464 91.262 356.478-51.2 486.4-51.2 738.469-.606 830.338 91.262 972.8 305.278 972.8 435.2s-50.594 252.067-142.462 343.936zM486.4 0C246.43 0 51.2 195.23 51.2 435.2s195.23 435.2 435.2 435.2 435.2-195.23 435.2-435.2S726.37 0 486.4 0zm288.214 601.6c-7.07 12.245-22.728 16.435-34.97 9.37l-251.92-145.445-196.342 137.482c-11.582 8.11-27.546 5.294-35.654-6.286s-5.294-27.544 6.286-35.654l209.702-146.835c.051-.035.106-.066.158-.101a26.25 26.25 0 011.31-.843c.118-.072.237-.147.357-.216a25.48 25.48 0 011.363-.734c.11-.056.219-.118.33-.171a25.646 25.646 0 011.581-.701c.315-.126.634-.234.95-.35.234-.085.467-.17.702-.246.346-.112.691-.213 1.038-.309a23.867 23.867 0 012.419-.552c.331-.058.661-.115.992-.16.299-.042.6-.072.901-.101.274-.029.546-.061.819-.08a26.57 26.57 0 011.786-.066c.971 0 1.944.062 2.917.174.024.003.05.005.074.006.946.112 1.888.285 2.824.502.069.018.139.032.208.048.883.214 1.758.48 2.626.794.128.045.253.094.379.142.813.307 1.619.653 2.41 1.051.162.08.317.17.477.254.286.15.576.294.859.458l266.043 153.6c12.248 7.069 16.443 22.725 9.374 34.97z" data-tags="clock"/><glyph unicode="" d="M834.583 729.487C754.442 809.628 649.83 856.389 537.6 862.856v54.701h26.947c14.883 0 26.947 12.065 26.947 26.947s-12.064 26.947-26.947 26.947H456.758c-14.882 0-26.947-12.065-26.947-26.947s12.065-26.947 26.947-26.947h26.947v-54.701c-112.229-6.467-216.84-53.227-296.982-133.371-86.524-86.524-134.176-201.564-134.176-323.927s47.652-237.406 134.176-323.931C273.249-4.896 388.289-52.548 510.652-52.548S748.058-4.896 834.583 81.627c86.523 86.524 134.175 201.566 134.175 323.931s-47.652 237.403-134.175 323.929zM510.653 1.347c-222.882 0-404.211 181.327-404.211 404.211 0 222.882 181.328 404.211 404.211 404.211s404.211-181.328 404.211-404.211S733.537 1.347 510.653 1.347zm0 377.264c-14.882 0-26.947 12.064-26.947 26.947v323.368c0 14.882 12.065 26.947 26.947 26.947s26.947-12.065 26.947-26.947V405.558c0-14.883-12.065-26.947-26.947-26.947z" data-tags="timer"/><glyph unicode="" d="M760.499 427.699c-9.995 9.997-26.206 9.997-36.203 0L512 215.405V793.6c0 14.138-11.462 25.6-25.6 25.6s-25.6-11.462-25.6-25.6V215.405L248.502 427.699c-9.998 9.997-26.206 9.997-36.205 0-9.997-9.995-9.997-26.206 0-36.203l256-256c5-4.997 11.55-7.496 18.102-7.496s13.102 2.499 18.102 7.501l256 256c9.997 9.995 9.997 26.203-.003 36.198zM896-51.2H76.8C34.453-51.2 0-16.749 0 25.6V128c0 14.139 11.462 25.6 25.6 25.6s25.6-11.461 25.6-25.6V25.6C51.2 11.485 62.685 0 76.8 0H896c14.115 0 25.6 11.485 25.6 25.6V128c0 14.139 11.461 25.6 25.6 25.6s25.6-11.461 25.6-25.6V25.6c0-42.349-34.451-76.8-76.8-76.8z" data-tags="download"/><glyph unicode="" d="M990.901-7.499L660.767 322.635c69.2 71.886 107.234 166.098 107.234 266.165 0 102.57-39.942 199-112.47 271.53S486.573 972.8 384.001 972.8c-102.57 0-199-39.942-271.53-112.47S.001 691.37.001 588.8c0-102.571 39.942-199.002 112.47-271.53s168.96-112.47 271.53-112.47c87.858 0 171.195 29.33 238.882 83.315L954.701-43.703c4.998-4.998 11.549-7.498 18.101-7.498s13.102 2.499 18.101 7.499c9.998 9.997 9.998 26.205 0 36.202zM51.2 588.8c0 183.506 149.294 332.8 332.8 332.8s332.8-149.294 332.8-332.8S567.506 256 384 256 51.2 405.294 51.2 588.8z" data-tags="magnifier, search, lookup"/><glyph unicode="" d="M281.6-25.6a25.517 25.517 0 00-18.102 7.499l-256 256c-9.997 9.997-9.997 26.206 0 36.203s26.206 9.997 36.205 0L281.601 36.204 980.3 734.902c9.997 9.997 26.206 9.997 36.203 0s9.998-26.206 0-36.205l-716.8-716.8a25.524 25.524 0 00-18.102-7.498z" data-tags="checkmark"/><glyph unicode="" d="M902.373 91.301l-362.36 362.361 342.551 342.551c7.736 7.736 7.736 20.278 0 28.015-7.735 7.735-20.278 7.735-28.013 0L512 481.676 169.449 824.228c-7.736 7.735-20.278 7.735-28.015 0-7.735-7.736-7.735-20.278 0-28.015l342.552-342.551L121.625 91.301c-7.735-7.735-7.735-20.278 0-28.013 3.868-3.867 8.937-5.803 14.007-5.803s10.138 1.933 14.007 5.803l362.36 362.36L874.36 63.287c3.867-3.867 8.937-5.803 14.006-5.803s10.138 1.933 14.006 5.803c7.736 7.735 7.736 20.277 0 28.012z" data-tags="cross"/><glyph unicode="" d="M0 204.8a25.513 25.513 0 017.499-18.101c9.997-9.998 26.206-9.998 36.203 0L486.4 629.397l442.699-442.698c9.997-9.998 26.206-9.998 36.203 0s9.998 26.206 0 36.203l-460.8 460.8c-9.997 9.998-26.206 9.998-36.203 0l-460.8-460.8c-5-5-7.499-11.55-7.499-18.102z" data-tags="chevron-up, arrow-up"/><glyph unicode="" d="M0 665.6a25.513 25.513 0 007.499 18.101c9.997 9.998 26.206 9.998 36.203 0L486.4 241.003l442.699 442.698c9.997 9.998 26.206 9.998 36.203 0s9.998-26.206 0-36.203l-460.8-460.8c-9.997-9.998-26.206-9.998-36.203 0l-460.8 460.8c-5 5-7.499 11.55-7.499 18.102z" data-tags="chevron-down, arrow-down"/><glyph unicode="" d="M716.8-51.2a25.513 25.513 0 0118.101 7.499c9.998 9.997 9.998 26.206 0 36.203L292.203 435.2l442.698 442.699c9.998 9.997 9.998 26.206 0 36.203s-26.206 9.998-36.203 0l-460.8-460.8c-9.998-9.997-9.998-26.206 0-36.203l460.8-460.8c5-5 11.55-7.499 18.102-7.499z" data-tags="chevron-left, arrow-left"/><glyph unicode="" d="M256-51.2a25.513 25.513 0 00-18.101 7.499c-9.998 9.997-9.998 26.206 0 36.203L680.597 435.2 237.899 877.899c-9.998 9.997-9.998 26.206 0 36.203s26.206 9.998 36.203 0l460.8-460.8c9.998-9.997 9.998-26.206 0-36.203l-460.8-460.8c-5-5-11.55-7.499-18.102-7.499z" data-tags="chevron-right, arrow-right"/><glyph unicode="" d="M468.299 888.501l-307.2-307.2c-9.997-9.997-9.997-26.206 0-36.203s26.206-9.998 36.205 0L460.8 808.596V-25.599c0-14.138 11.461-25.6 25.6-25.6s25.6 11.462 25.6 25.6v834.195L775.499 545.1c9.997-9.998 26.206-9.998 36.203 0 4.998 4.998 7.498 11.549 7.498 18.101s-2.499 13.102-7.499 18.101l-307.2 307.2c-9.997 9.998-26.205 9.998-36.202 0z" data-tags="arrow-up"/><glyph unicode="" d="M504.501-18.101l307.2 307.2c9.997 9.997 9.997 26.206 0 36.203-9.998 9.998-26.206 9.998-36.205 0L512 61.804v834.195c0 14.138-11.461 25.6-25.6 25.6s-25.6-11.462-25.6-25.6V61.804L197.301 325.3c-9.997 9.998-26.206 9.998-36.203 0-4.998-4.998-7.498-11.549-7.498-18.101s2.499-13.102 7.499-18.101l307.2-307.2c9.997-9.998 26.205-9.998 36.202 0z" data-tags="arrow-down"/><glyph unicode="" d="M33.099 453.301l307.2 307.2c9.997 9.997 26.206 9.997 36.203 0 9.998-9.998 9.998-26.206 0-36.205L113.004 460.8h834.195c14.138 0 25.6-11.461 25.6-25.6s-11.462-25.6-25.6-25.6H113.004L376.5 146.101c9.998-9.997 9.998-26.206 0-36.203-4.998-4.998-11.549-7.498-18.101-7.498s-13.102 2.499-18.101 7.499l-307.2 307.2c-9.998 9.997-9.998 26.205 0 36.202z" data-tags="arrow-left"/><glyph unicode="" d="M939.701 453.301l-307.2 307.2c-9.997 9.997-26.206 9.997-36.203 0-9.998-9.998-9.998-26.206 0-36.205L859.796 460.8H25.601c-14.138 0-25.6-11.461-25.6-25.6s11.462-25.6 25.6-25.6h834.195L596.3 146.101c-9.998-9.997-9.998-26.206 0-36.203 4.998-4.998 11.549-7.498 18.101-7.498s13.102 2.499 18.101 7.499l307.2 307.2c9.998 9.997 9.998 26.205 0 36.202z" data-tags="arrow-right"/><glyph unicode="" d="M1136.009 688.484L937.503 886.99c-12.92 12.921-33.867 12.921-46.786 0s-12.921-33.867 0-46.786l142.028-142.027H87.002c-18.271 0-33.083-14.812-33.083-33.083s14.813-33.083 33.083-33.083h945.743L890.717 489.983c-12.921-12.92-12.921-33.867 0-46.786 6.462-6.459 14.927-9.689 23.395-9.689s16.933 3.229 23.394 9.691l198.506 198.506c12.921 12.92 12.921 33.866 0 46.785zm-56.475-387.32H133.791l142.027 142.028c12.921 12.92 12.921 33.867 0 46.786s-33.867 12.92-46.786 0L30.526 291.472c-12.921-12.92-12.921-33.867 0-46.786L229.032 46.18c6.462-6.462 14.927-9.691 23.395-9.691s16.933 3.229 23.394 9.691c12.921 12.92 12.921 33.867 0 46.786L133.794 234.993h945.743c18.273 0 33.083 14.812 33.083 33.083s-14.812 33.083-33.083 33.083z" horiz-adv-x="1152" data-tags="tab, switch, arrows"/><glyph unicode="" d="M947.2-51.2H25.6A25.6 25.6 0 003.287-13.049l460.8 819.2a25.6 25.6 0 0044.626 0l460.8-819.2A25.602 25.602 0 00947.201-51.2zM69.371 0h834.056L486.4 741.382 69.371 0zM486.4 204.8c-14.138 0-25.6 11.461-25.6 25.6v256c0 14.138 11.462 25.6 25.6 25.6s25.6-11.462 25.6-25.6v-256c0-14.139-11.462-25.6-25.6-25.6zm0-153.6c-14.138 0-25.6 11.461-25.6 25.6V128c0 14.139 11.462 25.6 25.6 25.6S512 142.139 512 128V76.8c0-14.139-11.462-25.6-25.6-25.6z" data-tags="warning, exclamation, notice"/><glyph unicode="" d="M830.338 779.136C738.469 871.005 616.322 921.6 486.4 921.6s-252.067-50.595-343.936-142.464S0 565.122 0 435.2 50.595 183.131 142.464 91.262 356.478-51.2 486.4-51.2 738.469-.606 830.338 91.262 972.8 305.278 972.8 435.2s-50.594 252.067-142.462 343.936zM486.4 0C246.43 0 51.2 195.23 51.2 435.2s195.23 435.2 435.2 435.2 435.2-195.23 435.2-435.2S726.37 0 486.4 0zM332.8 179.2a25.507 25.507 0 00-18.101 7.501l-140.12 140.117c-9.998 9.997-9.998 26.208 0 36.205s26.206 9.997 36.203 0L332.8 241.004l387.718 387.72c9.997 9.997 26.206 9.997 36.203 0 9.998-9.998 9.998-26.206 0-36.203L350.902 186.702a25.51 25.51 0 00-18.102-7.501z" data-tags="circle-checkmark"/><glyph unicode="" d="M830.338 779.136C738.469 871.005 616.322 921.6 486.4 921.6s-252.067-50.595-343.936-142.464S0 565.122 0 435.2 50.595 183.131 142.464 91.262 356.478-51.2 486.4-51.2 738.469-.606 830.338 91.262 972.8 305.278 972.8 435.2s-50.594 252.067-142.462 343.936zM486.4 0C246.43 0 51.2 195.23 51.2 435.2s195.23 435.2 435.2 435.2 435.2-195.23 435.2-435.2S726.37 0 486.4 0zm248.125 248.88L522.603 460.8l186.322 186.323c9.998 9.997 10 26.206 0 36.202-9.997 9.998-26.206 9.998-36.203 0L486.4 497.003 300.078 683.326c-9.997 9.998-26.205 9.997-36.203 0s-9.997-26.205 0-36.203L450.198 460.8 238.273 248.88c-9.998-9.997-9.998-26.206 0-36.203 5-5 11.552-7.501 18.101-7.499a25.51 25.51 0 0118.101 7.499L486.4 424.597l211.922-211.92a25.523 25.523 0 0118.099-7.501 25.507 25.507 0 0118.101 7.501c10.002 9.995 10 26.205.003 36.203z" data-tags="circle-cross, cancel"/><glyph unicode="" d="M830.338 779.136C738.469 871.005 616.322 921.6 486.4 921.6s-252.067-50.595-343.936-142.464S0 565.122 0 435.2 50.595 183.131 142.464 91.262 356.478-51.2 486.4-51.2 738.469-.606 830.338 91.262 972.8 305.278 972.8 435.2s-50.594 252.067-142.462 343.936zM486.4 0C246.43 0 51.2 195.23 51.2 435.2s195.23 435.2 435.2 435.2 435.2-195.23 435.2-435.2S726.37 0 486.4 0zm307.2 460.8H512v281.6c0 14.138-11.462 25.6-25.6 25.6s-25.6-11.462-25.6-25.6V460.8H179.2c-14.138 0-25.6-11.461-25.6-25.6s11.462-25.6 25.6-25.6h281.6V128c0-14.139 11.462-25.6 25.6-25.6S512 113.861 512 128v281.6h281.6c14.139 0 25.6 11.461 25.6 25.6s-11.461 25.6-25.6 25.6z" data-tags="circle-plus, add"/><glyph unicode="" d="M830.338 779.136C738.469 871.005 616.322 921.6 486.4 921.6s-252.067-50.595-343.936-142.464S0 565.122 0 435.2 50.595 183.131 142.464 91.262 356.478-51.2 486.4-51.2 738.469-.606 830.338 91.262 972.8 305.278 972.8 435.2s-50.594 252.067-142.462 343.936zM486.4 0C246.43 0 51.2 195.23 51.2 435.2s195.23 435.2 435.2 435.2 435.2-195.23 435.2-435.2S726.37 0 486.4 0zm307.2 409.6H179.2c-14.138 0-25.6 11.461-25.6 25.6s11.462 25.6 25.6 25.6h614.4c14.139 0 25.6-11.461 25.6-25.6s-11.461-25.6-25.6-25.6z" data-tags="circle-minus, remove"/><glyph unicode="" d="M847.754 814.973c-21.362 14.428-51.147 27.161-88.533 37.842-73.597 21.027-170.966 32.608-274.169 32.608-103.205 0-200.573-11.581-274.169-32.608-37.384-10.681-67.172-23.414-88.531-37.842-34.309-23.175-41.511-47.751-41.511-64.286V723.74c0-23.046 17.317-61.08 34.422-86.737L378.84 241.637c13.514-20.273 25.369-59.427 25.369-83.792V-3.839a26.946 26.946 0 0138.998-24.103l107.789 53.895a26.944 26.944 0 0114.897 24.103v107.789c0 24.364 11.855 63.518 25.367 83.792l263.579 395.366c17.106 25.656 34.422 63.688 34.422 86.737v26.947c0 16.536-7.202 41.112-41.509 64.286zm-622.065-13.977c68.916 19.691 161.025 30.533 259.363 30.533s190.447-10.843 259.362-30.533c74.245-21.215 90.954-43.998 90.954-50.309s-16.709-29.095-90.954-50.309c-68.915-19.691-161.024-30.533-259.362-30.533s-190.447 10.843-259.363 30.533c-74.243 21.215-90.953 43.998-90.953 50.309s16.709 29.095 90.953 50.309zm320.733-529.465C527.119 242.579 512 192.64 512 157.845V66.71l-53.895-26.947v118.082c0 34.796-15.119 84.733-34.422 113.686L160.674 666.047c14.774-6.313 31.543-12.157 50.209-17.488 73.597-21.027 170.964-32.608 274.169-32.608 103.203 0 200.573 11.581 274.167 32.608 18.666 5.334 35.438 11.178 50.213 17.491L546.42 271.532z" data-tags="funnel, filter"/><glyph unicode="" d="M670.412 713.325H562.07l22.861 137.165c2.576 15.453-7.865 30.067-23.317 32.644-15.436 2.577-30.065-7.865-32.641-23.317l-24.418-146.493H278.413l22.861 137.165c2.576 15.453-7.865 30.067-23.317 32.644-15.433 2.577-30.065-7.865-32.641-23.317l-24.418-146.493H103.099c-15.665 0-28.365-12.7-28.365-28.365s12.7-28.365 28.365-28.365h108.344l-47.277-283.657H46.367c-15.665 0-28.365-12.699-28.365-28.365s12.7-28.365 28.365-28.365h108.344L131.85 179.041c-2.576-15.453 7.865-30.065 23.317-32.641a28.706 28.706 0 014.698-.393c13.616 0 25.633 9.834 27.945 23.708l24.415 146.491H438.37l-22.863-137.165c-2.576-15.453 7.865-30.065 23.317-32.641a28.654 28.654 0 014.696-.393c13.616 0 25.633 9.834 27.945 23.708l24.416 146.491H613.68c15.666 0 28.365 12.699 28.365 28.365s-12.699 28.365-28.365 28.365H505.336l47.277 283.657h117.799c15.666 0 28.365 12.7 28.365 28.365s-12.699 28.365-28.365 28.365zM447.823 372.938H221.68l47.277 283.657H495.1l-47.277-283.657z" horiz-adv-x="717" data-tags="#"/><glyph unicode="" d="M537.699 460.512c-41.55 24.238-95.406 37.702-147.49 50.723-115.363 28.842-185.41 51.899-185.41 128.765 0 17.578 3.72 51.198 28.629 78.874C262.766 751.472 313.425 768 383.999 768c117.798 0 189.96-46.48 190.6-46.901 11.763-7.842 27.656-4.664 35.501 7.101 7.843 11.763 4.664 27.658-7.101 35.501-3.176 2.118-74.501 48.76-193.4 54.842v77.458c0 14.138-11.461 25.6-25.6 25.6s-25.6-11.462-25.6-25.6v-77.51c-72.832-4.078-127.606-26.006-163.029-65.363-36.344-40.384-41.771-88.211-41.771-113.126 0-55.056 25.806-98.024 76.701-127.712 41.55-24.238 95.406-37.702 147.491-50.723 115.362-28.842 185.408-51.899 185.408-128.765 0-17.578-3.718-51.198-28.629-78.875-29.338-32.597-79.997-49.125-150.571-49.125-117.274 0-189.315 46.067-190.661 46.941-11.757 7.792-27.61 4.605-35.44-7.141-7.842-11.765-4.664-27.658 7.101-35.501 3.178-2.118 74.501-48.762 193.4-54.843V76.802c0-14.139 11.462-25.6 25.6-25.6s25.6 11.461 25.6 25.6v77.51c72.83 4.078 127.608 26.008 163.029 65.365 36.344 40.382 41.771 88.21 41.771 113.125 0 55.054-25.806 98.024-76.701 127.712z" horiz-adv-x="717" data-tags="$"/><glyph unicode="" d="M127.981 153.598a25.484 25.484 0 00-15.341 5.122c-11.31 8.483-13.603 24.528-5.12 35.838l460.8 614.4c8.482 11.31 24.53 13.605 35.838 5.12 11.31-8.483 13.603-24.53 5.12-35.84l-460.8-614.4c-5.027-6.704-12.715-10.24-20.498-10.24zm409.619.002c-55.09 0-92.939 19.834-112.498 58.952C409.6 243.557 409.6 280.341 409.6 307.2s0 63.643 15.502 94.648C444.66 440.966 482.51 460.8 537.6 460.8s92.939-19.834 112.499-58.952c15.502-31.005 15.502-67.789 15.502-94.648s0-63.643-15.502-94.648c-19.56-39.118-57.41-58.952-112.499-58.952zm0 256c-71.454 0-76.8-40.546-76.8-102.4s5.346-102.4 76.8-102.4c71.456 0 76.802 40.546 76.802 102.4s-5.346 102.4-76.802 102.4zM179.2 512c-55.09 0-92.939 19.834-112.498 58.952C51.2 601.957 51.2 638.741 51.2 665.6s0 63.643 15.502 94.648C86.26 799.366 124.11 819.2 179.2 819.2s92.939-19.834 112.499-58.95c15.502-31.005 15.502-67.79 15.502-94.65s0-63.643-15.502-94.65C272.139 531.833 234.289 512 179.2 512zm0 256c-71.454 0-76.8-40.544-76.8-102.4s5.346-102.4 76.8-102.4c71.456 0 76.802 40.544 76.802 102.4S250.656 768 179.2 768z" horiz-adv-x="717" data-tags="#"/><glyph unicode="" d="M707.733 486.4H423.398v284.335c0 22.433-18.186 40.617-40.617 40.617s-40.617-18.187-40.617-40.617V486.4H57.829c-22.433 0-40.617-18.186-40.617-40.617s18.187-40.617 40.617-40.617h284.335V120.831c0-22.435 18.187-40.617 40.617-40.617 22.435 0 40.617 18.186 40.617 40.617v284.335h284.335c22.435 0 40.617 18.186 40.617 40.617S730.164 486.4 707.733 486.4z" horiz-adv-x="768" data-tags="+"/><glyph unicode="" d="M627.139 89.646L357.665 736.383a26.95 26.95 0 01-49.75 0L38.441 89.646c-5.724-13.738.772-29.514 14.509-35.24 13.738-5.723 29.516.773 35.239 14.509l82.917 198.998h323.368l82.915-198.996c4.314-10.349 14.333-16.589 24.886-16.589 3.455 0 6.966.667 10.353 2.078 13.74 5.726 20.236 21.502 14.513 35.24zM193.561 321.808l139.228 334.147 139.227-334.147H193.56z" horiz-adv-x="666" data-tags="A"/><glyph unicode="" d="M384 153.6c-108.958 0-192.566 28.363-248.502 84.299C79.562 293.833 51.2 377.441 51.2 486.4s28.362 192.566 84.298 248.502C191.434 790.838 275.042 819.2 384 819.2s192.566-28.362 248.501-84.298C688.437 678.966 716.8 595.358 716.8 486.4s-28.363-192.566-84.299-248.501S492.959 153.6 384 153.6zm0 614.4c-94.886 0-166.312-23.317-212.298-69.302S102.4 581.285 102.4 486.4c0-94.886 23.317-166.312 69.302-212.299C217.688 228.117 289.113 204.8 384 204.8s166.312 23.317 212.299 69.301C642.283 320.088 665.6 391.514 665.6 486.4s-23.317 166.312-69.301 212.298C550.312 744.684 478.886 768 384 768zm0-460.8c-57.997 0-102.846 15.442-133.301 45.899C220.241 383.553 204.8 428.403 204.8 486.4s15.442 102.846 45.899 133.301C281.153 650.159 326.003 665.6 384 665.6c81.15 0 136.667-19.851 169.725-60.69 8.896-10.99 7.198-27.109-3.792-36.005-10.987-8.898-27.107-7.2-36.005 3.79-22.715 28.062-65.216 41.704-129.928 41.704-43.925 0-76.594-10.397-97.099-30.901C266.397 562.992 256 530.324 256 486.399s10.397-76.594 30.901-97.099 53.174-30.901 97.099-30.901c64.714 0 107.214 13.642 129.93 41.706 8.894 10.992 25.014 12.69 36.005 3.792 10.989-8.896 12.688-25.016 3.792-36.005-33.058-40.84-88.574-60.693-169.726-60.693z" horiz-adv-x="768" data-tags="copyright"/><glyph unicode="" d="M384 153.6c-108.958 0-192.566 28.363-248.502 84.299C79.562 293.833 51.2 377.441 51.2 486.4s28.362 192.566 84.298 248.502C191.434 790.838 275.042 819.2 384 819.2s192.566-28.362 248.501-84.298C688.437 678.966 716.8 595.358 716.8 486.4s-28.363-192.566-84.299-248.501S492.959 153.6 384 153.6zm0 614.4c-94.886 0-166.312-23.317-212.298-69.302S102.4 581.285 102.4 486.4c0-94.886 23.317-166.312 69.302-212.299C217.688 228.117 289.113 204.8 384 204.8s166.312 23.317 212.299 69.301C642.283 320.088 665.6 391.514 665.6 486.4s-23.317 166.312-69.301 212.298C550.312 744.684 478.886 768 384 768zm0-460.8c-57.997 0-102.846 15.442-133.301 45.899C220.241 383.553 204.8 428.403 204.8 486.4s15.442 102.846 45.899 133.301C281.153 650.159 326.003 665.6 384 665.6c81.15 0 136.667-19.851 169.725-60.69 8.896-10.99 7.198-27.109-3.792-36.005-10.987-8.898-27.107-7.2-36.005 3.79-22.715 28.062-65.216 41.704-129.928 41.704-43.925 0-76.594-10.397-97.099-30.901C266.397 562.992 256 530.324 256 486.399s10.397-76.594 30.901-97.099 53.174-30.901 97.099-30.901c64.714 0 107.214 13.642 129.93 41.706 8.894 10.992 25.014 12.69 36.005 3.792 10.989-8.896 12.688-25.016 3.792-36.005-33.058-40.84-88.574-60.693-169.726-60.693z" horiz-adv-x="768" data-tags="copyright"/><glyph unicode="warning" d="M947.2-51.2H25.6A25.6 25.6 0 003.287-13.049l460.8 819.2a25.6 25.6 0 0044.626 0l460.8-819.2A25.602 25.602 0 00947.201-51.2zM69.371 0h834.056L486.4 741.382 69.371 0zM486.4 204.8c-14.138 0-25.6 11.461-25.6 25.6v256c0 14.138 11.462 25.6 25.6 25.6s25.6-11.462 25.6-25.6v-256c0-14.139-11.462-25.6-25.6-25.6zm0-153.6c-14.138 0-25.6 11.461-25.6 25.6V128c0 14.139 11.462 25.6 25.6 25.6S512 142.139 512 128V76.8c0-14.139-11.462-25.6-25.6-25.6z" data-tags="warning, exclamation, notice"/><glyph unicode="visible" d="M1017.429 503.526c-2.429 2.698-60.515 66.826-151.349 131.706-53.587 38.277-107.499 68.826-160.234 90.8C639.009 753.88 573.79 768 512 768s-127.01-14.12-193.846-41.97c-52.736-21.973-106.646-52.523-160.234-90.8C67.088 570.352 9 506.224 6.571 503.526c-8.763-9.736-8.763-24.515 0-34.251C9 466.576 67.088 402.448 157.92 337.568c53.587-38.277 107.498-68.827 160.234-90.8C384.991 218.92 450.21 204.8 512 204.8s127.01 14.12 193.846 41.968c52.734 21.973 106.645 52.523 160.234 90.8 90.834 64.88 148.92 129.008 151.349 131.706 8.762 9.736 8.762 24.517 0 34.253zm-373.64 190.831C690.247 655.283 716.8 598.434 716.8 537.6c0-112.926-91.874-204.8-204.8-204.8-112.928 0-204.8 91.874-204.8 204.8 0 60.835 26.554 117.685 73.014 156.757C422.321 708.101 466.816 716.8 512 716.8c45.186 0 89.682-8.699 131.789-22.443zm191.629-315.77C756.93 322.662 637.109 256 512 256s-244.93 66.662-323.416 122.587c-59.24 42.21-104.574 84.89-127.458 107.813 22.888 22.928 68.222 65.606 127.458 107.813 27.13 19.331 59.2 39.942 94.72 58.643C265.538 617.632 256 578.336 256 537.6c0-141.16 114.842-256 256-256 141.16 0 256 114.84 256 256 0 40.734-9.538 80.032-27.301 115.256 35.517-18.701 67.589-39.312 94.718-58.643 59.238-42.21 104.573-84.89 127.456-107.813-22.888-22.928-68.222-65.606-127.456-107.813z" data-tags="eye"/><glyph unicode="users" d="M947.2 102.4H384c-42.342 0-76.8 34.458-76.8 76.8 0 2.458.538 60.954 47.334 118.541 26.88 33.088 63.539 59.315 108.954 77.939 54.861 22.502 122.854 33.92 202.112 33.92s147.264-11.405 202.112-33.92c45.414-18.624 82.061-44.851 108.954-77.939C1023.463 240.154 1024 181.658 1024 179.2c0-42.342-34.458-76.8-76.8-76.8zm-588.8 76.672c.077-14.054 11.533-25.472 25.6-25.472h563.2c14.067 0 25.523 11.418 25.6 25.472-.051 1.792-1.651 45.798-37.85 88.781C885.068 327.091 791.936 358.4 665.6 358.4s-219.469-31.309-269.35-90.547c-36.198-42.982-37.798-87.002-37.85-88.781zM665.6 460.8c-112.922 0-204.8 91.878-204.8 204.8s91.878 204.8 204.8 204.8 204.8-91.878 204.8-204.8c0-112.922-91.878-204.8-204.8-204.8zm0 358.4c-84.698 0-153.6-68.902-153.6-153.6S580.902 512 665.6 512s153.6 68.902 153.6 153.6-68.902 153.6-153.6 153.6zM230.4 102.4H76.8C34.458 102.4 0 136.845 0 179.2c0 1.92.384 47.45 33.92 92.16 19.379 25.83 45.773 46.298 78.477 60.838C151.527 349.593 199.834 358.4 256 358.4c9.165 0 18.227-.23 26.957-.704 14.118-.755 24.96-12.813 24.205-26.931s-12.787-24.96-26.931-24.205c-7.821.422-15.974.627-24.23.627-199.36 0-204.672-121.83-204.8-128.128.077-14.054 11.533-25.472 25.6-25.472h153.6c14.144 0 25.6-11.456 25.6-25.6s-11.456-25.6-25.6-25.6zM256 409.6c-84.698 0-153.6 68.902-153.6 153.6S171.302 716.8 256 716.8s153.6-68.902 153.6-153.6S340.698 409.6 256 409.6zm0 256c-56.461 0-102.4-45.939-102.4-102.4S199.539 460.8 256 460.8s102.4 45.939 102.4 102.4c0 56.461-45.939 102.4-102.4 102.4z" data-tags="users2"/><glyph unicode="user" d="M512 358.4c-169.395 0-307.2 137.805-307.2 307.2S342.605 972.8 512 972.8s307.2-137.805 307.2-307.2S681.395 358.4 512 358.4zm0 563.2c-141.158 0-256-114.842-256-256s114.842-256 256-256c141.158 0 256 114.842 256 256s-114.842 256-256 256zM947.2-51.2H76.8C34.458-51.2 0-16.755 0 25.6c0 3.034.768 75.034 67.84 145.626 38.131 40.128 90.099 71.936 154.483 94.528C300.697 293.248 398.157 307.2 512 307.2s211.302-13.939 289.677-41.446c64.384-22.592 116.365-54.4 154.483-94.528C1023.232 100.634 1024 28.621 1024 25.6c0-42.355-34.445-76.8-76.8-76.8zM512 256C56.474 256 51.2 27.904 51.2 25.6 51.2 11.482 62.682 0 76.8 0h870.4c14.08 0 25.536 11.418 25.6 25.472-.064 3.251-2.048 57.882-56.55 113.382C863.77 192.294 751.028 256 512 256z" data-tags="user"/><glyph unicode="upload" d="M747.917 358.882L634.455 472.344c-11.075 11.077-29.037 11.077-40.114 0L480.879 358.882c-11.077-11.075-11.077-29.037 0-40.114s29.037-11.077 40.117 0l65.04 65.04v-243.54c0-15.666 12.699-28.365 28.365-28.365s28.365 12.699 28.365 28.365v243.54l65.043-65.04c5.537-5.537 12.795-8.306 20.055-8.306s14.518 2.769 20.055 8.312c11.08 11.075 11.08 29.034 0 40.108zm178.86-246.98H727.863c-15.666 0-28.365 12.699-28.365 28.365s12.699 28.365 28.365 28.365h198.914c93.648 0 169.839 76.191 169.839 169.839S1020.425 508.31 926.777 508.31c-20.086 0-39.661-3.436-58.18-10.218-12.373-4.529-26.235.056-33.465 11.068s-5.927 25.556 3.149 35.108c20.255 21.313 31.409 49.094 31.409 78.215 0 62.564-50.899 113.462-113.462 113.462-36.407 0-69.708-16.827-91.364-46.168-13.073-17.713-20.686-38.457-22.014-59.986a28.362 28.362 0 00-20.581-25.544 28.36 28.36 0 00-30.921 10.96 288.227 288.227 0 01-20.084 25.376c-53.836 60.605-131.162 95.364-212.155 95.364-156.407 0-283.657-127.246-283.657-283.657S202.7 168.633 359.109 168.633h141.828c15.665 0 28.365-12.699 28.365-28.365s-12.7-28.365-28.365-28.365H359.109c-187.689 0-340.387 152.698-340.387 340.387S171.42 792.677 359.109 792.677c90.897 0 177.938-36.473 241.666-100.682a171.945 171.945 0 0018.441 31.472c31.988 43.338 83.205 69.209 137.012 69.209 93.846 0 170.194-76.348 170.194-170.194 0-19.897-3.455-39.361-10.079-57.675 3.464.157 6.944.234 10.434.234 124.931 0 226.571-101.64 226.571-226.571s-101.64-226.571-226.571-226.571z" horiz-adv-x="1178" data-tags="cloud-upload, cloud"/><glyph unicode="unlock" d="M691.2 870.4c-127.043 0-230.4-103.357-230.4-230.4V512h-384C34.453 512 0 477.547 0 435.2V25.6c0-42.347 34.453-76.8 76.8-76.8h512c42.347 0 76.8 34.453 76.8 76.8v409.6c0 42.347-34.453 76.8-76.8 76.8H512v128c0 98.811 80.389 179.2 179.2 179.2S870.4 738.811 870.4 640v-51.2c0-14.138 11.461-25.6 25.6-25.6s25.6 11.462 25.6 25.6V640c0 127.043-103.357 230.4-230.4 230.4zM588.8 460.8c14.115 0 25.6-11.485 25.6-25.6V25.6c0-14.115-11.485-25.6-25.6-25.6h-512C62.685 0 51.2 11.485 51.2 25.6v409.6c0 14.115 11.485 25.6 25.6 25.6h512z" data-tags="unlock, open"/><glyph unicode="undo" d="M100.332 670.353c3.927-4.159 6.7-7.162 9.472-9.935l200.08-200.08c3.466-3.466 6.7-7.393 9.011-11.552 6.007-10.858 4.159-21.487-4.389-28.88-9.242-8.086-22.18-8.317-31.884-.924-1.617 1.155-2.772 2.541-4.159 3.927-89.412 89.412-179.056 179.056-268.7 268.468-1.155 1.155-2.08 2.309-3.696 3.696 2.311 2.541 4.621 4.852 6.931 7.162 88.026 88.257 176.052 176.052 263.847 264.079 6.238 6.238 12.707 9.703 21.949 9.703 10.859.231 18.483-5.083 21.024-13.862 2.08-6.931.694-15.479-1.386-22.642-1.617-5.314-6.931-9.935-11.321-14.093-64.691-65.153-129.844-130.076-194.767-195.229-3.004-3.004-5.545-6.007-10.166-10.859h14.324c124.762 0 249.523.462 374.285-.231 38.583-.231 77.168-5.083 115.289-12.938 30.497-6.238 59.609-15.018 88.72-25.876 33.039-12.245 62.842-29.804 90.336-51.06 27.494-21.024 51.522-46.208 70.698-75.088 28.418-42.742 46.901-89.412 53.371-140.473 3.004-23.335 6.7-46.901 6.469-70.236-.231-30.729-2.772-61.687-6.7-92.185-3.927-30.96-8.317-62.381-16.635-92.416-10.628-38.815-24.491-76.705-39.046-114.134-9.242-23.798-22.18-46.208-34.194-68.851-4.159-7.856-9.935-14.787-21.255-14.556-20.332.693-31.421 16.866-22.642 35.58 6.7 14.324 15.018 27.956 21.718 42.281 24.489 53.139 44.359 108.127 54.756 165.887 4.852 27.031 9.011 54.525 11.321 82.019 2.309 28.649 4.389 57.529 2.08 86.178-4.852 62.381-24.259 120.372-63.305 170.508-24.028 30.729-54.525 53.601-88.257 72.547-33.962 18.945-70.467 31.189-107.895 39.738-23.797 5.314-48.518 8.317-73.008 9.935-142.32 9.935-285.104 2.772-427.655 4.852-.924.231-1.617 0-4.621-.462z" horiz-adv-x="922" data-tags="undo"/><glyph unicode="trend-up" d="M898.219 887.467H356.864c-17.579 0-31.915-14.336-31.915-31.915s14.336-31.915 31.915-31.915h464.384L86.187 88.576c-12.459-12.459-12.459-32.597 0-45.056s32.597-12.459 45.056 0l735.061 735.061V314.197c0-17.579 14.336-31.915 31.915-31.915 8.875 0 16.725 3.584 22.528 9.387s9.387 13.824 9.387 22.528v541.355c0 17.579-14.336 31.915-31.915 31.915z" horiz-adv-x="1032" data-tags="trend-up"/><glyph unicode="trend-down" d="M930.133 66.048v541.355c0 17.579-14.336 31.915-31.915 31.915s-31.915-14.336-31.915-31.915V143.019L131.242 878.08c-12.459 12.459-32.597 12.459-45.056 0s-12.459-32.597 0-45.056L821.247 97.963H356.863c-17.579 0-31.915-14.336-31.915-31.915 0-8.875 3.584-16.725 9.387-22.528s13.824-9.387 22.528-9.387h541.355c17.579 0 31.915 14.336 31.915 31.915z" horiz-adv-x="1032" data-tags="trend-down"/><glyph unicode="trash" d="M793.6 870.4H614.4V896c0 42.347-34.453 76.8-76.8 76.8H435.2c-42.347 0-76.8-34.453-76.8-76.8v-25.6H179.2c-42.347 0-76.8-34.453-76.8-76.8v-51.2c0-33.373 21.403-61.829 51.2-72.397V25.6c0-42.349 34.453-76.8 76.8-76.8h512c42.349 0 76.8 34.451 76.8 76.8v644.403c29.797 10.568 51.2 39.024 51.2 72.397v51.2c0 42.347-34.451 76.8-76.8 76.8zm-384 25.6c0 14.115 11.485 25.6 25.6 25.6h102.4c14.115 0 25.6-11.485 25.6-25.6v-25.6H409.6V896zM742.4 0h-512c-14.115 0-25.6 11.485-25.6 25.6v640H768v-640C768 11.485 756.515 0 742.4 0zm76.8 742.4c0-14.115-11.485-25.6-25.6-25.6H179.2c-14.115 0-25.6 11.485-25.6 25.6v51.2c0 14.115 11.485 25.6 25.6 25.6h614.4c14.115 0 25.6-11.485 25.6-25.6v-51.2zM640 614.4c-14.139 0-25.6-11.462-25.6-25.6v-512c0-14.139 11.461-25.6 25.6-25.6s25.6 11.461 25.6 25.6v512c0 14.138-11.461 25.6-25.6 25.6zm-153.6 0c-14.138 0-25.6-11.462-25.6-25.6v-512c0-14.139 11.462-25.6 25.6-25.6S512 62.661 512 76.8v512c0 14.138-11.462 25.6-25.6 25.6zm-153.6 0c-14.138 0-25.6-11.462-25.6-25.6v-512c0-14.139 11.462-25.6 25.6-25.6s25.6 11.461 25.6 25.6v512c0 14.138-11.462 25.6-25.6 25.6z" data-tags="trash"/><glyph unicode="timer" d="M834.583 729.487C754.442 809.628 649.83 856.389 537.6 862.856v54.701h26.947c14.883 0 26.947 12.065 26.947 26.947s-12.064 26.947-26.947 26.947H456.758c-14.882 0-26.947-12.065-26.947-26.947s12.065-26.947 26.947-26.947h26.947v-54.701c-112.229-6.467-216.84-53.227-296.982-133.371-86.524-86.524-134.176-201.564-134.176-323.927s47.652-237.406 134.176-323.931C273.249-4.896 388.289-52.548 510.652-52.548S748.058-4.896 834.583 81.627c86.523 86.524 134.175 201.566 134.175 323.931s-47.652 237.403-134.175 323.929zM510.653 1.347c-222.882 0-404.211 181.327-404.211 404.211 0 222.882 181.328 404.211 404.211 404.211s404.211-181.328 404.211-404.211S733.537 1.347 510.653 1.347zm0 377.264c-14.882 0-26.947 12.064-26.947 26.947v323.368c0 14.882 12.065 26.947 26.947 26.947s26.947-12.065 26.947-26.947V405.558c0-14.883-12.065-26.947-26.947-26.947z" data-tags="timer"/><glyph unicode="tab" d="M1136.009 688.484L937.503 886.99c-12.92 12.921-33.867 12.921-46.786 0s-12.921-33.867 0-46.786l142.028-142.027H87.002c-18.271 0-33.083-14.812-33.083-33.083s14.813-33.083 33.083-33.083h945.743L890.717 489.983c-12.921-12.92-12.921-33.867 0-46.786 6.462-6.459 14.927-9.689 23.395-9.689s16.933 3.229 23.394 9.691l198.506 198.506c12.921 12.92 12.921 33.866 0 46.785zm-56.475-387.32H133.791l142.027 142.028c12.921 12.92 12.921 33.867 0 46.786s-33.867 12.92-46.786 0L30.526 291.472c-12.921-12.92-12.921-33.867 0-46.786L229.032 46.18c6.462-6.462 14.927-9.691 23.395-9.691s16.933 3.229 23.394 9.691c12.921 12.92 12.921 33.867 0 46.786L133.794 234.993h945.743c18.273 0 33.083 14.812 33.083 33.083s-14.812 33.083-33.083 33.083z" horiz-adv-x="1152" data-tags="tab, switch, arrows"/><glyph unicode="sync" d="M6.548 387.854c5.26-5.265 12.155-7.896 19.052-7.896s13.792 2.631 19.052 7.893l61.931 61.928c2.767-111.038 47.312-215.021 126.142-293.853C314.16 74.491 422.434 29.642 537.601 29.642c160.293 0 306.444 88.104 381.415 229.935 6.956 13.157 1.928 29.46-11.231 36.418-13.156 6.953-29.46 1.926-36.418-11.232C805.755 160.642 677.865 83.537 537.601 83.537c-204.225 0-371.052 163.122-377.076 365.915l61.602-61.602c10.523-10.523 27.585-10.523 38.108 0s10.523 27.587 0 38.108L152.446 533.747c-10.523 10.523-27.585 10.523-38.108 0L6.549 425.958c-10.524-10.523-10.524-27.584.002-38.105zm162.763 241.938c13.08-7.107 29.438-2.26 36.542 10.816C272.017 762.404 399.135 838.063 537.6 838.063c204.227 0 371.052-163.122 377.08-365.915l-61.602 61.602c-10.526 10.523-27.585 10.523-38.112 0-10.523-10.523-10.523-27.587 0-38.108l107.789-107.789c5.263-5.263 12.16-7.896 19.055-7.896s13.792 2.631 19.055 7.896l107.789 107.789c10.523 10.521 10.523 27.585 0 38.108-10.526 10.523-27.585 10.523-38.112 0l-61.926-61.928c-2.768 111.038-47.312 215.021-126.142 293.853-81.435 81.437-189.707 126.284-304.874 126.284-158.238 0-303.503-86.454-379.105-225.622-7.104-13.08-2.263-29.438 10.816-36.544z" horiz-adv-x="1075" data-tags="sync, arrows, loading"/><glyph unicode="sharp" d="M670.412 713.325H562.07l22.861 137.165c2.576 15.453-7.865 30.067-23.317 32.644-15.436 2.577-30.065-7.865-32.641-23.317l-24.418-146.493H278.413l22.861 137.165c2.576 15.453-7.865 30.067-23.317 32.644-15.433 2.577-30.065-7.865-32.641-23.317l-24.418-146.493H103.099c-15.665 0-28.365-12.7-28.365-28.365s12.7-28.365 28.365-28.365h108.344l-47.277-283.657H46.367c-15.665 0-28.365-12.699-28.365-28.365s12.7-28.365 28.365-28.365h108.344L131.85 179.041c-2.576-15.453 7.865-30.065 23.317-32.641a28.706 28.706 0 014.698-.393c13.616 0 25.633 9.834 27.945 23.708l24.415 146.491H438.37l-22.863-137.165c-2.576-15.453 7.865-30.065 23.317-32.641a28.654 28.654 0 014.696-.393c13.616 0 25.633 9.834 27.945 23.708l24.416 146.491H613.68c15.666 0 28.365 12.699 28.365 28.365s-12.699 28.365-28.365 28.365H505.336l47.277 283.657h117.799c15.666 0 28.365 12.7 28.365 28.365s-12.699 28.365-28.365 28.365zM447.823 372.938H221.68l47.277 283.657H495.1l-47.277-283.657z" horiz-adv-x="717" data-tags="#"/><glyph unicode="settings" d="M390.71-35.955c-2.109 0-4.248.262-6.378.81-45.976 11.803-90.149 30.042-131.291 54.21-11.923 7.003-16.13 22.21-9.501 34.344 8.15 14.925 12.459 31.866 12.459 48.992 0 56.464-45.936 102.4-102.4 102.4-17.125 0-34.066-4.309-48.992-12.459-12.133-6.627-27.339-2.421-34.342 9.501-24.17 41.142-42.408 85.315-54.211 131.293-3.333 12.989 3.92 26.349 16.629 30.629 41.699 14.037 69.717 53.034 69.717 97.037s-28.018 83-69.718 97.04c-12.707 4.278-19.962 17.638-16.627 30.627 11.803 45.976 30.042 90.149 54.211 131.291 7.003 11.923 22.21 16.13 34.344 9.501 14.923-8.15 31.864-12.459 48.99-12.459 56.464 0 102.4 45.936 102.4 102.4 0 17.126-4.309 34.067-12.459 48.99-6.629 12.134-2.422 27.341 9.501 34.344 41.141 24.168 85.314 42.408 131.291 54.211 12.994 3.334 26.349-3.92 30.627-16.627 14.04-41.701 53.037-69.718 97.04-69.718s83 28.018 97.038 69.717c4.28 12.71 17.645 19.965 30.629 16.629 45.976-11.802 90.15-30.042 131.293-54.211 11.922-7.003 16.128-22.208 9.501-34.342C772.309 853.269 768 836.328 768 819.203c0-56.464 45.936-102.4 102.4-102.4 17.126 0 34.067 4.309 48.992 12.459 12.138 6.629 27.341 2.421 34.344-9.501 24.166-41.141 42.406-85.314 54.21-131.291 3.334-12.989-3.918-26.349-16.627-30.627-41.701-14.04-69.718-53.037-69.718-97.04s28.018-83 69.718-97.038c12.707-4.28 19.962-17.638 16.627-30.629-11.803-45.976-30.042-90.15-54.21-131.291-7.005-11.925-22.208-16.128-34.344-9.502-14.926 8.152-31.867 12.461-48.992 12.461-56.464 0-102.4-45.936-102.4-102.4 0-17.125 4.309-34.066 12.461-48.992 6.627-12.136 2.421-27.341-9.502-34.344-41.141-24.166-85.314-42.406-131.291-54.21-12.992-3.336-26.349 3.918-30.629 16.627-14.038 41.701-53.035 69.718-97.038 69.718s-83-28.018-97.04-69.718c-3.578-10.624-13.502-17.437-24.25-17.437zM512 102.4c57.715 0 109.693-32.138 135.917-82.029a458 458 0 0177.299 31.846 154.209 154.209 0 00-8.416 50.182c0 84.696 68.904 153.6 153.6 153.6 17.107 0 34.106-2.875 50.181-8.418a457.835 457.835 0 0131.846 77.299c-49.89 26.226-82.027 78.203-82.027 135.918s32.138 109.691 82.029 135.918a458.034 458.034 0 01-31.846 77.299 154.18 154.18 0 00-50.182-8.418c-84.696 0-153.6 68.904-153.6 153.6 0 17.107 2.875 34.106 8.418 50.181a457.835 457.835 0 01-77.299 31.846c-26.226-49.89-78.203-82.027-135.918-82.027s-109.691 32.138-135.917 82.027a457.752 457.752 0 01-77.299-31.846 154.158 154.158 0 008.416-50.181c0-84.696-68.904-153.6-153.6-153.6a154.107 154.107 0 00-50.181 8.418 457.738 457.738 0 01-31.846-77.299c49.89-26.227 82.027-78.203 82.027-135.918s-32.138-109.693-82.027-135.917a457.835 457.835 0 0131.846-77.299 154.194 154.194 0 0050.181 8.416c84.696 0 153.6-68.904 153.6-153.6 0-17.109-2.875-34.106-8.418-50.181a457.903 457.903 0 0177.299-31.846c26.227 49.89 78.203 82.027 135.918 82.027zm0 204.8c-84.696 0-153.6 68.904-153.6 153.6S427.304 614.4 512 614.4s153.6-68.904 153.6-153.6S596.696 307.2 512 307.2zm0 256c-56.464 0-102.4-45.936-102.4-102.4S455.536 358.4 512 358.4c56.464 0 102.4 45.936 102.4 102.4S568.464 563.2 512 563.2z" data-tags="gear"/><glyph unicode="search" d="M990.901-7.499L660.767 322.635c69.2 71.886 107.234 166.098 107.234 266.165 0 102.57-39.942 199-112.47 271.53S486.573 972.8 384.001 972.8c-102.57 0-199-39.942-271.53-112.47S.001 691.37.001 588.8c0-102.571 39.942-199.002 112.47-271.53s168.96-112.47 271.53-112.47c87.858 0 171.195 29.33 238.882 83.315L954.701-43.703c4.998-4.998 11.549-7.498 18.101-7.498s13.102 2.499 18.101 7.499c9.998 9.997 9.998 26.205 0 36.202zM51.2 588.8c0 183.506 149.294 332.8 332.8 332.8s332.8-149.294 332.8-332.8S567.506 256 384 256 51.2 405.294 51.2 588.8z" data-tags="magnifier, search, lookup"/><glyph unicode="save" d="M691.2 665.6H588.8c-14.139 0-25.6 11.462-25.6 25.6v153.6c0 14.138 11.461 25.6 25.6 25.6h102.4c14.139 0 25.6-11.462 25.6-25.6V691.2c0-14.138-11.461-25.6-25.6-25.6zm-76.8 51.2h51.2v102.4h-51.2V716.8zm402.101 120.502l-128 128A25.601 25.601 0 01870.4 972.8H25.6C11.462 972.8 0 961.338 0 947.2V-25.6c0-14.139 11.462-25.6 25.6-25.6h972.8c14.139 0 25.6 11.461 25.6 25.6v844.8a25.6 25.6 0 01-7.499 18.102zM307.2 921.6H768V614.4H307.2v307.2zM819.2 0H204.8v409.6h614.4V0zm153.6 0H870.4v435.2c0 14.139-11.461 25.6-25.6 25.6H179.2c-14.138 0-25.6-11.461-25.6-25.6V0H51.2v921.6H256V588.8c0-14.138 11.462-25.6 25.6-25.6h512c14.139 0 25.6 11.462 25.6 25.6v332.8h40.595L972.8 808.597V0z" data-tags="floppy-disk, save"/><glyph unicode="redo" d="M821.408 670.353c-3.927-4.159-6.7-7.162-9.472-9.935l-200.08-200.08c-3.466-3.466-6.7-7.393-9.011-11.552-6.007-10.858-4.159-21.487 4.39-28.88 9.242-8.086 22.18-8.317 31.884-.924 1.617 1.155 2.772 2.541 4.159 3.927l268.7 268.7c1.155 1.155 2.08 2.31 3.696 3.696-2.31 2.541-4.621 4.852-6.931 7.162-88.026 88.026-175.821 175.821-263.616 263.847-6.238 6.238-12.707 9.703-21.949 9.703-10.858.231-18.483-5.083-21.024-13.862-2.08-6.931-.693-15.479 1.386-22.642 1.617-5.314 6.931-9.935 11.321-14.093 64.922-65.153 130.076-130.076 195.229-195.229 3.004-3.004 5.545-6.007 10.166-10.859h-14.324c-124.762 0-249.523.462-374.285-.231-38.583-.231-77.168-5.082-115.289-12.938-30.497-6.238-59.609-15.018-88.72-25.876-33.039-12.245-62.842-29.804-90.336-51.06-27.494-21.024-51.522-46.208-70.698-75.088-28.88-42.512-47.363-89.181-53.833-140.241-3.004-23.335-6.7-46.901-6.469-70.236.231-30.729 2.772-61.687 6.7-92.185 3.927-30.96 8.317-62.381 16.635-92.416 10.628-38.815 24.49-76.705 39.046-114.134 9.242-23.798 22.18-46.208 34.194-68.85 4.159-7.856 9.935-14.787 21.255-14.556 20.332.694 31.421 16.866 22.642 35.58-6.7 14.324-15.018 27.956-21.718 42.281-24.49 53.139-44.359 108.127-54.756 165.887-4.852 27.263-9.011 54.756-11.321 82.25-2.31 28.649-4.39 57.529-2.08 86.178 4.852 62.381 24.259 120.372 63.305 170.508 24.028 30.729 54.525 53.601 88.257 72.547 33.962 18.945 70.467 31.19 107.895 39.738 23.798 5.314 48.518 8.317 73.008 9.935 142.32 9.935 285.104 2.772 427.655 4.852.694-.231 1.617-.462 4.39-.924z" horiz-adv-x="922" data-tags="redo"/><glyph unicode="rain" d="M819.52 307.2H307.2C137.805 307.2 0 445.005 0 614.4s137.805 307.2 307.2 307.2c82.035 0 160.589-32.922 218.099-90.867a155.203 155.203 0 0016.64 28.403c28.877 39.117 75.098 62.464 123.648 62.464 84.698 0 153.6-68.902 153.6-153.6 0-17.958-3.123-35.52-9.101-52.045 3.123.141 6.272.205 9.421.205 112.755 0 204.48-91.725 204.48-204.48S932.262 307.2 819.507 307.2zM307.2 870.4c-141.158 0-256-114.842-256-256s114.842-256 256-256h512.32c84.518 0 153.28 68.762 153.28 153.28s-68.762 153.28-153.28 153.28c-18.125 0-35.789-3.098-52.506-9.216-11.162-4.083-23.68.051-30.208 9.984s-5.35 23.066 2.842 31.68C757.926 716.646 768 741.709 768 768c0 56.461-45.939 102.4-102.4 102.4-32.858 0-62.912-15.181-82.458-41.664-11.802-15.987-18.675-34.701-19.866-54.144-.666-10.854-8.115-20.096-18.573-23.053s-21.645 1.011-27.904 9.894a257.939 257.939 0 01-18.125 22.899c-48.589 54.694-118.374 86.067-191.475 86.067zM128 153.6c-14.144 0-25.6 11.456-25.6 25.6v51.2c0 14.144 11.456 25.6 25.6 25.6s25.6-11.456 25.6-25.6v-51.2c0-14.144-11.456-25.6-25.6-25.6zm204.8 0c-14.144 0-25.6 11.456-25.6 25.6v51.2c0 14.144 11.456 25.6 25.6 25.6s25.6-11.456 25.6-25.6v-51.2c0-14.144-11.456-25.6-25.6-25.6zm204.8 0c-14.144 0-25.6 11.456-25.6 25.6v51.2c0 14.144 11.456 25.6 25.6 25.6s25.6-11.456 25.6-25.6v-51.2c0-14.144-11.456-25.6-25.6-25.6zm204.8 0c-14.144 0-25.6 11.456-25.6 25.6v51.2c0 14.144 11.456 25.6 25.6 25.6s25.6-11.456 25.6-25.6v-51.2c0-14.144-11.456-25.6-25.6-25.6zm204.8 0c-14.144 0-25.6 11.456-25.6 25.6v51.2c0 14.144 11.456 25.6 25.6 25.6s25.6-11.456 25.6-25.6v-51.2c0-14.144-11.456-25.6-25.6-25.6zM844.8 51.2c-14.144 0-25.6 11.456-25.6 25.6V128c0 14.144 11.456 25.6 25.6 25.6s25.6-11.456 25.6-25.6V76.8c0-14.144-11.456-25.6-25.6-25.6zm-204.8 0c-14.144 0-25.6 11.456-25.6 25.6V128c0 14.144 11.456 25.6 25.6 25.6s25.6-11.456 25.6-25.6V76.8c0-14.144-11.456-25.6-25.6-25.6zm-204.8 0c-14.144 0-25.6 11.456-25.6 25.6V128c0 14.144 11.456 25.6 25.6 25.6s25.6-11.456 25.6-25.6V76.8c0-14.144-11.456-25.6-25.6-25.6zm-204.8 0c-14.144 0-25.6 11.456-25.6 25.6V128c0 14.144 11.456 25.6 25.6 25.6S256 142.144 256 128V76.8c0-14.144-11.456-25.6-25.6-25.6z" data-tags="cloud-rain"/><glyph unicode="question" d="M487.68 225.28c-16.64 0-32 14.08-34.56 35.84L439.04 409.6c-2.56 25.6 12.8 43.52 38.4 46.08 140.8 10.24 229.12 72.96 229.12 184.32v2.56c0 94.72-74.24 171.52-193.28 171.52-88.32 0-158.72-38.4-218.88-103.68-8.96-7.68-21.76-14.08-35.84-14.08-26.88 0-47.36 19.2-47.36 46.08 0 11.52 5.12 25.6 15.36 35.84 70.4 76.8 160 129.28 288 129.28 179.2 0 295.68-111.36 295.68-262.4v-2.56c0-165.12-124.16-247.04-275.2-268.8l-8.96-113.92c-2.56-21.76-15.36-35.84-34.56-35.84h-3.84zm1.28-110.08c35.84 0 64-26.88 64-62.72V25.6c0-35.84-28.16-64-64-64s-64 28.16-64 64v26.88c1.28 35.84 29.44 62.72 64 62.72z" data-tags="question"/><glyph unicode="printer" d="M947.2 768h-76.8v128c0 42.347-34.453 76.8-76.8 76.8H230.4c-42.347 0-76.8-34.453-76.8-76.8V768H76.8C34.453 768 0 733.547 0 691.2V230.4c0-42.349 34.453-76.8 76.8-76.8h76.8v-128c0-42.347 34.453-76.8 76.8-76.8h563.2c42.347 0 76.8 34.453 76.8 76.8v128h76.8c42.349 0 76.8 34.451 76.8 76.8v460.8c0 42.347-34.451 76.8-76.8 76.8zM204.8 896c0 14.115 11.485 25.6 25.6 25.6h563.2c14.115 0 25.6-11.485 25.6-25.6V768H204.8v128zM793.6 0H230.4c-14.115 0-25.6 11.485-25.6 25.6v332.8h614.4V25.6c0-14.115-11.485-25.6-25.6-25.6zm179.2 230.4c0-14.115-11.485-25.6-25.6-25.6h-76.8v153.6H896c14.139 0 25.6 11.461 25.6 25.6s-11.461 25.6-25.6 25.6H128c-14.138 0-25.6-11.461-25.6-25.6s11.462-25.6 25.6-25.6h25.6V204.8H76.8c-14.115 0-25.6 11.485-25.6 25.6v460.8c0 14.115 11.485 25.6 25.6 25.6h870.4c14.115 0 25.6-11.485 25.6-25.6V230.4zM742.4 256H281.6c-14.138 0-25.6 11.461-25.6 25.6s11.462 25.6 25.6 25.6h460.8c14.139 0 25.6-11.461 25.6-25.6S756.539 256 742.4 256zm0-102.4H281.6c-14.138 0-25.6 11.461-25.6 25.6s11.462 25.6 25.6 25.6h460.8c14.139 0 25.6-11.461 25.6-25.6s-11.461-25.6-25.6-25.6zm0-102.4H281.6c-14.138 0-25.6 11.461-25.6 25.6s11.462 25.6 25.6 25.6h460.8c14.139 0 25.6-11.461 25.6-25.6s-11.461-25.6-25.6-25.6zM844.8 512c-42.349 0-76.8 34.453-76.8 76.8s34.451 76.8 76.8 76.8 76.8-34.453 76.8-76.8-34.451-76.8-76.8-76.8zm0 102.4c-14.115 0-25.6-11.485-25.6-25.6s11.485-25.6 25.6-25.6 25.6 11.485 25.6 25.6-11.485 25.6-25.6 25.6z" data-tags="printer"/><glyph unicode="plus" d="M707.733 486.4H423.398v284.335c0 22.433-18.186 40.617-40.617 40.617s-40.617-18.187-40.617-40.617V486.4H57.829c-22.433 0-40.617-18.186-40.617-40.617s18.187-40.617 40.617-40.617h284.335V120.831c0-22.435 18.187-40.617 40.617-40.617 22.435 0 40.617 18.186 40.617 40.617v284.335h284.335c22.435 0 40.617 18.186 40.617 40.617S730.164 486.4 707.733 486.4z" horiz-adv-x="768" data-tags="+"/><glyph unicode="percent" d="M127.981 153.598a25.484 25.484 0 00-15.341 5.122c-11.31 8.483-13.603 24.528-5.12 35.838l460.8 614.4c8.482 11.31 24.53 13.605 35.838 5.12 11.31-8.483 13.603-24.53 5.12-35.84l-460.8-614.4c-5.027-6.704-12.715-10.24-20.498-10.24zm409.619.002c-55.09 0-92.939 19.834-112.498 58.952C409.6 243.557 409.6 280.341 409.6 307.2s0 63.643 15.502 94.648C444.66 440.966 482.51 460.8 537.6 460.8s92.939-19.834 112.499-58.952c15.502-31.005 15.502-67.789 15.502-94.648s0-63.643-15.502-94.648c-19.56-39.118-57.41-58.952-112.499-58.952zm0 256c-71.454 0-76.8-40.546-76.8-102.4s5.346-102.4 76.8-102.4c71.456 0 76.802 40.546 76.802 102.4s-5.346 102.4-76.802 102.4zM179.2 512c-55.09 0-92.939 19.834-112.498 58.952C51.2 601.957 51.2 638.741 51.2 665.6s0 63.643 15.502 94.648C86.26 799.366 124.11 819.2 179.2 819.2s92.939-19.834 112.499-58.95c15.502-31.005 15.502-67.79 15.502-94.65s0-63.643-15.502-94.65C272.139 531.833 234.289 512 179.2 512zm0 256c-71.454 0-76.8-40.544-76.8-102.4s5.346-102.4 76.8-102.4c71.456 0 76.802 40.544 76.802 102.4S250.656 768 179.2 768z" horiz-adv-x="717" data-tags="#"/><glyph unicode="pencil" d="M978.101 926.902c-28.77 28.768-67.018 44.611-107.701 44.611-40.685 0-78.933-15.843-107.701-44.611l-652.8-652.8a25.6 25.6 0 01-5.957-9.354l-102.4-281.6a25.595 25.595 0 015.957-26.85 25.586 25.586 0 0126.848-5.958l281.6 102.4a25.619 25.619 0 019.354 5.958l652.8 652.8c28.768 28.768 44.613 67.018 44.613 107.702s-15.843 78.933-44.613 107.701zM293.114 98.917L68.405 17.207l81.712 224.707L716.8 808.597 859.797 665.6 293.114 98.917zm648.785 648.785L896 701.803 753.003 844.8l45.899 45.899c19.098 19.098 44.49 29.614 71.498 29.614s52.4-10.518 71.499-29.616c19.098-19.098 29.616-44.49 29.616-71.498s-10.52-52.4-29.616-71.498z" data-tags="pencil"/><glyph unicode="pause" d="M512-51.2C382.72-51.2 259.84 0 167.68 90.88S25.6 305.92 25.6 435.2s51.2 252.16 142.08 344.32S382.72 921.6 512 921.6s252.16-51.2 344.32-142.08S998.4 564.48 998.4 435.2 947.2 183.04 856.32 90.88 641.28-51.2 512-51.2zm0 921.6c-239.36 0-435.2-195.84-435.2-435.2S272.64 0 512 0s435.2 195.84 435.2 435.2S751.36 870.4 512 870.4zm-87.04-665.6h-83.2c-23.04 0-40.96 23.04-40.96 51.2v358.4c0 28.16 19.2 51.2 40.96 51.2h83.2c23.04 0 40.96-23.04 40.96-51.2V256c1.28-28.16-17.92-51.2-40.96-51.2zm256 0h-83.2c-23.04 0-40.96 23.04-40.96 51.2v358.4c0 28.16 19.2 51.2 40.96 51.2h83.2c23.04 0 40.96-23.04 40.96-51.2V256c1.28-28.16-17.92-51.2-40.96-51.2z" data-tags="pause"/><glyph unicode="number" d="M179.2 153.6c-14.139 0-25.6 11.461-25.6 25.6v552.597l-58.698-58.699c-9.998-9.997-26.206-9.997-36.205 0-9.997 9.998-9.997 26.206 0 36.205l102.4 102.4a25.6 25.6 0 0043.702-18.102v-614.4c0-14.139-11.461-25.6-25.6-25.6z" horiz-adv-x="256" data-tags="svg"/><glyph unicode="navigateup" d="M60.875 284.849c8.468-8.468 20.7-13.173 32.932-13.173s24.463 4.704 32.933 13.173l211.707 211.707 211.707-211.707c8.468-8.468 20.7-13.173 32.932-13.173s24.463 4.704 32.932 13.173c8.468 8.468 14.114 20.7 14.114 32.932s-4.704 24.463-13.173 32.932L372.321 595.351c-8.468 8.468-20.7 13.173-32.933 13.173s-24.463-4.704-32.932-13.173L61.818 350.713c-19.759-17.878-19.759-47.986-.94-65.864z" horiz-adv-x="666" data-tags="navigateup"/><glyph unicode="navigateright" d="M205.553 732.725c-8.468-8.468-13.173-20.7-13.173-32.932s4.704-24.463 13.173-32.933L417.26 455.153 205.553 243.446c-8.468-8.468-13.173-20.7-13.173-32.932s4.704-24.463 13.173-32.932c8.468-8.468 20.7-14.114 32.932-14.114s24.463 4.704 32.932 13.173l244.638 244.638c8.468 8.468 13.173 20.7 13.173 32.933s-4.704 24.463-13.173 32.932L271.417 731.782c-17.878 19.759-47.986 19.759-65.864.941z" horiz-adv-x="666" data-tags="navigateright"/><glyph unicode="navigateleft" d="M490.455 177.584c8.468 8.468 13.173 20.7 13.173 32.932s-4.704 24.463-13.173 32.932L278.748 455.155l211.707 211.707c8.468 8.468 13.173 20.7 13.173 32.932s-4.704 24.463-13.173 32.933c-8.468 8.468-20.7 14.114-32.932 14.114s-24.463-4.704-32.932-13.173L179.953 489.03c-8.468-8.468-13.173-20.7-13.173-32.932s4.704-24.463 13.173-32.932l244.638-244.638c18.819-19.759 47.986-19.759 65.864-.94z" horiz-adv-x="666" data-tags="navigateleft"/><glyph unicode="navigatedown" d="M616.016 595.351c-8.468 8.468-20.7 13.173-32.932 13.173s-24.463-4.704-32.932-13.173L338.445 383.644 126.738 595.351c-8.468 8.468-20.7 13.173-32.932 13.173s-24.463-4.704-32.933-13.173c-8.468-8.468-14.114-20.7-14.114-32.932s4.704-24.463 13.173-32.932L304.57 284.849c8.468-8.468 20.7-13.173 32.932-13.173s24.463 4.704 32.933 13.173l244.638 244.638c19.759 18.819 19.759 47.986.94 65.864z" horiz-adv-x="666" data-tags="navigatedown"/><glyph unicode="money" d="M537.699 460.512c-41.55 24.238-95.406 37.702-147.49 50.723-115.363 28.842-185.41 51.899-185.41 128.765 0 17.578 3.72 51.198 28.629 78.874C262.766 751.472 313.425 768 383.999 768c117.798 0 189.96-46.48 190.6-46.901 11.763-7.842 27.656-4.664 35.501 7.101 7.843 11.763 4.664 27.658-7.101 35.501-3.176 2.118-74.501 48.76-193.4 54.842v77.458c0 14.138-11.461 25.6-25.6 25.6s-25.6-11.462-25.6-25.6v-77.51c-72.832-4.078-127.606-26.006-163.029-65.363-36.344-40.384-41.771-88.211-41.771-113.126 0-55.056 25.806-98.024 76.701-127.712 41.55-24.238 95.406-37.702 147.491-50.723 115.362-28.842 185.408-51.899 185.408-128.765 0-17.578-3.718-51.198-28.629-78.875-29.338-32.597-79.997-49.125-150.571-49.125-117.274 0-189.315 46.067-190.661 46.941-11.757 7.792-27.61 4.605-35.44-7.141-7.842-11.765-4.664-27.658 7.101-35.501 3.178-2.118 74.501-48.762 193.4-54.843V76.802c0-14.139 11.462-25.6 25.6-25.6s25.6 11.461 25.6 25.6v77.51c72.83 4.078 127.608 26.008 163.029 65.365 36.344 40.382 41.771 88.21 41.771 113.125 0 55.054-25.806 98.024-76.701 127.712z" horiz-adv-x="717" data-tags="$"/><glyph unicode="magnifier" d="M990.901-7.499L660.767 322.635c69.2 71.886 107.234 166.098 107.234 266.165 0 102.57-39.942 199-112.47 271.53S486.573 972.8 384.001 972.8c-102.57 0-199-39.942-271.53-112.47S.001 691.37.001 588.8c0-102.571 39.942-199.002 112.47-271.53s168.96-112.47 271.53-112.47c87.858 0 171.195 29.33 238.882 83.315L954.701-43.703c4.998-4.998 11.549-7.498 18.101-7.498s13.102 2.499 18.101 7.499c9.998 9.997 9.998 26.205 0 36.202zM51.2 588.8c0 183.506 149.294 332.8 332.8 332.8s332.8-149.294 332.8-332.8S567.506 256 384 256 51.2 405.294 51.2 588.8z" data-tags="magnifier, search, lookup"/><glyph unicode="magic" d="M617.162 596.884c-14.883 0-26.947 12.065-26.947 26.947 0 74.294-60.443 134.737-134.737 134.737-14.882 0-26.947 12.065-26.947 26.947s12.065 26.947 26.947 26.947c74.294 0 134.737 60.443 134.737 134.737 0 14.882 12.064 26.947 26.947 26.947s26.947-12.065 26.947-26.947c0-74.294 60.443-134.737 134.737-134.737 14.883 0 26.947-12.065 26.947-26.947s-12.064-26.947-26.947-26.947c-74.294 0-134.737-60.443-134.737-134.737 0-14.882-12.064-26.947-26.947-26.947zm-64.604 188.632a190.17 190.17 0 0064.604-64.606 190.158 190.158 0 0064.606 64.606 190.158 190.158 0 00-64.606 64.606 190.17 190.17 0 00-64.604-64.606zM78.215 435.2c-14.882 0-26.947 12.065-26.947 26.947 0 14.858-12.089 26.947-26.947 26.947-14.882 0-26.947 12.065-26.947 26.947s12.065 26.947 26.947 26.947c14.858 0 26.947 12.089 26.947 26.947 0 14.882 12.065 26.947 26.947 26.947s26.947-12.065 26.947-26.947c0-14.858 12.089-26.947 26.947-26.947 14.882 0 26.947-12.065 26.947-26.947s-12.065-26.947-26.947-26.947c-14.858 0-26.947-12.089-26.947-26.947 0-14.882-12.065-26.947-26.947-26.947zm897.159-320.101l-570.521 570.52c-15.227 15.227-35.528 23.613-57.164 23.613s-41.937-8.385-57.164-23.613l-31.571-31.571c-15.227-15.227-23.613-35.528-23.613-57.164s8.385-41.937 23.613-57.164l570.52-570.518C844.699-46.025 865-54.413 886.636-54.413s41.937 8.384 57.164 23.615L975.373.773c15.227 15.225 23.613 35.528 23.613 57.162s-8.384 41.939-23.611 57.164zm-678.311 500.84l31.571 31.571c5.047 5.047 11.815 7.826 19.055 7.826s14.007-2.779 19.055-7.826l77.569-77.572-69.681-69.681-77.569 77.569c-10.507 10.509-10.507 27.604 0 38.112zM937.261 38.882L905.688 7.311c-5.046-5.046-11.815-7.825-19.052-7.825s-14.006 2.779-19.052 7.825L412.74 462.152l69.681 69.679L937.261 76.99c10.506-10.506 10.506-27.602 0-38.108zM186.004 704.674c-14.882 0-26.947 12.065-26.947 26.947 0 44.576-36.266 80.842-80.842 80.842-14.882 0-26.947 12.065-26.947 26.947s12.065 26.947 26.947 26.947c44.576 0 80.842 36.266 80.842 80.842 0 14.882 12.065 26.947 26.947 26.947s26.947-12.065 26.947-26.947c0-44.576 36.266-80.842 80.842-80.842 14.882 0 26.947-12.065 26.947-26.947s-12.065-26.947-26.947-26.947c-44.576 0-80.842-36.266-80.842-80.842 0-14.882-12.065-26.947-26.947-26.947zm-27.031 134.737a135.894 135.894 0 0027.032-27.032 135.894 135.894 0 0027.032 27.032 135.894 135.894 0 00-27.032 27.032 135.947 135.947 0 00-27.032-27.032zm27.031-673.685c-14.882 0-26.947 12.064-26.947 26.947 0 44.576-36.266 80.842-80.842 80.842-14.882 0-26.947 12.064-26.947 26.947s12.065 26.947 26.947 26.947c44.576 0 80.842 36.266 80.842 80.842 0 14.883 12.065 26.947 26.947 26.947s26.947-12.064 26.947-26.947c0-44.576 36.266-80.842 80.842-80.842 14.882 0 26.947-12.064 26.947-26.947s-12.065-26.947-26.947-26.947c-44.576 0-80.842-36.266-80.842-80.842 0-14.883-12.065-26.947-26.947-26.947zm-27.031 134.737a135.841 135.841 0 0027.032-27.032 136 136 0 0027.032 27.032 135.841 135.841 0 00-27.032 27.032 135.894 135.894 0 00-27.032-27.032z" horiz-adv-x="998" data-tags="magic, wand, tool"/><glyph unicode="lock" d="M742.4 512h-25.6v76.8c0 127.043-103.357 230.4-230.4 230.4S256 715.843 256 588.8V512h-25.6c-42.347 0-76.8-34.453-76.8-76.8V25.6c0-42.347 34.453-76.8 76.8-76.8h512c42.347 0 76.8 34.453 76.8 76.8v409.6c0 42.347-34.453 76.8-76.8 76.8zm-435.2 76.8c0 98.811 80.389 179.2 179.2 179.2s179.2-80.389 179.2-179.2V512H307.2v76.8zM768 25.6C768 11.485 756.515 0 742.4 0h-512c-14.115 0-25.6 11.485-25.6 25.6v409.6c0 14.115 11.485 25.6 25.6 25.6h512c14.115 0 25.6-11.485 25.6-25.6V25.6z" data-tags="lock, security"/><glyph unicode="invisible" d="M1017.429 503.526c-2.429 2.698-60.515 66.826-151.349 131.706-30.728 21.949-61.562 41.341-92.218 58.048l88.301 81.509c10.389 9.59 11.037 25.786 1.446 36.174-9.59 10.39-25.786 11.035-36.174 1.446L724.88 717.743a669.734 669.734 0 01-19.034 8.286c-66.837 27.85-132.056 41.97-193.846 41.97s-127.01-14.12-193.846-41.97c-52.736-21.973-106.646-52.523-160.234-90.8C67.088 570.351 9 506.223 6.571 503.525c-8.763-9.736-8.763-24.515 0-34.251C9 466.575 67.088 402.447 157.92 337.567c30.728-21.949 61.56-41.342 92.218-58.048l-88.301-81.509c-10.389-9.59-11.037-25.786-1.446-36.174 5.046-5.467 11.922-8.235 18.818-8.235a25.512 25.512 0 0117.358 6.789l102.555 94.667a678.142 678.142 0 0119.034-8.288c66.835-27.85 132.054-41.97 193.845-41.97s127.01 14.12 193.846 41.968c52.734 21.973 106.645 52.523 160.234 90.8 90.834 64.88 148.92 129.008 151.349 131.706 8.762 9.736 8.762 24.517 0 34.253zM716.8 537.6c0-112.926-91.872-204.8-204.8-204.8-36.384 0-70.573 9.549-100.218 26.253l286.294 264.272c12.203-26.486 18.723-55.614 18.723-85.725zm-73.013 156.757a206.792 206.792 0 0026.613-26.901l-300.397-277.29C331.312 427.443 307.2 479.756 307.2 537.6c0 60.835 26.552 117.683 73.013 156.757C422.322 708.101 466.815 716.8 512 716.8s89.68-8.699 131.787-22.443zm-455.203-315.77c-59.24 42.21-104.574 84.89-127.458 107.813 22.888 22.928 68.222 65.606 127.458 107.813 27.13 19.331 59.2 39.942 94.72 58.643C265.538 617.634 256 578.336 256 537.6c0-71.224 29.248-135.738 76.35-182.19l-42.248-38.997c-38.229 19.614-72.669 41.619-101.518 62.174zm646.834 0C756.93 322.662 637.109 256 512 256c-59.717 0-118.224 15.194-171.61 37.152l32.275 29.792C412.79 296.81 460.649 281.6 511.999 281.6c141.158 0 256 114.84 256 256 0 40.734-9.538 80.032-27.301 115.256 35.518-18.701 67.589-39.312 94.718-58.643 59.238-42.21 104.573-84.89 127.456-107.813-22.888-22.928-68.222-65.606-127.456-107.813z" data-tags="eye, block, forbidden"/></font>
</defs>
</svg>
