<svg width="58" height="67" xmlns="http://www.w3.org/2000/svg"><defs><linearGradient x1="12.531%" y1="0%" x2="87.469%" y2="100%" id="a"><stop stop-color="#14B2E2" offset="0%"/><stop stop-color="#00C18D" offset="100%"/></linearGradient></defs><path d="M52.912 0C55.711 0 58 2.284 58 5.076v44.666c0 2.792-2.29 5.076-5.088 5.076h-1.017v1.015c0 2.793-2.29 5.076-5.088 5.076h-1.018v1.015C45.79 64.716 43.5 67 40.702 67H5.088C2.289 67 0 64.716 0 61.924V17.258c0-2.792 2.29-5.076 5.088-5.076h1.017v-1.015c0-2.793 2.29-5.076 5.088-5.076h1.018V5.076C12.21 2.284 14.5 0 17.298 0zm-12.21 13.604H5.088a3.663 3.663 0 00-3.663 3.654v44.666a3.662 3.662 0 003.663 3.654h35.614c2.02 0 3.662-1.64 3.662-3.654V17.258a3.663 3.663 0 00-3.662-3.654zm6.105-6.092H11.193a3.663 3.663 0 00-3.662 3.655v1.015H40.7c2.799 0 5.088 2.284 5.088 5.076v42.23h1.018c2.02 0 3.662-1.64 3.662-3.655V11.167a3.663 3.663 0 00-3.662-3.655zm6.105-6.09H17.298a3.662 3.662 0 00-3.662 3.654V6.09h33.171c2.798 0 5.088 2.283 5.088 5.076v42.23h1.017a3.664 3.664 0 003.663-3.655V5.076a3.662 3.662 0 00-3.663-3.654zM14.63 29a.9.9 0 01.9.9l-.001 17.999h3.086l.001-8.549a.9.9 0 01.787-.893l.113-.007h6.706a.9.9 0 01.9.9l-.001 8.549h3.282l.001-12.126a.9.9 0 01.787-.893l.113-.007h6.706a.9.9 0 01.9.9l-.001 12.126 2.279.001a.9.9 0 01.113 1.793l-.113.007-3.165-.001-.013.001h-6.706a.919.919 0 01-.014 0H14.743l-.113.007H7.924a.909.909 0 01-.113-.007H4.9a.9.9 0 01-.113-1.793L4.9 47.9l2.123-.001.001-17.999a.9.9 0 01.787-.893L7.924 29zm22.478 18.899l.001-11.226h-4.906l-.001 11.226h4.906zm-23.378-17.1H8.823l-.001 17.1h4.907l.001-17.1zm11.592 9.45h-4.907v7.65h4.907v-7.65z" fill="url(#a)" fill-rule="evenodd"/></svg>