<svg width="96" height="98" xmlns="http://www.w3.org/2000/svg"><g fill="none"><path d="M75.3 0a7.7 7.7 0 00-6.426 11.938l-7.363 6.119A7.68 7.68 0 0055.7 15.4a7.699 7.699 0 00-7.363 5.452L38.151 19.45a7.7 7.7 0 00-15.351.849 7.692 7.692 0 003.584 6.5l-5.096 9.181h2.242l4.631-8.344a7.669 7.669 0 002.34.364c3.869 0 7.064-2.858 7.609-6.577l9.906 1.364c-.006.104-.016.208-.016.313a7.7 7.7 0 0015.398 0 7.635 7.635 0 00-.799-3.4l7.559-6.279a7.662 7.662 0 005.141 1.979A7.7 7.7 0 0075.3 0zM30.501 26.04c-3.166 0-5.74-2.575-5.74-5.74s2.574-5.739 5.74-5.739c3.164 0 5.738 2.574 5.738 5.739s-2.574 5.74-5.738 5.74zm25.199 2.8c-3.164 0-5.74-2.574-5.74-5.739s2.576-5.74 5.74-5.74c3.166 0 5.74 2.575 5.74 5.74s-2.574 5.739-5.74 5.739zm19.6-15.401c-3.164 0-5.738-2.574-5.738-5.739s2.574-5.739 5.738-5.739c3.166 0 5.74 2.574 5.74 5.739s-2.574 5.739-5.74 5.739z" fill="#14B2E2"/><g fill="#333"><path d="M95.122 50.843l-6.043-12.086C88.046 36.69 85.312 35 83.001 35h-70c-2.311 0-5.045 1.69-6.08 3.757L.878 50.843C-.155 52.91.89 54.601 3.2 54.601h4.199V91c0 3.851 3.15 7 7 7H81.6c3.85 0 7-3.149 7-7V54.601h4.2c2.31 0 3.355-1.691 2.322-3.758zM86.64 91a5.047 5.047 0 01-5.039 5.04H14.399A5.047 5.047 0 019.36 91V54.601h77.28V91zm6.908-38.534c-.02.029-.229.174-.748.174H3.2c-.518 0-.727-.145-.746-.172-.018-.032-.055-.285.178-.747l6.043-12.087c.699-1.398 2.762-2.673 4.326-2.673h70c1.563 0 3.625 1.274 4.324 2.671l6.043 12.089c.233.462.197.715.18.745z"/><path d="M63.399 89.601h12.602a4.21 4.21 0 004.199-4.2v-7a4.21 4.21 0 00-4.199-4.2H63.399a4.21 4.21 0 00-4.199 4.2v7c0 2.31 1.889 4.2 4.199 4.2zM61.161 78.4a2.24 2.24 0 012.238-2.239h12.602a2.24 2.24 0 012.238 2.239v7a2.24 2.24 0 01-2.238 2.239H63.399a2.24 2.24 0 01-2.238-2.239v-7z"/></g></g></svg>