<svg width="96" height="104" xmlns="http://www.w3.org/2000/svg"><defs><linearGradient x1="7.897%" y1="44.398%" x2="87.054%" y2="51.401%" id="a"><stop stop-color="#7FC1D5" offset="0%"/><stop stop-color="#B0BECA" offset="100%"/></linearGradient><linearGradient x1="7.897%" y1="44.263%" x2="97.872%" y2="51.592%" id="b"><stop stop-color="#B6D2ED" offset="0%"/><stop stop-color="#9EB8CE" offset="100%"/></linearGradient><linearGradient x1="50%" y1="0%" x2="50%" y2="100%" id="c"><stop stop-color="#00D9B9" stop-opacity=".5" offset="0%"/><stop stop-color="#00B786" stop-opacity=".5" offset="100%"/></linearGradient><linearGradient x1="50%" y1="0%" x2="50%" y2="100%" id="d"><stop stop-color="#00D9B9" stop-opacity=".5" offset="0%"/><stop stop-color="#00B786" stop-opacity=".5" offset="100%"/></linearGradient><linearGradient x1="50%" y1="0%" x2="50%" y2="100%" id="e"><stop stop-color="#00D9B9" stop-opacity=".5" offset="0%"/><stop stop-color="#00B786" stop-opacity=".5" offset="100%"/></linearGradient><linearGradient x1="-.086%" y1="50.031%" x2="99.972%" y2="50.031%" id="f"><stop stop-color="#00B0E3" offset="0%"/><stop stop-color="#9AD6ED" offset="100%"/></linearGradient></defs><g fill="none" fill-rule="evenodd"><g fill-rule="nonzero"><path d="M94.206 45.821c0 1.498-.657 2.949-1.97 4.072L89.2 52.481C69.853 68.96 57.58 79.76 52.376 84.884c-2.656 2.246-6.969 2.246-9.625 0L2.068 51.43C.756 50.307.1 48.81.1 47.358c0-1.497.656-2.948 1.968-4.072L41.93 8.296c2.656-2.247 6.97-2.247 9.625 0l40.683 33.453c1.312 1.077 1.969 2.575 1.969 4.072z" fill="url(#a)" opacity=".423" transform="translate(.507 16.807)"/><path d="M94.206 40.788c0 1.498-.657 2.949-1.97 4.072L89.2 47.448C69.853 63.926 57.58 74.639 52.382 79.585c-2.656 2.247-6.969 2.247-9.625 0L2.068 44.903C.756 43.78.1 42.283.1 40.831c0-1.497.656-2.948 1.968-4.072L41.923 2.034c2.657-2.246 6.97-2.246 9.626 0l40.688 34.682c1.312 1.077 1.969 2.575 1.969 4.072z" stroke="#94A1AE" stroke-width="1.045" fill="url(#b)" opacity=".594" transform="translate(.507 16.807)"/><path d="M23.207 79.28L72.52 37.313c2.923-2.469-50.759 43.2-49.314 41.965z" stroke="#FFF" stroke-width=".732" stroke-dasharray="2.925999927520752,5.851999855041504"/><path d="M72.636 79.28L21.889 36.461c-3.712-3.133 52.581 44.384 50.747 42.817z" stroke="#FFF" stroke-width=".732" stroke-dasharray="2.925999927520752,6.583500289916992"/><path fill="#FFF" opacity=".463" d="M49.826 55.703l.993.856-2.019 1.767 2.019 1.708-.856.84-2.199-1.68-2.02 1.675-.97-.835 1.954-1.708-1.736-1.453.913-.755 1.859 1.34z"/></g><g opacity=".6" stroke="#00C18D" stroke-width="2.075"><path d="M67.65 41.26c0 1.48-.639 2.915-1.915 4.026L50.642 57.58c-2.583 2.221-6.776 2.221-9.36 0L1.915 23.938C.638 22.828 0 21.347 0 19.912c0-1.48.638-2.915 1.914-4.026L17.007 3.593c2.583-2.222 6.776-2.222 9.36 0l39.368 33.641c1.276 1.064 1.914 2.545 1.914 4.026z" fill="url(#c)" transform="translate(1.612 36.423)"/><path d="M66.98 39.749c0 1.486-.638 2.926-1.913 4.04L49.992 56.13c-2.58 2.23-6.769 2.23-9.349 0L1.913 22.093C.636 20.978 0 19.492 0 18.052c0-1.486.637-2.926 1.912-4.04l15.075-12.34c2.58-2.23 6.769-2.23 9.349 0l38.731 34.036c1.275 1.068 1.912 2.554 1.912 4.04z" fill="url(#d)" transform="translate(1.612 36.423)"/></g><path d="M20.878 44.957l4.856 4.347c.552.473.648 1.21.214 1.645-.434.435-1.233.404-1.786-.068l-4.856-4.347c-.552-.473-.648-1.21-.214-1.645.434-.435 1.234-.405 1.786.068zM7.702 54.97l16.742 14.35c.556.475.652 1.214.215 1.651-.437.437-1.242.407-1.798-.068L6.12 56.554c-.556-.475-.653-1.215-.216-1.652.437-.437 1.242-.406 1.798.068zm3.862-3.333l9.34 8.125c.557.48.653 1.228.216 1.67-.437.442-1.242.411-1.799-.069l-9.34-8.125c-.557-.48-.653-1.227-.216-1.67.437-.442 1.242-.41 1.799.07zM24.767 42.1L35.7 51.674c.56.476.657 1.217.217 1.656-.44.438-1.25.408-1.81-.068l-10.933-9.575c-.56-.476-.657-1.217-.217-1.656.44-.438 1.25-.408 1.81.069zm3.51 9.532l4.856 4.347c.552.472.648 1.209.214 1.644-.434.435-1.233.405-1.785-.068l-4.857-4.347c-.552-.473-.647-1.209-.213-1.644.434-.436 1.233-.405 1.785.068z" fill="#FFF" opacity=".66"/><path d="M40.766 73.021l12.413 9.735c.29.227.156.696-.298 1.047l-3.748 2.898c-.454.351-1.057.452-1.347.225L35.373 77.19c-.29-.227-.157-.696.298-1.047l3.747-2.898c.455-.351 1.058-.452 1.348-.225zm-1.096.504l-3.737 2.854c-.151.115-.195.27-.098.346l12.46 9.77c.096.076.297.044.448-.071l3.737-2.854c.151-.115.195-.27.098-.346l-12.46-9.77c-.096-.076-.297-.045-.448.07zm9.675-8.004l12.414 9.735c.29.227.156.696-.298 1.047l-3.748 2.898c-.454.351-1.057.452-1.347.225L43.952 69.69c-.29-.227-.156-.696.298-1.047l3.748-2.898c.454-.351 1.058-.452 1.347-.225zm-1.095.504l-3.737 2.854c-.151.115-.195.27-.098.346l12.459 9.77c.097.076.298.044.449-.071l3.737-2.854c.15-.115.195-.27.098-.346l-12.46-9.77c-.096-.076-.297-.045-.448.07z" fill="#FFF" fill-rule="nonzero" opacity=".6"/><g fill="url(#e)" opacity=".6" stroke="#00C18D" stroke-width="2.075" transform="translate(42.687 13.628)"><path d="M52.108 42.71c0 .388-.177.763-.53 1.054l-.54.454c-.715.581-1.876.581-2.591 0L.53 4.673C.177 4.383 0 3.995 0 3.62c0-.388.177-.763.53-1.054l.54-.454c.715-.58 1.876-.58 2.591 0l47.917 39.545c.353.279.53.666.53 1.053z"/><path d="M52.108 41.152c0 .388-.177.763-.53 1.053l-.54.455c-.715.58-1.876.58-2.591 0L.53 3.115C.177 2.825 0 2.437 0 2.06c0-.387.177-.762.53-1.053l.54-.454c.715-.581 1.876-.581 2.591 0l47.917 39.545c.353.278.53.666.53 1.053z"/></g><g fill="#F5F5F5" transform="translate(44.456 16.592)"><circle cx=".885" cy=".736" r="1"/><circle cx="2.816" cy="2.322" r="1"/><path d="M4.907 4.643c.489 0 .885-.33.885-.736 0-.406-.396-.736-.885-.736s-.885.33-.885.736c0 .407.396.736.885.736z"/></g><path d="M90.906 54.523c.72.577.885 1.08.496 1.507l-2.09-1.709c.343-.442.874-.374 1.594.202zm.693-.884c.33.254.434.663.234.914-.2.25-.628.247-.957-.008-.328-.254-.433-.663-.233-.913.2-.25.628-.247.956.007zm-4.42-2.703l2.107 1.763c.201.167.236.427.078.58-.158.153-.448.143-.649-.024l-2.107-1.763c-.2-.167-.236-.427-.078-.58.158-.153.448-.143.65.024zm-1.586-1.293l.669.597c.192.165.226.422.074.574-.151.152-.43.141-.623-.024l-.669-.598c-.193-.164-.226-.421-.074-.573.151-.152.43-.141.623.024z" fill="#FFF"/><g transform="translate(24.235 1.229)" fill="url(#f)" fill-rule="nonzero"><path d="M67.25 39.923c0 1.397-.639 2.751-1.918 3.8L51.185 55.754c-2.588 2.096-6.79 2.096-9.378 0L1.918 23.028C.64 21.98 0 20.582 0 19.228c0-1.397.64-2.751 1.918-3.8L16.066 3.397c2.588-2.096 6.79-2.096 9.378 0l39.888 32.727c1.28 1.005 1.919 2.402 1.919 3.8z" stroke="#14B2E2" stroke-width=".988" opacity=".6"/><path d="M67.25 48.507c0 1.398-.639 2.752-1.918 3.8L51.185 64.339c-2.588 2.096-6.79 2.096-9.378 0L1.918 31.612C.64 30.564 0 29.166 0 27.812c0-1.397.64-2.75 1.918-3.799l14.148-12.032c2.588-2.097 6.79-2.097 9.378 0l39.888 32.727c1.28 1.004 1.919 2.402 1.919 3.8z" opacity=".4"/><path d="M67.25 38.188c0 1.398-.639 2.752-1.918 3.8L51.185 54.02c-2.588 2.097-6.79 2.097-9.378 0L1.918 21.293C.64 20.245 0 18.848 0 17.493c0-1.397.64-2.75 1.918-3.799L16.066 1.662c2.588-2.097 6.79-2.097 9.378 0l39.888 32.727c1.28 1.004 1.919 2.402 1.919 3.8z" stroke="#14B2E2" stroke-width=".988" opacity=".6"/></g><path stroke="#FFF" stroke-width="2" opacity=".714" d="M29.437 17.638l13.25-1.27 1.112 5.9 18.113-1.558 1.631 12.787 9.32-.815 1.557 12.632"/><path d="M74.507 43.321c1.17 0 2.145.853 2.145 1.942 0 1.09-.975 1.942-2.145 1.942s-2.145-.852-2.145-1.942c0-1.09.975-1.942 2.145-1.942zm0 1.072c-.607 0-1.072.407-1.072.87s.465.87 1.072.87 1.073-.406 1.073-.87-.466-.87-1.073-.87zM63.247 31c1.17 0 2.144.852 2.144 1.942 0 1.09-.975 1.942-2.145 1.942s-2.145-.852-2.145-1.942c0-1.09.976-1.942 2.145-1.942zm9.652 0c1.17 0 2.144.852 2.144 1.942 0 1.09-.975 1.942-2.144 1.942-1.17 0-2.145-.852-2.145-1.942 0-1.09.975-1.942 2.145-1.942zm-9.653 1.071c-.607 0-1.072.407-1.072.871s.465.87 1.072.87 1.073-.406 1.073-.87-.466-.87-1.073-.87zm9.653 0c-.607 0-1.073.407-1.073.871s.466.87 1.073.87 1.072-.406 1.072-.87-.465-.87-1.072-.87zM43.406 20.286c1.17 0 2.145.852 2.145 1.942 0 1.09-.975 1.942-2.145 1.942s-2.145-.853-2.145-1.942c0-1.09.975-1.942 2.145-1.942zm0 1.071c-.607 0-1.073.407-1.073.87s.466.871 1.073.871 1.072-.407 1.072-.87-.465-.87-1.072-.87zm18.232-2.143c1.17 0 2.145.853 2.145 1.942 0 1.09-.975 1.942-2.145 1.942s-2.145-.852-2.145-1.942c0-1.09.975-1.942 2.145-1.942zm0 1.072c-.607 0-1.073.407-1.073.87s.466.87 1.073.87 1.072-.406 1.072-.87-.465-.87-1.072-.87zM30 15.464c1.17 0 2.145.853 2.145 1.942S31.17 19.348 30 19.348s-2.145-.852-2.145-1.942c0-1.09.975-1.942 2.145-1.942zm0 1.072c-.607 0-1.072.407-1.072.87s.465.87 1.072.87 1.072-.406 1.072-.87-.465-.87-1.072-.87zm12.87-2.143c1.17 0 2.144.852 2.144 1.942 0 1.09-.975 1.942-2.144 1.942-1.17 0-2.145-.853-2.145-1.942 0-1.09.975-1.942 2.145-1.942zm0 1.071c-.607 0-1.073.407-1.073.87 0 .465.466.871 1.073.871s1.072-.406 1.072-.87c0-.464-.465-.87-1.072-.87z" fill="#FFF" fill-rule="nonzero"/><path d="M71.37 53.387l.181.146-.337.417-.181-.146.337-.417zm-3.337-2.694l1.669 1.347-.337.417-1.669-1.347.337-.417zM64.696 48l1.669 1.347-.337.416-1.669-1.346.337-.417zm12.036 1.101l.181.146-.337.417-.18-.146.336-.417zm-3.337-2.693l1.669 1.346-.337.417-1.669-1.347.337-.416zM61.36 45.307l1.669 1.346-.337.417-1.669-1.347.337-.416zm8.7-1.593l1.668 1.347-.337.417-1.668-1.347.337-.417zm12.572 1.101l.181.147-.337.416-.181-.146.337-.417zm-24.609-2.202l1.669 1.347-.337.417-1.669-1.347.337-.417zm21.272-.491l1.668 1.347-.337.416-1.668-1.346.337-.417zm-12.572-1.1l1.668 1.346-.337.416-1.668-1.346.337-.417zM54.686 39.92l1.668 1.347-.337.416-1.668-1.346.337-.417zm21.271-.491l1.668 1.346-.336.417-1.669-1.347.337-.416zm12.572 1.1l.182.147-.337.417-.182-.147.337-.416zm-25.144-2.201l1.668 1.346-.337.417-1.668-1.347.337-.416zm21.807-.492l1.669 1.347-.337.417-1.669-1.347.337-.417zm-33.843-.61l1.668 1.347-.337.417-1.668-1.347.337-.416zm21.271-.49l1.669 1.346-.337.417-1.669-1.347.337-.417zm-12.572-1.102l1.668 1.347-.337.417-1.668-1.347.337-.417zm21.808-.491l1.668 1.347-.337.416-1.668-1.346.337-.417zm-33.844-.61l1.668 1.347-.337.417-1.668-1.347.337-.417zm21.271-.491l1.669 1.347-.337.416-1.669-1.346.337-.417zm-12.572-1.101l1.668 1.347-.337.416-1.668-1.346.337-.417zm21.808-.491l1.668 1.346-.337.417-1.668-1.347.337-.416zm-33.844-.61l1.668 1.347-.337.416-1.668-1.346.337-.417zm21.271-.491l1.669 1.346-.337.417-1.669-1.347.337-.416zm-12.572-1.101l1.669 1.346-.337.417-1.669-1.347.337-.416zm21.808-.492l1.668 1.347-.337.417-1.668-1.347.337-.417zm-33.844-.61l1.669 1.347-.337.417L41 29.563l.337-.416zm21.272-.49l1.668 1.346-.337.417-1.668-1.347.337-.417zm-12.573-1.102l1.669 1.347-.337.417L49.7 27.97l.337-.417zm21.808-.491l1.668 1.347-.337.416-1.668-1.346.337-.417zm-33.844-.61L39.67 27.8l-.337.417-1.669-1.347.337-.417zm21.272-.491l1.668 1.347-.337.416-1.668-1.346.337-.417zM46.7 24.861l1.669 1.347-.337.416-1.669-1.346.337-.417zm21.808-.491l1.669 1.346-.337.417-1.669-1.347.337-.416zm-33.844-.61l1.669 1.347-.337.416-1.669-1.346.337-.417zm21.272-.491l1.668 1.346-.337.417-1.668-1.347.337-.416zm-12.572-1.101l1.668 1.346-.337.417-1.668-1.347.337-.416zm21.807-.492l1.669 1.347-.337.417-1.669-1.347.337-.417zm-33.844-.61l1.669 1.347-.337.417-1.669-1.347.337-.416zm21.272-.49l1.668 1.346-.337.417-1.668-1.347.337-.417zm-12.572-1.102l1.668 1.347-.337.417-1.668-1.347.337-.417zm21.807-.491l1.669 1.347-.337.416-1.669-1.346.337-.417zm-33.843-.61l1.668 1.347-.337.417-1.668-1.347.337-.417zm21.271-.491l1.669 1.347-.337.416-1.669-1.346.337-.417zM36.69 16.78l1.668 1.347-.337.416-1.668-1.346.337-.417zm21.807-.491l1.669 1.346-.337.417-1.668-1.347.336-.416zm-12.572-1.101l1.669 1.346-.337.417-1.669-1.347.337-.416zm-12.572-1.101l1.668 1.346-.337.417-1.668-1.347.337-.416zm21.808-.492l1.668 1.347-.337.417-1.668-1.347.337-.417zm-12.573-1.1l1.669 1.346-.337.417-1.669-1.347.337-.417zm9.236-1.593l1.668 1.347-.337.416-1.668-1.346.337-.417zm-12.574-1.1l1.669 1.347-.337.416-1.669-1.346.337-.417zm9.236-1.592l1.668 1.346-.337.417-1.668-1.347.337-.416zM45.15 5.516l1.668 1.347-.337.417-1.668-1.347.337-.417z" fill="#FFF" fill-rule="nonzero" opacity=".23"/><path fill="#000" opacity=".189" d="M14.906 40.456l38.586 52.526 4.887-4.211-37.716-52.6z"/><path fill="#EFE3CC" d="M17.378 30.048l-3.522 3.688-5.833-12.377.647-1.454z"/><path fill="#7E7E7E" d="M13.856 33.736l3.522-3.688L57.18 84.33l-3.367 3.835z"/><path fill="#686868" d="M53.387 89.61l.426-1.445-39.957-54.43 1.13 3.47z"/><path d="M17.378 30.048l4.072-.66c5.537 7.38 18.913 25.635 40.128 54.768-1.676-.746-3.142-.688-4.398.174L17.378 30.048z" fill="#ADADAD"/><path fill="#FCEFD6" d="M17.378 30.048l4.072-.66-11.579-9.68-1.201.197z"/><path fill="#B5AA95" d="M14.52 36.466l-.664-2.73-5.833-12.377z"/><path fill="#373737" d="M8.023 21.36l1.848-1.653-2.758-1.755z"/><path d="M53.727 89.761a352.61 352.61 0 006.297 9.195l8.656-5.13a601.087 601.087 0 01-6.617-9.19c-4.189-1.866-8.06 1.306-8.336 5.125z" fill="#EBE9EA"/><path d="M57.72 95.677s1.559-7.756 8.325-5.289m-10.626 2.153s1.558-7.756 8.324-5.289" stroke="#C3C3C3" stroke-width=".9"/><path d="M68.556 94.386c-.048-.862-2.8-2.566-5.502-.656-2.702 1.91-3.507 4.123-2.827 5.126.68 1.003 3.785.729 5.439-.218s2.939-3.39 2.89-4.252z" fill="#C5C5C5"/><path d="M68.8 95.022c-.048-.861-2.8-2.565-5.501-.655-2.702 1.91-3.507 4.123-2.827 5.126.68 1.003 4.278 5.136 5.932 4.189 1.214-.695 4.208-3.256 4.502-5.61.107-.855-2.092-2.82-2.105-3.05z" fill="#686868"/><path d="M71.179 98.76c-.034-.798-2.508-2.345-4.978-.544-2.47 1.802-3.225 3.862-2.62 4.784.604.922 3.42.63 4.93-.266 1.51-.897 2.702-3.176 2.668-3.974z" fill="#545454"/></g></svg>