<svg width="64" height="62" xmlns="http://www.w3.org/2000/svg"><defs><linearGradient x1="0%" y1="3.076%" x2="100%" y2="96.924%" id="a"><stop stop-color="#14B2E2" offset="0%"/><stop stop-color="#00C18D" offset="100%"/></linearGradient></defs><path d="M58.136 0C61.36 0 64 2.632 64 5.85v50.3c0 3.22-2.639 5.85-5.864 5.85H5.864C2.64 62 0 59.37 0 56.15V5.85C0 2.631 2.639 0 5.864 0zm4.222 14.467H1.643v41.684a4.222 4.222 0 004.221 4.212h52.272a4.222 4.222 0 004.222-4.212V14.467zM22.224 27.093c.424.422.01 1.091-.361 1.545l-.08.088-6.609 6.591 6.61 6.592c.423.422.89 1.091.52 1.545l-.08.087c-.424.423-.806.45-1.26.08l-.089-.08-7.427-7.408a1.153 1.153 0 01-.08-1.545l.08-.087 7.427-7.408c.452-.451.897-.451 1.35 0zm20.89-.08l.088.08 7.427 7.408c.424.422.45 1.091.08 1.545l-.08.087-7.427 7.408a1.16 1.16 0 01-1.637 0c-.424-.422.034-1.091.405-1.545l.08-.087 6.609-6.592-6.61-6.591c-.423-.423-.935-1.092-.564-1.546l.08-.087a1.16 1.16 0 011.549-.08zm-8.68-.126c.567.199.526.686.384 1.257l-.032.106-5.172 14.683c-.212.602-.517 1.026-1.12.815a1.154 1.154 0 01-.74-1.365l.031-.107 5.173-14.683a1.158 1.158 0 011.475-.706zM58.135 1.639H5.864a4.22 4.22 0 00-4.221 4.21v6.98h60.714V5.85a4.22 4.22 0 00-4.221-4.21zm-7.609 4.795c.648 0 1.173.524 1.173 1.17 0 .646-.525 1.17-1.173 1.17a1.171 1.171 0 01-1.173-1.17c0-.646.526-1.17 1.173-1.17zm5.865 0c.648 0 1.173.524 1.173 1.17 0 .646-.525 1.17-1.173 1.17a1.171 1.171 0 01-1.173-1.17c0-.646.525-1.17 1.173-1.17zm-42.84.523c.443 0 .802.326.802.727 0 .378-.318.689-.725.724l-.077.004H7.135c-.443 0-.802-.326-.802-.728 0-.378.318-.688.725-.724l.077-.003h6.417z" fill="url(#a)" fill-rule="evenodd"/></svg>