<svg width="90" height="90" xmlns="http://www.w3.org/2000/svg"><g fill="none"><path d="M16.064 29.45a.884.884 0 01-.61-.249.866.866 0 010-1.224l3.026-3.025a.86.86 0 111.218 1.22l-3.022 3.03a.884.884 0 01-.612.248zm13.29 13.3a.84.84 0 01-.603-.253.856.856 0 010-1.211l3.006-3.027a.872.872 0 111.241 1.227l-3.01 3.011a.855.855 0 01-.633.253zM53.118 66.5a.871.871 0 01-.612-1.488l3.048-3.046a.873.873 0 011.233 1.227l-3.053 3.051a.868.868 0 01-.616.256zm14.26 14.25a.862.862 0 01-.61-1.486l3.018-3.013A.858.858 0 1171 77.465l-3.013 3.017a.857.857 0 01-.609.268z" fill="#14B2E2"/><path d="M76.408 89.3a.792.792 0 01-.56-.233L43.946 57.13a.794.794 0 111.12-1.121L76.408 87.4l10.967-10.98L56.05 45.015a.794.794 0 011.116-1.12l31.902 31.938a.79.79 0 010 1.12L76.991 89.068a.789.789 0 01-.583.233zM32.214 45.582a.77.77 0 01-.552-.233L.225 13.44a.81.81 0 010-1.12L12.129.231a.77.77 0 011.1 0L44.41 31.878a.8.8 0 01.214.774.787.787 0 01-.562.566.773.773 0 01-.76-.224L12.677 1.907 1.872 12.878l30.89 31.356a.8.8 0 01.184.872.78.78 0 01-.732.494v-.018z" fill="#231F20"/><path d="M9.386 22.8a.84.84 0 01-.59-1.435l5.88-5.878a.842.842 0 111.184 1.188l-5.88 5.879a.837.837 0 01-.594.246zm13.317 13.3a.842.842 0 01-.593-1.45l5.868-5.86a.838.838 0 011.448.35.842.842 0 01-.262.833l-5.863 5.88a.828.828 0 01-.598.247zm23.648 22.8a.742.742 0 01-.52-1.279l5.19-5.19a.743.743 0 011.045 1.049l-5.174 5.202a.738.738 0 01-.541.218zM60.6 73.15a.742.742 0 01-.52-1.278l5.19-5.19a.743.743 0 011.045 1.048l-5.19 5.186a.738.738 0 01-.525.234zm13.304 13.3a.742.742 0 01-.525-1.28l5.192-5.188a.742.742 0 011.044 1.049l-5.179 5.201a.737.737 0 01-.532.218zm-59.35-2.85a8.858 8.858 0 01-6.265-15.114L66.095 10.67a.802.802 0 011.103 0l11.423 11.425a.78.78 0 010 1.103L20.815 81.014a8.787 8.787 0 01-6.261 2.586zm52.095-71.272L9.397 69.59a7.299 7.299 0 00.107 10.209 7.296 7.296 0 0010.207.111l57.252-57.26L66.65 12.328z" fill="#231F20"/><path d="M78.73 22.8a.906.906 0 01-.22-.027.82.82 0 01-.501-.369.754.754 0 01-.08-.599l3.082-10.729a.807.807 0 01.585-.596.856.856 0 01.826.216c.212.213.283.52.184.798l-3.081 10.725a.823.823 0 01-.795.581zM67.309 11.4c-.423.013-.78-.33-.807-.777-.028-.447.282-.837.702-.883.204-.034 1.652-.4 10.648-3.06.27-.08.561 0 .762.209.2.208.281.514.211.803a.813.813 0 01-.55.595C68.111 11.3 67.58 11.371 67.407 11.395l-.1.005zm-42.49 65.55a.798.798 0 01-.568-.236L12.547 64.983a.806.806 0 01.04-1.098.802.802 0 011.095-.036l11.719 11.713a.806.806 0 01-.568 1.388h-.014zm-2.83 1.886a.806.806 0 01-.57-.236L9.68 66.86a.805.805 0 011.125-1.139l11.746 11.74a.805.805 0 01-.57 1.388l.01-.014z" fill="#231F20"/><path d="M18.852 71.25a.788.788 0 01-.557-1.359L71.81 16.38a.785.785 0 111.11 1.11L19.408 71.018a.788.788 0 01-.557.231z" fill="#231F20"/><path d="M81.418 12.35a.786.786 0 01-.62-.304.777.777 0 01-.137-.675l1.034-3.756-3.748 1.05a.781.781 0 11-.421-1.506L82.6 5.73a.787.787 0 01.768.198.78.78 0 01.202.763l-1.391 5.087a.784.784 0 01-.762.573z" fill="#14B2E2"/><path d="M81.808 12.33a.837.837 0 01-.593-.248l-3.974-3.947a.846.846 0 111.192-1.196l3.954 3.952a.846.846 0 01-.598 1.459l.02-.02z" fill="#14B2E2"/></g></svg>