<svg width="838" height="657" xmlns="http://www.w3.org/2000/svg"><defs><linearGradient x1="-.086%" y1="50.031%" x2="99.972%" y2="50.031%" id="a"><stop stop-color="#00B0E3" offset="0%"/><stop stop-color="#9AD6ED" offset="100%"/></linearGradient></defs><g fill="none" fill-rule="evenodd"><path d="M338.119 293.011c0 3.578-2.353 7.043-7.057 9.726L279.02 333.54c-9.52 5.366-24.977 5.366-34.498 0L97.788 249.762c-4.704-2.683-7.056-6.26-7.056-9.726 0-3.578 2.352-7.043 7.056-9.726l52.043-30.802c9.52-5.366 24.977-5.366 34.497 0l146.734 83.777c4.704 2.571 7.057 6.149 7.057 9.726z" fill="#000" fill-rule="nonzero" opacity=".08"/><path d="M248.86 102.271c0 3.578-2.353 7.043-7.057 9.726L189.76 142.8c-9.52 5.366-24.977 5.366-34.497 0L8.529 59.022c-4.704-2.683-7.056-6.26-7.056-9.726 0-3.578 2.352-7.043 7.056-9.726L60.572 8.768c9.52-5.366 24.977-5.366 34.497 0l146.734 83.777c4.704 2.571 7.056 6.149 7.056 9.726z" stroke="#14B2E2" stroke-width=".8" fill="url(#a)" fill-rule="nonzero" opacity=".6" transform="translate(90 153)"/><path d="M248.86 97.831c0 3.578-2.353 7.043-7.057 9.726L189.76 138.36c-9.52 5.366-24.977 5.366-34.497 0L8.529 54.582c-4.704-2.683-7.056-6.26-7.056-9.726 0-3.578 2.352-7.043 7.056-9.726L60.572 4.328c9.52-5.366 24.977-5.366 34.497 0l146.734 83.777c4.704 2.571 7.056 6.149 7.056 9.726z" stroke="#14B2E2" stroke-width=".8" fill="url(#a)" fill-rule="nonzero" opacity=".6" transform="translate(90 153)"/><path stroke="#FFF" stroke-width=".8" opacity=".454" stroke-dasharray="4" d="M104.814 198.14l156.135 88.346M120.368 188.52l156.135 88.346m-139.84-97.226l156.135 88.346M152.217 170.02l156.135 88.346m-139.84-97.226l156.135 88.346"/><path stroke="#000" stroke-width="3.2" opacity=".076" d="M111.1 205.313l41.117-7.173 4.542 16.053h32.16l9.517 18.5 48.144-8.88v18.5h35.195l25.605 7.173"/><path stroke="#FFF" stroke-width="3.2" opacity=".716" style="mix-blend-mode:overlay" d="M111.1 197.913l41.117-7.173 4.542 16.053h32.16l9.517 18.5 48.144-8.88v18.5h35.195l25.605 7.173"/></g></svg>