<svg width="914" height="718" fill="none" xmlns="http://www.w3.org/2000/svg"><g fill="#fff" stroke="#1B127D"><path d="M474.343 195.655c0 3.998-2.627 7.871-7.881 10.869l-58.128 34.423c-10.634 5.997-27.898 5.997-38.532 0L205.91 147.321c-5.254-2.999-7.881-6.997-7.881-10.87 0-3.998 2.627-7.871 7.881-10.869l58.128-34.423c10.634-5.997 27.898-5.997 38.532 0l163.892 93.626c5.254 2.874 7.881 6.872 7.881 10.87z"/><path d="M474.343 190.693c0 3.998-2.627 7.871-7.881 10.869l-58.128 34.423c-10.634 5.997-27.898 5.997-38.532 0L205.91 142.359c-5.254-2.999-7.881-6.997-7.881-10.87 0-3.998 2.627-7.871 7.881-10.869l58.128-34.423c10.634-5.997 27.898-5.997 38.532 0l163.892 93.626c5.254 2.874 7.881 6.872 7.881 10.87z"/></g><path fill-rule="evenodd" clip-rule="evenodd" d="M306.057 126.407l-22.958-13.69-22.151 12.884 22.151 14.092 22.958-13.286zm36.148 20.721l-22.958-13.689-22.151 12.884 22.151 14.093 22.958-13.288zm35.598 20.971l-22.957-13.689-22.153 12.884 22.153 14.092 22.957-13.287zm36.149 20.169l-22.957 13.287-22.153-14.092 22.153-12.884 22.957 13.689z" fill="#BFC9D1"/><mask id="a" style="mask-type:alpha" maskUnits="userSpaceOnUse" x="283" y="13" width="24" height="120"><path fill-rule="evenodd" clip-rule="evenodd" d="M283.099 132.06l22.555-13.031.403-105.34-22.958 13.286V132.06z" fill="#fff"/></mask><g mask="url(#a)"><path d="M283.599 27.264v103.93l21.556-12.455.399-104.181-21.955 12.705z" fill="#fff" stroke="#1B127D"/></g><mask id="b" style="mask-type:alpha" maskUnits="userSpaceOnUse" x="260" y="0" width="47" height="27"><path fill-rule="evenodd" clip-rule="evenodd" d="M283.101 0l22.956 13.69-22.958 13.286-22.151-14.092L283.099 0h.002z" fill="#fff"/></mask><g mask="url(#b)"><path fill-rule="evenodd" clip-rule="evenodd" d="M283.101 0l22.956 13.69-22.958 13.286-22.151-14.092L283.099 0h.002z" fill="#ED26B7"/></g><mask id="c" style="mask-type:alpha" maskUnits="userSpaceOnUse" x="260" y="12" width="24" height="121"><path fill-rule="evenodd" clip-rule="evenodd" d="M283.1 26.975V132.06l-22.152-12.885V12.884L283.1 26.975z" fill="#fff"/></mask><g mask="url(#c)"><path d="M261.448 13.794v105.094l21.152 12.303V27.25l-21.152-13.456z" fill="#fff" stroke="#1B127D"/></g><mask id="d" style="mask-type:alpha" maskUnits="userSpaceOnUse" x="319" y="53" width="24" height="100"><path fill-rule="evenodd" clip-rule="evenodd" d="M319.247 152.677l22.555-13.03.403-86.3-22.958 13.287v86.043z" fill="#fff"/></mask><g mask="url(#d)"><path d="M319.747 66.923v84.888l21.556-12.454.398-85.14-21.954 12.706z" fill="#fff" stroke="#1B127D"/></g><mask id="e" style="mask-type:alpha" maskUnits="userSpaceOnUse" x="297" y="39" width="46" height="28"><path fill-rule="evenodd" clip-rule="evenodd" d="M342.205 53.347l-22.958-13.689-22.152 12.884 22.152 14.092 22.958-13.287z" fill="#fff"/></mask><g mask="url(#e)"><path fill-rule="evenodd" clip-rule="evenodd" d="M342.205 53.347l-22.958-13.689-22.152 12.884 22.152 14.092 22.958-13.287z" fill="#ED26B7"/></g><mask id="f" style="mask-type:alpha" maskUnits="userSpaceOnUse" x="297" y="52" width="23" height="101"><path d="M297.595 53.453v86.054l21.152 12.301v-84.9l-21.152-13.455z" fill="#fff" stroke="#fff"/></mask><g mask="url(#f)"><path d="M297.595 53.453v86.054l21.152 12.301v-84.9l-21.152-13.455z" fill="#fff" stroke="#1B127D"/></g><mask id="g" style="mask-type:alpha" maskUnits="userSpaceOnUse" x="354" y="92" width="24" height="82"><path fill-rule="evenodd" clip-rule="evenodd" d="M354.846 173.249l22.555-13.031.403-67.259-22.958 13.287v67.003z" fill="#fff"/></mask><g mask="url(#g)"><path d="M355.346 106.534v65.849l21.556-12.455.396-66.099-21.952 12.705z" fill="#fff" stroke="#1B127D"/></g><mask id="h" style="mask-type:alpha" maskUnits="userSpaceOnUse" x="332" y="79" width="46" height="28"><path fill-rule="evenodd" clip-rule="evenodd" d="M377.804 92.96l-22.958-13.69-22.152 12.884 22.152 14.092 22.958-13.287z" fill="#fff"/></mask><g mask="url(#h)"><path fill-rule="evenodd" clip-rule="evenodd" d="M377.804 92.96l-22.958-13.69-22.152 12.884 22.152 14.092 22.958-13.287z" fill="#ED26B7"/></g><mask id="i" style="mask-type:alpha" maskUnits="userSpaceOnUse" x="332" y="92" width="23" height="82"><path fill-rule="evenodd" clip-rule="evenodd" d="M354.846 106.246v67.003l-22.152-12.884v-68.21l22.152 14.091z" fill="#fff"/></mask><g mask="url(#i)"><path d="M333.194 93.065v67.012l21.152 12.303v-65.86l-21.152-13.455z" fill="#fff" stroke="#1B127D"/></g><mask id="j" style="mask-type:alpha" maskUnits="userSpaceOnUse" x="368" y="128" width="46" height="28"><path fill-rule="evenodd" clip-rule="evenodd" d="M413.952 142.381l-22.957 13.287-22.153-14.091 22.153-12.885 22.957 13.689z" fill="#fff"/></mask><g mask="url(#j)"><path fill-rule="evenodd" clip-rule="evenodd" d="M413.952 142.381l-22.957 13.287-22.153-14.091 22.153-12.885 22.957 13.689z" fill="#ED26B7"/></g><mask id="k" style="mask-type:alpha" maskUnits="userSpaceOnUse" x="368" y="141" width="23" height="54"><path fill-rule="evenodd" clip-rule="evenodd" d="M390.994 155.668v38.442l-22.151-12.884v-39.65l22.151 14.092z" fill="#fff"/></mask><g mask="url(#k)"><path d="M369.343 142.487v38.451l21.151 12.302v-37.298l-21.151-13.455z" fill="#fff" stroke="#1B127D"/></g><mask id="l" style="mask-type:alpha" maskUnits="userSpaceOnUse" x="390" y="142" width="24" height="53"><path fill-rule="evenodd" clip-rule="evenodd" d="M413.549 181.078l-22.554 13.032v-38.442l22.957-13.287-.403 38.697z" fill="#fff"/></mask><g mask="url(#l)"><path d="M413.443 143.254l-21.948 12.702v37.288l21.557-12.456.391-37.534z" fill="#fff" stroke="#1B127D"/></g></svg>