<svg width="838" height="657" xmlns="http://www.w3.org/2000/svg"><defs><linearGradient x1="7.897%" y1="47.503%" x2="87.054%" y2="50.625%" id="a"><stop stop-color="#7FC1D5" offset="0%"/><stop stop-color="#B0BECA" offset="100%"/></linearGradient><linearGradient x1="33.916%" y1="48.447%" x2="87.054%" y2="50.659%" id="b"><stop stop-color="#CCD7E1" offset="0%"/><stop stop-color="#ACCEEE" offset="36.847%"/><stop stop-color="#AAC6E1" offset="44.297%"/><stop stop-color="#698094" offset="100%"/></linearGradient><linearGradient x1="7.897%" y1="47.511%" x2="87.054%" y2="50.622%" id="c"><stop stop-color="#A5BAD0" offset="0%"/><stop stop-color="#8195A5" offset="100%"/></linearGradient><linearGradient x1="50%" y1="0%" x2="50%" y2="100%" id="d"><stop stop-color="#00D9B9" stop-opacity=".5" offset="0%"/><stop stop-color="#00B786" stop-opacity=".5" offset="100%"/></linearGradient><linearGradient x1="50%" y1="0%" x2="50%" y2="100%" id="e"><stop stop-color="#B4BABF" offset="0%"/><stop stop-color="#585A5C" offset="100%"/></linearGradient><linearGradient x1="-.086%" y1="50.031%" x2="99.972%" y2="50.031%" id="f"><stop stop-color="#00B0E3" offset="0%"/><stop stop-color="#9AD6ED" offset="100%"/></linearGradient><linearGradient x1="-.086%" y1="50.031%" x2="99.972%" y2="50.031%" id="g"><stop stop-color="#00B0E3" offset="0%"/><stop stop-color="#9AD6ED" offset="100%"/></linearGradient><linearGradient x1="50%" y1="0%" x2="50%" y2="100%" id="h"><stop stop-color="#0A6F99" offset="0%"/><stop stop-color="#02285B" offset="100%"/></linearGradient><linearGradient x1="-.086%" y1="50.031%" x2="99.972%" y2="50.031%" id="i"><stop stop-color="#00B0E3" offset="0%"/><stop stop-color="#9AD6ED" offset="100%"/></linearGradient><linearGradient x1="-.026%" y1="50.04%" x2="99.972%" y2="50.04%" id="j"><stop stop-color="#00AFE4" offset="0%"/><stop stop-color="#0092CF" offset="41.03%"/><stop stop-color="#006185" offset="55.07%"/><stop stop-color="#0073B6" offset="100%"/></linearGradient><linearGradient x1="8.12%" y1="67.582%" x2="100.574%" y2="50%" id="k"><stop stop-color="#15607F" offset="0%"/><stop stop-color="#1A5C8F" offset="45.995%"/><stop stop-color="#134A78" offset="100%"/></linearGradient><linearGradient x1="50%" y1="0%" x2="50%" y2="100%" id="l"><stop stop-color="#00D9B9" stop-opacity=".5" offset="0%"/><stop stop-color="#00B786" stop-opacity=".5" offset="100%"/></linearGradient><linearGradient x1="50%" y1="0%" x2="50%" y2="100%" id="m"><stop stop-color="#00D9B9" stop-opacity=".5" offset="0%"/><stop stop-color="#00B786" stop-opacity=".5" offset="100%"/></linearGradient><linearGradient x1="-.086%" y1="49.979%" x2="99.972%" y2="49.979%" id="n"><stop stop-color="#00B0E3" offset="0%"/><stop stop-color="#9AD6ED" offset="100%"/></linearGradient><linearGradient x1=".034%" y1="50.042%" x2="99.972%" y2="50.042%" id="o"><stop stop-color="#00AFE4" offset="0%"/><stop stop-color="#0092CF" offset="41.03%"/><stop stop-color="#006185" offset="55.07%"/><stop stop-color="#0073B6" offset="100%"/></linearGradient><linearGradient x1="-.026%" y1="49.987%" x2="99.972%" y2="49.987%" id="p"><stop stop-color="#00B0E3" offset="0%"/><stop stop-color="#9AD6ED" offset="100%"/></linearGradient><linearGradient x1=".034%" y1="50.052%" x2="99.972%" y2="50.052%" id="q"><stop stop-color="#00AFE4" offset="0%"/><stop stop-color="#0092CF" offset="41.03%"/><stop stop-color="#006185" offset="55.07%"/><stop stop-color="#0073B6" offset="100%"/></linearGradient><linearGradient x1="-.086%" y1="50.031%" x2="99.972%" y2="50.031%" id="r"><stop stop-color="#00B0E3" offset="0%"/><stop stop-color="#9AD6ED" offset="100%"/></linearGradient><linearGradient x1="-.026%" y1="50.04%" x2="99.972%" y2="50.04%" id="s"><stop stop-color="#00AFE4" offset="0%"/><stop stop-color="#0092CF" offset="41.03%"/><stop stop-color="#006185" offset="55.07%"/><stop stop-color="#0073B6" offset="100%"/></linearGradient><linearGradient x1="50%" y1="0%" x2="50%" y2="100%" id="t"><stop stop-color="#00D9B9" stop-opacity=".799" offset="0%"/><stop stop-color="#00B786" stop-opacity=".919" offset="100%"/></linearGradient><linearGradient x1="0%" y1="50%" x2="100%" y2="50%" id="u"><stop stop-color="#00D2AA" offset="0%"/><stop stop-color="#1070B1" offset="100%"/></linearGradient><linearGradient x1="0%" y1="50.006%" x2="100%" y2="50.006%" id="v"><stop stop-color="#008D82" offset="0%"/><stop stop-color="#109AB1" offset="100%"/></linearGradient></defs><g fill="none" fill-rule="evenodd"><path d="M86.45 572.567l17.087-10.392-6.778-4.219-17.086 10.392 6.777 4.219zM113.146 557l17.087-10.392-6.778-4.219-17.086 10.392 6.777 4.219zm27.438-16.308L157.67 530.3l-6.777-4.219-17.087 10.392 6.778 4.219zm27.437-16.308l17.087-10.391-6.778-4.219-17.086 10.392 6.777 4.218zm26.696-15.566l17.087-10.392-6.778-4.218L187.94 504.6l6.777 4.22zm27.437-16.307l17.087-10.392-6.777-4.219-17.087 10.392 6.777 4.219zm27.438-16.308l17.087-10.392-6.778-4.218-17.087 10.391 6.778 4.22zm26.696-15.566l17.087-10.392-6.778-4.219-17.087 10.392 6.778 4.219zm27.437-16.308l17.087-10.391-6.778-4.22-17.086 10.393 6.777 4.218zm27.438-16.307l17.086-10.392-6.777-4.219-17.087 10.392 6.778 4.219z" fill="#14B2E2" fill-rule="nonzero" opacity=".712"/><path d="M768.989 582.567l-17.087-10.392 6.778-4.219 17.086 10.392-6.777 4.219zM742.293 567l-17.087-10.392 6.778-4.219 17.086 10.392-6.777 4.219zm-27.438-16.308L697.769 540.3l6.777-4.219 17.087 10.392-6.778 4.219zm-27.437-16.308l-17.087-10.391 6.778-4.219 17.086 10.392-6.777 4.218zm-26.696-15.566l-17.087-10.392 6.778-4.218 17.086 10.391-6.777 4.22zm-27.438-16.307l-17.086-10.392 6.777-4.219 17.087 10.392-6.778 4.219zm-27.437-16.308l-17.087-10.392 6.778-4.218 17.086 10.391-6.777 4.22zm-26.696-15.566l-17.087-10.392 6.778-4.219 17.087 10.392-6.778 4.219zm-27.437-16.308l-17.087-10.391 6.777-4.22 17.087 10.393-6.777 4.218zm-27.438-16.307L507.19 427.63l6.778-4.219 17.087 10.392-6.778 4.219z" fill="#00C18D" fill-rule="nonzero" opacity=".712"/><path d="M789.353 288.626c0 3.582-2.353 7.052-7.057 9.738l-10.89 6.188-312.072 177.344c-9.522 5.373-24.981 5.373-34.503 0L7.8 245.556c-4.706-2.686-7.06-6.268-7.06-9.738 0-3.582 2.353-7.051 7.058-9.738L330.76 42.548c9.522-5.373 24.981-5.373 34.503 0l417.033 236.34c4.704 2.575 7.057 6.157 7.057 9.738z" fill="url(#a)" fill-rule="nonzero" opacity=".423" transform="translate(0 68)"/><path d="M789.353 445.515c0 3.582-2.353 7.052-7.057 9.738l-10.89 6.188-312.072 177.344c-9.522 5.373-24.981 5.373-34.503 0L7.8 402.445c-4.706-2.686-7.06-6.268-7.06-9.738 0-3.582 2.353-7.051 7.058-9.738L330.76 199.437c9.522-5.373 24.981-5.373 34.503 0l417.033 236.34c4.704 2.575 7.057 6.156 7.057 9.738zM819 427.794c0 2.404-1.578 4.733-4.735 6.536l-4.82 2.817c-6.39 3.606-16.762 3.606-23.151 0L358.277 191.78c-3.157-1.803-4.736-4.207-4.736-6.536 0-2.404 1.579-4.733 4.736-6.535l4.82-2.818c6.388-3.606 16.761-3.606 23.15 0l428.018 245.368c3.157 1.728 4.735 4.132 4.735 6.536z" fill="#000" fill-rule="nonzero" opacity=".06"/><g fill-rule="nonzero"><path d="M814.367 263.957c0 3.586-2.353 7.06-7.06 9.75L458.988 470.78c-9.525 5.38-24.99 5.38-34.514 0L7.308 234.131c-4.706-2.69-7.06-6.276-7.06-9.75 0-3.587-1.562-17.935 3.145-20.624L355.63 4.067c9.524-5.38 24.989-5.38 34.513 0l421.065 239.254c4.706 2.578 3.16 17.05 3.16 20.636z" fill="url(#b)" opacity=".457" transform="translate(.741 78.37)"/><path d="M814.233 250.146c0 3.581-2.352 7.051-7.057 9.737L459.334 456.711c-9.522 5.373-24.981 5.373-34.503 0L7.8 220.371c-4.706-2.686-7.06-6.268-7.06-9.738 0-3.582 2.353-7.052 7.058-9.738L355.64 4.067c9.522-5.372 24.982-5.372 34.503 0l417.033 236.34c4.705 2.575 7.057 6.157 7.057 9.739z" stroke="#94A1AE" stroke-width=".8" fill="url(#c)" opacity=".594" transform="translate(.741 78.37)"/></g><g transform="translate(351.318 68)" fill="url(#d)" opacity=".6" stroke="#00C18D" stroke-width="1.68"><path d="M463.235 259.86c0 2.391-1.57 4.707-4.713 6.5l-4.796 2.802c-6.359 3.586-16.682 3.586-23.04 0L4.712 25.157C1.57 23.364 0 20.974 0 18.657c0-2.39 1.571-4.706 4.713-6.499l4.796-2.802c6.359-3.586 16.682-3.586 23.041 0l425.972 244.005c3.142 1.718 4.713 4.11 4.713 6.5z"/><path d="M463.235 253.194c0 2.39-1.57 4.707-4.713 6.5l-4.796 2.802c-6.359 3.586-16.682 3.586-23.04 0L4.712 18.49C1.57 16.698 0 14.307 0 11.99c0-2.39 1.571-4.706 4.713-6.5l4.796-2.8c6.359-3.585 16.682-3.585 23.041 0l425.972 244.006c3.142 1.718 4.713 4.108 4.713 6.499z"/></g><path d="M172.511 392.007l355.641-202.07c10.486-5.915-360.822 205.027-355.64 202.07zm-89.756-49.778l355.641-202.07c10.485-5.915-360.822 205.027-355.641 202.07zM261.23 442.303l355.641-202.07c10.486-5.915-360.822 205.027-355.64 202.07zm88.719 50.296L705.59 290.53c10.486-5.914-360.822 205.028-355.641 202.07z" stroke="#FFF" stroke-width=".56" stroke-dasharray="2.239999961853028,4.479999923706055"/><path d="M530.896 496.739L79.346 240.266c-13.313-7.507 458.129 260.227 451.55 256.473zm90.276-51.852l-451.55-256.472c-13.314-7.508 458.128 260.226 451.55 256.472zm87.162-50.296l-451.55-256.473c-13.313-7.507 458.128 260.227 451.55 256.473z" stroke="#FFF" stroke-width=".56" stroke-dasharray="2.239999961853028,5.040000152587891"/><path d="M445.263 436.72l3.56 2.053-7.24 4.234 7.24 4.092-3.07 2.013-7.887-4.026-7.247 4.014-3.479-2 7.009-4.093-6.226-3.483 3.276-1.809 6.667 3.212 7.397-4.206zm-89.168-50.296l3.56 2.053-7.239 4.233 7.24 4.093-3.07 2.013-7.887-4.026-7.247 4.013-3.48-2 7.01-4.092-6.227-3.483 3.277-1.81 6.667 3.213 7.396-4.207zm179.373-1.017l3.56 2.053-7.24 4.233 7.24 4.093-3.07 2.013-7.887-4.026-7.247 4.013-3.479-2 7.009-4.092-6.226-3.483 3.276-1.81 6.667 3.213 7.397-4.207zm-267.643-49.279l3.56 2.052-7.239 4.234 7.24 4.093-3.071 2.013-7.887-4.026-7.246 4.013-3.48-2 7.009-4.093-6.226-3.482 3.276-1.81 6.667 3.213 7.397-4.207zm178.475-1.017l3.56 2.052-7.239 4.234 7.24 4.093-3.07 2.013-7.887-4.026-7.247 4.013-3.48-2 7.01-4.093-6.227-3.482 3.277-1.81 6.667 3.213 7.396-4.207zm177.368 0l3.56 2.052-7.24 4.234 7.24 4.093-3.07 2.013-7.887-4.026-7.247 4.013-3.479-2 7.009-4.093-6.226-3.482 3.276-1.81 6.667 3.213 7.397-4.207zm-445.08-49.28l3.56 2.053-7.24 4.234 7.24 4.092-3.07 2.013-7.887-4.026-7.247 4.014-3.48-2 7.01-4.093-6.227-3.482 3.277-1.81 6.667 3.212 7.396-4.206zm355.912-1.016l3.56 2.052-7.239 4.234 7.24 4.092-3.07 2.013-7.887-4.026-7.247 4.014-3.48-2 7.01-4.093-6.227-3.482 3.277-1.81 6.667 3.212 7.396-4.206zm-176.47 0l3.56 2.052-7.239 4.234 7.24 4.092-3.071 2.013-7.887-4.026-7.246 4.014-3.48-2 7.009-4.093-6.226-3.482 3.276-1.81 6.667 3.212 7.397-4.206zm88.2-50.296l3.56 2.052-7.239 4.233 7.24 4.093-3.071 2.013-7.887-4.026-7.246 4.013-3.48-2 7.009-4.092-6.226-3.483 3.276-1.81 6.667 3.213 7.397-4.206zm-177.438 0l3.56 2.052-7.239 4.233 7.24 4.093-3.07 2.013-7.887-4.026-7.247 4.013-3.48-2 7.01-4.092-6.227-3.483 3.277-1.81 6.667 3.213 7.396-4.206zm88.2-50.297l3.56 2.053-7.239 4.233 7.24 4.093-3.07 2.013-7.887-4.026-7.247 4.013-3.48-2 7.01-4.092-6.227-3.483 3.277-1.81 6.667 3.213 7.396-4.207z" fill="#FFF" fill-rule="nonzero" opacity=".463"/><g opacity=".149" fill="url(#e)" transform="translate(7.412 97.63)"><ellipse cx="140.342" cy="193.407" rx="5.448" ry="3.63"/><ellipse cx="230.098" cy="143.63" rx="5.448" ry="3.63"/><ellipse cx="320.892" cy="92.296" rx="5.448" ry="3.63"/><ellipse cx="410.13" cy="42" rx="5.448" ry="3.63"/><ellipse cx="5.448" cy="193.407" rx="5.448" ry="3.63"/><ellipse cx="95.204" cy="143.63" rx="5.448" ry="3.63"/><ellipse cx="185.998" cy="92.296" rx="5.448" ry="3.63"/><ellipse cx="275.236" cy="42" rx="5.448" ry="3.63"/><ellipse cx="71.857" cy="155.037" rx="5.448" ry="3.63"/><ellipse cx="161.614" cy="105.259" rx="5.448" ry="3.63"/><ellipse cx="252.408" cy="53.926" rx="5.448" ry="3.63"/><ellipse cx="341.645" cy="3.63" rx="5.448" ry="3.63"/><ellipse cx="71.857" cy="230.222" rx="5.448" ry="3.63"/><ellipse cx="161.614" cy="180.444" rx="5.448" ry="3.63"/><ellipse cx="252.408" cy="129.111" rx="5.448" ry="3.63"/><ellipse cx="341.645" cy="78.815" rx="5.448" ry="3.63"/><g transform="translate(88.719 50.296)"><ellipse cx="140.342" cy="193.407" rx="5.448" ry="3.63"/><ellipse cx="230.098" cy="143.63" rx="5.448" ry="3.63"/><ellipse cx="320.892" cy="92.296" rx="5.448" ry="3.63"/><ellipse cx="410.13" cy="42" rx="5.448" ry="3.63"/><ellipse cx="5.448" cy="193.407" rx="5.448" ry="3.63"/><ellipse cx="95.204" cy="143.63" rx="5.448" ry="3.63"/><ellipse cx="185.998" cy="92.296" rx="5.448" ry="3.63"/><ellipse cx="275.236" cy="42" rx="5.448" ry="3.63"/><ellipse cx="71.857" cy="155.037" rx="5.448" ry="3.63"/><ellipse cx="161.614" cy="105.259" rx="5.448" ry="3.63"/><ellipse cx="252.408" cy="53.926" rx="5.448" ry="3.63"/><ellipse cx="341.645" cy="3.63" rx="5.448" ry="3.63"/><ellipse cx="71.857" cy="230.222" rx="5.448" ry="3.63"/><ellipse cx="161.614" cy="180.444" rx="5.448" ry="3.63"/><ellipse cx="252.408" cy="129.111" rx="5.448" ry="3.63"/><ellipse cx="341.645" cy="78.815" rx="5.448" ry="3.63"/></g><g transform="translate(180.032 100.074)"><ellipse cx="140.342" cy="193.407" rx="5.448" ry="3.63"/><ellipse cx="230.098" cy="143.63" rx="5.448" ry="3.63"/><ellipse cx="320.892" cy="92.296" rx="5.448" ry="3.63"/><ellipse cx="410.13" cy="42" rx="5.448" ry="3.63"/><ellipse cx="5.448" cy="193.407" rx="5.448" ry="3.63"/><ellipse cx="95.204" cy="143.63" rx="5.448" ry="3.63"/><ellipse cx="185.998" cy="92.296" rx="5.448" ry="3.63"/><ellipse cx="275.236" cy="42" rx="5.448" ry="3.63"/><ellipse cx="71.857" cy="155.037" rx="5.448" ry="3.63"/><ellipse cx="161.614" cy="105.259" rx="5.448" ry="3.63"/><ellipse cx="252.408" cy="53.926" rx="5.448" ry="3.63"/><ellipse cx="341.645" cy="3.63" rx="5.448" ry="3.63"/><ellipse cx="71.857" cy="230.222" rx="5.448" ry="3.63"/><ellipse cx="161.614" cy="180.444" rx="5.448" ry="3.63"/><ellipse cx="252.408" cy="129.111" rx="5.448" ry="3.63"/><ellipse cx="341.645" cy="78.815" rx="5.448" ry="3.63"/></g><g transform="translate(269.788 150.889)"><ellipse cx="140.342" cy="193.407" rx="5.448" ry="3.63"/><ellipse cx="230.098" cy="143.63" rx="5.448" ry="3.63"/><ellipse cx="320.892" cy="92.296" rx="5.448" ry="3.63"/><ellipse cx="410.13" cy="42" rx="5.448" ry="3.63"/><ellipse cx="5.448" cy="193.407" rx="5.448" ry="3.63"/><ellipse cx="95.204" cy="143.63" rx="5.448" ry="3.63"/><ellipse cx="185.998" cy="92.296" rx="5.448" ry="3.63"/><ellipse cx="275.236" cy="42" rx="5.448" ry="3.63"/><ellipse cx="71.857" cy="155.037" rx="5.448" ry="3.63"/><ellipse cx="161.614" cy="105.259" rx="5.448" ry="3.63"/><ellipse cx="252.408" cy="53.926" rx="5.448" ry="3.63"/><ellipse cx="341.645" cy="3.63" rx="5.448" ry="3.63"/><ellipse cx="71.857" cy="230.222" rx="5.448" ry="3.63"/><ellipse cx="161.614" cy="180.444" rx="5.448" ry="3.63"/><ellipse cx="252.408" cy="129.111" rx="5.448" ry="3.63"/><ellipse cx="341.645" cy="78.815" rx="5.448" ry="3.63"/></g><g transform="translate(359.545 201.185)"><ellipse cx="140.342" cy="193.407" rx="5.448" ry="3.63"/><ellipse cx="230.098" cy="143.63" rx="5.448" ry="3.63"/><ellipse cx="320.892" cy="92.296" rx="5.448" ry="3.63"/><ellipse cx="410.13" cy="42" rx="5.448" ry="3.63"/><ellipse cx="5.448" cy="193.407" rx="5.448" ry="3.63"/><ellipse cx="95.204" cy="143.63" rx="5.448" ry="3.63"/><ellipse cx="185.998" cy="92.296" rx="5.448" ry="3.63"/><ellipse cx="275.236" cy="42" rx="5.448" ry="3.63"/><ellipse cx="71.857" cy="155.037" rx="5.448" ry="3.63"/><ellipse cx="161.614" cy="105.259" rx="5.448" ry="3.63"/><ellipse cx="252.408" cy="53.926" rx="5.448" ry="3.63"/><ellipse cx="341.645" cy="3.63" rx="5.448" ry="3.63"/><ellipse cx="71.857" cy="230.222" rx="5.448" ry="3.63"/><ellipse cx="161.614" cy="180.444" rx="5.448" ry="3.63"/><ellipse cx="252.408" cy="129.111" rx="5.448" ry="3.63"/><ellipse cx="341.645" cy="78.815" rx="5.448" ry="3.63"/></g></g><g fill="url(#f)" fill-rule="nonzero" stroke="#14B2E2" stroke-width=".8" transform="translate(360 138)"><path d="M155.815 50.57c0 3.604-2.347 7.094-7.042 9.796l-51.94 31.021c-9.501 5.405-24.927 5.405-34.429 0L7.042 59.14C2.347 56.437 0 52.834 0 49.344c0-3.603 2.347-7.094 7.042-9.796l51.94-31.02c9.502-5.405 24.928-5.405 34.43 0l55.361 32.247c4.695 2.59 7.042 6.193 7.042 9.796z" opacity=".6"/><path d="M155.815 46.097c0 3.603-2.347 7.093-7.042 9.796l-51.94 31.02c-9.501 5.405-24.927 5.405-34.429 0L7.042 54.667C2.347 51.963 0 48.36 0 44.87c0-3.603 2.347-7.093 7.042-9.796l51.94-31.02c9.502-5.405 24.928-5.405 34.43 0l55.36 32.246c4.695 2.59 7.042 6.193 7.042 9.796z" opacity=".6"/></g><path d="M405.432 185.72l35.799-18.261-3.247-1.87-15.217 1.942-2.984 3.664 9.614-1.327-27.305 13.928 3.34 1.924zm16.335 9.694l6.736-3.459-7.342-4.247 14.468-1.939c.924-.134 1.842-.29 2.753-.468a31.971 31.971 0 005.815-1.735 38.652 38.652 0 003.302-1.516c1.803-.926 3.249-1.817 4.337-2.674 1.088-.856 1.841-1.656 2.26-2.398.418-.742.53-1.42.334-2.035-.196-.615-.668-1.139-1.416-1.571-.81-.47-1.792-.786-2.945-.952-1.153-.165-2.446-.161-3.88.013-1.432.174-2.994.524-4.683 1.051-1.69.527-3.494 1.258-5.412 2.191l2.947 2.317c1.34-.636 2.634-1.076 3.885-1.318s2.204-.174 2.859.205c.545.316.672.77.38 1.362-.292.593-1.05 1.203-2.275 1.832a12.852 12.852 0 01-3.35 1.183c-1.143.23-2.202.416-3.176.559l-19.035 2.75-8.114 4.167 11.552 6.682zm7.174 4.847c.82.456 1.82.777 3 .963 1.18.186 2.497.204 3.952.055s3.032-.474 4.73-.976c1.7-.502 3.46-1.204 5.284-2.107a24.3 24.3 0 002.83-1.626c.822-.556 1.477-1.095 1.966-1.619.489-.524.798-1.02.928-1.49.13-.471.011-.88-.355-1.229l.154-.077c1.343.313 2.98.247 4.914-.196 1.933-.444 3.914-1.169 5.944-2.174 1.754-.868 3.114-1.703 4.079-2.504.965-.801 1.61-1.555 1.932-2.262.323-.706.339-1.348.049-1.925-.29-.577-.805-1.072-1.546-1.483-.71-.395-1.546-.688-2.511-.881-.965-.194-2.052-.264-3.26-.213-1.208.052-2.56.25-4.056.592-1.496.344-3.13.855-4.9 1.533l2.145 3.037a12.972 12.972 0 013.134-.806c1.016-.122 1.8-.03 2.352.277.583.324.714.777.394 1.358-.32.581-1.031 1.144-2.132 1.69-.86.425-1.635.726-2.326.903-.69.176-1.312.264-1.865.264a5.127 5.127 0 01-1.456-.185 5.565 5.565 0 01-1.124-.463l-1.158-.644-6.707 3.322.827.46c.394.219.762.45 1.105.695.342.245.533.523.573.835.04.311-.125.662-.495 1.053-.37.39-1.072.841-2.104 1.352-1.376.682-2.687 1.136-3.935 1.365-1.247.228-2.257.128-3.03-.301-.756-.421-.949-.926-.578-1.515.37-.59 1.146-1.243 2.327-1.96l-5.644-1.132c-2.92 1.811-4.598 3.391-5.032 4.741-.434 1.35.098 2.44 1.595 3.273z" fill="#000" fill-rule="nonzero" opacity=".107"/><path d="M405.432 181.247l35.799-18.262-3.247-1.87-15.217 1.943-2.984 3.663 9.614-1.327-27.305 13.929 3.34 1.924zm16.335 9.693l6.736-3.458-7.342-4.248 14.468-1.938c.924-.134 1.842-.29 2.753-.47a31.971 31.971 0 005.815-1.734 38.652 38.652 0 003.302-1.516c1.803-.926 3.249-1.817 4.337-2.673 1.088-.857 1.841-1.656 2.26-2.399.418-.742.53-1.42.334-2.035-.196-.615-.668-1.138-1.416-1.571-.81-.47-1.792-.786-2.945-.952-1.153-.165-2.446-.161-3.88.013-1.432.174-2.994.525-4.683 1.052-1.69.527-3.494 1.257-5.412 2.19l2.947 2.318c1.34-.637 2.634-1.076 3.885-1.319 1.251-.242 2.204-.174 2.859.205.545.316.672.77.38 1.362-.292.593-1.05 1.203-2.275 1.832a12.852 12.852 0 01-3.35 1.183c-1.143.23-2.202.416-3.176.559l-19.035 2.751-8.114 4.166 11.552 6.682zm7.174 4.848c.82.455 1.82.776 3 .962 1.18.186 2.497.204 3.952.055s3.032-.474 4.73-.976c1.7-.502 3.46-1.204 5.284-2.107a24.3 24.3 0 002.83-1.625c.822-.556 1.477-1.096 1.966-1.62.489-.523.798-1.02.928-1.49s.011-.88-.355-1.229l.154-.076c1.343.312 2.98.247 4.914-.197 1.933-.444 3.914-1.168 5.944-2.173 1.754-.87 3.114-1.704 4.079-2.505.965-.801 1.61-1.555 1.932-2.262.323-.706.339-1.348.049-1.925-.29-.577-.805-1.071-1.546-1.483-.71-.395-1.546-.688-2.511-.881-.965-.193-2.052-.264-3.26-.213-1.208.052-2.56.25-4.056.593-1.496.343-3.13.854-4.9 1.532l2.145 3.038a12.972 12.972 0 013.134-.807c1.016-.122 1.8-.03 2.352.277.583.324.714.777.394 1.358-.32.581-1.031 1.144-2.132 1.69-.86.425-1.635.726-2.326.903-.69.176-1.312.264-1.865.265a5.127 5.127 0 01-1.456-.186 5.565 5.565 0 01-1.124-.462l-1.158-.645-6.707 3.322.827.46c.394.22.762.451 1.105.696.342.244.533.522.573.834.04.311-.125.662-.495 1.053-.37.39-1.072.841-2.104 1.352-1.376.682-2.687 1.137-3.935 1.365-1.247.229-2.257.128-3.03-.301-.756-.42-.949-.926-.578-1.515.37-.59 1.146-1.243 2.327-1.96l-5.644-1.132c-2.92 1.811-4.598 3.392-5.032 4.741-.434 1.35.098 2.441 1.595 3.274z" fill="#FFF" fill-rule="nonzero" opacity=".751"/><path d="M452.496 153.561l31.739 18.573c3.023 1.756 3.547 4.489 1.17 6.105-2.375 1.616-6.752 1.503-9.775-.252l-31.74-18.574c-3.022-1.755-3.547-4.488-1.17-6.104 2.376-1.616 6.753-1.503 9.776.252z" fill="#FFF" opacity=".591" style="mix-blend-mode:overlay"/><path d="M412.377 197.31l3.647 3.128.1.012-.01.065.748.64-.914.727-.028.242-.238-.03-3.781 3.013-.947-1.372 2.422-1.935-19.407-2.475.203-1.675 18.525 2.363-1.743-1.34 1.423-1.363z" fill="#FFF" fill-rule="nonzero" opacity=".493"/><g fill-rule="nonzero"><path d="M155.815 91.696c0 3.578-2.347 7.045-7.042 9.728l-51.94 30.81c-9.501 5.367-24.927 5.367-34.429 0L7.042 100.206C2.347 97.522 0 93.944 0 90.477c0-3.578 2.347-7.045 7.042-9.728l51.94-30.81c9.502-5.367 24.928-5.367 34.43 0l55.361 32.028c4.695 2.572 7.042 6.15 7.042 9.729z" stroke="#14B2E2" stroke-width=".8" fill="url(#g)" opacity=".6" transform="translate(6 196)"/><path d="M155.815 87.253c0 3.578-2.347 7.044-7.042 9.728l-51.94 30.81c-9.501 5.367-24.927 5.367-34.429 0L7.042 95.763C2.347 93.079 0 89.5 0 86.033c0-3.577 2.347-7.044 7.042-9.728l51.94-30.81c9.502-5.367 24.928-5.367 34.43 0l55.361 32.029c4.695 2.572 7.042 6.15 7.042 9.729z" stroke="#14B2E2" stroke-width=".8" fill="url(#g)" opacity=".6" transform="translate(6 196)"/><path d="M118.437 282.008c-.497-4.107-3.24-8.119-8.301-11.413-12.413-8.093-34.1-8.686-48.435-1.39-7.56 3.85-11.563 9.129-11.844 14.445v1.126c.18 3.623 2.11 7.232 5.847 10.354a25.597 25.597 0 002.505 1.873c12.413 8.092 34.1 8.685 48.435 1.397a29.88 29.88 0 006.004-3.954c3.413-2.944 5.35-6.295 5.76-9.703.004-.06.004-.12 0-.18l.03-2.555zm-20.88 5.493a11.498 11.498 0 01-3.6 2.715c-6.228 3.15-15.588 2.882-20.973-.601a10 10 0 01-2.11-1.802c-2.88-3.343-1.598-7.57 3.6-10.223 6.2-3.175 15.574-2.884 20.945.606 4.039 2.608 4.665 6.291 2.11 9.303l.028.002z" fill="#000" opacity=".174"/><path d="M24.92 68.344c6.198-3.174 15.573-2.884 20.944.599.564.366 1.095.786 1.584 1.252.18-.182.353-14.799.511-14.982 2.556-3.012 1.93-6.695-2.095-9.303-5.371-3.49-14.746-3.758-20.945-.606-5.213 2.652-6.48 6.88-3.6 10.224.164.191.337 14.815.519 14.99a12.07 12.07 0 013.081-2.174z" fill="url(#h)" transform="translate(49.57 196)"/><path d="M68.868 49.722c-.497-4.107-3.24-8.12-8.302-11.414-12.412-8.093-34.099-8.686-48.434-1.39C4.572 40.769.569 46.048.288 51.364v1.126c.18 3.623 2.11 7.231 5.846 10.353a25.597 25.597 0 002.506 1.873c12.413 8.093 34.1 8.686 48.434 1.397a29.88 29.88 0 006.005-3.953c3.413-2.944 5.35-6.296 5.76-9.704.004-.06.004-.12 0-.18l.029-2.554zm-20.88 5.493a11.498 11.498 0 01-3.6 2.714c-6.228 3.15-15.588 2.883-20.974-.6a10 10 0 01-2.11-1.802c-2.88-3.343-1.598-7.571 3.6-10.224 6.2-3.174 15.574-2.883 20.946.606 4.039 2.609 4.665 6.292 2.11 9.304l.028.002z" fill="url(#i)" transform="translate(49.57 196)"/><path d="M57.089 88.1c-14.335 7.296-36 6.675-48.435-1.39C3.276 83.213.518 78.896.288 74.526V52.49c.18 3.623 2.11 7.231 5.846 10.353a25.597 25.597 0 002.506 1.873c12.413 8.093 34.1 8.686 48.434 1.397a29.88 29.88 0 006.005-3.953c3.442-2.964 5.386-6.35 5.76-9.776l.058 20.019c.367 5.73-3.65 11.548-11.808 15.697z" fill="url(#j)" transform="translate(49.57 196)"/><path d="M96.78 251.983l15.63 6.875v21.66s-9.006 8.69-27.158 8.677c-.288-5.688-.878-21.643-.878-21.643l-3.989-11.667s9.62 1.709 16.395-3.902z" fill="#1D7AA4"/><path d="M34.708 71.207s17.827-.41 28.134-8.715v22.07s-10.879 9.373-28.134 8.628V71.207z" fill="url(#k)" transform="translate(49.57 196)"/></g><g opacity=".6" transform="translate(359 189)" fill="url(#l)" stroke="#00C18D" stroke-width="1.68"><path d="M429.259 153.003c0 3.585-2.356 7.058-7.066 9.747l-144.857 82.847c-9.534 5.377-25.012 5.377-34.545 0L7.066 110.817C2.356 108.13 0 104.544 0 101.071c0-3.585 2.355-7.058 7.066-9.747L151.923 8.477c9.533-5.377 25.011-5.377 34.544 0l235.726 134.78c4.71 2.576 7.066 6.161 7.066 9.746z"/><path d="M429.259 148.559c0 3.585-2.356 7.058-7.066 9.746l-144.857 82.847c-9.534 5.378-25.012 5.378-34.545 0L7.066 106.372C2.356 103.685 0 100.1 0 96.627c0-3.585 2.355-7.057 7.066-9.746L151.923 4.033c9.533-5.377 25.011-5.377 34.544 0l235.726 134.78c4.71 2.576 7.066 6.16 7.066 9.746z"/></g><g opacity=".6" transform="translate(182 342)" fill="url(#m)" stroke="#00C18D" stroke-width="1.68"><path d="M339.444 152.58c0 3.576-2.35 7.039-7.052 9.72l-55.596 29.678c-9.515 5.363-24.963 5.363-34.477 0L7.052 57.576C2.351 54.896 0 51.32 0 47.857c0-3.575 2.35-7.038 7.052-9.72L62.648 8.46c9.515-5.362 24.963-5.362 34.478 0l235.266 134.402c4.701 2.57 7.052 6.145 7.052 9.72z"/><path d="M339.444 148.143c0 3.575-2.35 7.038-7.052 9.72l-55.596 29.678c-9.515 5.362-24.963 5.362-34.477 0L7.052 53.139C2.351 50.457 0 46.882 0 43.419c0-3.575 2.35-7.038 7.052-9.719L62.648 4.022c9.515-5.363 24.963-5.363 34.478 0l235.266 134.402c4.701 2.57 7.052 6.144 7.052 9.719z"/></g><g transform="translate(8 432)"><path d="M172.982 162.45c0 3.327-2.183 6.55-6.549 9.046l-63.933 36.29c-8.836 4.99-23.182 4.99-32.018 0l-63.933-36.29C2.183 169 0 165.673 0 162.449c0-3.327 2.183-6.55 6.55-9.046l63.932-36.29c8.836-4.991 23.182-4.991 32.018 0l63.933 36.29c4.366 2.391 6.55 5.719 6.55 9.046z" fill-opacity=".25" fill="#000" fill-rule="nonzero" opacity=".5"/><g fill-rule="nonzero"><path d="M173.398 49.495c0 3.328-2.183 6.551-6.549 9.047l-63.933 36.29c-8.836 4.99-23.182 4.99-32.018 0L6.758 58.896C2.39 56.401.207 53.074.207 49.851c0-3.328 2.183-6.551 6.55-9.047L70.897 4.16c8.836-4.99 23.182-4.99 32.018 0l63.933 36.29c4.262 2.495 6.55 5.719 6.55 9.046z" fill="url(#n)" transform="translate(0 68.658)"/><path d="M173.398 49.495V74.66c0 3.327-2.183 6.55-6.549 9.046l-32.018 18.093-32.019 18.093c-4.366 2.496-10.187 3.743-16.009 3.743s-11.539-1.247-16.01-3.743l-32.018-18.093L6.757 83.705C2.391 81.21.207 77.882.207 74.66V49.495c0 3.328 2.184 6.551 6.55 9.047l63.933 36.29c8.836 4.99 23.182 4.99 32.018 0l63.933-36.29c4.47-2.496 6.757-5.823 6.757-9.047z" fill="url(#o)" transform="translate(0 68.658)"/></g><g opacity=".95" fill-rule="nonzero"><path d="M173.398 49.287c0 3.328-2.183 6.551-6.549 9.047l-64.037 36.29c-8.836 4.99-23.182 4.99-32.018 0L6.757 58.438c-4.366-2.495-6.55-5.823-6.55-9.046 0-3.327 2.184-6.55 6.55-9.046L70.794 3.95c8.836-4.99 23.182-4.99 32.018 0l63.933 36.29c4.366 2.496 6.653 5.719 6.653 9.046z" fill="url(#p)" transform="translate(0 34.344)"/><path d="M173.398 49.287v25.164c0 3.327-2.183 6.55-6.549 9.046l-32.018 18.093-32.019 18.093c-4.366 2.496-10.187 3.743-16.009 3.743s-11.539-1.247-16.01-3.743L38.776 101.59 6.757 83.497c-4.366-2.495-6.55-5.823-6.55-9.046V49.287c0 3.328 2.184 6.551 6.55 9.047l63.933 36.29c8.836 4.99 23.182 4.99 32.018 0l63.933-36.29c4.47-2.496 6.757-5.72 6.757-9.047z" fill="url(#q)" transform="translate(0 34.344)"/></g><g opacity=".9" fill-rule="nonzero"><path d="M173.398 49.495c0 3.328-2.183 6.551-6.549 9.047l-63.933 36.29c-8.836 4.99-23.182 4.99-32.018 0L6.86 58.75C2.494 56.254.31 52.927.31 49.703c0-3.223 2.184-6.55 6.55-9.046L70.898 4.159c8.836-4.99 23.182-4.99 32.018 0l63.933 36.29c4.262 2.495 6.55 5.823 6.55 9.046z" fill="url(#r)" transform="translate(0 .03)"/><path d="M173.398 49.495V74.66c0 3.327-2.183 6.55-6.549 9.046l-32.122 18.197-32.019 18.093c-4.366 2.496-10.187 3.743-16.009 3.743-5.821 0-11.539-1.247-16.01-3.743l-31.81-18.093L6.861 83.81c-4.366-2.495-6.55-5.823-6.55-9.046V49.599c0 3.328 2.184 6.551 6.55 9.047l63.933 36.29c8.836 4.99 23.182 4.99 32.018 0l63.933-36.29c4.366-2.496 6.653-5.823 6.653-9.15z" fill="url(#s)" transform="translate(0 .03)"/></g><g opacity=".6" stroke="#FFF" stroke-linecap="round" stroke-linejoin="round" stroke-width="2.246"><path d="M95.431 40.583l-8.732 4.99c3.015 1.664 6.341 3.016 9.98 4.16 3.534-2.808 3.119-6.655-1.248-9.15m20.895-10.19c9.253 5.822 12.163 13.725 8.837 20.9 6.653-1.04 12.89-3.016 17.88-5.823l-26.717-15.078zm-38.36 20.172L58.528 61.587c7.797 4.367 17.984 6.655 28.172 6.655V52.644c-3.223-.104-6.341-.831-8.732-2.08m17.464-.103c-2.39 1.352-5.613 2.08-8.732 2.08v15.597c10.188 0 20.375-2.184 28.172-6.655 0 0 0 0 0 0L95.431 50.46s0 0 0 0M77.863 40.375s0 0 0 0l-19.44-11.022s0 0 0 0c-7.797 4.47-11.747 10.294-11.747 16.117H74.12c0-1.768 1.248-3.64 3.743-5.095"/><path d="M77.759 50.46c-2.391-1.35-3.639-3.119-3.639-4.886H46.676c0 5.823 3.95 11.542 11.747 15.909 0 0 .104 0 .104.104l19.44-11.022c-.104-.104-.104-.104-.208-.104m8.836-12.062V22.802c-10.188 0-20.375 2.183-28.172 6.55l19.44 11.023c2.39-1.352 5.613-1.976 8.732-1.976m10.084 11.23c-.416.312-.832.624-1.248.832l19.44 11.022c5.094-2.912 8.628-6.447 10.292-10.19-3.43.52-6.861.832-10.292.832-6.237 0-12.475-.832-18.192-2.496"/><path d="M116.326 30.392l-1.455-.832-19.44 11.023c4.263 2.495 4.678 6.342 1.248 9.046 5.717 1.664 11.85 2.496 18.192 2.496 3.43 0 6.965-.312 10.292-.832 3.326-7.175.416-15.078-8.837-20.9"/></g><ellipse fill="#F07F00" fill-rule="nonzero" transform="rotate(-75.048 102.489 107.373)" cx="102.489" cy="107.373" rx="5.095" ry="3.95"/><ellipse fill="#1DBAE0" fill-rule="nonzero" transform="rotate(-76.89 125.848 93.141)" cx="125.848" cy="93.141" rx="5.095" ry="3.95"/><ellipse fill="#1DBAE0" fill-rule="nonzero" transform="rotate(-73.937 101.663 142.556)" cx="101.663" cy="142.556" rx="5.095" ry="3.951"/><ellipse fill="#F07F00" fill-rule="nonzero" transform="rotate(-70.688 124.96 128.486)" cx="124.96" cy="128.486" rx="5.095" ry="3.95"/><ellipse fill="#F07F00" fill-rule="nonzero" transform="rotate(-72.843 101.17 176.165)" cx="101.17" cy="176.165" rx="5.095" ry="3.95"/></g><path d="M98.371 157.567v76.408m160.312 13.352v76.408m74.222-114.24v76.407M166.647 111.575v76.407M187.43 97.48v76.407m159.578 28.931v76.407m70.511-119.432V236.2M258.683 73v76.407M282.805 297.4l-.371 44.138m64.759-84.382l-.371 44.139m251.242 97.549l-.371 44.138m-67.914-6.306l-.37 44.139" opacity=".202" stroke="#000" stroke-dasharray="4" stroke-width=".8"/><g fill="#F5F5F5" transform="translate(365 77)"><ellipse cx="8.165" cy="4.816" rx="8.165" ry="4.816"/><ellipse cx="25.979" cy="15.19" rx="8.165" ry="4.816"/><path d="M45.277 30.38c4.51 0 8.165-2.157 8.165-4.817s-3.655-4.816-8.165-4.816c-4.509 0-8.164 2.156-8.164 4.816s3.655 4.816 8.164 4.816z"/></g><path d="M792.125 317.197c6.518 3.64 8.018 6.808 4.499 9.506l-18.933-10.78c3.104-2.79 7.915-2.365 14.434 1.274zm6.285-5.578c2.977 1.604 3.924 4.184 2.115 5.763-1.809 1.579-5.689 1.558-8.666-.046-2.978-1.604-3.925-4.184-2.116-5.763 1.81-1.579 5.69-1.558 8.667.046zm-40.044-17.055l19.089 11.125c1.818 1.052 2.133 2.689.704 3.657s-4.061.9-5.88-.151l-19.088-11.126c-1.818-1.051-2.133-2.688-.704-3.656s4.061-.9 5.88.15zM744 286.404l6.055 3.77c1.747 1.041 2.05 2.661.677 3.619-1.374.958-3.904.891-5.65-.15l-6.055-3.77c-1.747-1.04-2.05-2.66-.677-3.618 1.373-.958 3.903-.89 5.65.15z" fill="#FFF"/><g opacity=".66" style="mix-blend-mode:overlay" fill="#FFF"><path d="M220.55 375.996l77.17 44.696c2.563 1.48 3.008 3.783.993 5.145-2.014 1.361-5.725 1.266-8.288-.213l-77.17-44.696c-2.563-1.48-3.007-3.783-.993-5.145 2.015-1.362 5.726-1.266 8.289.213z"/><path d="M391.046 454.63c1.412.815.825 2.467-1.312 3.69l-17.621 10.084c-2.137 1.222-5.013 1.553-6.425.737l-60.5-34.929c-1.411-.815-.824-2.467 1.312-3.69l17.622-10.084c2.136-1.222 5.013-1.553 6.425-.738l60.5 34.93zm-63.548-33.43c-.472-.273-1.43-.168-2.14.233l-17.576 9.93c-.71.4-.904.947-.431 1.22l60.722 35.057c.472.273 1.43.169 2.141-.232l17.576-9.93c.71-.4.903-.947.43-1.22L327.498 421.2zm15.203 13.781c.197.114.374.248.532.404a1.7 1.7 0 01.364.517c.085.19.122.397.11.624-.012.227-.09.469-.232.725l-2.667.178.045-.093a.843.843 0 00.051-.605c-.068-.214-.246-.405-.535-.572-.288-.166-.642-.271-1.06-.314a5.415 5.415 0 00-1.36.048 8.27 8.27 0 00-1.523.391 9.22 9.22 0 00-1.532.71c-.506.293-.918.59-1.236.891-.318.302-.542.593-.674.873-.131.28-.163.54-.095.778.067.237.239.436.514.595.315.181.695.284 1.14.307.445.023.928-.025 1.45-.145l-.192 1.59-.199.04c-.854.165-1.632.208-2.334.128-.756-.086-1.373-.267-1.852-.544-.545-.314-.915-.68-1.111-1.097-.197-.417-.217-.864-.061-1.34.156-.478.49-.972 1-1.483.51-.512 1.196-1.016 2.056-1.513a14.27 14.27 0 012.616-1.189 12.43 12.43 0 012.565-.579 8.788 8.788 0 012.32.034c.722.113 1.356.327 1.9.641zm15.245 8.617c.197.113.374.248.532.403.157.155.279.328.364.517.086.19.122.398.11.625-.012.226-.09.468-.231.725l-2.668.178.045-.094a.843.843 0 00.052-.605c-.069-.214-.247-.405-.536-.571-.288-.167-.642-.272-1.06-.314a5.415 5.415 0 00-1.36.047 8.27 8.27 0 00-1.522.392 9.22 9.22 0 00-1.533.71c-.506.292-.918.59-1.236.89-.318.302-.542.593-.674.874-.13.28-.163.54-.095.777.067.238.239.436.514.595.315.182.695.284 1.14.308a5.31 5.31 0 001.45-.145l-.192 1.59-.199.04c-.854.165-1.632.207-2.334.127-.756-.086-1.373-.267-1.852-.543-.545-.315-.915-.68-1.111-1.098-.197-.417-.217-.864-.06-1.34.155-.477.488-.971 1-1.483.51-.511 1.195-1.015 2.055-1.512.86-.498 1.731-.894 2.616-1.19.885-.295 1.74-.488 2.565-.578a8.788 8.788 0 012.32.034c.723.113 1.356.326 1.9.64zm-10.355-5.77l-8.47 4.888 2.908 1.68-2.163 1.247-4.478-2.586 10.633-6.135 1.57.906zm5.302 3.315l-10.768 6.057-1.435-.828 10.768-6.058 1.435.829zm10.237 5.266l-4.412 2.55 7.084-1.008 1.982 1.145-7.999 1.086-2.366 5.204-2.118-1.223 2.246-4.528-5.044 2.913-1.515-.875 10.627-6.139 1.515.875zm110.96 55c1.412.815.824 2.467-1.312 3.69l-17.622 10.084c-2.136 1.222-5.012 1.553-6.424.738l-60.5-34.93c-1.411-.815-.824-2.467 1.312-3.69l17.622-10.084c2.136-1.222 5.013-1.553 6.424-.737l60.5 34.929zm-63.548-33.429c-.472-.273-1.43-.168-2.14.233l-17.577 9.93c-.71.4-.903.947-.43 1.22l60.722 35.058c.472.272 1.43.168 2.141-.233l17.576-9.93c.71-.4.903-.947.43-1.22l-60.722-35.058zm15.203 13.781c.197.114.374.249.532.404a1.7 1.7 0 01.364.517c.085.19.122.398.11.624-.012.227-.09.469-.232.726l-2.667.177.045-.093a.843.843 0 00.051-.605c-.068-.214-.246-.405-.535-.572-.288-.166-.642-.27-1.06-.314a5.415 5.415 0 00-1.36.048 8.27 8.27 0 00-1.523.391 9.22 9.22 0 00-1.532.71c-.506.293-.918.59-1.236.891-.318.302-.543.593-.674.873s-.163.54-.095.778c.067.237.239.436.514.595.315.182.695.284 1.14.307.445.023.928-.025 1.45-.144l-.193 1.589-.198.04c-.854.165-1.632.208-2.334.128-.756-.086-1.373-.267-1.852-.543-.545-.315-.915-.68-1.112-1.098-.196-.417-.216-.864-.06-1.34.156-.477.49-.972 1-1.483.51-.511 1.196-1.016 2.055-1.513.86-.497 1.732-.893 2.617-1.189.885-.295 1.74-.488 2.564-.579a8.788 8.788 0 012.321.034c.722.113 1.356.327 1.9.641zm15.245 8.617c.197.113.374.248.532.403.157.155.279.328.364.517.085.19.122.398.11.625-.012.226-.09.468-.232.725l-2.667.178.045-.093a.843.843 0 00.051-.605c-.068-.215-.246-.406-.535-.572-.288-.167-.642-.272-1.06-.314a5.415 5.415 0 00-1.36.047 8.27 8.27 0 00-1.522.392 9.22 9.22 0 00-1.533.71c-.506.292-.918.59-1.236.89-.318.302-.542.593-.674.874-.131.28-.163.54-.095.777.067.238.239.436.514.595.315.182.695.284 1.14.308.445.023.928-.025 1.45-.145l-.192 1.59-.199.04c-.854.165-1.632.207-2.334.127-.756-.085-1.373-.267-1.852-.543-.545-.314-.915-.68-1.111-1.097-.197-.418-.217-.865-.061-1.341.156-.477.49-.971 1-1.483.51-.511 1.196-1.015 2.056-1.512.86-.497 1.731-.894 2.616-1.19.885-.295 1.74-.488 2.565-.578a8.788 8.788 0 012.32.034c.722.113 1.356.326 1.9.64zm-10.355-5.77l-8.47 4.888 2.908 1.68-2.163 1.247-4.479-2.586 10.634-6.135 1.57.906zm5.302 3.315l-10.768 6.057-1.435-.828 10.768-6.058 1.435.829zm10.237 5.266l-4.413 2.55 7.085-1.007 1.981 1.144-7.998 1.086-2.366 5.204-2.118-1.222 2.246-4.53-5.044 2.914-1.515-.875 10.627-6.139 1.515.875z" fill-rule="nonzero"/><path d="M231.676 370.069l43.058 25.308c2.564 1.496 3.009 3.825.993 5.202-2.015 1.378-5.727 1.281-8.291-.214l-43.058-25.31c-2.564-1.495-3.009-3.824-.993-5.201 2.015-1.377 5.727-1.281 8.291.215zm21.565-11.89l50.396 29.823c2.58 1.484 3.028 3.794 1 5.16-2.029 1.366-5.765 1.27-8.346-.213l-50.396-29.824c-2.58-1.484-3.028-3.794-1-5.16 2.029-1.366 5.765-1.27 8.346.213zm-10.514 5.931l22.385 13.541c2.545 1.473 2.986 3.766.986 5.122-2 1.356-5.685 1.262-8.23-.211l-22.385-13.541c-2.545-1.473-2.986-3.766-.986-5.122 2-1.357 5.685-1.262 8.23.211zm34.107 20.049l22.385 13.54c2.545 1.474 2.987 3.767.986 5.123-2 1.356-5.685 1.261-8.23-.212l-22.385-13.54c-2.544-1.474-2.986-3.767-.985-5.123s5.684-1.261 8.23.212z"/></g><g fill="#FFF"><path d="M530.705 321.914l99.045 57.328c3.29 1.897 3.86 4.851 1.275 6.598-2.586 1.747-7.349 1.625-10.638-.273L521.34 328.24c-3.29-1.897-3.86-4.851-1.274-6.598 2.585-1.747 7.348-1.625 10.638.272zm14.098-7.406l55.283 32.133c3.292 1.9 3.863 4.856 1.276 6.605-2.588 1.748-7.354 1.626-10.646-.273l-55.283-32.133c-3.292-1.899-3.863-4.856-1.276-6.604 2.588-1.749 7.354-1.627 10.646.272zm27.535-15.56l64.802 38.083c3.319 1.895 3.894 4.844 1.286 6.588-2.608 1.745-7.413 1.623-10.73-.272l-64.803-38.082c-3.318-1.894-3.894-4.844-1.285-6.588 2.608-1.744 7.412-1.622 10.73.272zm14.09-8.147l43.686 25.236c3.319 1.894 3.894 4.844 1.286 6.588-2.608 1.744-7.412 1.622-10.73-.272l-43.688-25.236c-3.318-1.895-3.893-4.844-1.285-6.588 2.608-1.744 7.412-1.623 10.73.272zm57.099 33.333l29.523 17.014c3.318 1.895 3.894 4.844 1.286 6.588-2.608 1.744-7.413 1.623-10.731-.272l-29.524-17.014c-3.318-1.894-3.893-4.844-1.285-6.588 2.608-1.744 7.412-1.622 10.73.272zm-83.996-17.041l28.715 17.368c3.264 1.889 3.83 4.83 1.265 6.57-2.566 1.739-7.293 1.617-10.557-.272l-28.715-17.368c-3.264-1.889-3.83-4.83-1.264-6.57 2.566-1.739 7.292-1.617 10.556.272zm43.751 25.185l28.715 17.368c3.264 1.889 3.83 4.83 1.265 6.57-2.566 1.739-7.293 1.617-10.557-.272l-28.714-17.368c-3.265-1.889-3.831-4.83-1.265-6.57 2.566-1.738 7.292-1.617 10.556.272zm14.684-57.177l78.662 44.756c4.817 2.646 5.653 6.764 1.867 9.2-3.786 2.435-10.76 2.265-15.577-.38l-78.663-44.757c-4.817-2.645-5.652-6.764-1.866-9.2 3.786-2.435 10.76-2.264 15.577.38z" opacity=".691"/><path d="M575.702 242.796c3.715 2.062 3.281 5.704-.967 8.119l-58.56 33.282c-4.25 2.414-10.729 2.701-14.444.64l-51.205-28.42c-3.715-2.062-3.281-5.704.967-8.119l58.56-33.281c4.25-2.415 10.729-2.702 14.444-.64l51.205 28.42zM536.5 254.78l-31.147 1.379-.673 5.642-4.085.18 1.55-12.997-49.578 2.195c-.874 1.237-.551 2.604 1.04 3.487l51.207 28.42c2.229 1.237 6.116 1.065 8.665-.384l21.124-12.005 1.897-15.917zm36.12-10.23l-51.205-28.42c-2.23-1.238-6.117-1.066-8.666.383l-56.707 32.228 50.462-2.234-.877 7.356 35.232-1.56-1.898 15.917 33.079-18.8c2.55-1.449 2.81-3.634.58-4.87zm-68.22 19.585l-.531 4.454-4.085.181.53-4.455 4.086-.18zm19.797-36.651c4.368 2.424 3.858 6.706-1.138 9.545-4.995 2.84-12.613 3.177-16.981.752-4.368-2.424-3.859-6.706 1.137-9.545 4.996-2.84 12.613-3.177 16.982-.752zm-3.082 1.751c-2.881-1.6-7.908-1.377-11.204.496-3.296 1.873-3.633 4.699-.75 6.298 2.882 1.6 7.908 1.377 11.204-.496 3.296-1.873 3.632-4.699.75-6.298z" fill-rule="nonzero" opacity=".788" style="mix-blend-mode:overlay"/></g><g transform="translate(664 441)"><path fill="#000" fill-rule="nonzero" opacity=".1" d="M0 164.353l88.165-52.676 85.075 49.582-85.075 54.219z"/><path fill="url(#t)" d="M0 119.365l88.165-52.676 85.075 49.572-85.075 54.228z"/><path fill="url(#u)" fill-rule="nonzero" d="M173.24 136.786l-85.711 54.955-87.1-51.268L0 119.365l88.165 51.124 85.075-54.228z"/><path fill="url(#v)" fill-rule="nonzero" d="M88.165 170.49v20.794l85.075-54.498v-20.525z"/><path fill="url(#t)" d="M0 86.245l88.165-52.676L173.24 83.14l-85.075 54.23z"/><path fill="url(#u)" fill-rule="nonzero" d="M173.24 83.141v20.525l-85.711 54.955-87.1-51.268L0 86.245l88.165 51.124z"/><path fill="url(#v)" fill-rule="nonzero" d="M88.165 137.37v20.794l85.075-54.498V83.141z"/><path fill="url(#t)" d="M0 52.793L88.165.117l85.075 49.572-85.075 54.228z"/><path fill="url(#u)" fill-rule="nonzero" d="M173.24 70.214L87.529 125.17.429 73.901 0 52.793l88.165 51.124L173.24 49.69z"/><path fill="url(#v)" fill-rule="nonzero" d="M88.165 103.917v20.795l85.075-54.498V49.69z"/><ellipse fill="#F18600" fill-rule="nonzero" transform="rotate(-75.05 99.506 107.57)" cx="99.506" cy="107.57" rx="5.534" ry="4.362"/><ellipse fill="#F18600" fill-rule="nonzero" transform="rotate(-78.96 112.138 99.584)" cx="112.138" cy="99.584" rx="5.535" ry="4.362"/><ellipse fill="#38CFF2" fill-rule="nonzero" transform="rotate(-76.89 125.032 92.056)" cx="125.032" cy="92.056" rx="5.535" ry="4.362"/><ellipse fill="#38CFF2" fill-rule="nonzero" transform="rotate(-73.94 98.551 141.242)" cx="98.551" cy="141.242" rx="5.534" ry="4.362"/><ellipse fill="#F18600" fill-rule="nonzero" transform="rotate(-70.69 124.078 125.729)" cx="124.078" cy="125.729" rx="5.534" ry="4.362"/><ellipse fill="#F18600" fill-rule="nonzero" transform="rotate(-72.84 98.017 174.502)" cx="98.017" cy="174.502" rx="5.534" ry="4.362"/><path stroke="#00AEEF" stroke-width=".968" stroke-linecap="round" stroke-linejoin="round" d="M88.648 48.38l2.248-1.472"/><ellipse stroke="#FFF" stroke-width=".968" fill="#FFF" fill-rule="nonzero" opacity=".4" stroke-linecap="round" stroke-linejoin="round" cx="88.362" cy="48.962" rx="32.117" ry="20.758"/><path d="M63.506 59.71l-9.359-5.388-5.378-11.458-5.01 2.93 3.907 7.247-12.274-2.352-5.254 3.073 19.785 3.03 9.359 5.39 4.224-2.472zm12.801-7.056c1.01-.592 1.777-1.256 2.299-1.993.522-.736.766-1.497.733-2.28-.033-.785-.346-1.567-.938-2.348-.592-.78-1.487-1.516-2.685-2.206a14.824 14.824 0 00-3.822-1.54 17.32 17.32 0 00-4.052-.526 15.855 15.855 0 00-3.925.443c-1.265.309-2.403.759-3.414 1.35-1.011.591-1.778 1.256-2.3 1.992-.521.737-.765 1.498-.732 2.281.033.784.345 1.567.937 2.348.592.78 1.487 1.516 2.686 2.206a14.824 14.824 0 003.822 1.54c1.35.338 2.7.513 4.052.526 1.35.013 2.659-.135 3.924-.443 1.266-.309 2.404-.759 3.415-1.35zm-4.09-2.355c-1.03.601-2.18.867-3.45.795a8.06 8.06 0 01-3.612-1.09c-1.136-.654-1.771-1.35-1.905-2.086-.133-.737.314-1.407 1.343-2.009 1.03-.602 2.18-.867 3.45-.795a8.06 8.06 0 013.611 1.09c1.136.653 1.772 1.349 1.905 2.086.134.737-.314 1.407-1.343 2.009zm18.658-6.167c.488-.285.867-.59 1.137-.917.271-.326.455-.65.553-.97.097-.321.115-.631.051-.93a2.808 2.808 0 00-.313-.824l.055-.032 2.045 1.178 3.9-2.281-15.061-8.671-4.062 2.376 7.499 4.317c.496.286.944.575 1.344.869.4.293.696.594.886.902.19.309.23.62.123.936-.108.315-.424.625-.947.931-.524.307-1.05.47-1.577.491a5.12 5.12 0 01-1.584-.189 8.13 8.13 0 01-1.53-.598 32.086 32.086 0 01-1.388-.752l-7.376-4.246-4.061 2.376 8.305 4.781c1.012.583 2.01 1.09 2.996 1.521s1.973.728 2.966.89a9.12 9.12 0 002.992-.005c1.003-.167 2.018-.551 3.047-1.153zm14.36-8.831l-6.291-3.622a21.638 21.638 0 01-1.937-1.241c-.548-.4-.922-.798-1.122-1.196-.2-.398-.2-.8.004-1.208.203-.406.693-.837 1.47-1.29a7.34 7.34 0 01.957-.471c.331-.134.693-.256 1.085-.365l-4.245-2.445a5.31 5.31 0 00-.774.31c-.255.125-.5.256-.735.393-.903.528-1.42 1.1-1.55 1.716-.131.616.052 1.319.548 2.108l-.054.031-2.417-1.391-4.062 2.376 15.06 8.67 4.062-2.375zM86.847 78.116l-3.05-3.611 7.446-4.356 6.3 1.71 4.766-2.788-30.28-7.754-3.494 2.044 13.655 17.48 4.657-2.725zm-1.13-9.483l-4.684 2.74-4.489-5.287 9.173 2.547zm29.507 1.085l-8.677-4.996.054-.032c1.192.142 2.304.085 3.335-.17 1.03-.255 1.97-.63 2.818-1.127.939-.55 1.556-1.168 1.852-1.857.296-.688.33-1.397.1-2.127-.229-.729-.684-1.452-1.365-2.169-.68-.716-1.548-1.378-2.601-1.985a16.39 16.39 0 00-3.59-1.532 16.483 16.483 0 00-3.778-.65 14.211 14.211 0 00-3.655.267 10.625 10.625 0 00-3.227 1.223c-.47.274-.84.575-1.11.9a3.422 3.422 0 00-.593.995 2.416 2.416 0 00-.162.976 2.5 2.5 0 00.185.845l-.054.031-1.983-1.141-3.737 2.185 22.126 12.74 4.062-2.376zm-7.86-7.92c-1.029.602-2.179.867-3.45.795a8.06 8.06 0 01-3.611-1.089c-1.136-.654-1.771-1.35-1.905-2.087-.134-.737.314-1.406 1.343-2.008 1.029-.602 2.179-.867 3.45-.795a8.06 8.06 0 013.61 1.089c1.137.654 1.772 1.35 1.906 2.087.134.737-.314 1.406-1.343 2.008zm24.92-2.06l-8.678-4.995.055-.032c1.192.142 2.304.085 3.334-.17 1.03-.255 1.97-.63 2.819-1.127.939-.55 1.556-1.168 1.852-1.857.296-.689.33-1.397.1-2.127-.23-.729-.684-1.452-1.365-2.169-.68-.716-1.548-1.378-2.602-1.985a16.39 16.39 0 00-3.59-1.533 16.483 16.483 0 00-3.777-.65c-1.26-.066-2.48.024-3.656.268a10.625 10.625 0 00-3.227 1.223c-.47.274-.84.574-1.11.9-.27.327-.468.658-.593.995a2.416 2.416 0 00-.161.976 2.5 2.5 0 00.185.845l-.055.031-1.983-1.142-3.737 2.186 22.126 12.74 4.062-2.376zm-7.86-7.919c-1.03.602-2.18.867-3.45.795a8.06 8.06 0 01-3.611-1.089c-1.137-.654-1.772-1.35-1.906-2.087-.133-.737.314-1.406 1.343-2.008 1.03-.602 2.18-.867 3.45-.795a8.06 8.06 0 013.611 1.089c1.137.654 1.772 1.35 1.905 2.087.134.737-.313 1.406-1.342 2.008z" fill="#000" fill-rule="nonzero" opacity=".12"/><path d="M63.506 53.777l-9.359-5.388L48.77 36.93l-5.01 2.93 3.907 7.247-12.274-2.352-5.254 3.073 19.785 3.03 9.359 5.389 4.224-2.471zm12.801-7.056c1.01-.592 1.777-1.256 2.299-1.993.522-.736.766-1.497.733-2.28-.033-.785-.346-1.567-.938-2.348-.592-.78-1.487-1.516-2.685-2.206a14.824 14.824 0 00-3.822-1.54 17.32 17.32 0 00-4.052-.526 15.855 15.855 0 00-3.925.443c-1.265.309-2.403.759-3.414 1.35-1.011.591-1.778 1.256-2.3 1.992-.521.737-.765 1.498-.732 2.281.033.784.345 1.567.937 2.348.592.78 1.487 1.516 2.686 2.206a14.824 14.824 0 003.822 1.54c1.35.338 2.7.513 4.052.526 1.35.013 2.659-.135 3.924-.443 1.266-.309 2.404-.759 3.415-1.35zm-4.09-2.356c-1.03.602-2.18.867-3.45.796a8.06 8.06 0 01-3.612-1.09c-1.136-.654-1.771-1.35-1.905-2.086-.133-.737.314-1.407 1.343-2.009 1.03-.602 2.18-.867 3.45-.795a8.06 8.06 0 013.611 1.09c1.136.653 1.772 1.349 1.905 2.086.134.737-.314 1.407-1.343 2.008zM90.874 38.2c.488-.285.867-.59 1.137-.917.271-.326.455-.65.553-.97.097-.322.115-.631.051-.93a2.808 2.808 0 00-.313-.824l.055-.032 2.045 1.178 3.9-2.281-15.061-8.671-4.062 2.375 7.499 4.318c.496.286.944.575 1.344.869.4.293.696.594.886.902.19.309.23.62.123.936-.108.315-.424.625-.947.931-.524.307-1.05.47-1.577.491a5.12 5.12 0 01-1.584-.189 8.13 8.13 0 01-1.53-.598 32.086 32.086 0 01-1.388-.752L74.63 29.79l-4.061 2.376 8.305 4.781a30.575 30.575 0 002.996 1.521c.985.43 1.973.728 2.966.89a9.12 9.12 0 002.992-.005c1.003-.167 2.018-.551 3.047-1.153zm14.36-8.831l-6.291-3.622a21.638 21.638 0 01-1.937-1.241c-.548-.4-.922-.798-1.122-1.196-.2-.398-.2-.8.004-1.208.203-.406.693-.837 1.47-1.29a7.34 7.34 0 01.957-.471c.331-.134.693-.256 1.085-.365l-4.245-2.445a5.31 5.31 0 00-.774.31c-.255.125-.5.256-.735.393-.903.528-1.42 1.1-1.55 1.716-.131.616.052 1.319.548 2.108l-.054.031-2.417-1.391-4.062 2.376 15.06 8.67 4.062-2.375zM86.847 72.183l-3.05-3.611 7.446-4.356 6.3 1.71 4.766-2.788-30.28-7.754-3.494 2.044 13.655 17.48 4.657-2.725zm-1.13-9.483l-4.684 2.74-4.489-5.287 9.173 2.547zm29.507 1.085l-8.677-4.996.054-.032c1.192.142 2.304.085 3.335-.17 1.03-.255 1.97-.63 2.818-1.127.939-.55 1.556-1.168 1.852-1.857.296-.689.33-1.397.1-2.127-.229-.729-.684-1.452-1.365-2.169-.68-.716-1.548-1.378-2.601-1.985a16.39 16.39 0 00-3.59-1.533 16.483 16.483 0 00-3.778-.65 14.255 14.255 0 00-3.655.268 10.625 10.625 0 00-3.227 1.223c-.47.274-.84.574-1.11.9a3.422 3.422 0 00-.593.995 2.416 2.416 0 00-.162.976 2.5 2.5 0 00.185.845l-.054.031-1.983-1.142-3.737 2.186 22.126 12.74 4.062-2.376zm-7.86-7.92c-1.029.602-2.179.867-3.45.795a8.06 8.06 0 01-3.611-1.089c-1.136-.654-1.771-1.35-1.905-2.087-.134-.737.314-1.406 1.343-2.008 1.029-.602 2.179-.867 3.45-.795a8.06 8.06 0 013.61 1.089c1.137.654 1.772 1.35 1.906 2.087.134.737-.314 1.406-1.343 2.008zm24.92-2.06l-8.678-4.995.055-.032c1.192.142 2.304.085 3.334-.17 1.03-.255 1.97-.63 2.819-1.127.939-.55 1.556-1.168 1.852-1.857.296-.689.33-1.397.1-2.127-.23-.729-.684-1.452-1.365-2.169-.68-.716-1.548-1.378-2.602-1.985a16.39 16.39 0 00-3.59-1.533 16.483 16.483 0 00-3.777-.65c-1.26-.066-2.48.024-3.656.268a10.625 10.625 0 00-3.227 1.223c-.47.274-.84.574-1.11.9-.27.327-.468.658-.593.995a2.416 2.416 0 00-.161.976 2.5 2.5 0 00.185.845l-.055.031-1.983-1.142-3.737 2.186 22.126 12.74 4.062-2.376zm-7.86-7.919c-1.03.602-2.18.867-3.45.795a8.06 8.06 0 01-3.611-1.089c-1.137-.654-1.772-1.35-1.906-2.087-.133-.737.314-1.406 1.343-2.008 1.03-.602 2.18-.867 3.45-.795a8.06 8.06 0 013.611 1.089c1.137.654 1.772 1.35 1.905 2.086.134.738-.313 1.407-1.342 2.009z" fill="#FFF" fill-rule="nonzero" opacity=".741"/></g></g></svg>