<svg width="914" height="718" fill="none" xmlns="http://www.w3.org/2000/svg"><path d="M680.026 479.03c0 4.003-2.626 7.881-7.878 10.883l-62.111 33.235c-10.63 6.005-27.887 6.005-38.517 0L308.687 372.641c-5.252-3.002-7.878-7.005-7.878-10.884 0-4.003 2.626-7.881 7.878-10.883l62.111-33.235c10.629-6.005 27.887-6.005 38.517 0l262.833 150.507c5.252 2.877 7.878 6.88 7.878 10.884z" fill="#fff" stroke="#1B127D"/><path d="M680.026 474.06c0 4.003-2.626 7.882-7.878 10.884l-62.111 33.235c-10.63 6.004-27.887 6.004-38.517 0L308.687 367.672c-5.252-3.003-7.878-7.006-7.878-10.884 0-4.003 2.626-7.881 7.878-10.884l62.111-33.234c10.629-6.005 27.887-6.005 38.517 0l262.833 150.506c5.252 2.878 7.878 6.881 7.878 10.884z" fill="#fff" stroke="#1B127D"/><g fill-rule="evenodd" clip-rule="evenodd"><path d="M392.926 322.138l75.465 43.41c3.39 1.95 3.978 4.986 1.314 6.781-2.665 1.795-7.572 1.67-10.962-.28l-75.465-43.41c-3.39-1.95-3.978-4.986-1.313-6.781 2.664-1.795 7.571-1.67 10.961.28zm-37.26 19.878l28.982 16.108c3.39 1.949 3.978 4.985 1.314 6.78-2.665 1.795-7.572 1.67-10.962-.28l-28.982-16.107c-3.389-1.95-3.977-4.986-1.313-6.781 2.664-1.795 7.572-1.67 10.961.28zm19.044-9.939l51.236 29.41c3.39 1.949 3.978 4.985 1.313 6.78-2.664 1.796-7.571 1.67-10.961-.28l-51.236-29.409c-3.389-1.95-3.977-4.986-1.313-6.781 2.664-1.795 7.572-1.67 10.961.28zm-38.087 19.878l58.396 32.879c3.389 1.95 3.977 4.986 1.313 6.781-2.664 1.795-7.572 1.67-10.961-.28l-58.396-32.879c-3.39-1.95-3.978-4.986-1.314-6.781 2.665-1.795 7.572-1.67 10.962.28zm151.521 45.554l9.648 5.631c3.39 1.95 3.978 4.986 1.314 6.781-2.665 1.795-7.572 1.67-10.962-.28l-9.648-5.632c-3.389-1.949-3.977-4.985-1.313-6.78 2.664-1.795 7.572-1.67 10.961.28zm81.143 25.675l23.754 13.206c3.389 1.949 3.977 4.985 1.313 6.78-2.664 1.796-7.572 1.67-10.961-.28l-23.754-13.205c-3.39-1.95-3.978-4.985-1.313-6.781 2.664-1.795 7.571-1.669 10.961.28zm-16.56 12.424l9.648 5.632c3.39 1.949 3.978 4.985 1.314 6.78-2.665 1.796-7.572 1.67-10.962-.28l-9.648-5.631c-3.389-1.95-3.977-4.986-1.313-6.781 2.664-1.795 7.572-1.67 10.961.28zm-14.904 11.596l9.648 5.631c3.39 1.95 3.977 4.986 1.313 6.781-2.664 1.795-7.572 1.67-10.961-.28l-9.648-5.632c-3.39-1.949-3.978-4.985-1.313-6.78 2.664-1.796 7.571-1.67 10.961.28zm-68.722-39.756l7.164 3.975c3.389 1.95 3.977 4.985 1.313 6.781-2.664 1.795-7.572 1.669-10.961-.28l-7.164-3.976c-3.39-1.949-3.978-4.985-1.313-6.78 2.664-1.795 7.571-1.67 10.961.28zm42.227 3.313l.96.621c3.389 1.95 3.977 4.986 1.313 6.781-2.664 1.795-7.572 1.67-10.961-.28l-.96-.622c-3.39-1.949-3.978-4.985-1.313-6.78 2.664-1.795 7.571-1.67 10.961.28zm-61.271 6.626l3.6 2.128c3.389 1.95 3.977 4.986 1.313 6.781-2.664 1.795-7.572 1.669-10.961-.28l-3.6-2.129c-3.39-1.949-3.978-4.985-1.313-6.78 2.664-1.795 7.571-1.67 10.961.28zm56.303-29.817l.96.621c3.39 1.95 3.977 4.986 1.313 6.781-2.664 1.795-7.572 1.67-10.961-.28l-.96-.622c-3.389-1.949-3.977-4.985-1.313-6.78 2.664-1.795 7.572-1.67 10.961.28zm142.414 81.168l.96.622c3.389 1.95 3.977 4.985 1.313 6.781-2.664 1.795-7.572 1.669-10.961-.28l-.96-.622c-3.39-1.95-3.978-4.986-1.314-6.781 2.665-1.795 7.572-1.67 10.962.28zm-36.432 20.706l.96.622c3.39 1.95 3.978 4.986 1.314 6.781-2.665 1.795-7.572 1.67-10.962-.28l-.96-.622c-3.389-1.95-3.977-4.986-1.313-6.781 2.664-1.795 7.572-1.669 10.961.28zm-18.215 9.939l.96.622c3.389 1.95 3.977 4.986 1.313 6.781-2.664 1.795-7.572 1.67-10.961-.28l-.96-.622c-3.39-1.95-3.978-4.986-1.314-6.781 2.665-1.795 7.572-1.669 10.962.28z" fill="#1B127D"/><path d="M630.558 479.505l.96.622c3.389 1.95 3.977 4.986 1.313 6.781-2.664 1.795-7.572 1.67-10.961-.28l-.96-.622c-3.39-1.95-3.978-4.986-1.313-6.781 2.664-1.795 7.571-1.669 10.961.28z" fill="#ED26B7"/><path d="M522.092 458.799l.959.622c3.39 1.95 3.978 4.985 1.314 6.781-2.665 1.795-7.572 1.669-10.962-.28l-.96-.622c-3.389-1.95-3.977-4.986-1.313-6.781 2.664-1.795 7.572-1.67 10.962.28z" fill="#1B127D"/></g><mask id="a" style="mask-type:alpha" maskUnits="userSpaceOnUse" x="300" y="307" width="381" height="217"><path d="M680.026 474.06c0 4.003-2.626 7.882-7.878 10.884l-62.111 33.235c-10.63 6.004-27.887 6.004-38.517 0L308.687 367.672c-5.252-3.003-7.878-7.006-7.878-10.884 0-4.003 2.626-7.881 7.878-10.884l62.111-33.234c10.629-6.005 27.887-6.005 38.517 0l262.833 150.506c5.252 2.878 7.878 6.881 7.878 10.884z" fill="#fff" stroke="#fff"/></mask><g mask="url(#a)"><path fill-rule="evenodd" clip-rule="evenodd" d="M320.681 361.174l174.54 98.882-174.54-98.882z" fill="#BFC9D1"/><path d="M320.681 361.174l174.54 98.882" stroke="#BFC9D1" stroke-dasharray="4.47"/><path fill-rule="evenodd" clip-rule="evenodd" d="M338.068 350.407l174.54 98.881-174.54-98.881z" fill="#BFC9D1"/><path d="M338.068 350.407l174.54 98.881" stroke="#BFC9D1" stroke-dasharray="4.47"/><path fill-rule="evenodd" clip-rule="evenodd" d="M356.283 340.468l174.54 98.882-174.54-98.882z" fill="#BFC9D1"/><path d="M356.283 340.468l174.54 98.882" stroke="#BFC9D1" stroke-dasharray="4.47"/><path fill-rule="evenodd" clip-rule="evenodd" d="M373.672 329.7l174.54 98.882-174.54-98.882z" fill="#BFC9D1"/><path d="M373.672 329.7l174.54 98.882" stroke="#BFC9D1" stroke-dasharray="4.47"/><path fill-rule="evenodd" clip-rule="evenodd" d="M391.887 319.761l174.54 98.882-174.54-98.882z" fill="#BFC9D1"/><path d="M391.887 319.761l174.54 98.882" stroke="#BFC9D1" stroke-dasharray="4.47"/><path fill-rule="evenodd" clip-rule="evenodd" d="M494.557 459.735l174.54 98.882-174.54-98.882z" fill="#BFC9D1"/><path d="M494.557 459.735l174.54 98.882" stroke="#BFC9D1" stroke-dasharray="4.47"/><path fill-rule="evenodd" clip-rule="evenodd" d="M511.945 448.968l174.54 98.882-174.54-98.882z" fill="#BFC9D1"/><path d="M511.945 448.968l174.54 98.882" stroke="#BFC9D1" stroke-dasharray="4.47"/><path fill-rule="evenodd" clip-rule="evenodd" d="M530.161 439.029l174.54 98.882-174.54-98.882z" fill="#BFC9D1"/><path d="M530.161 439.029l174.54 98.882" stroke="#BFC9D1" stroke-dasharray="4.47"/><path fill-rule="evenodd" clip-rule="evenodd" d="M547.548 428.262l174.54 98.882-174.54-98.882z" fill="#BFC9D1"/><path d="M547.548 428.262l174.54 98.882" stroke="#BFC9D1" stroke-dasharray="4.47"/><path fill-rule="evenodd" clip-rule="evenodd" d="M565.764 418.323l174.54 98.882-174.54-98.882z" fill="#BFC9D1"/><path d="M565.764 418.323l174.54 98.882" stroke="#BFC9D1" stroke-dasharray="4.47"/></g></svg>