<svg width="838" height="657" xmlns="http://www.w3.org/2000/svg" xmlns:xlink="http://www.w3.org/1999/xlink"><defs><linearGradient x1="-.086%" y1="50.031%" x2="99.972%" y2="50.031%" id="a"><stop stop-color="#00B0E3" offset="0%"/><stop stop-color="#9AD6ED" offset="100%"/></linearGradient><path d="M339.444 148.495c0 3.583-2.35 7.055-7.052 9.742l-55.596 29.749c-9.515 5.375-24.963 5.375-34.477 0L7.052 53.265C2.351 50.577 0 46.994 0 43.522c0-3.583 2.35-7.054 7.052-9.742L62.648 4.031c9.515-5.375 24.963-5.375 34.478 0l235.266 134.722c4.701 2.575 7.052 6.158 7.052 9.742z" id="b"/></defs><g fill="none" fill-rule="evenodd"><g transform="translate(270 276)"><path d="M339.444 152.943c0 3.583-2.35 7.055-7.052 9.742l-55.596 29.75c-9.515 5.374-24.963 5.374-34.477 0L7.052 57.712C2.351 55.025 0 51.443 0 47.971c0-3.584 2.35-7.055 7.052-9.743L62.648 8.48c9.515-5.375 24.963-5.375 34.478 0L332.392 143.2c4.701 2.576 7.052 6.16 7.052 9.743z" stroke="#14B2E2" stroke-width=".8" fill="url(#a)" fill-rule="nonzero" opacity=".6"/><mask id="c" fill="#fff"><use xlink:href="#b"/></mask><use stroke="#14B2E2" stroke-width=".8" fill="url(#a)" fill-rule="nonzero" opacity=".6" xlink:href="#b"/><path stroke="#FFF" stroke-width=".8" opacity=".454" stroke-dasharray="4" mask="url(#c)" d="M17.787 47.448l156.234 88.511M33.351 37.81l156.234 88.511M49.657 28.914l156.233 88.51M65.22 19.277l156.235 88.51M81.525 10.38L237.76 98.89m-64.332 36.782l156.234 88.511m-140.67-98.149l156.234 88.511m-139.929-97.407l156.234 88.51M220.86 107.5l156.234 88.51M237.166 98.604l156.234 88.51"/></g><g opacity=".572"><path d="M609.444 446.736c0 3.584-2.35 7.055-7.052 9.742l-55.596 29.75c-9.515 5.374-24.963 5.374-34.477 0L277.052 351.505c-4.701-2.687-7.052-6.27-7.052-9.742 0-3.584 2.35-7.055 7.052-9.742l55.596-29.75c9.515-5.374 24.963-5.374 34.478 0l235.266 134.722c4.701 2.575 7.052 6.159 7.052 9.742z" fill="#000" fill-rule="nonzero" opacity=".12"/><path d="M352.456 288.507l67.55 38.857c3.034 1.745 3.56 4.463 1.176 6.07-2.385 1.606-6.778 1.494-9.812-.251l-67.55-38.857c-3.034-1.746-3.56-4.463-1.176-6.07 2.385-1.607 6.778-1.495 9.812.25zM319.104 306.3l25.943 14.418c3.034 1.745 3.56 4.463 1.175 6.07-2.385 1.606-6.777 1.494-9.811-.251l-25.943-14.418c-3.034-1.745-3.56-4.463-1.175-6.07 2.384-1.607 6.777-1.494 9.811.25zm17.047-8.897l45.862 26.325c3.034 1.746 3.56 4.463 1.175 6.07-2.385 1.607-6.777 1.495-9.811-.25l-45.863-26.326c-3.034-1.745-3.56-4.462-1.175-6.07 2.385-1.606 6.778-1.494 9.812.251zm-34.093 17.793l52.271 29.431c3.034 1.746 3.56 4.463 1.176 6.07-2.385 1.607-6.778 1.495-9.812-.25l-52.271-29.432c-3.034-1.745-3.56-4.462-1.176-6.07 2.385-1.606 6.778-1.494 9.812.251zm135.63 40.776l8.635 5.041c3.034 1.745 3.56 4.463 1.176 6.07-2.385 1.607-6.778 1.494-9.812-.25l-8.636-5.042c-3.034-1.745-3.56-4.463-1.175-6.07 2.384-1.606 6.777-1.494 9.811.251zm72.631 22.983l21.263 11.82c3.034 1.746 3.56 4.463 1.175 6.07-2.384 1.607-6.777 1.494-9.811-.25l-21.263-11.821c-3.034-1.745-3.56-4.463-1.175-6.07 2.385-1.606 6.777-1.494 9.811.251zm-14.822 11.12l8.636 5.042c3.034 1.745 3.56 4.462 1.175 6.07-2.385 1.606-6.777 1.494-9.811-.251l-8.637-5.041c-3.034-1.746-3.56-4.463-1.175-6.07 2.385-1.607 6.778-1.495 9.812.25zm-13.341 10.38l8.636 5.041c3.034 1.745 3.56 4.463 1.176 6.07-2.385 1.606-6.778 1.494-9.812-.251l-8.636-5.041c-3.034-1.745-3.56-4.463-1.176-6.07 2.385-1.606 6.778-1.494 9.812.251zm-61.515-35.586l6.413 3.558c3.034 1.745 3.56 4.463 1.175 6.07-2.385 1.606-6.777 1.494-9.811-.251l-6.413-3.558c-3.034-1.746-3.56-4.463-1.176-6.07 2.385-1.607 6.778-1.494 9.812.25zm37.798 2.965l.86.557c3.034 1.745 3.56 4.463 1.175 6.07-2.385 1.606-6.777 1.494-9.812-.251l-.859-.557c-3.034-1.745-3.56-4.462-1.175-6.07 2.385-1.606 6.777-1.494 9.811.251zm-54.844 5.931l3.222 1.905c3.034 1.746 3.56 4.463 1.176 6.07-2.385 1.607-6.778 1.495-9.812-.25l-3.222-1.906c-3.034-1.745-3.56-4.462-1.176-6.07 2.385-1.606 6.778-1.494 9.812.251zm50.397-26.69l.86.557c3.034 1.746 3.56 4.463 1.175 6.07-2.385 1.607-6.777 1.494-9.811-.25l-.86-.557c-3.034-1.746-3.56-4.463-1.175-6.07 2.385-1.607 6.777-1.495 9.811.25zm127.477 72.656l.86.556c3.034 1.746 3.56 4.463 1.175 6.07-2.385 1.607-6.778 1.495-9.812-.25l-.859-.557c-3.034-1.745-3.56-4.463-1.175-6.07 2.385-1.607 6.777-1.494 9.811.25zm-32.61 18.534l.86.557c3.033 1.745 3.56 4.463 1.175 6.07-2.385 1.606-6.778 1.494-9.812-.251l-.86-.557c-3.033-1.745-3.56-4.462-1.175-6.07 2.385-1.606 6.778-1.494 9.812.251zm-16.305 8.897l.86.556c3.033 1.746 3.56 4.463 1.175 6.07-2.385 1.607-6.778 1.495-9.812-.25l-.86-.557c-3.033-1.745-3.56-4.463-1.175-6.07 2.385-1.607 6.778-1.494 9.812.25z" fill="#FFF"/><path d="M565.164 429.369l.86.556c3.033 1.746 3.56 4.463 1.175 6.07-2.385 1.607-6.778 1.495-9.812-.25l-.859-.557c-3.034-1.746-3.56-4.463-1.175-6.07 2.384-1.607 6.777-1.494 9.811.25z" fill="#FFA446"/><path d="M468.074 410.834l.86.557c3.034 1.745 3.56 4.463 1.175 6.07-2.385 1.606-6.778 1.494-9.812-.251l-.859-.557c-3.034-1.745-3.56-4.462-1.175-6.07 2.384-1.606 6.777-1.494 9.811.251z" fill="#FFF"/></g></g></svg>