<svg width="915" height="643" fill="none" xmlns="http://www.w3.org/2000/svg"><path d="M881.015 422.544c0 4.001-2.628 7.877-7.884 10.878l-12.165 6.914L512.327 638.46c-10.637 6.002-27.908 6.002-38.546 0L7.884 374.427C2.628 371.426 0 367.424 0 363.548c0-4.002 2.628-7.878 7.884-10.879l360.804-205.037c10.638-6.002 27.908-6.002 38.546 0l465.897 264.033c5.256 2.876 7.884 6.877 7.884 10.879z" fill="#F2F4F6"/><path opacity=".423" d="M881.015 323.239c0 4.002-2.628 7.878-7.884 10.879l-12.165 6.913-348.639 198.125c-10.637 6.002-27.908 6.002-38.546 0L7.884 275.122C2.628 272.121 0 268.12 0 264.244c0-4.002 2.628-7.878 7.884-10.879L368.688 48.328c10.638-6.003 27.908-6.003 38.546 0L873.131 312.36c5.256 2.876 7.884 6.877 7.884 10.878z" fill="url(#a)"/><path fill-rule="evenodd" clip-rule="evenodd" d="M57.47 149.589c.996-1.806 2.491-2.99 4.485-3.613 1.931-.623 3.8-.436 5.607.561 1.806.996 3.052 2.491 3.613 4.422.124.374.187.685.249.997h.124l7.102 34.878h.062c.499 1.682.312 3.301-.56 4.859-.81 1.557-2.118 2.615-3.8 3.114-1.682.498-3.302.311-4.922-.561-1.495-.81-2.491-2.055-2.99-3.799v-.125c-.062-.062-.062-.124-.062-.187l-9.158-34.442a4.254 4.254 0 00-.124-.312 4.331 4.331 0 01-.125-.311c-.685-1.807-.498-3.675.499-5.481zm-2.056 68.761c1.869-1.869 4.112-2.741 6.79-2.678 2.617.062 4.86 1.059 6.666 2.989 1.806 1.931 2.679 4.173 2.616 6.789 0 .748-.124 1.433-.311 2.118a180.438 180.438 0 01-.228 3.01 172.83 172.83 0 00-.208 2.72c-1.246 18.062-2.18 33.135-2.928 45.218-.062.685-.125 1.868-.187 3.488v-.312l-.125 4.672v2.865l-.436 13.204v.187c-.062 1.37-.56 2.491-1.557 3.488-1.06.934-2.243 1.432-3.613 1.432-1.433-.062-2.617-.623-3.489-1.619-.997-.997-1.433-2.18-1.433-3.613v-.622l-2.118-17.066c-2.74-21.986-4.36-34.505-4.796-37.557-.374-2.492-.623-4.858-.623-7.225-.063-5.855.872-11.398 2.865-16.692l.312.062c.373-1.868 1.308-3.488 2.803-4.858zm-17.63 8.72c-2.616-.063-4.921.809-6.79 2.616-1.433 1.432-2.367 3.114-2.99 5.045l-.25-.125c-.81 2.118-1.432 4.298-1.93 6.478-.748 3.301-1.06 6.726-1.06 10.214 0 2.367.125 4.796.499 7.225.498 3.052 1.993 15.571 4.547 37.619l1.994 17.066c-.062.125-.062.374-.062.685-.063 1.37.436 2.554 1.37 3.613.934.996 2.056 1.557 3.489 1.619 1.37 0 2.616-.436 3.675-1.433.997-.996 1.495-2.117 1.557-3.487v-.187l.499-13.267c0-.342.015-.685.031-1.027.016-.343.031-.685.031-1.028.062-.249.062-.561.062-.81l.187-4.671v.311c.063-1.619.125-2.802.187-3.425.81-12.083 1.931-27.156 3.302-45.156.062-.187.062-.436.062-.623.187-1.744.312-3.488.436-5.232.187-.685.25-1.37.312-2.117.124-2.554-.685-4.796-2.492-6.789-1.807-1.993-4.05-2.99-6.666-3.114z" fill="#DFE4E8"/><path d="M38.532 174.004c4.236.125 7.787 1.744 10.715 4.796 2.865 3.052 4.236 6.664 4.111 10.899v.063l-4.173 47.398c-.125 2.74-1.122 5.107-2.928 7.162.124-1.744.311-3.488.436-5.232.187-.685.249-1.432.311-2.117.125-2.554-.747-4.858-2.492-6.789-1.806-1.931-4.049-2.99-6.665-3.114-2.679-.125-4.922.747-6.79 2.616-1.433 1.432-2.43 3.052-2.866 4.982l-.25-.124a45.634 45.634 0 00-1.93 6.477 12.686 12.686 0 01-.935-4.36h-.062c-.436-11.896-.935-23.73-1.558-35.501.748.249 1.558.311 2.43.187 1.744-.187 3.177-.935 4.298-2.243 1.184-1.37 1.62-2.927 1.433-4.671v-.125l-.187-18.871c2.18-.997 4.548-1.495 7.102-1.433z" fill="#37474F"/><path d="M60.976 122.303c.4.216.734.507 1.069.798l22.48 25.676 7.558 5.273s4.434.893 6.683.768c2.248-.124 7.72 2.302 7.621 4.132-.187 3.425-7.048-.21-6.808 1.515.334 2.394 8.068 7.701 7.372 8.698-.566.82-3.434 1.328-4.559 1.39-1.124.062-11.298-3.17-13.25-4.473l-.083-.072-.167-.146-37.178-28.512c-.316-.143-.483-.289-.8-.432-2.136-1.595-3.586-3.643-4.2-6.146-.55-2.577-.17-4.872 1.287-6.886 1.392-1.94 3.259-3.073 5.748-3.403 2.703-.407 5.09.225 7.227 1.82z" fill="#DFE4E8"/><path d="M28.726 74.5c.082-.086.08-.17.077-.254.628-1.527 1.513-2.893 2.483-4.179 2.835-3.602 6.46-5.968 10.71-6.926 5.245-1.405 10.454-1.132 15.455.74 3.579-1.023 6.857-.78 9.921.812 2.809 1.43 4.8 3.639 5.975 6.625 1.258 2.984 1.424 5.914.584 8.873-.92 3.045-2.948 5.534-6.002 7.298.096.416.189.749.284 1.166.495 2.67.063 5.198-1.375 7.754-.238.51-.561.938-.885 1.367 2.172-.313 4.119.303 5.922 1.762 1.977 1.706 3.128 3.854 3.373 6.615a11.427 11.427 0 01-.237 3.529c1.586-.296 2.797 1.012 3.46 3.677.747 2.746.25 5.947-1.325 9.598-1.575 3.65-6.534 6.305-14.96 7.968-7.517 7.088-17.221 8.032-29.032 2.66-3.082.758-5.42 1.159-6.926 1.285-1.509.043-3.697-.231-6.477-.656-2.783-.509-4.911-1.624-6.55-3.255-1.731-1.88-2.633-4.119-2.706-6.717-.133-1.758.325-3.364 1.207-4.814 1.045-1.623 2.686-2.927 4.755-3.908-1.632-1.38-2.604-3.114-2.916-5.286-.23-2.174.39-4.036 1.77-5.668l.407-.431c.733-.775 1.885-1.563 3.54-2.364 1.903-.976 3.225-1.684 3.8-2.12.903-.696 1.631-1.639 2.271-2.747.137-10.068 1.268-17.564 3.397-22.404z" fill="#1B127D"/><path d="M40.694 90.423l2.92-.501c2.41-.822 4.716-2.313 7.085-4.56 1.878-1.813 3.82-4.299 5.747-7.371 1.445-2.305 2.913-3.771 4.319-4.482 1.616.793 2.917 2.35 3.989 4.668 1.514 3.143 2.306 7.481 2.38 13.097.044 4.526-.526 8.147-1.707 10.864-.87 1.869-1.843 3.07-3.083 3.692-1.322.708-3.834.862-7.535.463l.025 6.875c.264 3.43-1.206 4.813-4.582 4.069-1.266-.3-3.13-1.002-5.591-2.023-2.545-1.018-3.842-2.407-3.894-4.251l-.004-.167-.036-1.257-.026-.921-.424-9.128a4.55 4.55 0 01-2.756.413c-1.01-.14-1.778-.62-2.467-1.272-1.297-1.39-2.01-2.878-2.31-4.63-.302-1.753-.006-3.187.969-4.304.975-1.118 2.054-1.483 3.57-1.274 1.345.13 2.456.853 3.41 2z" fill="#DFE4E8"/><path d="M43.054 102.061a7.129 7.129 0 002.694 3.362c1.456 1.049 4.508 2.221 9.073 3.518l.015-2.432a33.382 33.382 0 01-6.746-1.32c-2.793-.927-4.5-1.969-5.036-3.128z" fill="#000" fill-opacity=".086"/><path d="M38.61 317.464c1.168-.304 1.698-.698 1.665-1.116l-.107-1.325c.352.884 1.795 2.242 4.271 4.22 2.766 2.094 5.354 3.712 7.821 4.707 3.71 1.598 5.602 2.429 5.747 2.487 1.979 1.035 3.115 2.067 3.414 3.166.408 1.582-.055 2.813-1.378 3.831-1.328.95-3.387 1.536-6.242 1.836-2.785.293-5.422-.197-7.907-1.402-1.096-.543-2.802-1.67-5.185-3.374a39.923 39.923 0 00-5.658-3.126c-1.457-.655-2.403-1.071-2.769-1.252-.957-.555-1.571-1.208-1.906-1.883-.341-.745-.406-2.424-.195-5.039.176-2.19.51-3.27 1.01-3.17l.062.768c.376.32 1.032.619 1.822.836.86.212 1.853.343 2.83.264.773.008 1.674-.134 2.704-.428z" fill="#1B127D"/><path d="M32.55 320.263c-1.52-1-1.95-2.428-1.372-4.366.493-1.938 1.075-3.119 1.576-3.711 1.003-1.015 2.262-1.528 3.693-1.536 1.43-.009 2.695.488 3.71 1.492.763.752 1.273 1.674 1.447 2.683.933 1.172 1.357 1.758 1.442 1.926.933 1.256 2.287 2.426 4.145 3.676a71.7 71.7 0 007.601 4.75c1.267.749 1.86 1.334 1.778 1.756-.165.505-.752.845-1.929 1.105-1.26.428-2.69.521-4.373.363-2.188-.156-4.296-.816-6.406-1.897-1.18-.497-2.532-1.331-4.138-2.499-3.374-1.494-5.822-2.741-7.174-3.742z" fill="#DFE4E8"/><path d="M25.082 239.608l.578-4.582c4.647.237 12.51.71 23.583 1.334-.408 7.52-1.437 21.815-3 42.88-5.034 4.755-11.52 4.792-19.634-.046-1.161-12.821-1.937-21.873-2.07-27.088-.172-4.454.005-8.676.543-12.498z" fill="#37474F"/><path d="M44.424 230.168c1.806 1.945 2.639 4.229 2.541 6.855-.098 2.625-1.098 4.841-3.041 6.605-1.943 1.764-4.229 2.639-6.854 2.542-2.625-.098-4.84-1.098-6.604-3.042-1.805-1.945-2.64-4.188-2.542-6.813.097-2.626 1.098-4.842 3.042-6.648 1.903-1.807 4.187-2.64 6.812-2.543 2.625.098 4.841 1.098 6.646 3.044z" fill="#37474F"/><path d="M46.058 228.333c2.286 2.463 3.34 5.355 3.217 8.679-.123 3.325-1.39 6.131-3.85 8.365-2.462 2.286-5.354 3.341-8.678 3.217-3.324-.123-6.13-1.39-8.362-3.851-2.286-2.462-3.343-5.302-3.22-8.627.124-3.324 1.39-6.13 3.853-8.416 2.41-2.289 5.302-3.344 8.625-3.22 3.324.123 6.13 1.39 8.415 3.853z" fill="#37474F"/><path d="M56.084 122.434c-1.702-1.2-2.68-2.79-3.021-4.753-.355-2.049.032-3.875 1.232-5.578 1.2-1.703 2.79-2.682 4.838-3.036 2.049-.355 3.874.032 5.491 1.247 1.703 1.2 2.767 2.775 3.122 4.824s-.033 3.875-1.247 5.493c-1.2 1.702-2.79 2.681-4.752 3.021-2.12.455-3.96-.018-5.663-1.218zm4.299 36.467c-1.703-1.2-2.682-2.789-3.022-4.753-.355-2.049.033-3.875 1.233-5.578 1.2-1.703 2.788-2.682 4.837-3.036 2.049-.355 3.874.032 5.492 1.247 1.702 1.2 2.766 2.775 3.121 4.824s-.032 3.875-1.247 5.493c-1.2 1.702-2.789 2.681-4.752 3.021-2.134.37-3.96-.018-5.662-1.218z" fill="#FFA8A7"/><path d="M53.128 117.758l14.8-1.707 4.181 36.258-14.8 1.706-4.181-36.257z" fill="#FFA8A7"/><path d="M55.405 140.819l1.143 6.599c2.078.66 4.434.761 7.082.388 2.634-.456 5.272-1.423 7.84-2.802.09-.016.167-.114.258-.129-.32-1.304-.796-3.516-1.583-6.438-2.204 1.316-4.57 2.236-7.218 2.609-2.542.44-5.08.37-7.522-.227z" fill="url(#b)"/><path d="M52.095 126.68c-.075-.921-.059-2.793.033-5.697-.035-1.184-.042-2.202-.005-2.973l-.015-.082c-.468-2.213.014-4.335 1.199-6.325 1.363-1.935 3.185-3.185 5.494-3.585 2.295-.482 4.417 0 6.338 1.282 1.824 1.213 2.948 2.802 3.538 4.739.03.165.043.248.154.398l.057.33c.072.413.143.825.118 1.169l.165-.028.02 1.1 2.586 14.93c1.592 3.802 2.09 6.18 1.544 6.954-.532.856-1.435 1.522-2.644 1.902-.025.344-1.865 1.002-5.558 2.236-3.543 1.124-6.515 1.128-8.999.029 0 0-1.09-.406-3.103-1.246-1.506-.844-1.996-2.203-1.389-4.093.565-2.136.775-5.826.467-11.04z" fill="url(#c)"/><path d="M55.405 140.819l1.143 6.599c2.078.66 4.434.761 7.082.388 2.634-.456 5.272-1.423 7.84-2.802.09-.016.167-.114.258-.129-.32-1.304-.796-3.516-1.583-6.438-2.204 1.316-4.57 2.236-7.218 2.609-2.542.44-5.08.37-7.522-.227z" fill="#000" fill-opacity=".11"/><path d="M52.095 126.68c-.075-.921-.059-2.793.033-5.697-.035-1.184-.042-2.202-.005-2.973l-.015-.082c-.468-2.213.014-4.335 1.199-6.325 1.363-1.935 3.185-3.185 5.494-3.585 2.295-.482 4.417 0 6.338 1.282 1.824 1.213 2.948 2.802 3.538 4.739.03.165.043.248.154.398l.057.33c.072.413.143.825.118 1.169l.165-.028.02 1.1 2.586 14.93c1.592 3.802 2.09 6.18 1.544 6.954-.532.856-1.435 1.522-2.644 1.902-.025.344-1.865 1.002-5.558 2.236-3.543 1.124-6.515 1.128-8.999.029 0 0-1.09-.406-3.103-1.246-1.506-.844-1.996-2.203-1.389-4.093.565-2.136.775-5.826.467-11.04z" fill="#ED26B7"/><path d="M70.323 215.948c2.49 2.255 3.792 5.044 3.958 8.366s-.853 6.227-3.11 8.665c-2.254 2.491-5.043 3.792-8.364 3.958-3.32.165-6.225-.853-8.663-3.11-2.49-2.255-3.79-4.992-3.955-8.314-.165-3.321.853-6.226 3.107-8.717 2.201-2.488 4.99-3.79 8.311-3.955 3.322-.166 6.226.852 8.716 3.107zm-.66-49.416c3.155 2.856 4.804 6.39 5.013 10.598.21 4.208-1.08 7.888-3.939 10.976-2.855 3.155-6.388 4.804-10.595 5.014-4.207.209-7.887-1.081-10.974-3.94-3.155-2.856-4.8-6.323-5.01-10.531-.21-4.208 1.08-7.888 3.936-11.043 2.789-3.152 6.321-4.801 10.529-5.01 4.207-.21 7.886 1.08 11.04 3.936z" fill="#263238"/><path d="M74.377 224.723l-24.174 1.481a1742.32 1742.32 0 00-6.24-47.521l30.881-1.523-.467 47.563z" fill="#263238"/><path d="M49.51 228.248l.54-4.585c4.648.197 12.511.604 23.586 1.134-.345 7.521-1.252 21.82-2.638 42.89-4.992 4.796-11.474 4.888-19.621.204-1.27-12.807-2.121-21.849-2.381-27.056-.132-4.54.01-8.762.515-12.587z" fill="#37474F"/><path d="M68.804 218.651c1.821 1.93 2.673 4.206 2.597 6.832-.075 2.625-1.056 4.849-2.984 6.629-1.929 1.821-4.205 2.674-6.83 2.598-2.625-.075-4.848-1.057-6.628-2.985-1.82-1.929-2.674-4.164-2.599-6.789.076-2.626 1.057-4.85 2.986-6.671 1.887-1.823 4.164-2.675 6.788-2.6 2.625.076 4.849 1.057 6.67 2.986z" fill="#37474F"/><path d="M70.433 216.756c2.306 2.443 3.385 5.326 3.29 8.65-.096 3.324-1.338 6.14-3.78 8.394-2.441 2.306-5.323 3.385-8.647 3.29-3.324-.096-6.139-1.338-8.392-3.78-2.306-2.442-3.386-5.272-3.29-8.596.095-3.325 1.337-6.141 3.78-8.447 2.389-2.308 5.27-3.387 8.594-3.291 3.324.095 6.14 1.338 8.445 3.78z" fill="#37474F"/><path d="M64.323 304.978c1.176-.273 1.716-.653 1.694-1.072l-.072-1.327c.328.893 1.735 2.288 4.157 4.328 2.709 2.165 5.252 3.848 7.691 4.907 3.664 1.693 5.533 2.573 5.677 2.635 1.95 1.085 3.058 2.146 3.328 3.252.367 1.591-.128 2.808-1.48 3.722-1.351.914-3.424 1.446-6.284 1.671-2.79.221-5.413-.338-7.863-1.606-1.082-.572-2.757-1.742-5.094-3.507-1.748-1.236-3.558-2.329-5.57-3.271a86.58 86.58 0 01-2.665-1.326c-.942-.58-1.538-1.248-1.856-1.931-.32-.753-.341-2.433-.058-4.97.232-2.184.594-3.254 1.091-3.141l.041.769c.369.33 1.016.645 1.8.883.853.234 1.842.39 2.82.338.772.028 1.676-.091 2.643-.354z" fill="#1B127D"/><path d="M58.205 307.629c-1.493-1.039-1.885-2.476-1.258-4.398.543-1.923 1.155-3.088 1.672-3.666 1.029-.989 2.3-1.468 3.73-1.439 1.429.029 2.68.558 3.668 1.587.742.772 1.228 1.707 1.376 2.719.9 1.195 1.31 1.792 1.39 1.962.9 1.279 2.221 2.483 4.045 3.781a71.554 71.554 0 007.47 4.943c1.247.782 1.824 1.382 1.731 1.8-.178.501-.773.826-1.955 1.054-1.27.395-2.701.451-4.38.249-2.182-.212-4.27-.927-6.352-1.977-1.165-.612-2.493-1.48-4.067-2.689-3.333-1.58-5.745-2.89-7.07-3.926z" fill="#DFE4E8"/><path d="M25.706 162.172c1.096-2.946 2.696-5.723 4.97-8.247 4.463-5.05 10.02-7.657 16.588-7.992 6.566-.251 12.29 1.939 17.257 6.486 3.198 3.031 5.386 6.651 6.563 10.692 0 .084.337 1.262 1.01 3.62.673 2.272 1.093 4.798 1.26 7.575.672 6.566-1.35 12.289-5.982 17.17-4.632 4.881-10.694 7.32-18.187 7.318-5.81-.002-11.029-.845-15.574-2.698-1.01-.337-2.02-.674-2.947-1.179-.084-.085-.252-.169-.42-.253-8.923-3.538-10.604-14.06-4.959-31.314l.337-1.094s0-.084.085-.084z" fill="#37474F"/><path d="M22.962 167.252c2.84-7.377 6.41-12.24 10.87-14.428 17.924-10.211 30.898-5.748 38.758 13.307a66.406 66.406 0 014.05 14.676c2.59 16.621 4.047 27.242 4.29 31.783.403 7.459 1.532 28.133 3.307 62.023l-1.38 2.108a28.842 28.842 0 01-5.11 4.701c-6.65 4.7-15.571 7.292-26.843 7.938-11.272.645-20.921-.898-28.867-4.63-3.973-1.866-6.811-3.812-8.513-5.758 1.389-37.214 2.612-62.509 3.67-75.886.895-11.594 2.195-20.917 3.738-28.051.569-2.675 1.218-5.27 2.03-7.783z" fill="#1B127D"/><path fill-rule="evenodd" clip-rule="evenodd" d="M59.662 288.632c1.622-.404 3.163-.728 4.704-1.052.245-8.351-.884-29.836-3.307-64.456-1.212-17.188-2.423-33.647-3.716-49.214.645 12.405 1.288 34.052 1.846 64.861.48 27.323.637 43.943.473 49.861zm14.517-4.779c1.46-.729 2.757-1.458 3.974-2.35-.401-14.756-1.774-34.539-4.12-59.186-1.05-12.324-2.586-27.648-4.608-45.89a1419.288 1419.288 0 013.791 69.077c.483 15.324.803 28.052.963 38.349zm-29.519 5.829c-1.46 0-3.162-.082-5.108-.244.33-19.134.82-36.808 1.393-53.104 1.063-30.484 2.123-50.023 3.341-58.536-.326 7.135-.572 17.107-.738 29.917-.25 25.863.147 53.185 1.112 81.967zm-22.137-4.627c1.378.649 2.676 1.217 3.892 1.622-.966-24.404-.472-51.158 1.4-80.102a826.833 826.833 0 012.523-29.916c-2.6 17.836-4.551 37.537-5.774 58.94a1262.668 1262.668 0 00-2.041 49.456z" fill="#000" fill-opacity=".2"/><path d="M49.246 180.17c-6.666.561-12.77-.124-18.253-1.931-5.544-1.868-8.472-3.55-8.846-4.982-.373-1.433-.685-3.364-.934-5.73l53.512-3.239c.25 2.429-.623 4.671-2.679 6.789-1.993 2.055-4.36 3.799-6.977 5.169-4.049 2.118-9.282 3.426-15.823 3.924z" fill="url(#d)"/><path d="M30.997 178.159c-5.487-1.879-8.42-3.511-8.801-4.996-.38-1.385-.684-3.369-.907-5.654l53.449-3.28c.312 2.383-.607 4.69-2.675 6.723-2.066 2.132-4.405 3.772-7.013 5.119-3.998 2.172-9.244 3.473-15.738 3.904-6.751.735-12.829.063-18.315-1.816z" fill="#ED26B7"/><path d="M55.85 107.174c3.675.56 6.665 2.429 8.908 5.481.747.996 1.37 2.117 1.868 3.238.748 1.121 1.433 2.243 1.994 3.364.187.373.374.747.498 1.121l.374.934c1.682 2.865 2.43 5.792 2.243 8.907a15.318 15.318 0 01-1.495 5.667c.623 4.547 1.495 7.91 2.554 10.09 1.183 2.367 1.557 4.734 1.246 7.163.062.062.124.125.124.187.686.996 1.246 1.993 1.558 3.052.81 2.242.996 4.671.56 7.225-.187 1.183-.56 2.242-1.121 3.114-1.184 2.055-3.115 3.425-5.794 4.235-3.862 2.678-11.836 4.298-23.859 4.858-12.148.561-20.06-1.432-23.735-5.917-.374-1.121-.685-2.18-.872-3.114-.374-2.18-.311-3.986.187-5.419 2.554-5.045 2.616-11.833.187-20.366-2.492-8.595-3.177-14.201-2.118-16.879.124-.81.311-1.557.56-2.18.063-.187.063-.312.063-.374 1.744-4.858 7.288-8.969 16.633-12.394.311-.125.685-.249.997-.312 0-.062.062-.062.062-.062 2.18-.561 4.984-1.121 8.41-1.619 2.928-.499 6.23-.561 9.967 0z" fill="#ED26B7"/><path d="M74.24 153.433c.364.582.638 1.081.91 1.496-7.097 5.36-16.37 7.399-27.732 6.201 12.734-.428 21.734-2.967 26.823-7.697z" fill="#000" fill-opacity=".118"/><path d="M38.068 109.178s-.003-.169-.094-.503c.335-.091.668-.266 1.085-.443 2.59-.894 6.87-1.402 12.755-1.606.259.331.43.496.43.496.355.918.714 2.004.908 3.262.38 2.095-.012 3.533-1.176 4.23-1.41.954-3.343 1.077-5.795.454-2.115-.545-3.9-1.434-5.353-2.582-1.366-.982-2.231-2.142-2.76-3.308z" fill="#DFE4E8"/><path d="M37.402 141.806c-2.873-1.455-4.66-3.269-5.432-5.356 6.069 4.418 12.304 6.226 18.633 5.508-4.699 2.03-9.075 1.951-13.201-.152z" fill="#000" fill-opacity=".086"/><path d="M23.021 170.466c-1.27-1.65-1.733-3.457-1.476-5.433.268-2.061 1.179-3.69 2.829-4.96 1.65-1.27 3.457-1.734 5.518-1.466s3.69 1.179 4.873 2.818c1.27 1.65 1.734 3.458 1.466 5.519-.269 2.062-1.265 3.679-2.904 4.863-1.65 1.271-3.457 1.734-5.432 1.477-1.975-.257-3.604-1.167-4.874-2.818z" fill="#FFA8A7"/><path d="M20.756 122.036l15.254.176-.516 44.745-15.254-.176.516-44.745z" fill="#DFE4E8"/><path d="M28.879 115.066c2.318-.034 4.356.72 6.006 2.4 1.565 1.502 2.411 3.281 2.592 5.267l.054.432-.032.255c-.009.44-.025.819-.041 1.197l.124-.015-.119 1.082.19 15.852c.864 3.973.967 6.345.3 7.054-.658.772-1.671 1.21-3.031 1.377a4.013 4.013 0 00-.88-.52c-1.529-.691-3.521-1.073-6.171-1.187-3.222-.17-5.278-.043-6.229.388-1.013.438-1.477.746-1.393.924.023.185-.857-.334-2.57-1.504-1.712-1.171-2.026-2.701-1.002-4.584 1.017-1.944 1.836-5.496 2.458-10.655.362-3.182.739-5.739.998-7.716.117-.579.18-1.089.313-1.544-.034-2.318.728-4.294 2.339-5.998 1.68-1.649 3.706-2.526 6.094-2.505z" fill="#ED26B7"/><path d="M19.862 152.037l.049-6.694c1.94-.906 4.248-1.392 6.92-1.456 2.671.019 5.432.541 8.189 1.482.092 0 .183.085.275.085-.101 1.338-.21 3.597-.416 6.608-2.388-.938-4.872-1.458-7.544-1.477-2.671-.019-5.163.548-7.473 1.452z" fill="#000" fill-opacity=".11"/><path d="M19.862 152.037l.049-6.694c1.94-.906 4.248-1.392 6.92-1.456 2.671.019 5.432.541 8.189 1.482.092 0 .183.085.275.085-.101 1.338-.21 3.597-.416 6.608-2.388-.938-4.872-1.458-7.544-1.477-2.671-.019-5.163.548-7.473 1.452z" fill="#ED26B7"/><path d="M35.551 161.966c.4.216.734.507 1.069.798l22.48 25.675 7.558 5.274s4.434.893 6.683.768c2.248-.124 7.72 2.302 7.62 4.132-.186 3.425-7.047-.21-6.807 1.515.334 2.394 8.068 7.701 7.372 8.698-.566.82-3.435 1.328-4.559 1.39-1.124.062-11.299-3.17-13.25-4.473l-.083-.073-.168-.145-37.177-28.512c-.316-.143-.483-.289-.8-.432-2.136-1.595-4.345-3.138-4.96-5.641-.316-1.486-.329-5.82 0-7.119.242-.954 1.417-4.232 2.034-5.085 1.393-1.939 3.613-.687 6.102-1.017 2.703-.407 4.75 2.652 6.886 4.247z" fill="#FFA8A7"/><path d="M914.136 402.746c0 2.685-1.764 5.287-5.29 7.301l-5.385 3.148c-7.137 4.029-18.726 4.029-25.864 0L399.429 139.077c-3.527-2.015-5.291-4.7-5.291-7.302 0-2.686 1.764-5.287 5.291-7.302l5.384-3.148c7.138-4.028 18.726-4.028 25.864 0l478.169 274.119c3.526 1.93 5.29 4.616 5.29 7.302z" fill="#F2F4F6"/><path d="M909.789 307.265c0 4.007-2.629 7.888-7.887 10.893L512.767 538.322c-10.641 6.01-27.917 6.01-38.558 0L8.165 273.945C2.907 270.94.278 266.933.278 263.052c0-4.007-1.746-20.036 3.512-23.041L397.3 16.923c10.642-6.01 27.917-6.01 38.559 0L906.26 284.211c5.258 2.88 3.53 19.047 3.53 23.054z" fill="#BFC9D1"/><path d="M909.639 291.835c0 4.002-2.629 7.878-7.885 10.879L513.155 522.605c-10.638 6.002-27.908 6.002-38.546 0L8.712 258.572c-5.256-3.001-7.884-7.003-7.884-10.879 0-4.001 2.628-7.878 7.884-10.879l388.599-219.89c10.638-6.003 27.908-6.003 38.546 0l465.897 264.032c5.256 2.876 7.885 6.878 7.885 10.879z" fill="#fff" stroke="#1B127D"/><path fill-rule="evenodd" clip-rule="evenodd" d="M909.167 291.103c0 2.671-1.755 5.258-5.265 7.261l-5.358 3.131c-7.104 4.006-18.637 4.006-25.741 0L396.919 28.899c-3.51-2.003-5.265-4.674-5.265-7.26 0-2.672 1.755-5.259 5.265-7.262l5.358-3.13c7.104-4.007 18.637-4.007 25.741 0l475.884 272.595c3.51 1.92 5.265 4.591 5.265 7.261z" fill="#fff" stroke="#1B127D"/><path fill-rule="evenodd" clip-rule="evenodd" d="M909.167 283.656c0 2.67-1.755 5.258-5.265 7.261l-5.358 3.13c-7.104 4.006-18.637 4.006-25.741 0L396.919 21.451c-3.51-2.003-5.265-4.673-5.265-7.26 0-2.671 1.755-5.259 5.265-7.262l5.358-3.13c7.104-4.006 18.637-4.006 25.741 0l475.884 272.595c3.51 1.92 5.265 4.591 5.265 7.262z" fill="#fff" stroke="#1B127D"/><path d="M191.896 362.765l397.313-225.746c11.714-6.608-403.101 229.05-397.313 225.746zm-100.273-55.61L488.936 81.409C500.65 74.8 85.835 310.459 91.623 307.154zm199.388 111.8l397.312-225.746c11.714-6.609-403.1 229.05-397.312 225.746zm99.114 56.189l397.313-225.746c11.714-6.608-403.101 229.051-397.313 225.746z" stroke="#BFC9D1" stroke-dasharray="2.5 5"/><path d="M592.275 479.769L87.815 193.245c-14.873-8.387 511.809 290.718 504.46 286.524zm100.853-57.927l-504.46-286.524c-14.873-8.388 511.809 290.718 504.46 286.524zm97.375-56.19L286.044 79.128c-14.873-8.387 511.808 290.718 504.459 286.524z" stroke="#BFC9D1" stroke-dasharray="2.5 5.63"/><path fill-rule="evenodd" clip-rule="evenodd" d="M397.994 130.634l3.978 2.293-8.088 4.73 8.088 4.572-3.431 2.249-8.81-4.498-8.096 4.484-3.887-2.235 7.83-4.572-6.955-3.891 3.66-2.021 7.448 3.589 8.263-4.7zm-94.557 58.483l-3.977-2.293-8.264 4.699-7.448-3.588-3.66 2.021 6.955 3.891-7.829 4.572 3.887 2.234 8.095-4.483 8.811 4.497 3.43-2.248-8.087-4.573 8.087-4.729zm-100.774 57.325l-3.978-2.292-8.263 4.699-7.448-3.589-3.661 2.022 6.956 3.891-7.83 4.571 3.887 2.235 8.096-4.484 8.81 4.498 3.431-2.249-8.088-4.572 8.088-4.73zm299.003-57.325l-3.978-2.293-8.263 4.699-7.448-3.588-3.66 2.021 6.955 3.891-7.83 4.572 3.887 2.234 8.096-4.483 8.81 4.497 3.431-2.248-8.088-4.573 8.088-4.729zm-102.512 53.897l3.977 2.292-8.087 4.73 8.087 4.572-3.43 2.249-8.811-4.498-8.095 4.484-3.887-2.235 7.829-4.572-6.955-3.89 3.66-2.022 7.448 3.589 8.264-4.699zm-100.775 57.325l3.978 2.293-8.088 4.73 8.088 4.572-3.431 2.249-8.81-4.498-8.096 4.484-3.887-2.235 7.83-4.572-6.956-3.89 3.661-2.022 7.448 3.589 8.263-4.7zm297.922-57.325l3.978 2.292-8.088 4.73 8.088 4.572-3.431 2.249-8.81-4.498-8.096 4.484-3.887-2.235 7.83-4.572-6.956-3.89 3.661-2.022 7.448 3.589 8.263-4.699zm-94.557 58.482l-3.977-2.293-8.264 4.7-7.448-3.589-3.66 2.021 6.955 3.891-7.829 4.572 3.887 2.234 8.095-4.483 8.811 4.498 3.43-2.249-8.087-4.573 8.087-4.729zM400.97 358.822l-3.978-2.293-8.263 4.699-7.448-3.588-3.661 2.021 6.956 3.891-7.83 4.572 3.887 2.234 8.096-4.483 8.81 4.497 3.431-2.248-8.088-4.573 8.088-4.729zm294.946-59.619l3.978 2.293-8.088 4.729 8.088 4.573-3.431 2.249-8.81-4.498-8.096 4.483-3.887-2.234 7.83-4.572-6.956-3.891 3.66-2.021 7.449 3.589 8.263-4.7zm-94.557 58.483l-3.977-2.293-8.264 4.699-7.448-3.589-3.66 2.022 6.955 3.891-7.83 4.571 3.887 2.235 8.096-4.484 8.811 4.498 3.43-2.249-8.087-4.572 8.087-4.729zm-100.775 57.325l-3.977-2.292-8.264 4.699-7.448-3.589-3.66 2.022 6.955 3.89-7.829 4.572 3.887 2.235 8.095-4.484 8.811 4.498 3.43-2.249-8.087-4.572 8.087-4.73z" fill="#DFE4E8"/><g fill="#DFE4E8"><ellipse cx="164.238" cy="249.965" rx="6.086" ry="4.055"/><ellipse cx="264.512" cy="194.354" rx="6.086" ry="4.055"/><ellipse cx="365.944" cy="137.006" rx="6.086" ry="4.055"/><ellipse cx="465.638" cy="80.817" rx="6.086" ry="4.055"/><ellipse cx="13.538" cy="249.965" rx="6.086" ry="4.055"/><ellipse cx="113.812" cy="194.354" rx="6.086" ry="4.055"/><ellipse cx="215.244" cy="137.006" rx="6.086" ry="4.055"/><ellipse cx="314.939" cy="80.817" rx="6.086" ry="4.055"/><ellipse cx="87.728" cy="207.098" rx="6.086" ry="4.055"/><ellipse cx="188.003" cy="151.488" rx="6.086" ry="4.055"/><ellipse cx="289.435" cy="94.14" rx="6.086" ry="4.055"/><ellipse cx="389.129" cy="37.95" rx="6.086" ry="4.055"/><ellipse cx="87.728" cy="291.093" rx="6.086" ry="4.055"/><ellipse cx="188.003" cy="235.483" rx="6.086" ry="4.055"/><ellipse cx="289.435" cy="178.135" rx="6.086" ry="4.055"/><ellipse cx="389.129" cy="121.945" rx="6.086" ry="4.055"/><ellipse cx="263.352" cy="306.154" rx="6.086" ry="4.055"/><ellipse cx="363.626" cy="250.544" rx="6.086" ry="4.055"/><ellipse cx="465.058" cy="193.196" rx="6.086" ry="4.055"/><ellipse cx="564.752" cy="137.006" rx="6.086" ry="4.055"/><ellipse cx="112.652" cy="306.154" rx="6.086" ry="4.055"/><ellipse cx="212.925" cy="250.544" rx="6.086" ry="4.055"/><ellipse cx="314.358" cy="193.196" rx="6.086" ry="4.055"/><ellipse cx="414.053" cy="137.006" rx="6.086" ry="4.055"/><ellipse cx="186.843" cy="263.288" rx="6.086" ry="4.055"/><ellipse cx="287.117" cy="207.678" rx="6.086" ry="4.055"/><ellipse cx="388.549" cy="150.33" rx="6.086" ry="4.055"/><ellipse cx="488.243" cy="94.14" rx="6.086" ry="4.055"/><ellipse cx="186.843" cy="347.283" rx="6.086" ry="4.055"/><ellipse cx="287.117" cy="291.673" rx="6.086" ry="4.055"/><ellipse cx="388.549" cy="234.324" rx="6.086" ry="4.055"/><ellipse cx="488.243" cy="178.135" rx="6.086" ry="4.055"/><ellipse cx="365.364" cy="361.765" rx="6.086" ry="4.055"/><ellipse cx="465.638" cy="306.154" rx="6.086" ry="4.055"/><ellipse cx="567.07" cy="248.806" rx="6.086" ry="4.055"/><ellipse cx="666.764" cy="192.617" rx="6.086" ry="4.055"/><ellipse cx="214.664" cy="361.765" rx="6.086" ry="4.055"/><ellipse cx="314.937" cy="306.154" rx="6.086" ry="4.055"/><ellipse cx="416.37" cy="248.806" rx="6.086" ry="4.055"/><ellipse cx="516.064" cy="192.617" rx="6.086" ry="4.055"/><ellipse cx="288.855" cy="318.899" rx="6.086" ry="4.055"/><ellipse cx="389.129" cy="263.288" rx="6.086" ry="4.055"/><ellipse cx="490.561" cy="205.94" rx="6.086" ry="4.055"/><ellipse cx="590.255" cy="149.75" rx="6.086" ry="4.055"/><ellipse cx="288.855" cy="402.893" rx="6.086" ry="4.055"/><ellipse cx="389.129" cy="347.283" rx="6.086" ry="4.055"/><ellipse cx="490.561" cy="289.935" rx="6.086" ry="4.055"/><ellipse cx="590.255" cy="233.745" rx="6.086" ry="4.055"/><ellipse cx="465.638" cy="418.534" rx="6.086" ry="4.055"/><ellipse cx="565.912" cy="362.923" rx="6.086" ry="4.055"/><ellipse cx="667.344" cy="305.575" rx="6.086" ry="4.055"/><ellipse cx="767.038" cy="249.386" rx="6.086" ry="4.055"/><ellipse cx="314.938" cy="418.534" rx="6.086" ry="4.055"/><ellipse cx="415.211" cy="362.923" rx="6.086" ry="4.055"/><ellipse cx="516.644" cy="305.575" rx="6.086" ry="4.055"/><ellipse cx="616.338" cy="249.386" rx="6.086" ry="4.055"/><ellipse cx="389.128" cy="375.667" rx="6.086" ry="4.055"/><ellipse cx="489.403" cy="320.057" rx="6.086" ry="4.055"/><ellipse cx="590.834" cy="262.709" rx="6.086" ry="4.055"/><ellipse cx="690.529" cy="206.519" rx="6.086" ry="4.055"/><ellipse cx="389.128" cy="459.662" rx="6.086" ry="4.055"/><ellipse cx="489.403" cy="404.052" rx="6.086" ry="4.055"/><ellipse cx="590.834" cy="346.704" rx="6.086" ry="4.055"/><ellipse cx="690.529" cy="290.514" rx="6.086" ry="4.055"/><ellipse cx="565.911" cy="474.723" rx="6.086" ry="4.055"/><ellipse cx="666.185" cy="419.113" rx="6.086" ry="4.055"/><ellipse cx="767.617" cy="361.765" rx="6.086" ry="4.055"/><ellipse cx="867.312" cy="305.575" rx="6.086" ry="4.055"/><ellipse cx="415.211" cy="474.723" rx="6.086" ry="4.055"/><ellipse cx="515.485" cy="419.113" rx="6.086" ry="4.055"/><ellipse cx="616.917" cy="361.765" rx="6.086" ry="4.055"/><ellipse cx="716.612" cy="305.575" rx="6.086" ry="4.055"/><ellipse cx="489.402" cy="431.857" rx="6.086" ry="4.055"/><ellipse cx="589.676" cy="376.247" rx="6.086" ry="4.055"/><ellipse cx="691.108" cy="318.899" rx="6.086" ry="4.055"/><ellipse cx="790.802" cy="262.709" rx="6.086" ry="4.055"/><ellipse cx="489.402" cy="515.852" rx="6.086" ry="4.055"/><ellipse cx="589.676" cy="460.242" rx="6.086" ry="4.055"/><ellipse cx="691.108" cy="402.893" rx="6.086" ry="4.055"/><ellipse cx="790.802" cy="346.704" rx="6.086" ry="4.055"/></g><g fill="#fff" stroke="#1B127D"><path d="M575.427 135.492c0 4.026-2.622 7.925-7.867 10.944l-58.026 34.656c-10.615 6.037-27.849 6.037-38.463 0l-61.849-36.027c-5.245-3.019-7.868-7.044-7.868-10.943 0-4.026 2.623-7.925 7.868-10.944l58.026-34.656c10.615-6.037 27.848-6.037 38.463 0l61.849 36.027c5.245 2.893 7.867 6.918 7.867 10.943z"/><path d="M575.427 130.494c0 4.026-2.622 7.925-7.867 10.944l-58.026 34.656c-10.615 6.037-27.849 6.037-38.463 0l-61.849-36.027c-5.245-3.019-7.868-7.044-7.868-10.943 0-4.025 2.623-7.925 7.868-10.944l58.026-34.656c10.615-6.037 27.848-6.037 38.463 0l61.849 36.027c5.245 2.893 7.867 6.918 7.867 10.943z"/></g><path fill-rule="evenodd" clip-rule="evenodd" d="M452.109 132.308l39.994-20.401-3.627-2.09-17 2.171-3.334 4.093 10.74-1.483-30.504 15.561 3.731 2.149zm18.25 10.829l7.525-3.863-8.203-4.745 16.164-2.166a63.061 63.061 0 003.076-.524c1.018-.199 2.063-.456 3.136-.769s2.193-.703 3.36-1.169a42.956 42.956 0 003.689-1.694c2.015-1.034 3.629-2.029 4.845-2.986 1.215-.957 2.057-1.85 2.524-2.68.467-.829.592-1.587.374-2.273-.219-.687-.746-1.272-1.582-1.756-.906-.523-2.002-.878-3.29-1.063-1.289-.185-2.733-.18-4.334.015-1.601.194-3.345.586-5.233 1.174-1.887.589-3.902 1.405-6.045 2.448l3.291 2.589c1.497-.712 2.944-1.203 4.341-1.473 1.398-.271 2.462-.194 3.194.229.609.352.751.859.424 1.521-.326.662-1.173 1.345-2.541 2.047a14.397 14.397 0 01-3.742 1.322c-1.277.256-2.46.464-3.548.624l-21.266 3.073-9.064 4.654 12.905 7.465zm11.365 6.491c-1.319-.208-2.435-.566-3.351-1.075-1.672-.93-2.266-2.149-1.782-3.657.485-1.508 2.359-3.273 5.622-5.297l6.305 1.264c-1.319.802-2.186 1.532-2.6 2.19-.414.659-.198 1.223.647 1.693.863.479 1.991.592 3.384.336 1.394-.255 2.859-.763 4.396-1.524 1.153-.571 1.936-1.075 2.35-1.511.414-.436.599-.829.554-1.177-.044-.348-.258-.658-.641-.932a12.863 12.863 0 00-1.234-.777l-.924-.514 7.493-3.71 1.294.719c.37.206.789.378 1.256.517.467.138 1.01.207 1.627.207s1.311-.099 2.083-.296c.771-.197 1.638-.533 2.598-1.009 1.23-.609 2.024-1.238 2.382-1.887.358-.65.211-1.155-.44-1.517-.617-.343-1.492-.446-2.627-.31-1.135.137-2.302.437-3.501.901l-2.398-3.393c1.979-.758 3.804-1.329 5.475-1.712 1.672-.384 3.182-.604 4.532-.662 1.349-.057 2.563.022 3.641.237 1.078.216 2.013.544 2.805.985.828.46 1.404 1.012 1.727 1.657.324.645.306 1.361-.054 2.151-.361.789-1.08 1.631-2.159 2.526-1.078.895-2.597 1.828-4.557 2.798-2.267 1.123-4.48 1.932-6.64 2.428-2.16.496-3.99.569-5.489.22l-.173.086c.409.389.542.846.397 1.372-.145.525-.491 1.08-1.037 1.665-.546.585-1.278 1.188-2.195 1.809a27.207 27.207 0 01-3.163 1.817c-2.037 1.008-4.004 1.793-5.902 2.353-1.898.561-3.66.924-5.286 1.091-1.625.166-3.097.146-4.415-.062z" fill="#1B127D"/><path fill-rule="evenodd" clip-rule="evenodd" d="M504.688 96.38l35.458 20.75c3.377 1.961 3.963 5.014 1.308 6.82-2.654 1.805-7.544 1.679-10.921-.282l-35.458-20.75c-3.377-1.961-3.963-5.014-1.309-6.82 2.655-1.805 7.545-1.679 10.922.282z" fill="#fff" style="mix-blend-mode:overlay" opacity=".591"/><path opacity=".493" fill-rule="evenodd" clip-rule="evenodd" d="M459.869 145.255l-1.59 1.524 1.948 1.497-20.696-2.64-.227 1.87 21.682 2.766-2.707 2.161 1.058 1.533 4.225-3.366.265.034.033-.271 1.019-.811-.834-.715.009-.073-.111-.014-4.074-3.495z" fill="#fff"/><path d="M179.948 246.232c0 3.998-2.623 7.871-7.868 10.869l-58.026 34.419c-10.615 5.997-27.848 5.997-38.463 0l-61.848-35.781c-5.245-2.998-7.868-6.996-7.868-10.868 0-3.998 2.623-7.871 7.868-10.869l58.025-34.419c10.615-5.997 27.849-5.997 38.464 0l61.848 35.781c5.245 2.873 7.868 6.871 7.868 10.868z" fill="#fff" stroke="#1B127D"/><path d="M179.948 241.268c0 3.998-2.623 7.871-7.868 10.869l-58.026 34.419c-10.615 5.997-27.848 5.997-38.463 0l-61.848-35.78c-5.245-2.999-7.868-6.996-7.868-10.869 0-3.998 2.623-7.87 7.868-10.869l58.025-34.419c10.615-5.996 27.849-5.996 38.464 0L172.08 230.4c5.245 2.873 7.868 6.871 7.868 10.868z" fill="#fff" stroke="#1B127D"/><path fill-rule="evenodd" clip-rule="evenodd" d="M122.213 227.127c5.655 3.681 8.719 8.163 9.274 12.752l-.032 2.853c.004.067.004.134 0 .201-.458 3.808-2.622 7.552-6.435 10.841a33.351 33.351 0 01-6.708 4.416c-16.015 8.143-40.243 7.481-54.11-1.561a28.496 28.496 0 01-2.799-2.092c-4.175-3.488-6.33-7.519-6.531-11.566v-1.259c.313-5.938 4.785-11.835 13.231-16.138 16.015-8.15 40.243-7.488 54.11 1.553zm-18.074 21.92a12.84 12.84 0 004.022-3.032l-.033-.003c2.856-3.364 2.156-7.479-2.356-10.393-6-3.899-16.474-4.223-23.4-.677-5.807 2.963-7.238 7.686-4.021 11.421.69.779 1.484 1.457 2.357 2.013 6.016 3.892 16.473 4.191 23.431.671z" fill="#BFC9D1"/><path d="M82.39 193.702c6.925-3.546 17.398-3.221 23.398.669.631.409 1.224.878 1.77 1.399.201-.204.394-16.532.571-16.738 2.855-3.364 2.156-7.479-2.341-10.392-6-3.899-16.473-4.199-23.399-.677-5.823 2.962-7.239 7.686-4.022 11.421.183.214.377 16.551.58 16.746a13.49 13.49 0 013.442-2.428z" fill="#1B127D"/><path fill-rule="evenodd" clip-rule="evenodd" d="M122.213 160.147c5.655 3.68 8.719 8.163 9.274 12.751l-.032 2.853c.004.068.004.135 0 .202-.458 3.807-2.622 7.551-6.435 10.841a33.394 33.394 0 01-6.708 4.416c-16.015 8.143-40.243 7.48-54.11-1.561a28.496 28.496 0 01-2.799-2.092c-4.175-3.488-6.33-7.519-6.531-11.566v-1.259c.313-5.939 4.785-11.835 13.231-16.138 16.015-8.151 40.243-7.488 54.11 1.553zm-18.074 21.92a12.84 12.84 0 004.022-3.032l-.033-.003c2.856-3.364 2.156-7.479-2.356-10.393-6-3.899-16.474-4.224-23.4-.677-5.807 2.963-7.238 7.686-4.021 11.421.69.779 1.484 1.457 2.357 2.013 6.016 3.892 16.473 4.191 23.431.671z" fill="#fff"/><path d="M131.487 172.898l.5.006.001-.033-.004-.033-.497.06zm-9.274-12.751l-.273.419.273-.419zm9.242 15.604l-.5-.005v.017l.001.017.499-.029zm0 .202l.497.06.001-.016.001-.015-.499-.029zm-6.435 10.841l.323.381.004-.003-.327-.378zm-6.708 4.416l-.223-.447-.004.002.227.445zm-54.11-1.561l-.274.418.001.001.273-.419zm-2.799-2.092l.323-.382-.002-.002-.321.384zm-6.531-11.566h-.5v.024l.5-.024zm0-1.259l-.5-.026v.026h.5zm13.231-16.138l-.226-.446.226.446zm40.058 20.441l.373.332.676-.76-1.014-.071-.035.499zm-4.022 3.032l-.217-.45-.009.004.226.446zm3.989-3.035l-.381-.323-.639.753.985.069.035-.499zm-2.356-10.393l-.273.419.001.001.272-.42zm-23.4-.677l.228.445-.227-.445zm-4.021 11.421l-.379.327.005.005.374-.332zm2.357 2.013l.271-.42-.003-.002-.268.422zm51.276-8.558c-.578-4.779-3.762-9.377-9.498-13.11l-.546.838c5.573 3.627 8.519 7.994 9.051 12.392l.993-.12zm-.029 2.919l.032-2.853-1-.011-.032 2.853 1 .011zm-.001.225a2.238 2.238 0 000-.259l-.998.057c.003.048.003.097 0 .144l.998.058zm-6.607 11.19c3.882-3.349 6.128-7.199 6.605-11.159l-.993-.12c-.44 3.655-2.522 7.293-6.265 10.522l.653.757zm-6.812 4.486a33.865 33.865 0 006.808-4.483l-.646-.763a32.89 32.89 0 01-6.608 4.351l.446.895zm-54.606-1.59c7.032 4.585 16.653 7.026 26.508 7.305 9.858.28 20.005-1.601 28.101-5.717l-.453-.891c-7.918 4.026-17.893 5.885-27.62 5.609-9.729-.276-19.155-2.687-25.99-7.144l-.546.838zm-2.85-2.13c.907.768 1.859 1.48 2.849 2.129l.548-.836a28.027 28.027 0 01-2.75-2.056l-.646.763zm-6.707-11.923c.21 4.219 2.456 8.371 6.71 11.926l.642-.768c-4.095-3.421-6.16-7.331-6.353-11.207l-.999.049zm0-1.283v1.259h1v-1.259h-1zm13.504-16.584c-8.53 4.346-13.177 10.37-13.504 16.558l.999.053c.3-5.691 4.598-11.46 12.96-15.719l-.455-.892zm54.61 1.58c-7.032-4.585-16.653-7.025-26.508-7.304-9.858-.279-20.005 1.604-28.101 5.724l.453.892c7.919-4.03 17.893-5.892 27.62-5.617 9.729.276 19.155 2.686 25.99 7.143l.546-.838zm-14.699 18.974a12.34 12.34 0 01-3.865 2.915l.434.9a13.344 13.344 0 004.178-3.15l-.747-.665zm.306.829l.033.002.07-.997-.032-.003-.071.998zm-2.593-10.472c2.181 1.408 3.377 3.064 3.724 4.711.345 1.636-.13 3.352-1.477 4.939l.763.647c1.509-1.778 2.112-3.802 1.692-5.792-.417-1.981-1.827-3.839-4.159-5.345l-.543.84zm-22.9-.652c3.373-1.727 7.636-2.522 11.804-2.399 4.171.124 8.193 1.164 11.095 3.05l.545-.839c-3.098-2.012-7.313-3.083-11.61-3.21-4.3-.128-8.736.689-12.29 2.508l.457.89zm-3.87 10.65c-1.508-1.75-1.897-3.683-1.279-5.514.627-1.854 2.318-3.691 5.149-5.136l-.455-.891c-2.976 1.519-4.904 3.526-5.641 5.707-.745 2.206-.242 4.502 1.468 6.487l.758-.653zm2.246 1.917a10.688 10.688 0 01-2.25-1.922l-.75.663c.721.813 1.55 1.522 2.463 2.103l.537-.844zm22.937.647c-3.39 1.715-7.658 2.509-11.828 2.39-4.174-.119-8.195-1.152-11.106-3.035l-.543.84c3.106 2.009 7.321 3.072 11.62 3.195 4.302.123 8.741-.693 12.309-2.498l-.452-.892z" fill="#1B127D"/><path d="M118.328 215.773c-16.015 8.151-40.218 7.458-54.11-1.553-6.008-3.907-9.089-8.729-9.346-13.611v-24.618c.2 4.047 2.356 8.078 6.531 11.566.89.755 1.826 1.454 2.8 2.092 13.866 9.041 38.094 9.704 54.109 1.561a33.394 33.394 0 006.708-4.416c3.845-3.312 6.017-7.095 6.435-10.922l.064 22.365c.411 6.401-4.078 12.901-13.191 17.536z" fill="#fff" stroke="#1B127D"/><path d="M107.292 179.893l17.463 7.681v24.198s-10.063 9.707-30.34 9.693c-.323-6.355-.982-24.179-.982-24.179l-4.456-13.034s10.746 1.909 18.315-4.359z" fill="#ED26B7"/><path d="M93.325 196.9s19.916-.457 31.43-9.736v24.657s-12.153 10.471-31.43 9.639V196.9z" fill="#ED26B7"/><path d="M131.487 172.898l.5.006.001-.033-.004-.033-.497.06zm-9.274-12.751l-.273.419.273-.419zm9.242 15.604l-.5-.005v.017l.001.017.499-.029zm0 .202l.497.06.001-.016.001-.015-.499-.029zm-6.435 10.841l.323.381.004-.003-.327-.378zm-6.708 4.416l-.223-.447-.004.002.227.445zm-54.11-1.561l-.274.418.001.001.273-.419zm-2.799-2.092l.323-.382-.002-.002-.321.384zm-6.531-11.566h-.5v.024l.5-.024zm0-1.259l-.5-.026v.026h.5zm13.231-16.138l-.226-.446.226.446zm40.058 20.441l.373.332.676-.76-1.014-.071-.035.499zm-4.022 3.032l-.217-.45-.009.004.226.446zm3.989-3.035l-.381-.323-.639.753.985.069.035-.499zm-2.356-10.393l-.273.419.001.001.272-.42zm-23.4-.677l.228.445-.227-.445zm-4.021 11.421l-.379.327.005.005.374-.332zm2.357 2.013l.271-.42-.003-.002-.268.422zm51.276-8.558c-.578-4.779-3.762-9.377-9.498-13.11l-.546.838c5.573 3.627 8.519 7.994 9.051 12.392l.993-.12zm-.029 2.919l.032-2.853-1-.011-.032 2.853 1 .011zm-.001.225a2.238 2.238 0 000-.259l-.998.057c.003.048.003.097 0 .144l.998.058zm-6.607 11.19c3.882-3.349 6.128-7.199 6.605-11.159l-.993-.12c-.44 3.655-2.522 7.293-6.265 10.522l.653.757zm-6.812 4.486a33.865 33.865 0 006.808-4.483l-.646-.763a32.89 32.89 0 01-6.608 4.351l.446.895zm-54.606-1.59c7.032 4.585 16.653 7.026 26.508 7.305 9.858.28 20.005-1.601 28.101-5.717l-.453-.891c-7.918 4.026-17.893 5.885-27.62 5.609-9.729-.276-19.155-2.687-25.99-7.144l-.546.838zm-2.85-2.13c.907.768 1.859 1.48 2.849 2.129l.548-.836a28.027 28.027 0 01-2.75-2.056l-.646.763zm-6.707-11.923c.21 4.219 2.456 8.371 6.71 11.926l.642-.768c-4.095-3.421-6.16-7.331-6.353-11.207l-.999.049zm0-1.283v1.259h1v-1.259h-1zm13.504-16.584c-8.53 4.346-13.177 10.37-13.504 16.558l.999.053c.3-5.691 4.598-11.46 12.96-15.719l-.455-.892zm54.61 1.58c-7.032-4.585-16.653-7.025-26.508-7.304-9.858-.279-20.005 1.604-28.101 5.724l.453.892c7.919-4.03 17.893-5.892 27.62-5.617 9.729.276 19.155 2.686 25.99 7.143l.546-.838zm-14.699 18.974a12.34 12.34 0 01-3.865 2.915l.434.9a13.344 13.344 0 004.178-3.15l-.747-.665zm.306.829l.033.002.07-.997-.032-.003-.071.998zm-2.593-10.472c2.181 1.408 3.377 3.064 3.724 4.711.345 1.636-.13 3.352-1.477 4.939l.763.647c1.509-1.778 2.112-3.802 1.692-5.792-.417-1.981-1.827-3.839-4.159-5.345l-.543.84zm-22.9-.652c3.373-1.727 7.636-2.522 11.804-2.399 4.171.124 8.193 1.164 11.095 3.05l.545-.839c-3.098-2.012-7.313-3.083-11.61-3.21-4.3-.128-8.736.689-12.29 2.508l.457.89zm-3.87 10.65c-1.508-1.75-1.897-3.683-1.279-5.514.627-1.854 2.318-3.691 5.149-5.136l-.455-.891c-2.976 1.519-4.904 3.526-5.641 5.707-.745 2.206-.242 4.502 1.468 6.487l.758-.653zm2.246 1.917a10.688 10.688 0 01-2.25-1.922l-.75.663c.721.813 1.55 1.522 2.463 2.103l.537-.844zm22.937.647c-3.39 1.715-7.658 2.509-11.828 2.39-4.174-.119-8.195-1.152-11.106-3.035l-.543.84c3.106 2.009 7.321 3.072 11.62 3.195 4.302.123 8.741-.693 12.309-2.498l-.452-.892z" fill="#1B127D"/><path d="M35.676 161.966c.4.216.734.507 1.068.798l22.48 25.675 7.558 5.274s4.435.893 6.683.768c2.249-.124 7.72 2.302 7.621 4.132-.186 3.425-7.048-.21-6.807 1.515.334 2.394 8.068 7.701 7.372 8.698-.566.82-3.435 1.328-4.56 1.39-1.124.062-11.298-3.17-13.25-4.473l-.083-.073-.167-.145-37.178-28.512c-.316-.143-.483-.289-.799-.432-2.137-1.595-4.346-3.138-4.96-5.641-.317-1.486-.33-5.82 0-7.119.242-.954 1.417-4.232 2.034-5.085 1.392-1.94 3.613-.687 6.102-1.017 2.703-.407 4.749 2.652 6.886 4.247z" fill="#DFE4E8"/><g fill-rule="evenodd" clip-rule="evenodd" fill="#fff" stroke="#1B127D"><path d="M879.792 306.903c0 4.005-2.631 7.885-7.894 10.888l-161.83 92.555c-10.65 6.007-27.942 6.007-38.592 0L408.13 259.774c-5.262-3.004-7.894-7.009-7.894-10.888 0-4.005 2.632-7.885 7.894-10.889l161.831-92.554c10.65-6.008 27.941-6.008 38.592 0l263.345 150.571c5.263 2.879 7.894 6.884 7.894 10.889z"/><path d="M879.792 301.938c0 4.005-2.631 7.884-7.894 10.888l-161.83 92.554c-10.65 6.008-27.942 6.008-38.592 0L408.13 254.809c-5.262-3.004-7.894-7.009-7.894-10.889 0-4.005 2.632-7.884 7.894-10.888l161.831-92.554c10.65-6.008 27.941-6.008 38.592 0l263.345 150.571c5.263 2.879 7.894 6.884 7.894 10.889z"/></g><g fill-rule="evenodd" clip-rule="evenodd" fill="#fff" stroke="#1B127D"><path d="M581.715 477.358c0 3.994-2.626 7.863-7.878 10.858l-62.111 33.156c-10.63 5.991-27.887 5.991-38.517 0l-262.833-150.15c-5.252-2.995-7.878-6.989-7.878-10.858 0-3.994 2.626-7.863 7.878-10.858l62.111-33.156c10.629-5.991 27.887-5.991 38.517 0L573.837 466.5c5.252 2.871 7.878 6.864 7.878 10.858z"/><path d="M581.715 472.401c0 3.993-2.626 7.862-7.878 10.858l-62.111 33.155c-10.63 5.991-27.887 5.991-38.517 0l-262.833-150.15c-5.252-2.995-7.878-6.989-7.878-10.858 0-3.994 2.626-7.862 7.878-10.858l62.111-33.156c10.629-5.99 27.887-5.99 38.517 0l262.833 150.151c5.252 2.87 7.878 6.864 7.878 10.858z"/></g><path d="M109.069 100.856v85.36m179.096 14.918v85.36m82.92-127.626v85.36M185.346 49.474v85.36m23.217-101.106v85.36m178.276 32.321v85.36m78.772-133.427v85.36M288.165 6.38v85.36m26.949 165.333l-.415 49.31m72.347-94.269l-.415 49.31m280.682 108.98l-.415 49.309m-75.872-7.044l-.414 49.31" stroke="#ED26B7" stroke-dasharray="4.47"/><ellipse cx="416.061" cy="16.229" rx="9.121" ry="5.381" fill="#ED26B7"/><ellipse cx="435.962" cy="27.818" rx="9.121" ry="5.381" fill="#BFC9D1"/><ellipse cx="457.522" cy="39.407" rx="9.121" ry="5.381" fill="#20CA8B"/><path d="M884.112 279.19c7.282 4.066 8.957 7.606 5.026 10.62l-21.151-12.043c3.468-3.117 8.843-2.643 16.125 1.423zm7.022-6.232c3.326 1.792 4.384 4.675 2.363 6.438-2.021 1.764-6.356 1.742-9.682-.05-3.326-1.792-4.384-4.675-2.363-6.439 2.021-1.764 6.355-1.741 9.682.051zm-44.737-19.053l21.326 12.429c2.031 1.175 2.383 3.004.786 4.085-1.596 1.082-4.537 1.006-6.568-.169l-21.325-12.429c-2.031-1.174-2.384-3.003-.787-4.085 1.596-1.081 4.537-1.006 6.568.169zm-16.049-9.115l6.763 4.211c1.952 1.163 2.291 2.973.757 4.043-1.535 1.07-4.361.995-6.313-.167l-6.764-4.212c-1.952-1.162-2.29-2.972-.756-4.042 1.534-1.07 4.361-.996 6.313.167zM245.565 344.878l86.212 49.934c2.863 1.653 3.36 4.226 1.109 5.747-2.25 1.522-6.396 1.415-9.259-.237l-86.212-49.934c-2.863-1.652-3.36-4.225-1.109-5.747 2.25-1.521 6.396-1.415 9.259.237zm189.007 91.97c2.387-1.366 3.043-3.211 1.465-4.122l-67.588-39.022c-1.577-.911-4.791-.542-7.177.824l-19.687 11.266c-2.386 1.366-3.043 3.211-1.465 4.122l67.588 39.022c1.577.911 4.791.542 7.177-.824l19.687-11.266zm-71.921-41.207c.794-.449 1.865-.565 2.393-.26l67.837 39.165c.527.305.312.915-.482 1.364l-19.635 11.092c-.793.449-1.864.565-2.392.26l-67.837-39.165c-.528-.305-.312-.915.481-1.364l19.635-11.092zm164.695 93.469c2.387-1.366 3.043-3.212 1.466-4.122l-67.589-39.022c-1.577-.911-4.79-.542-7.177.824l-19.686 11.266c-2.387 1.365-3.043 3.211-1.466 4.122l67.589 39.022c1.577.91 4.79.541 7.177-.824l19.686-11.266zm-71.92-41.208c.793-.448 1.864-.565 2.392-.26l67.837 39.166c.528.304.312.915-.481 1.363l-19.635 11.093c-.794.448-1.865.565-2.392.26l-67.837-39.166c-.528-.304-.313-.915.481-1.363l19.635-11.093zM257.995 338.257l48.103 28.274c2.864 1.671 3.361 4.273 1.109 5.812-2.251 1.538-6.398 1.431-9.263-.24l-48.103-28.275c-2.864-1.671-3.361-4.273-1.109-5.811 2.251-1.539 6.398-1.431 9.263.24zm24.091-13.284l56.301 33.319c2.883 1.657 3.383 4.238 1.117 5.764-2.266 1.526-6.44 1.419-9.323-.238l-56.301-33.319c-2.883-1.657-3.383-4.238-1.117-5.764 2.266-1.526 6.44-1.419 9.323.238zM270.34 331.6l25.008 15.128c2.843 1.645 3.336 4.207 1.102 5.722-2.235 1.515-6.351 1.409-9.194-.236l-25.008-15.128c-2.843-1.646-3.336-4.207-1.102-5.722 2.235-1.515 6.351-1.409 9.194.236zm38.103 22.398l25.008 15.128c2.843 1.645 3.336 4.207 1.102 5.722-2.235 1.515-6.351 1.409-9.194-.236l-25.008-15.128c-2.843-1.646-3.336-4.208-1.102-5.723 2.235-1.514 6.351-1.409 9.194.237zM592.06 284.46l110.651 64.045c3.675 2.119 4.313 5.419 1.424 7.371-2.888 1.951-8.209 1.815-11.884-.305L581.6 291.527c-3.675-2.12-4.313-5.42-1.424-7.371 2.889-1.952 8.209-1.816 11.884.304zm15.751-8.274l61.76 35.898c3.678 2.122 4.316 5.426 1.425 7.379-2.891 1.953-8.216 1.817-11.893-.305l-61.761-35.898c-3.678-2.122-4.316-5.425-1.425-7.378 2.891-1.954 8.216-1.817 11.894.304zm30.761-17.382l72.395 42.544c3.707 2.117 4.35 5.412 1.436 7.36-2.913 1.949-8.281 1.813-11.988-.303L628.02 265.86c-3.707-2.116-4.35-5.412-1.436-7.36 2.914-1.949 8.281-1.813 11.988.304zm15.741-9.103l48.806 28.193c3.707 2.117 4.35 5.412 1.436 7.36-2.914 1.949-8.281 1.813-11.988-.304l-48.806-28.193c-3.707-2.116-4.35-5.412-1.436-7.36 2.914-1.948 8.281-1.812 11.988.304zm63.789 37.239l32.983 19.008c3.707 2.116 4.35 5.411 1.436 7.36-2.914 1.948-8.281 1.812-11.988-.304l-32.983-19.008c-3.707-2.116-4.35-5.411-1.436-7.36 2.914-1.948 8.281-1.812 11.988.304zm-93.837-19.038l32.079 19.403c3.647 2.11 4.279 5.396 1.413 7.339-2.867 1.943-8.147 1.808-11.794-.303l-32.079-19.403c-3.647-2.11-4.279-5.396-1.413-7.339 2.867-1.943 8.147-1.807 11.794.303zm48.877 28.136l32.079 19.403c3.647 2.111 4.28 5.396 1.413 7.339-2.866 1.943-8.146 1.808-11.793-.303l-32.079-19.403c-3.647-2.11-4.28-5.396-1.413-7.339 2.866-1.943 8.146-1.807 11.793.303zm16.404-63.877l87.88 50.001c5.381 2.955 6.315 7.557 2.085 10.278-4.23 2.72-12.021 2.53-17.402-.425l-87.88-50.001c-5.381-2.955-6.314-7.556-2.085-10.277 4.23-2.721 12.021-2.531 17.402.424zm-48.297-27.019c4.747-2.698 5.232-6.767 1.082-9.07l-57.206-31.75c-4.15-2.303-11.389-1.983-16.135.715l-65.422 37.181c-4.747 2.698-5.232 6.767-1.081 9.07l57.205 31.75c4.151 2.303 11.389 1.983 16.135-.715l65.422-37.181zm-77.511 5.857l34.796-1.541-2.119 17.782-23.599 13.412c-2.848 1.619-7.19 1.811-9.681.429l-57.205-31.75c-1.779-.987-2.139-2.513-1.163-3.895l55.387-2.453-1.731 14.521 4.563-.202.752-6.303zm75.15-12.97l-57.206-31.75c-2.491-1.382-6.833-1.19-9.681.429l-63.351 36.004 56.374-2.496-.98 8.218 39.361-1.744-2.121 17.783 36.955-21.002c2.848-1.619 3.139-4.06.649-5.442zm-76.808 26.857l.593-4.977-4.563.202-.593 4.977 4.563-.202zm22.71-45.922c4.88 2.709 4.31 7.492-1.271 10.664-5.58 3.171-14.092 3.548-18.971.84-4.88-2.708-4.311-7.492 1.271-10.664 5.58-3.172 14.09-3.549 18.971-.84zm-15.959 2.51c3.681-2.092 9.297-2.34 12.517-.554 3.219 1.787 2.843 4.944-.838 7.036-3.683 2.093-9.298 2.342-12.518.555-3.22-1.787-2.844-4.944.839-7.037z" fill-rule="evenodd" clip-rule="evenodd" fill="#1B127D"/><defs><linearGradient id="a" x1="26.85" y1="452.784" x2="703.158" y2="598.856" gradientUnits="userSpaceOnUse"><stop stop-color="#7FC1D5"/><stop offset="1" stop-color="#B0BECA"/></linearGradient><linearGradient id="b" x1="67.672" y1="143.613" x2="66.202" y2="131.025" gradientUnits="userSpaceOnUse"><stop stop-color="#FA1E58"/><stop offset="1" stop-color="#FECD85"/></linearGradient><linearGradient id="c" x1="54.292" y1="124.417" x2="64.241" y2="139.113" gradientUnits="userSpaceOnUse"><stop stop-color="#6D6AFE"/><stop offset="1" stop-color="#3FB0F7"/></linearGradient><linearGradient id="d" x1="63.761" y1="164.834" x2="63.744" y2="174.328" gradientUnits="userSpaceOnUse"><stop stop-color="#6D6AFE"/><stop offset="1" stop-color="#3FB0F7"/></linearGradient></defs></svg>