<svg width="1440" height="369" viewBox="0 0 1440 369" xmlns="http://www.w3.org/2000/svg"><g fill="none" fill-rule="evenodd"><g fill="#FFF" fill-rule="nonzero"><path d="M1312.994 13.368l5.483 1.367a3.42 3.42 0 012.452 4.136l-.796 3.192a2 2 0 00-.043.794 2 2 0 00.956 1.413 37 37 0 016.945 5.215 2 2 0 002.384.275l2.832-1.685a3.41 3.41 0 014.667 1.164l5.492 9.263c.217.374.362.784.43 1.21a3.43 3.43 0 01-1.62 3.44l-2.82 1.76a2 2 0 00-.954 2.01l.039.215a35.84 35.84 0 01.827 3.958 36.8 36.8 0 01.413 4.669l.022.242a2 2 0 001.478 1.636l3.192.796a3.41 3.41 0 012.52 2.793c.062.45.035.91-.08 1.35l-2.673 10.434a3.39 3.39 0 01-4.127 2.454l-3.202-.798a2 2 0 00-2.211.933 37.38 37.38 0 01-5.215 6.944 2 2 0 00-.53 1.672 2 2 0 00.255.713l1.683 2.841a3.39 3.39 0 01-1.162 4.658l-9.273 5.49a3.4 3.4 0 01-4.648-1.16l-1.685-2.831a2 2 0 00-2.227-.906 37.15 37.15 0 01-8.624 1.23 2 2 0 00-1.878 1.5l-.799 3.202a3.41 3.41 0 01-4.124 2.445l-4.977-1.24-.484 1.94 4.968 1.238a5.4 5.4 0 006.546-3.892l.798-3.202a38.53 38.53 0 009.085-1.3l1.673 2.797a5.41 5.41 0 007.393 1.844l9.264-5.492a5.42 5.42 0 002.58-5.469 5.52 5.52 0 00-.68-1.86l-1.676-2.829a38.86 38.86 0 005.5-7.347l3.203.798a5.39 5.39 0 006.543-3.882l2.63-10.382a5.39 5.39 0 00-3.89-6.556l-3.192-.796a38.88 38.88 0 00-.434-4.911 39.74 39.74 0 00-.847-4.251l2.83-1.675a5.38 5.38 0 001.843-7.394l-5.456-9.245a5.41 5.41 0 00-7.382-1.891l-2.831 1.684a39.07 39.07 0 00-7.348-5.5l.799-3.202a5.39 5.39 0 00-3.89-6.556l-5.492-1.37-.455 1.907z"/><path d="M1296.309 80.29l.484-1.941c11.934 2.975 24.02-4.287 26.996-16.22 2.975-11.935-4.287-24.022-16.22-26.997l.483-1.94a24.27 24.27 0 11-11.743 47.098zm-13.989 19.608c-8.2-2.045-12.965-6.16-15.613-9.51a21.6 21.6 0 01-3.983-7.795c-5.39-2.148-8.95-5.437-10.636-9.794-2.612-6.845.352-14.104 1.19-15.894-7.311-17.51 6.154-25.921 9.051-27.497.482-4.703 2.226-8.35 5.196-10.835a16.83 16.83 0 0110.958-3.524c8.033-11.22 29.848-4.802 30.806-4.511a1 1 0 01.728 1.212l-22.014 88.297a1 1 0 01-1.106.755 42.19 42.19 0 01-4.577-.904zm25.195-87.783c-4.745-1.183-21.683-4.633-27.642 4.507a1 1 0 01-.928.46c-.058-.015-5.86-.514-10.095 3.037-2.62 2.243-4.178 5.596-4.556 10.005a1 1 0 01-.589.833c-.662.298-16.167 7.635-8.433 25.558a1 1 0 01-.029.86c-.02.077-3.944 7.797-1.286 14.705 1.504 3.93 4.867 6.892 9.971 8.824a1 1 0 01.634.766c.105.573 2.677 14.066 21.662 16.954l21.55-86.434-.26-.075z"/><path d="M1279.99 34.841a1.1 1.1 0 01-.472-.261c-7.419-7.446-4.125-15.777-1.406-19.16a1 1 0 011.55 1.263c-.28.342-6.7 8.48 1.24 16.48a1 1 0 01-.952 1.669l.04.01zm-17.38 47.796l-.058-.015a1 1 0 01.484-1.94l.068.017a21.07 21.07 0 007.038.415c4.887-.585 8.26-3.032 10.059-7.273a1.011 1.011 0 011.868.775c-4.8 11.439-18.489 8.263-19.459 8.02zm8.035-24.247a1 1 0 01-.51-1.632c3.918-4.433 9.934-6.2 17.415-5.119a38.6 38.6 0 0110.057 2.94 1.02 1.02 0 11-.872 1.845c-.174-.044-16.718-7.807-25.154 1.684a1 1 0 01-.936.282zm27.513-23.337a12.8 12.8 0 01-5.328-2.689c-2.543-2.2-3.952-5.396-4.217-9.502a1 1 0 111.992-.132c.227 3.55 1.413 6.278 3.526 8.093a12.57 12.57 0 008.292 2.665 1 1 0 01.152 1.996 15.11 15.11 0 01-4.417-.431z"/></g><g fill="#FFF" fill-rule="nonzero"><path d="M1392.092 244.23c.327-1.832-.154-3.796-1.425-5.443 1.757-1.117 2.881-2.798 3.202-4.633.342-1.916-.19-3.979-1.595-5.67l-28.6-34.553c-1.407-1.695-3.417-2.746-5.533-3.12-2.113-.372-4.36-.07-6.257 1.04l-38.694 22.687c-1.9 1.109-3.104 2.864-3.44 4.784-.326 1.832.155 3.797 1.425 5.447-1.757 1.115-2.881 2.794-3.202 4.63-.332 1.87.171 3.88 1.503 5.551-1.821 1.112-2.983 2.826-3.31 4.699-.34 1.91.187 3.967 1.582 5.66l28.59 34.753c1.4 1.698 3.405 2.752 5.519 3.127 2.112.37 4.36.066 6.252-1.052l38.753-22.878c1.89-1.113 3.088-2.864 3.422-4.778.334-1.87-.17-3.879-1.5-5.547 1.82-1.116 2.981-2.832 3.308-4.704zm-77.906-27.997l38.694-22.69c1.434-.842 3.219-1.1 4.92-.8 1.705.3 3.298 1.152 4.36 2.438l28.597 34.551c1.062 1.287 1.406 2.738 1.175 4.08-.24 1.337-1.059 2.581-2.489 3.43l-38.75 22.88c-1.433.846-3.214 1.105-4.91.805-1.699-.298-3.284-1.152-4.339-2.436l-28.59-34.753c-1.053-1.287-1.399-2.736-1.165-4.074.238-1.342 1.06-2.586 2.497-3.43zm71.673 41.335l-38.75 22.88c-1.434.846-3.215 1.106-4.911.805-1.699-.298-3.284-1.151-4.339-2.436l-28.59-34.753c-1.053-1.287-1.399-2.734-1.165-4.074.24-1.341 1.063-2.585 2.499-3.43l.128-.074 27.416 33.326c1.399 1.698 3.404 2.752 5.518 3.126 2.113.371 4.36.067 6.253-1.05l37.164-21.942.092.113c1.062 1.286 1.406 2.737 1.175 4.08-.24 1.337-1.06 2.58-2.49 3.43zm1.807-10.25l-38.75 22.88c-1.434.845-3.215 1.106-4.91.806-1.7-.299-3.284-1.153-4.34-2.437l-28.589-34.753c-1.054-1.287-1.4-2.735-1.165-4.074.24-1.341 1.063-2.585 2.498-3.43l.011-.006 27.502 33.432c1.398 1.697 3.404 2.751 5.518 3.126 2.113.37 4.36.066 6.252-1.051l37.283-22.01.005.008c1.062 1.287 1.406 2.738 1.175 4.08-.24 1.337-1.06 2.58-2.49 3.43z"/><path d="M1338.658 232.827l-1.051 5.965a.983.983 0 001.938.342h-.001l1.06-6.017a6.324 6.324 0 005.741-4.017l5.587.995c-.01.054-.033.1-.043.152a6.319 6.319 0 005.135 7.316c3.44.607 6.719-1.685 7.324-5.119.55-3.12-1.313-6.087-4.236-7.06l.356-4.456c2.656-.358 4.9-2.356 5.389-5.13.605-3.433-1.692-6.708-5.134-7.315-3.44-.607-6.72 1.684-7.326 5.118-.604 3.423 1.679 6.682 5.1 7.306l-.332 4.146a6.302 6.302 0 00-5.52 3.173l-5.91-1.051c.186-3.154-1.993-6.02-5.186-6.583-3.44-.606-6.723 1.684-7.328 5.118-.561 3.188 1.4 6.214 4.437 7.117zm16.679-18.885a4.356 4.356 0 018.58 1.513 4.356 4.356 0 01-5.044 3.526 4.358 4.358 0 01-3.536-5.039zm3.54 13.124a4.358 4.358 0 013.536 5.037 4.36 4.36 0 01-5.046 3.528 4.359 4.359 0 01-3.537-5.041c.415-2.36 2.68-3.942 5.047-3.524zm-17.668-4.54a4.358 4.358 0 013.535 5.038 4.358 4.358 0 01-8.58-1.513 4.359 4.359 0 015.045-3.525z"/></g><path stroke="#FFF" d="M1174.22 268.139l-8.95-8.25 12.1-6.398m-.268-54.812l-11.661-3.492 8.072-11.054"/><path d="M1301 253c-37.066 7.218-82.066 9.552-135 7.001" stroke="#FFF" stroke-dasharray="8,5"/><g fill="#FFF" fill-rule="nonzero"><g transform="rotate(-10 125.79 -467.637)"><path d="M86.9.9H7.1c-3.85 0-7 3.15-7 7v60.2c0 3.852 3.15 7 7 7h79.8c3.85 0 7-3.148 7-7V7.9c0-3.85-3.15-7-7-7zM7.1 2.861h79.8A5.045 5.045 0 0191.939 7.9v8.354H2.061V7.9A5.045 5.045 0 017.1 2.861zm79.8 70.28H7.1A5.046 5.046 0 012.061 68.1V18.214H91.94V68.1a5.047 5.047 0 01-5.04 5.041z"/><circle cx="10.537" cy="10" r="1.4"/><circle cx="17.537" cy="10" r="1.4"/></g><path d="M157.796 30.916a6.3 6.3 0 00-2.51 11.371l-5.888 8.406a6.25 6.25 0 00-3.85-.557 6.273 6.273 0 00-4.095 2.64l-10.529-5.03c.27-.91.366-1.884.19-2.883a6.3 6.3 0 00-7.299-5.11 6.3 6.3 0 00-2.49 11.38l-5.752 9.727a6.24 6.24 0 00-3.764-.51 6.3 6.3 0 107.298 5.111 6.237 6.237 0 00-1.914-3.49l5.916-10.001a6.243 6.243 0 002.893.191 6.268 6.268 0 004.093-2.64l10.53 5.031c-.269.909-.364 1.883-.188 2.882a6.3 6.3 0 1012.409-2.188 6.246 6.246 0 00-1.841-3.428l6.083-8.686c.913.274 1.892.37 2.896.193a6.3 6.3 0 00-2.188-12.409zm-44.14 39.91a4.342 4.342 0 01-5.026-3.518 4.344 4.344 0 013.519-5.028 4.345 4.345 0 015.028 3.52 4.344 4.344 0 01-3.521 5.027zm12.006-20.596a4.345 4.345 0 01-5.028-3.52 4.345 4.345 0 013.52-5.027 4.344 4.344 0 015.027 3.52 4.344 4.344 0 01-3.52 5.027zm21.733 10.384a4.344 4.344 0 01-5.027-3.52 4.344 4.344 0 013.52-5.028 4.345 4.345 0 015.027 3.52 4.346 4.346 0 01-3.52 5.028zm12.249-19.22a4.344 4.344 0 01-5.028-3.519 4.346 4.346 0 013.52-5.027 4.344 4.344 0 015.027 3.52 4.342 4.342 0 01-3.52 5.026z"/></g><g fill="#FFF" fill-rule="nonzero"><path d="M94.252 275.022l-11.213 9.749-9.748-11.215a.98.98 0 00-1.48 1.286l10.39 11.954a.988.988 0 00.672.335.986.986 0 00.71-.238L95.537 276.5a.981.981 0 00.097-1.382.978.978 0 00-1.382-.097z"/><path d="M83.08 274.227a.97.97 0 00.302.232.965.965 0 00.748.054.99.99 0 00.332-.19l11.954-10.39a.98.98 0 10-1.286-1.48l-10.168 8.838 1.008-14.415a.98.98 0 10-1.954-.136l-1.008 14.414-8.838-10.168a.98.98 0 00-1.48 1.287l10.39 11.954zm41.758 28.889l-8.362-.585.348-4.981c.121-1.732-.526-3.36-1.639-4.562a6.737 6.737 0 00-4.489-2.134l-55.863-3.907a6.737 6.737 0 00-4.743 1.49c-1.27 1.034-2.136 2.555-2.258 4.288l-.348 4.982-7.838-.548c-3.072-.215-5.762 2.124-5.977 5.198l-.683 9.775c-.215 3.072 2.123 5.762 5.195 5.977l18.156 1.27c3.072.214 5.762-2.124 5.977-5.196l.683-9.775c.215-3.073-2.123-5.765-5.195-5.98l-8.363-.584.349-4.982c.08-1.16.654-2.179 1.542-2.907a4.778 4.778 0 013.366-1.051l26.954 1.885-.648 9.262-7.838-.548c-3.072-.215-5.762 2.124-5.977 5.198l-.683 9.775c-.215 3.072 2.123 5.762 5.195 5.977l18.156 1.27c3.073.214 5.763-2.124 5.978-5.196l.684-9.776c.214-3.072-2.124-5.764-5.197-5.979l-8.362-.584.648-9.263 26.954 1.885a4.778 4.778 0 013.187 1.51c.778.844 1.204 1.934 1.123 3.093l-.349 4.982-7.838-.548c-3.073-.215-5.764 2.124-5.979 5.197l-.683 9.775c-.215 3.073 2.124 5.763 5.197 5.977l18.155 1.27c3.073.215 5.762-2.123 5.977-5.196l.684-9.775c.215-3.072-2.123-5.764-5.196-5.979zm-63.796 1.155l-.683 9.775a3.644 3.644 0 01-3.885 3.378l-18.156-1.27a3.644 3.644 0 01-3.377-3.885l.683-9.776a3.644 3.644 0 013.885-3.378l18.156 1.27a3.644 3.644 0 013.377 3.886zm33.517 2.344l-.683 9.775a3.644 3.644 0 01-3.885 3.378l-18.156-1.27a3.644 3.644 0 01-3.376-3.886l.683-9.775a3.644 3.644 0 013.885-3.378l18.155 1.27a3.644 3.644 0 013.377 3.886zm32.835 12.119a3.644 3.644 0 01-3.884 3.378l-18.156-1.27a3.644 3.644 0 01-3.377-3.886l.684-9.775a3.644 3.644 0 013.885-3.378l18.155 1.27a3.644 3.644 0 013.377 3.885l-.684 9.776z"/><path d="M103.147 231.99a3.644 3.644 0 013.377 3.886l-1.172 16.759a3.645 3.645 0 01-3.885 3.38l-32.122-2.247a3.644 3.644 0 01-3.376-3.887l1.172-16.759a3.643 3.643 0 013.884-3.377l32.122 2.246zm.137-1.954l-32.122-2.247c-3.073-.214-5.762 2.124-5.977 5.196l-1.172 16.76c-.215 3.073 2.123 5.762 5.196 5.977l32.121 2.246c3.073.215 5.763-2.123 5.978-5.196l1.172-16.76c.214-3.072-2.124-5.762-5.196-5.976z"/></g><path d="M149 88c29.733 57.149 70.733 96.482 123 118" stroke="#FFF" stroke-dasharray="8,5"/><path stroke="#FFF" d="M262 210l12-2.045L267.335 196m3.445 81.139l8.95-8.25-12.1-6.398"/><path d="M132 288c85.714-12 134.38-18 146-18m991-165c-9.526 36.786-44.193 66.786-104 90" stroke="#FFF" stroke-dasharray="8,5"/></g></svg>