<svg width="838" height="657" xmlns="http://www.w3.org/2000/svg" xmlns:xlink="http://www.w3.org/1999/xlink"><defs><linearGradient x1="-.086%" y1="50.031%" x2="99.972%" y2="50.031%" id="a"><stop stop-color="#00B0E3" offset="0%"/><stop stop-color="#9AD6ED" offset="100%"/></linearGradient><linearGradient x1="0%" y1="50%" x2="100%" y2="50%" id="c"><stop stop-color="#14B1E2" offset="0%"/><stop stop-color="#1070B1" offset="100%"/></linearGradient><linearGradient x1="0%" y1="49.999%" x2="100.001%" y2="49.999%" id="f"><stop stop-color="#14B1E2" offset="0%"/><stop stop-color="#9CEBFF" offset="100%"/></linearGradient><linearGradient x1="0%" y1="50%" x2="100.002%" y2="50%" id="i"><stop stop-color="#045D7E" offset="0%"/><stop stop-color="#1070B1" offset="100%"/></linearGradient><linearGradient x1=".001%" y1="50%" x2="100%" y2="50%" id="l"><stop stop-color="#14B1E2" offset="0%"/><stop stop-color="#1070B1" offset="100%"/></linearGradient><linearGradient x1="0%" y1="49.999%" x2="99.999%" y2="49.999%" id="o"><stop stop-color="#14B1E2" offset="0%"/><stop stop-color="#9CEBFF" offset="100%"/></linearGradient><linearGradient x1="0%" y1="50%" x2="99.998%" y2="50%" id="r"><stop stop-color="#045D7E" offset="0%"/><stop stop-color="#1070B1" offset="100%"/></linearGradient><linearGradient x1="0%" y1="50%" x2="99.999%" y2="50%" id="u"><stop stop-color="#14B1E2" offset="0%"/><stop stop-color="#1070B1" offset="100%"/></linearGradient><linearGradient x1="0%" y1="50.002%" x2="99.999%" y2="50.002%" id="x"><stop stop-color="#14B1E2" offset="0%"/><stop stop-color="#9CEBFF" offset="100%"/></linearGradient><linearGradient x1="-.001%" y1="50%" x2="99.998%" y2="50%" id="A"><stop stop-color="#045D7E" offset="0%"/><stop stop-color="#1070B1" offset="100%"/></linearGradient><linearGradient x1="0%" y1="50.001%" x2="100.001%" y2="50.001%" id="D"><stop stop-color="#14B1E2" offset="0%"/><stop stop-color="#9CEBFF" offset="100%"/></linearGradient><linearGradient x1="0%" y1="50%" x2="100.002%" y2="50%" id="G"><stop stop-color="#045D7E" offset="0%"/><stop stop-color="#1070B1" offset="100%"/></linearGradient><linearGradient x1="0%" y1="50%" x2="100.003%" y2="50%" id="J"><stop stop-color="#14B1E2" offset="0%"/><stop stop-color="#1070B1" offset="100%"/></linearGradient><path id="b" d="M20.712 105.96L.523 94.296.163.004l20.55 11.893z"/><path id="e" d="M20.71.032L.164 12.286l20.55 11.893L40.54 11.564 20.713.032z"/><path id="h" d="M.496 12.674v94.063l19.828-11.533V.061z"/><path id="k" d="M21.012 89.282L.823 77.618.463.37l20.55 11.894z"/><path id="n" d="M.463 12.806L21.013.553 40.84 12.086 21.012 24.7z"/><path id="q" d="M.019 13.041V90.06l19.829-11.531V.427z"/><path id="t" d="M21.027 71.942L.838 60.278.478.073l20.55 11.893z"/><path id="w" d="M.477 12.51L21.027.255l19.83 11.533-19.83 12.613z"/><path id="z" d="M.033 12.743V72.72l19.83-11.533V.13z"/><path id="C" d="M0 12.443l20.549 11.893 19.829-12.612L20.549.19z"/><path id="F" d="M.334 12.677v34.41l19.828-11.532V.064z"/><path id="I" d="M.36 34.645l20.19 11.666V11.9L0 .007z"/></defs><g fill="none" fill-rule="evenodd"><g fill-rule="nonzero"><path d="M247.334 102.003c0 3.58-2.352 7.046-7.055 9.73l-52.031 30.812c-9.519 5.368-24.972 5.368-34.49 0L7.055 58.74C2.352 56.055 0 52.476 0 49.01c0-3.578 2.352-7.045 7.055-9.73L59.086 8.469c9.519-5.368 24.972-5.368 34.49 0L240.28 92.274c4.703 2.572 7.055 6.15 7.055 9.73z" stroke="#14B2E2" stroke-width=".8" fill="url(#a)" opacity=".6" transform="translate(178 73.286)"/><path d="M426.806 239.255c0 3.579-2.351 7.046-7.055 9.73l-52.031 30.812c-9.518 5.368-24.972 5.368-34.49 0l-146.703-83.806c-4.703-2.684-7.055-6.263-7.055-9.73 0-3.579 2.352-7.045 7.055-9.73l52.032-30.812c9.518-5.368 24.971-5.368 34.49 0l146.702 83.807c4.704 2.572 7.055 6.15 7.055 9.73z" fill="#000" opacity=".04"/><path d="M247.334 97.562c0 3.579-2.352 7.045-7.055 9.73l-52.031 30.812c-9.519 5.368-24.972 5.368-34.49 0L7.055 54.298C2.352 51.614 0 48.035 0 44.568c0-3.579 2.352-7.046 7.055-9.73L59.086 4.026c9.519-5.368 24.972-5.368 34.49 0L240.28 87.832c4.703 2.573 7.055 6.151 7.055 9.73z" stroke="#14B2E2" stroke-width=".8" fill="url(#a)" opacity=".6" transform="translate(178 73.286)"/></g><g opacity=".765"><path fill-opacity=".2" fill="#000" d="M274.697 113.304l-20.55-12.253-19.827 11.532 19.828 12.614zm32.357 18.549l-20.55-12.254-19.828 11.533 19.828 12.614zm31.865 18.771l-20.55-12.254-19.829 11.533 19.83 12.614zm32.357 18.054l-20.55 11.893-19.828-12.614 19.829-11.533z"/><g transform="matrix(-1 0 0 1 274.86 12.404)"><mask id="d" fill="#fff"><use xlink:href="#b"/></mask><path fill="url(#c)" mask="url(#d)" d="M20.712 105.96L.523 94.296.163.004l20.55 11.893z"/></g><g transform="matrix(-1 0 0 1 274.86 .124)"><mask id="g" fill="#fff"><use xlink:href="#e"/></mask><path fill="url(#f)" mask="url(#g)" d="M20.71.032L.164 12.286l20.55 11.893L40.54 11.564 20.713.032z"/></g><g transform="matrix(-1 0 0 1 254.644 11.627)"><mask id="j" fill="#fff"><use xlink:href="#h"/></mask><path fill="url(#i)" mask="url(#j)" d="M.496 12.674v94.063l19.828-11.533V.061z"/></g><g transform="matrix(-1 0 0 1 307.517 47.537)"><mask id="m" fill="#fff"><use xlink:href="#k"/></mask><path fill="url(#l)" mask="url(#m)" d="M21.012 89.282L.823 77.618.463.37l20.55 11.894z"/></g><g transform="matrix(-1 0 0 1 307.517 35.1)"><mask id="p" fill="#fff"><use xlink:href="#n"/></mask><path fill="url(#o)" mask="url(#p)" d="M.463 12.806L21.013.553 40.84 12.086 21.012 24.7z"/></g><g transform="matrix(-1 0 0 1 286.523 46.76)"><mask id="s" fill="#fff"><use xlink:href="#q"/></mask><path fill="url(#r)" mask="url(#s)" d="M.019 13.041V90.06l19.829-11.531V.427z"/></g><g transform="matrix(-1 0 0 1 339.396 83.292)"><mask id="v" fill="#fff"><use xlink:href="#t"/></mask><path fill="url(#u)" mask="url(#v)" d="M21.027 71.942L.838 60.278.478.073l20.55 11.893z"/></g><g transform="matrix(-1 0 0 1 339.396 70.855)"><mask id="y" fill="#fff"><use xlink:href="#w"/></mask><path fill="url(#x)" mask="url(#y)" d="M.477 12.51L21.027.255l19.83 11.533-19.83 12.613z"/></g><g transform="matrix(-1 0 0 1 318.403 82.514)"><mask id="B" fill="#fff"><use xlink:href="#z"/></mask><path fill="url(#A)" mask="url(#B)" d="M.033 12.743V72.72l19.83-11.533V.13z"/></g><g transform="matrix(-1 0 0 1 371.276 115.16)"><mask id="E" fill="#fff"><use xlink:href="#C"/></mask><path fill="url(#D)" mask="url(#E)" d="M0 12.443l20.549 11.893 19.829-12.612L20.549.19z"/></g><g transform="matrix(-1 0 0 1 351.06 126.819)"><mask id="H" fill="#fff"><use xlink:href="#F"/></mask><path fill="url(#G)" mask="url(#H)" d="M.334 12.677v34.41l19.828-11.532V.064z"/></g><g transform="matrix(-1 0 0 1 371.276 127.596)"><mask id="K" fill="#fff"><use xlink:href="#I"/></mask><path fill="url(#J)" mask="url(#K)" d="M.36 34.645l20.19 11.666V11.9L0 .007z"/></g></g></g></svg>