<svg width="60" height="66" viewBox="0 0 60 66" xmlns="http://www.w3.org/2000/svg"><path d="M11.133 14.52c.125 0 .246.04.345.113l.07.061 17.719 17.41.028.034.015.023 13.398-13.42a.603.603 0 01.145-.103l.08-.033.017-.005.004-.022a.614.614 0 01.332-.401l.083-.03.277-.061 1.612-.448 4.446-1.293a.62.62 0 01.438-.159l.065.006.085-.006c.084 0 .16.018.216.051l.049.038.032.046 2.521-.71a.593.593 0 01.75.638l-.017.088-.716 2.459.04.048a.53.53 0 01.093.393.626.626 0 01-.096.445l-.026.027-1.835 6.39a.609.609 0 01-.427.415l-.022.003-.005.019a.583.583 0 01-.035.08l-.046.075-.058.067-13.158 13.178 16.577 16.622a.6.6 0 01.12.672l-.051.091-.069.083-7.58 7.614a.593.593 0 01-.437.176.596.596 0 01-.35-.114l-.072-.061-2-2.067a.641.641 0 01-.71-.388c-.039-.092-.054-.19-.033-.242l.023-.03-8.213-8.299a.642.642 0 01-.58-.177c-.132-.132-.198-.31-.172-.434l.021-.057-4.917-4.933L17.49 59.993l-.007.07-.015.068-.023.067c-.076.188-.24.322-.392.345l-.075.002-2.552 2.554a5.611 5.611 0 01-4 1.655A5.657 5.657 0 015.2 61.258a5.674 5.674 0 011.054-5.998l.169-.177.875-.878-.01-.01a.607.607 0 01-.074-.644l.05-.085.064-.077a.604.604 0 01.728-.101l.087.058.008.008.792-.756a.607.607 0 01.069-.26l.048-.077.06-.07a.501.501 0 01.28-.151l.058.004 11.487-11.508-1.684-1.652-.01-.012L3.245 23.136a.61.61 0 01-.066-.76l.067-.083 7.472-7.597a.583.583 0 01.416-.176zm25.576 26.26l-6.755 6.766.369.37 2.927-2.929a.566.566 0 01.698-.035l.074.063a.566.566 0 01.08.697l-.06.08-2.913 2.932 3.604 3.617 1.361-1.36a.647.647 0 01.799-.044l.085.072c.214.214.25.543.094.797l-.067.092-1.36 1.36 3.614 3.624 2.935-2.938a.566.566 0 01.698-.035l.074.063a.566.566 0 01.08.698l-.06.08-2.931 2.931 3.619 3.63 1.348-1.347a.638.638 0 01.824-.067l.08.067a.64.64 0 01.067.825l-.067.08-1.348 1.35 1.534 1.538 6.742-6.76L36.709 40.78zM8.134 55.042l-.872.875a4.493 4.493 0 00.066 6.277 4.474 4.474 0 006.092.228l.173-.158.877-.878-6.336-6.344zm1.489-1.492l-.637.638 6.337 6.343.628-.63-2.868-2.912-.06-.005a.595.595 0 01-.457-.362c-.02-.048-.033-.098-.027-.12l.012-.013-2.928-2.939zM46.71 23.59l-32.642 32.7 2.745 2.747L49.458 26.34l-2.747-2.752zm-3.587-3.594l-32.648 32.7 2.747 2.75 32.65-32.696-2.75-2.754zM54.58 0c2.318 0 4.253 1.785 4.473 4.07l.016.215.005.215v37.84a4.513 4.513 0 01-4.064 4.48l-.215.015-.215.005-7.357-.031-1.203-1.232.072-.17h8.488a3.07 3.07 0 003.043-2.713l.015-.177.005-.177V11.082H1.429V42.34a3.073 3.073 0 002.536 3.022l.175.025.177.015.177.005h8.056l.071.17-1.277 1.262-6.85.001c-2.32 0-4.254-1.785-4.473-4.07l-.016-.215L0 42.34V4.5A4.512 4.512 0 014.064.02l.215-.015L4.494 0H54.58zM11.132 15.96L4.49 22.713l2.522 2.478 3.415-3.417a.628.628 0 01.524-.212l.099.016a.628.628 0 01.334 1.01L7.908 26.07l3.31 3.252 1.602-1.603a.64.64 0 01.827-.067l.08.067a.643.643 0 01.067.828l-.068.08-1.59 1.595 3.306 3.247 3.335-3.332a.626.626 0 01.522-.215l.098.016a.627.627 0 01.338 1.01l-.067.069-3.325 3.338 3.304 3.245 1.506-1.516a.647.647 0 01.528-.19l.097.019a.648.648 0 01.36 1.008l-.064.075-1.507 1.508 1.215 1.195 6.702-6.71-.022-.016-17.33-17.013zm38.676 1.64l-3.783 1.11-1.581.45-.384.102 3.011 3.016a.592.592 0 01.077.07l.028.034 3.037 3.042 1.68-5.738-.025-.04c-.04-.077-.061-.163-.05-.209l.017-.027-1.701-1.741a.593.593 0 01-.283-.046l-.043-.023zm2.617-.564l-.932.261.674.675.258-.936zM54.58 1.432H4.494A3.07 3.07 0 001.45 4.145l-.015.178-.005.177-.001 5.15h56.214V4.5a3.07 3.07 0 00-2.883-3.063l-.18-.005zM11.043 4.84a.98.98 0 11-.001 1.959.98.98 0 01.001-1.959zm-4.393 0a.98.98 0 11-.002 1.959.98.98 0 01.002-1.959z" fill="#14B2E2"/></svg>