<svg width="1209" height="260" viewBox="0 0 1209 260" fill="none" xmlns="http://www.w3.org/2000/svg"><path d="M233.794 163.133c-.757-32.352-18.597-58.032-45.833-68.07V38.757a111.91 111.91 0 00-21.836-10.836v121.137c0 23.998-11.121 34.713-28.993 34.713-17.398 0-31.952-13.155-31.952-35.154 0-24.555 19.118-39.55 44.151-39.55 2.319-.043 4.679.078 6.998.441V88.07a37.12 37.12 0 00-6.998-.557c-37.153 0-66.266 22.799-66.266 61.15 0 36.874 26.274 56.549 55.55 56.549 13.876 0 25.874-4.721 34.156-12.84 8.276-8.118 15.279-19.838 15.279-40.433v-33.556c15.117 7.56 24.234 25.874 24.276 46.832-.079 39.471-36.674 72.828-79.584 72.828-.999 0-1.761 0-2.76-.042-29.434-.037-55.309-10.679-76.267-31.674-15.08-15.117-25.396-34.355-29.555-55.272-4.159-20.958-2.04-42.631 6.157-62.39a108.037 108.037 0 0139.75-48.473 107.878 107.878 0 0159.988-18.198V0a130.16 130.16 0 00-49.75 9.88 130.49 130.49 0 00-42.19 28.156A129.878 129.878 0 000 129.939a130.153 130.153 0 0038.03 91.946A129.877 129.877 0 00129.935 260h2.761c10.6 0 21.158-1.64 31.316-4.8.042 0 .079-.043.121-.043a103.32 103.32 0 0039.392-22.714c19.476-17.998 30.197-41.79 30.276-67.107.036-.084-.006-2.161-.006-2.203zm34.792-35.491c0-36.275 26.721-65.472 64.237-68.306 1.945-.179 3.891-.179 6.015-.179 1.945 0 4.069 0 5.841.18 26.011 1.944 43.179 16.278 49.725 24.948l-17.341 13.98c-7.787-10.263-19.996-18.05-38.22-18.223-26.894 0-45.655 20.527-45.655 47.421 0 27.073 18.755 47.953 45.655 47.953 14.512-.179 25.838-4.249 33.619-10.085v-23.004h-34.508v-20.174h57.685v53.615c-10.794 10.085-29.728 20.527-56.801 20.527-40.875-.174-70.252-30.607-70.252-68.653zm504.973 65.971V62.139h45.834c16.278 0 30.438 2.124 43.178 10.084 18.581 11.678 30.081 32.205 30.081 55.566 0 23.535-11.505 44.062-30.081 55.74-12.74 7.96-26.894 10.084-43.178 10.084h-45.834zm24.245-20.884h20.705c11.326 0 20.88-.883 30.26-6.904 11.856-7.787 19.112-22.12 19.112-38.22 0-15.747-7.256-30.08-19.112-37.868-9.38-6.015-18.934-7.077-30.438-7.077h-20.527v90.069zm-388.536-27.925c0-28.314 22.472-51.318 53.084-51.318 30.969 0 53.263 23.004 53.263 51.318 0 28.314-22.294 51.491-53.263 51.491-30.79.005-53.084-22.998-53.084-51.491zm494.883.321c0-28.314 19.286-51.318 48.841-51.318 15.926 0 26.894 6.725 32.914 14.155h.179l1.062-11.326h22.123l.18 97.146h-21.772l-1.062-12.209-.352-.179c-5.663 8.139-17.162 15.216-32.915 15.216-30.086.011-49.198-23.171-49.198-51.485zm-412.249.036c0-17.519-11.505-31.5-29.55-31.5-17.693 0-29.549 13.981-29.549 31.5 0 16.989 11.856 30.791 29.549 30.791 18.051 0 29.55-13.802 29.55-30.791zm494.53-.036c0-17.341-11.325-31.143-29.376-31.143-17.341 0-29.376 13.802-29.376 31.143 0 17.34 12.035 31.142 29.376 31.142 18.056.006 29.376-13.802 29.376-31.142zm59.458 36.101c-4.95-6.546-6.37-14.333-6.37-24.597v-40.344h-18.05V96.641h18.05V60.367c.71.178 1.24.352 1.94.71 3.54 1.414 7.26 2.828 10.62 4.6 3.72 1.945 7.25 3.891 10.79 6.015v24.95h29.91v19.643h-29.91v38.93c0 6.372.89 11.325 3.54 14.512 2.48 3.359 6.55 5.31 11.68 5.31 5.84 0 10.44-1.945 13.09-3.891l8.67 16.636c-4.25 3.36-13.62 7.609-24.95 7.609-11.84-.011-22.82-4.254-29.01-14.165zm-518.771-36.422c0-28.314 22.294-51.318 53.085-51.318 30.79 0 53.263 23.004 53.263 51.318 0 28.314-22.473 51.491-53.263 51.491-30.97.005-53.085-22.998-53.085-51.491zm82.634.357c0-17.519-11.678-31.5-29.549-31.5-17.872 0-29.55 13.981-29.55 31.5 0 16.989 11.678 30.791 29.55 30.791 17.871 0 29.549-13.802 29.549-30.791zm493.647-.036c0-28.314 19.29-51.318 48.84-51.318 15.93 0 26.9 6.725 32.92 14.155h.17l1.07-11.326h22.12l.18 97.146h-21.77l-1.06-12.209-.36-.179c-5.66 8.139-17.16 15.216-32.91 15.216-30.09.011-49.2-23.171-49.2-51.485zm82.29 0c0-17.341-11.33-31.143-29.38-31.143-17.34 0-29.37 13.802-29.37 31.143 0 17.34 12.03 31.142 29.37 31.142 18.05.006 29.38-13.802 29.38-31.142zm-508.872 48.341c-19.996-6.904-32.026-26.19-32.026-48.662 0-28.314 19.286-51.318 48.841-51.318 15.927 0 26.895 6.725 32.915 14.155h.179V50.629l3.36 1.24c3.89 1.594 7.608 3.187 11.146 5.133 3.008 1.593 6.015 3.186 8.85 5.131v131.333h-21.768l-1.062-12.209-.353-.179c-3.538 4.953-9.201 9.554-16.636 12.388-4.779 1.772-10.263 2.829-16.278 2.829-6.194.005-12.036-1.057-17.168-2.829zm50.256-48.662c0-17.341-11.326-31.143-29.376-31.143-17.341 0-29.377 13.802-29.377 31.143s12.036 31.143 29.377 31.143c18.05.005 29.376-13.797 29.376-31.143z" fill="#1C0D3F"/></svg>