<svg width="570" height="166" viewBox="0 0 570 166" xmlns="http://www.w3.org/2000/svg"><g fill="none"><g fill="#000"><path d="M295.3 75.65c11.118.138 20.033 9.24 19.94 20.358-.094 11.119-9.16 20.07-20.279 20.02-11.12-.049-20.106-9.079-20.101-20.198a20.2 20.2 0 0120.44-20.18zm0 33.56c7.79 0 12.64-5.58 12.64-13.38 0-7.8-4.85-13.36-12.64-13.36-7.79 0-12.61 5.57-12.61 13.36 0 7.79 4.83 13.38 12.61 13.38zm-26.38-26.26v28.3c-5.59 3.39-14.76 5.27-21.72 5.27-19.46 0-30.73-13.86-30.73-30.17 0-17 12.41-30.16 29.91-30.16 10.54 0 16.95 2.85 21.4 7.47l-5.5 5.91c-4.71-4.54-10.14-6.07-15.9-6.07-13.13 0-21.64 10.29-21.64 22.85 0 13 9.65 22.86 22.29 22.86 5.43 0 10.63-1 14.11-3v-16h-12.73v-7.29l20.51.03z"/><path d="M247.2 117.14c-18.47 0-31.36-12.67-31.36-30.79 0-17.54 13.13-30.79 30.54-30.79 9.89 0 16.83 2.44 21.87 7.66l.4.42-6.35 6.82-.46-.43c-4.12-4-9.18-5.92-15.46-5.92-12.18 0-21 9.36-21 22.24 0 12.67 9.32 22.23 21.67 22.23 5.29 0 10.15-1 13.48-2.73v-15h-12.75v-8.56h21.76v29.29l-.28.18c-6.05 3.68-15.68 5.36-22.06 5.36v.02zm-.82-60.32c-17 0-29.29 12.42-29.29 29.53 0 17.39 12.38 29.53 30.11 29.53 6.1 0 15.24-1.57 21.1-5v-27.3h-19.27v6h12.73v17l-.31.17c-3.51 2-8.76 3.09-14.42 3.09-13.06 0-22.92-10.09-22.92-23.49 0-13.61 9.37-23.48 22.27-23.48 6.39 0 11.59 1.9 15.87 5.82l4.66-5c-4.74-4.67-11.29-6.84-20.53-6.84v-.03zm48.92 59.83c-11.475-.1-20.706-9.464-20.64-20.939.066-11.475 9.404-20.733 20.88-20.7 11.474.033 20.76 9.344 20.76 20.819a20.713 20.713 0 01-21 20.82zm0-40.38c-10.779.127-19.425 8.946-19.34 19.725.087 10.779 8.873 19.459 19.652 19.414 10.78-.046 19.493-8.8 19.488-19.579a19.482 19.482 0 00-19.8-19.56zm0 33.57c-7.93 0-13.28-5.63-13.28-14 0-8.37 5.35-14 13.28-14s13.28 5.64 13.28 14-5.35 14-13.28 14zm0-26.75c-7.18 0-12 5.12-12 12.74s4.84 12.75 12 12.75 12-5.12 12-12.75-4.84-12.74-12-12.74zm45.01-7.44c11.121.127 20.045 9.223 19.96 20.345-.087 11.121-9.15 20.079-20.272 20.034-11.122-.046-20.113-9.077-20.108-20.199a20.19 20.19 0 0120.42-20.18zm0 33.56c7.79 0 12.64-5.58 12.64-13.38 0-7.8-4.85-13.36-12.64-13.36-7.79 0-12.62 5.57-12.62 13.36 0 7.79 4.83 13.38 12.62 13.38z"/><path d="M340.31 116.65c-11.475-.1-20.706-9.464-20.64-20.939.066-11.475 9.404-20.733 20.88-20.7 11.474.033 20.76 9.344 20.76 20.819a20.723 20.723 0 01-21 20.82zm0-40.38c-10.777.132-19.419 8.954-19.33 19.731.09 10.778 8.878 19.455 19.656 19.408 10.778-.048 19.489-8.8 19.484-19.579a19.482 19.482 0 00-19.81-19.56zm0 33.57c-8 0-13.28-5.63-13.28-14 0-8.37 5.33-14 13.28-14 7.95 0 13.27 5.64 13.27 14s-5.33 14-13.27 14zm0-26.75c-7.2 0-12 5.12-12 12.74s4.81 12.75 12 12.75 12-5.12 12-12.75-4.82-12.74-12-12.74zm65.13 31.95h-7.32v-5.5h-.16c-2.82 4.12-8.18 6.47-13.38 6.47-11.9 0-19.51-8.83-19.51-20.19 0-11.51 7.69-20.18 19.51-20.18 5.53 0 10.78 2.51 13.38 6.5h.16V56.71h7.32v58.33zm-7.32-19.22c0-7.77-4.85-13.36-12.64-13.36-7.79 0-12.64 5.59-12.64 13.36s4.86 13.38 12.64 13.38 12.64-5.57 12.64-13.37v-.01z"/><path d="M384.58 116.65c-11.85 0-20.15-8.57-20.15-20.82s8.26-20.79 20.15-20.79a17.34 17.34 0 0112.92 5.46V56.09h8.56v59.59h-8.56v-4.53a17.54 17.54 0 01-12.92 5.5zm0-40.38c-11.12 0-18.91 8-18.91 19.56 0 11.56 7.79 19.57 18.91 19.57 5.23 0 10.28-2.43 12.87-6.21l.2-.27h.95l.15.63v4.88h6.05v-57.1h-6.05v25.44h-1l-.34-.3c-2.46-3.76-7.51-6.2-12.87-6.2h.04zm.9 33.57c-7.93 0-13.26-5.63-13.26-14 0-8.37 5.33-14 13.26-14s13.27 5.64 13.27 14-5.32 14-13.27 14zm0-26.75c-7.19 0-12 5.12-12 12.74s4.83 12.75 12 12.75 12-5.12 12-12.75-4.82-12.74-12-12.74zm29.63-25.85h17.5c24.23 0 30.15 18.49 30.15 29.11 0 14.68-10.94 28.7-31.46 28.7h-16.19V57.24zm7.79 50.52h7.28c13.13 0 24.31-7.22 24.31-21.41 0-7.3-3.8-21.83-22.44-21.83h-9.15v43.24z"/><path d="M431.3 115.68h-16.81V56.62h18.12c24.31 0 30.77 18.69 30.77 29.73 0 14.57-11 29.33-32.08 29.33zm-15.61-1.25h15.57c21.19 0 30.84-14.57 30.84-28.08 0-2.92-.82-28.49-29.53-28.49h-16.88v56.57zm14.45-6.05h-7.91V63.9h9.78c22.43 0 23.06 20.16 23.06 22.45 0 15.22-12.51 22-24.93 22v.03zm-6.66-1.25h6.66c10.92 0 23.69-5.43 23.69-20.78 0-2.17-.61-21.21-21.82-21.21h-8.53v42-.01zm44.99-25.79a22.67 22.67 0 0115.22-5.69c11.34 0 16.05 6.16 16.05 12.8v19.59a62.27 62.27 0 00.32 7h-6.48a70.9 70.9 0 01-.24-5.84h-.17c-3.24 4.94-7.63 6.81-13.45 6.81-7.13 0-13.3-4.05-13.3-11.51 0-9.88 9.48-13.29 21.16-13.29h5.35v-1.63c0-4-2.92-8.11-9.16-8.11-5.59 0-8.28 2.37-10.94 4.39l-4.36-4.52zm20.61 15.22c-6.91 0-15.34 1.22-15.34 7.4 0 4.36 3.25 6.22 8.28 6.22 8.1 0 10.94-6 10.94-11.18v-2.44h-3.88z"/><path d="M479.75 116.65c-8.2 0-13.92-5-13.92-12.14 0-9 7.73-13.92 21.78-13.92h4.73v-1c0-3.6-2.68-7.47-8.54-7.47-5 0-7.56 1.95-10 3.84l-1 .73-5.19-5.38.46-.44a23.2 23.2 0 0115.62-5.83c12.3 0 16.67 6.93 16.67 13.43v19.57a56.12 56.12 0 00.33 7l.08.69H493v-.57c-.12-1.39-.2-2.8-.23-4.21-3.08 3.92-7.28 5.75-13 5.75l-.02-.05zm7.86-24.81c-9.38 0-20.53 2.19-20.53 12.67 0 7.53 6.37 10.89 12.67 10.89 6 0 10-2 12.93-6.53l.19-.29h1l.16.63c0 1.74.06 3.49.2 5.22h5.21a62.14 62.14 0 01-.25-6.35V88.45c0-5.89-4.05-12.18-15.43-12.18a22.15 22.15 0 00-14.34 5.09l3.53 3.67.1-.07c2.5-1.92 5.36-4.1 10.79-4.1 6.73 0 9.79 4.52 9.79 8.73v2.25h-6.02zm-5.59 19c-5.73 0-8.9-2.44-8.9-6.86 0-3.66 2.77-8 16-8h4.51v3.06c0 5.45-3 11.82-11.57 11.82l-.04-.02zm7.06-13.62c-6.72 0-14.72 1.16-14.72 6.76 0 3.7 2.59 5.6 7.66 5.6 7.6 0 10.32-5.44 10.32-10.56v-1.8h-3.26zm40.85-14.27h-10.46v17.43c0 4.29 0 8.83 5.51 8.83a10.43 10.43 0 005.18-1.13v6.65c-1.69 1-5.1 1.29-6.55 1.29-11.27 0-11.42-6.9-11.42-13.05v-20h-8.44v-6.33h8.44V65.83h7.28v10.79h10.46v6.33z"/><path d="M523.61 116.65c-12.06 0-12.06-7.9-12.06-13.68V83.58h-8.43v-7.54h8.43V65.23h8.54v10.81h10.47v7.58h-10.47v16.8c0 5.11.34 8.2 4.89 8.2a9.78 9.78 0 004.87-1l1-.6v8.15l-.31.18c-2 1.13-5.73 1.38-6.88 1.38l-.05-.08zm-19.24-34.34h8.44v20.66c0 5.83 0 12.43 10.8 12.43a16.674 16.674 0 005.93-1.07v-5.24a12.73 12.73 0 01-4.56.75c-6.15 0-6.15-5.25-6.15-9.46V82.31h10.48v-5.06h-10.48V66.47h-6v10.78h-8.44v5.06h-.02zm32.7-.97a22.63 22.63 0 0115.24-5.69c11.34 0 16 6.16 16 12.8v19.59a59.78 59.78 0 00.33 7h-6.49a70.9 70.9 0 01-.24-5.84h-.18c-3.23 4.94-7.61 6.81-13.44 6.81-7.14 0-13.31-4.05-13.31-11.51 0-9.88 9.49-13.29 21.16-13.29h5.35v-1.63c0-4-2.91-8.11-9.15-8.11-5.59 0-8.27 2.37-11 4.39l-4.27-4.52zm20.62 15.22c-6.89 0-15.33 1.22-15.33 7.4 0 4.36 3.25 6.22 8.27 6.22 8.1 0 10.94-6 10.94-11.18v-2.44h-3.88z"/><path d="M548.34 116.65c-8.21 0-13.93-5-13.93-12.14 0-9 7.74-13.92 21.78-13.92h4.73v-1c0-3.6-2.67-7.47-8.53-7.47-5 0-7.57 1.95-10 3.84l-1 .73-5.22-5.38.46-.44a23.27 23.27 0 0115.68-5.83c12.3 0 16.67 6.93 16.67 13.43v19.57a61.11 61.11 0 00.31 6.91l.1.69h-7.77v-.57c-.12-1.39-.2-2.8-.25-4.21-3.07 3.92-7.27 5.75-13 5.75l-.03.04zm7.85-24.81c-9.36 0-20.52 2.19-20.52 12.67 0 7.53 6.35 10.89 12.67 10.89 6 0 10-2 12.92-6.53l.2-.29h1l.16.63c0 1.74.07 3.49.19 5.22h5.21c-.17-1.73-.26-3.74-.26-6.35V88.45c0-5.89-4-12.18-15.41-12.18A22.2 22.2 0 00538 81.36l3.54 3.67.09-.07c2.51-1.92 5.35-4.1 10.8-4.1 6.73 0 9.78 4.52 9.78 8.73v2.25h-6.02zm-5.59 19c-5.74 0-8.89-2.44-8.89-6.86 0-3.66 2.76-8 16-8h4.51v3.06c0 5.45-3 11.82-11.57 11.82l-.05-.02zm7.09-13.64c-6.71 0-14.7 1.16-14.7 6.76 0 3.7 2.56 5.6 7.64 5.6 7.61 0 10.32-5.44 10.32-10.56v-1.8h-3.26z"/></g><path fill="#4E4D4D" d="M101.56 131.5v.34-.34"/><path d="M109.05 82.94h-25.6a82.54 82.54 0 004 25.14c12.342-2.042 21.449-12.631 21.62-25.14m56.62 4.26a82.55 82.55 0 01-41 66.83 82.88 82.88 0 0041 11.11V87.2z" fill="#6A6A6A"/><path d="M57.74 82.94H1a82.4 82.4 0 0024.14 58.16l40.1-40.13a25.88 25.88 0 01-7.5-18" fill="#8B8B8A"/><path d="M83.37 108.42a26 26 0 01-18.13-7.45l-40.1 40.13a82.48 82.48 0 0058.23 24.05v-56.73" fill="#3C3C3B"/><path d="M83.69 56.73V.04a82.72 82.72 0 00-58.77 24.41l40 40.19a26.38 26.38 0 0118.77-7.91" fill="#292627"/><path d="M57.69 82.58a26 26 0 017.28-18l-40-40.19a82.35 82.35 0 00-24 58.17v.36h56.74v-.36" fill="#575756"/><path d="M101.55 64.36l40.14-40.11a82.52 82.52 0 00-58-24.21v56.73a26 26 0 0117.82 7.63" fill="#7C7B7B"/><path d="M87.43 108.04a27.23 27.23 0 01-4.06.34v56.73a82.4 82.4 0 0041.26-11.07 81.75 81.75 0 01-37.2-46" fill="#6F6F6E"/><path d="M165.69 87.2v-4.26h-56.64c-.19 12.493-9.293 23.06-21.62 25.1a81.75 81.75 0 0037.2 46 82.55 82.55 0 0041-66.83" fill="#292627"/></g></svg>