<svg width="143" height="35" xmlns="http://www.w3.org/2000/svg"><g fill="none" fill-rule="evenodd"><path d="M123.224 24.74c0-.384.141-.714.423-.99a1.402 1.402 0 011.017-.414c.384 0 .72.132 1.008.396.288.264.432.588.432.972s-.141.714-.423.99a1.402 1.402 0 01-1.017.414c-.192 0-.375-.036-.549-.108a1.566 1.566 0 01-.459-.288 1.338 1.338 0 01-.315-.432 1.267 1.267 0 01-.117-.54zm14.902-3.42c0 .768-.132 1.461-.396 2.079a4.66 4.66 0 01-1.08 1.575 4.75 4.75 0 01-1.62.999 5.748 5.748 0 01-2.034.351c-.732 0-1.41-.117-2.034-.351-.624-.234-1.167-.567-1.629-.999s-.822-.957-1.08-1.575c-.258-.618-.387-1.311-.387-2.079v-8.064h2.268v7.992c0 .312.048.639.144.981.096.342.255.657.477.945.222.288.516.525.882.711.366.186.819.279 1.359.279s.993-.093 1.359-.279a2.55 2.55 0 00.882-.711c.222-.288.381-.603.477-.945a3.63 3.63 0 00.144-.981v-7.992h2.268v8.064zm1.906-8.064h2.268V26h-2.268V13.256z" fill="#94A1AE"/><g fill-rule="nonzero"><path d="M22.994 17.479h-5.43c0 1.855.297 3.626.848 5.292 2.567-.422 4.54-2.614 4.582-5.292M35 18.386c-.34 6.03-3.755 11.237-8.697 14.084 2.588 1.476 5.6 2.34 8.697 2.34V18.386z" fill="#6A6A6A"/><path d="M12.09 17.479H.065A17.342 17.342 0 005.176 29.75l8.506-8.455a5.536 5.536 0 01-1.591-3.816" fill="#8B8B8A"/><path d="M17.542 22.855a5.546 5.546 0 01-3.839-1.56L5.197 29.75a17.553 17.553 0 0012.345 5.081c.022 0-.02 0 0 0V22.855c-.02 0 .022 0 0 0" fill="#3C3C3B"/><path d="M17.606 11.955c.021 0 0 0 0 0V0c-.021 0 .021 0 0 0-4.858 0-9.29 1.96-12.473 5.145l8.485 8.475c1.018-1.012 2.46-1.665 3.988-1.665" fill="#292627"/><path d="M12.09 17.395c0-1.455.595-2.805 1.55-3.796L5.132 5.123a17.324 17.324 0 00-5.09 12.272v.084H12.09v-.084" fill="#575756"/><path d="M21.403 13.557l8.506-8.455A17.42 17.42 0 0017.627 0v11.955a5.47 5.47 0 013.776 1.602" fill="#7C7B7B"/><path d="M18.39 22.771a5.82 5.82 0 01-.869.063V34.79c3.182 0 6.194-.864 8.76-2.34a17.786 17.786 0 01-3.626-2.741 17.372 17.372 0 01-4.264-6.937" fill="#6F6F6E"/><path d="M35 18.386v-.907H22.994a5.443 5.443 0 01-4.582 5.292 17.281 17.281 0 004.264 6.937 17.786 17.786 0 003.627 2.74c4.942-2.846 8.358-8.053 8.697-14.062" fill="#292627"/><g fill="#000"><path d="M56.275 18.2v6.289c-1.187.755-3.137 1.178-4.599 1.178-4.133 0-6.506-3.09-6.506-6.711 0-3.778 2.628-6.712 6.336-6.712 2.226 0 3.582.623 4.536 1.667l-1.166 1.311c-.996-1-2.14-1.355-3.37-1.355-2.776 0-4.577 2.289-4.577 5.089 0 2.888 2.055 5.088 4.726 5.088 1.144 0 2.246-.222 2.988-.666v-3.556h-2.691V18.2h4.323z"/><path d="M51.676 25.8c-3.92 0-6.655-2.822-6.655-6.844 0-3.89 2.777-6.845 6.464-6.845 2.098 0 3.56.533 4.642 1.711l.084.09-1.335 1.51-.106-.089c-.869-.889-1.95-1.31-3.285-1.31-2.585 0-4.45 2.088-4.45 4.933 0 2.822 1.97 4.933 4.599 4.933 1.123 0 2.14-.222 2.86-.6v-3.333h-2.69v-1.912h4.62v6.512l-.064.044c-1.293.822-3.328 1.2-4.684 1.2zm-.17-13.4c-3.602 0-6.21 2.756-6.21 6.556 0 3.866 2.629 6.555 6.38 6.555 1.293 0 3.221-.355 4.472-1.111v-6.067h-4.09v1.334h2.691v3.777l-.063.045c-.742.444-1.866.689-3.052.689-2.777 0-4.854-2.245-4.854-5.222 0-3.023 1.992-5.223 4.726-5.223 1.357 0 2.459.423 3.37 1.29l.996-1.112c-1.017-1.022-2.416-1.511-4.366-1.511zm10.364 4.178c2.416 0 4.324 2 4.324 4.489s-1.908 4.489-4.324 4.489-4.323-2-4.323-4.49 1.907-4.488 4.323-4.488zm0 7.466c1.653 0 2.67-1.244 2.67-2.977 0-1.734-1.038-2.978-2.67-2.978-1.653 0-2.67 1.244-2.67 2.978 0 1.733 1.017 2.977 2.67 2.977z"/><path d="M61.87 25.689c-2.5 0-4.45-2.022-4.45-4.622s1.95-4.623 4.45-4.623c2.501 0 4.45 2.023 4.45 4.623.022 2.6-1.949 4.622-4.45 4.622zm0-8.978c-2.352 0-4.196 1.911-4.196 4.356 0 2.444 1.844 4.355 4.196 4.355 2.353 0 4.197-1.91 4.197-4.355 0-2.445-1.844-4.356-4.197-4.356zm0 7.467c-1.674 0-2.819-1.245-2.819-3.111 0-1.867 1.124-3.111 2.82-3.111 1.673 0 2.818 1.244 2.818 3.11 0 1.867-1.145 3.112-2.819 3.112zm0-5.956c-1.526 0-2.543 1.134-2.543 2.822s1.017 2.823 2.543 2.823c1.526 0 2.543-1.134 2.543-2.823 0-1.666-1.017-2.822-2.543-2.822zm9.537-1.644c2.416 0 4.324 2 4.324 4.489s-1.908 4.489-4.324 4.489-4.323-2-4.323-4.49 1.907-4.488 4.323-4.488zm0 7.466c1.653 0 2.67-1.244 2.67-2.977 0-1.734-1.038-2.978-2.67-2.978-1.653 0-2.67 1.244-2.67 2.978 0 1.733 1.017 2.977 2.67 2.977z"/><path d="M71.407 25.689c-2.5 0-4.472-2.022-4.472-4.622s1.95-4.623 4.472-4.623c2.501 0 4.472 2.023 4.472 4.623s-1.97 4.622-4.472 4.622zm0-8.978c-2.352 0-4.196 1.911-4.196 4.356 0 2.444 1.844 4.355 4.196 4.355 2.353 0 4.197-1.91 4.197-4.355 0-2.445-1.844-4.356-4.197-4.356zm0 7.467c-1.674 0-2.818-1.245-2.818-3.111 0-1.867 1.123-3.111 2.818-3.111 1.675 0 2.82 1.244 2.82 3.11 0 1.867-1.124 3.112-2.82 3.112zm0-5.956c-1.526 0-2.543 1.134-2.543 2.822s1.017 2.823 2.543 2.823c1.526 0 2.544-1.134 2.544-2.823 0-1.666-1.018-2.822-2.544-2.822zm13.797 7.111h-1.547v-1.222h-.042c-.594.911-1.738 1.445-2.84 1.445-2.522 0-4.133-1.956-4.133-4.49 0-2.555 1.632-4.488 4.133-4.488 1.166 0 2.289.555 2.84 1.444h.042v-5.644h1.547v12.955zm-1.547-4.266c0-1.734-1.038-2.978-2.67-2.978-1.653 0-2.67 1.244-2.67 2.978 0 1.733 1.038 2.977 2.67 2.977 1.653 0 2.67-1.244 2.67-2.977z"/><path d="M80.796 25.689c-2.5 0-4.281-1.911-4.281-4.622 0-2.734 1.76-4.623 4.281-4.623 1.081 0 2.12.467 2.734 1.223v-5.445h1.823v13.245H83.53v-1c-.636.755-1.674 1.222-2.734 1.222zm0-8.978c-2.352 0-4.005 1.778-4.005 4.356 0 2.555 1.653 4.355 4.005 4.355 1.102 0 2.183-.533 2.734-1.378l.043-.066h.19l.021.133V25.2h1.293V12.511h-1.293v5.645h-.211l-.064-.067c-.509-.822-1.59-1.378-2.713-1.378zm.19 7.467c-1.673 0-2.818-1.245-2.818-3.111 0-1.867 1.123-3.111 2.819-3.111 1.674 0 2.819 1.244 2.819 3.11s-1.145 3.112-2.82 3.112zm0-5.956c-1.525 0-2.542 1.134-2.542 2.822 0 1.69 1.017 2.823 2.543 2.823 1.526 0 2.543-1.134 2.543-2.823 0-1.666-1.017-2.822-2.543-2.822zm6.274-5.733h3.71c5.128 0 6.4 4.111 6.4 6.467 0 3.266-2.31 6.377-6.676 6.377H87.26V12.49zm1.653 11.222h1.547c2.777 0 5.15-1.6 5.15-4.755 0-1.623-.805-4.845-4.747-4.845h-1.928v9.6h-.022z"/><path d="M90.694 25.467h-3.561V12.333h3.836c5.15 0 6.528 4.156 6.528 6.6 0 3.267-2.332 6.534-6.803 6.534zm-3.307-.267h3.307c4.493 0 6.527-3.244 6.527-6.244 0-.645-.17-6.334-6.252-6.334h-3.582V25.2zm3.073-1.356h-1.674v-9.888h2.077c4.748 0 4.896 4.488 4.896 5-.021 3.377-2.67 4.888-5.299 4.888zm-1.42-.266h1.42c2.31 0 5.023-1.2 5.023-4.622 0-.49-.127-4.712-4.62-4.712h-1.801v9.334h-.022zm9.538-5.734c.869-.844 2.098-1.266 3.221-1.266 2.395 0 3.412 1.378 3.412 2.844v4.356c0 .6.021 1.089.064 1.555h-1.378c-.042-.422-.042-.866-.042-1.289h-.043c-.678 1.09-1.61 1.512-2.86 1.512-1.505 0-2.82-.89-2.82-2.556 0-2.2 2.014-2.956 4.494-2.956h1.123v-.355c0-.889-.615-1.8-1.95-1.8-1.187 0-1.759.533-2.31.978l-.911-1.023zm4.366 3.378c-1.463 0-3.243.267-3.243 1.645 0 .977.678 1.377 1.759 1.377 1.717 0 2.31-1.333 2.31-2.488v-.534h-.826z"/><path d="M100.973 25.689c-1.738 0-2.946-1.111-2.946-2.689 0-2 1.632-3.089 4.62-3.089h.996v-.222c0-.8-.572-1.667-1.802-1.667-1.06 0-1.61.422-2.119.845l-.212.155-1.102-1.2.106-.089c.827-.822 2.056-1.31 3.327-1.31 2.607 0 3.54 1.533 3.54 2.977v4.378c0 .644.021 1.11.063 1.533l.022.156h-1.654v-.134a13.747 13.747 0 01-.042-.933c-.7.889-1.59 1.289-2.797 1.289zm1.653-5.511c-1.993 0-4.345.489-4.345 2.822 0 1.667 1.356 2.422 2.692 2.422 1.271 0 2.119-.444 2.734-1.444l.042-.067h.212l.042.133c0 .378.021.778.043 1.156h1.102c-.043-.378-.043-.822-.043-1.4v-4.356c0-1.31-.847-2.71-3.264-2.71-1.144 0-2.267.422-3.03 1.133l.742.822.02-.022c.53-.423 1.145-.911 2.29-.911 1.42 0 2.077 1 2.077 1.933v.489h-1.314zm-1.187 4.222c-1.208 0-1.886-.533-1.886-1.533 0-.823.593-1.778 3.39-1.778h.954v.689c0 1.2-.636 2.622-2.458 2.622zm1.505-3.022c-1.42 0-3.116.266-3.116 1.51 0 .823.551 1.245 1.632 1.245 1.61 0 2.183-1.2 2.183-2.355v-.4h-.7zm8.647-3.178h-2.226v3.867c0 .955 0 1.955 1.166 1.955.36 0 .784-.044 1.102-.244v1.466c-.36.223-1.08.29-1.399.29-2.395 0-2.416-1.534-2.416-2.89V18.2h-1.78v-1.4h1.78v-2.4h1.547v2.4h2.226v1.4z"/><path d="M110.255 25.689c-2.564 0-2.564-1.756-2.564-3.045v-4.31h-1.78v-1.667h1.78v-2.4h1.801v2.4h2.226v1.689h-2.226v3.733c0 1.133.064 1.822 1.039 1.822.318 0 .742-.044 1.038-.222l.212-.133v1.822l-.063.044c-.424.222-1.208.267-1.463.267zm-4.069-7.622h1.78v4.6c0 1.289 0 2.755 2.29 2.755.338 0 .932-.066 1.25-.244v-1.156c-.318.134-.7.178-.975.178-1.293 0-1.293-1.178-1.293-2.111v-4.022h2.225v-1.134h-2.225v-2.4h-1.272v2.4h-1.78v1.134zm6.93-.223c.848-.844 2.099-1.266 3.222-1.266 2.395 0 3.39 1.378 3.39 2.844v4.356c0 .6.022 1.089.065 1.555h-1.378c-.042-.422-.042-.866-.042-1.289h-.043c-.678 1.09-1.61 1.512-2.84 1.512-1.505 0-2.819-.89-2.819-2.556 0-2.2 2.014-2.956 4.493-2.956h1.124v-.355c0-.889-.615-1.8-1.929-1.8-1.187 0-1.759.533-2.331.978l-.911-1.023zm4.366 3.378c-1.462 0-3.242.267-3.242 1.645 0 .977.678 1.377 1.759 1.377 1.717 0 2.31-1.333 2.31-2.488v-.534h-.827z"/><path d="M115.49 25.689c-1.738 0-2.946-1.111-2.946-2.689 0-2 1.632-3.089 4.62-3.089h.997v-.222c0-.8-.573-1.667-1.802-1.667-1.06 0-1.61.422-2.12.845l-.211.155-1.102-1.2.106-.089c.826-.822 2.056-1.31 3.327-1.31 2.607 0 3.54 1.533 3.54 2.977v4.378c0 .644.02 1.11.063 1.533l.021.156h-1.653v-.134a13.747 13.747 0 01-.042-.933c-.678.889-1.569 1.289-2.798 1.289zm1.674-5.511c-1.992 0-4.344.489-4.344 2.822 0 1.667 1.356 2.422 2.691 2.422 1.272 0 2.12-.444 2.734-1.444l.043-.067h.212l.042.133c0 .378.021.778.042 1.156h1.103a12.6 12.6 0 01-.064-1.4v-4.356c0-1.31-.848-2.71-3.264-2.71-1.144 0-2.268.422-3.052 1.133l.742.822.021-.022c.53-.423 1.145-.911 2.29-.911 1.42 0 2.076 1 2.076 1.933v.489h-1.272zm-1.186 4.222c-1.208 0-1.887-.533-1.887-1.533 0-.823.594-1.778 3.37-1.778h.954v.689c.021 1.2-.636 2.622-2.437 2.622zm1.504-3.022c-1.42 0-3.115.266-3.115 1.51 0 .823.551 1.245 1.61 1.245 1.611 0 2.184-1.2 2.184-2.355v-.4h-.679z"/></g></g></g></svg>