<svg width="212" height="35" xmlns="http://www.w3.org/2000/svg"><g fill="none"><g fill="#000"><path d="M62.262 15.95a4.257 4.257 0 11-.105 8.514 4.257 4.257 0 01.105-8.514zm0 7.076c1.643 0 2.665-1.176 2.665-2.82 0-1.645-1.022-2.818-2.665-2.818s-2.659 1.175-2.659 2.817c0 1.643 1.019 2.821 2.659 2.821zM56.7 17.49v5.967c-1.179.715-3.112 1.111-4.58 1.111-4.103 0-6.479-2.922-6.479-6.36 0-3.585 2.617-6.36 6.307-6.36 2.222 0 3.573.601 4.512 1.575l-1.16 1.246c-.993-.957-2.138-1.28-3.352-1.28-2.769 0-4.563 2.17-4.563 4.818 0 2.741 2.035 4.82 4.7 4.82 1.145 0 2.24-.21 2.975-.632V19.02h-2.684v-1.537l4.324.006z"/><path d="M52.12 24.698c-3.894 0-6.612-2.671-6.612-6.492 0-3.698 2.769-6.492 6.44-6.492 2.085 0 3.548.515 4.61 1.616l.085.088-1.339 1.438-.097-.09c-.868-.844-1.935-1.249-3.26-1.249-2.567 0-4.427 1.974-4.427 4.69 0 2.67 1.965 4.686 4.569 4.686 1.115 0 2.14-.21 2.842-.575v-3.163h-2.688V17.35h4.588v6.176l-.06.038c-1.275.776-3.305 1.13-4.65 1.13v.004zm-.172-12.718c-3.585 0-6.176 2.619-6.176 6.226 0 3.667 2.61 6.227 6.348 6.227 1.287 0 3.214-.331 4.45-1.055v-5.756h-4.064v1.265h2.684v3.585l-.065.036c-.74.421-1.847.651-3.04.651-2.754 0-4.833-2.127-4.833-4.953 0-2.87 1.976-4.95 4.696-4.95 1.347 0 2.443.4 3.346 1.227l.982-1.054c-1-.985-2.38-1.443-4.328-1.443v-.006zm10.314 12.615a4.39 4.39 0 114.428-4.39 4.367 4.367 0 01-4.428 4.39zm0-8.514a4.126 4.126 0 104.175 4.124 4.107 4.107 0 00-4.175-4.124zm0 7.078c-1.672 0-2.8-1.187-2.8-2.952s1.128-2.952 2.8-2.952 2.8 1.19 2.8 2.952c0 1.763-1.128 2.952-2.8 2.952zm0-5.64c-1.514 0-2.53 1.08-2.53 2.686 0 1.607 1.02 2.688 2.53 2.688 1.51 0 2.53-1.08 2.53-2.688 0-1.609-1.02-2.686-2.53-2.686zm9.49-1.569a4.257 4.257 0 11-.097 8.514 4.257 4.257 0 01.097-8.514zm0 7.076c1.643 0 2.665-1.176 2.665-2.82 0-1.645-1.022-2.818-2.665-2.818-1.642 0-2.66 1.175-2.66 2.817 0 1.643 1.018 2.821 2.66 2.821z"/><path d="M71.752 24.595a4.39 4.39 0 114.428-4.39 4.369 4.369 0 01-4.428 4.39zm0-8.514a4.126 4.126 0 104.177 4.124 4.107 4.107 0 00-4.177-4.124zm0 7.078c-1.687 0-2.8-1.187-2.8-2.952s1.124-2.952 2.8-2.952c1.676 0 2.798 1.19 2.798 2.952 0 1.763-1.124 2.952-2.798 2.952zm0-5.64c-1.518 0-2.53 1.08-2.53 2.686 0 1.607 1.014 2.688 2.53 2.688 1.516 0 2.53-1.08 2.53-2.688 0-1.609-1.016-2.686-2.53-2.686zm13.732 6.736h-1.543v-1.16h-.034c-.594.87-1.724 1.365-2.82 1.365-2.51 0-4.114-1.862-4.114-4.257 0-2.427 1.621-4.255 4.113-4.255 1.166 0 2.273.53 2.821 1.37h.034v-5.361h1.543v12.298zm-1.543-4.052c0-1.638-1.023-2.817-2.665-2.817s-2.665 1.179-2.665 2.817c0 1.638 1.025 2.821 2.665 2.821 1.64 0 2.665-1.174 2.665-2.819v-.002z"/><path d="M81.086 24.595c-2.498 0-4.248-1.807-4.248-4.39 0-2.583 1.741-4.383 4.248-4.383a3.656 3.656 0 012.724 1.15v-5.146h1.805V24.39H83.81v-.955a3.698 3.698 0 01-2.724 1.16zm0-8.514c-2.344 0-3.987 1.687-3.987 4.124 0 2.437 1.643 4.126 3.987 4.126 1.103 0 2.168-.512 2.714-1.309l.042-.057h.2l.032.133v1.029h1.275v-12.04h-1.275v5.365h-.211l-.072-.064c-.518-.793-1.583-1.307-2.713-1.307h.008zm.19 7.078c-1.672 0-2.796-1.187-2.796-2.952s1.124-2.952 2.796-2.952c1.672 0 2.798 1.19 2.798 2.952 0 1.763-1.122 2.952-2.798 2.952zm0-5.64c-1.516 0-2.53 1.08-2.53 2.686 0 1.607 1.018 2.688 2.53 2.688 1.512 0 2.53-1.08 2.53-2.688 0-1.609-1.016-2.686-2.53-2.686zm6.247-5.45h3.69c5.109 0 6.357 3.898 6.357 6.137 0 3.096-2.307 6.052-6.633 6.052h-3.414v-12.19zm1.643 10.651H90.7c2.768 0 5.125-1.522 5.125-4.514 0-1.539-.801-4.602-4.731-4.602h-1.93v9.116z"/><path d="M90.937 24.39h-3.545V11.938h3.821c5.126 0 6.488 3.94 6.488 6.268 0 3.072-2.32 6.184-6.764 6.184zm-3.292-.263h3.283c4.468 0 6.503-3.072 6.503-5.92 0-.616-.173-6.008-6.226-6.008h-3.56v11.928zm3.047-1.276h-1.668v-9.378h2.062c4.73 0 4.862 4.25 4.862 4.733 0 3.21-2.637 4.639-5.256 4.639v.006zm-1.404-.263h1.404c2.303 0 4.995-1.145 4.995-4.382 0-.457-.129-4.472-4.6-4.472h-1.799v8.856-.002zm9.486-5.438a4.78 4.78 0 013.209-1.2c2.39 0 3.384 1.3 3.384 2.7v4.13a13.13 13.13 0 00.067 1.475h-1.366c-.034-.409-.05-.818-.05-1.23h-.036c-.684 1.04-1.61 1.435-2.836 1.435-1.504 0-2.804-.854-2.804-2.427 0-2.083 1.998-2.802 4.461-2.802h1.128v-.344c0-.843-.616-1.71-1.931-1.71-1.179 0-1.746.5-2.307.926l-.92-.953zm4.345 3.209c-1.457 0-3.234.257-3.234 1.56 0 .92.685 1.312 1.746 1.312 1.708 0 2.306-1.265 2.306-2.358v-.514h-.818z"/><path d="M101.152 24.595c-1.729 0-2.935-1.054-2.935-2.56 0-1.897 1.63-2.935 4.592-2.935h.998v-.21c0-.76-.565-1.576-1.801-1.576-1.054 0-1.594.412-2.108.81l-.211.154-1.095-1.134.097-.093a4.892 4.892 0 013.294-1.23c2.593 0 3.515 1.462 3.515 2.832v4.127a11.832 11.832 0 00.07 1.475l.016.146h-1.638v-.12a13.74 13.74 0 01-.049-.888c-.65.827-1.535 1.212-2.74 1.212l-.005-.01zm1.657-5.231c-1.977 0-4.328.462-4.328 2.671 0 1.588 1.343 2.296 2.671 2.296 1.265 0 2.109-.421 2.726-1.376l.04-.062h.211l.034.133c0 .367.013.736.042 1.1h1.099a13.102 13.102 0 01-.053-1.338v-4.139c0-1.242-.854-2.568-3.253-2.568a4.67 4.67 0 00-3.024 1.073l.744.774.021-.015c.528-.405 1.13-.864 2.275-.864 1.42 0 2.065.953 2.065 1.84v.475h-1.27zm-1.178 4.006c-1.208 0-1.877-.515-1.877-1.447 0-.771.584-1.686 3.374-1.686h.95v.645c0 1.149-.632 2.492-2.439 2.492l-.008-.004zm1.488-2.872c-1.417 0-3.103.245-3.103 1.425 0 .78.546 1.181 1.615 1.181 1.602 0 2.176-1.147 2.176-2.226v-.38h-.688zm8.613-3.009h-2.205v3.675c0 .905 0 1.862 1.162 1.862a2.2 2.2 0 001.092-.238v1.402c-.357.21-1.076.272-1.381.272-2.377 0-2.408-1.455-2.408-2.751v-4.217h-1.78v-1.335h1.78v-2.28h1.535v2.276h2.205v1.334z"/><path d="M110.4 24.595c-2.543 0-2.543-1.666-2.543-2.884v-4.089h-1.777v-1.59h1.777v-2.279h1.8v2.28h2.208v1.598h-2.207v3.542c0 1.077.071 1.729 1.03 1.729a2.05 2.05 0 001.027-.211l.211-.127v1.719l-.065.038c-.422.238-1.208.29-1.45.29l-.011-.016zm-4.057-7.24h1.78v4.356c0 1.229 0 2.62 2.277 2.62.427.002.85-.075 1.25-.225V23c-.308.11-.634.164-.961.158-1.297 0-1.297-1.107-1.297-1.995v-3.81h2.21v-1.066h-2.21v-2.273h-1.265v2.273h-1.78v1.067h-.004zm6.895-.205a4.771 4.771 0 013.213-1.2c2.39 0 3.373 1.3 3.373 2.7v4.13a12.604 12.604 0 00.07 1.475h-1.368a14.823 14.823 0 01-.051-1.23h-.038c-.681 1.04-1.604 1.435-2.834 1.435-1.505 0-2.806-.854-2.806-2.427 0-2.083 2-2.802 4.461-2.802h1.128v-.344c0-.843-.613-1.71-1.929-1.71-1.178 0-1.743.5-2.319.926l-.9-.953zm4.347 3.209c-1.452 0-3.232.257-3.232 1.56 0 .92.685 1.312 1.744 1.312 1.708 0 2.306-1.265 2.306-2.358v-.514h-.818z"/><path d="M115.614 24.595c-1.731 0-2.937-1.054-2.937-2.56 0-1.897 1.632-2.935 4.592-2.935h.997v-.21c0-.76-.563-1.576-1.798-1.576-1.054 0-1.596.412-2.109.81l-.21.154-1.101-1.134.097-.093a4.906 4.906 0 013.306-1.23c2.593 0 3.515 1.462 3.515 2.832v4.127c-.006.486.016.972.065 1.456l.021.146h-1.638v-.12c-.025-.293-.042-.59-.053-.888-.647.827-1.533 1.212-2.74 1.212l-.007.009zm1.655-5.231c-1.974 0-4.327.462-4.327 2.671 0 1.588 1.34 2.296 2.672 2.296 1.265 0 2.108-.421 2.724-1.376l.042-.062h.211l.034.133c0 .367.014.736.04 1.1h1.098a13.652 13.652 0 01-.055-1.338v-4.139c0-1.242-.843-2.568-3.249-2.568a4.68 4.68 0 00-3.025 1.073l.746.774.02-.015c.528-.405 1.127-.864 2.276-.864 1.42 0 2.062.953 2.062 1.84v.475h-1.269zm-1.179 4.006c-1.21 0-1.874-.515-1.874-1.447 0-.771.582-1.686 3.373-1.686h.951v.645c0 1.149-.632 2.492-2.44 2.492l-.01-.004zm1.495-2.876c-1.415 0-3.1.245-3.1 1.425 0 .78.54 1.181 1.612 1.181 1.604 0 2.176-1.147 2.176-2.227v-.379h-.688z"/></g><path fill="#4E4D4D" d="M21.413 27.726v.072-.072"/><path d="M22.992 17.487h-5.397c.005 1.8.29 3.588.843 5.301a5.448 5.448 0 004.559-5.3m11.938.898a17.405 17.405 0 01-8.645 14.09 17.475 17.475 0 008.645 2.343V18.386z" fill="#6A6A6A"/><path d="M12.174 17.487H.211c.006 4.6 1.836 9.01 5.09 12.263l8.454-8.461a5.457 5.457 0 01-1.58-3.795" fill="#8B8B8A"/><path d="M17.578 22.86a5.482 5.482 0 01-3.823-1.571L5.301 29.75a17.39 17.39 0 0012.277 5.07V22.86" fill="#3C3C3B"/><path d="M17.645 11.961V.008a17.441 17.441 0 00-12.39 5.147l8.433 8.474a5.562 5.562 0 013.957-1.668" fill="#292627"/><path d="M12.164 17.411a5.482 5.482 0 011.534-3.795L5.265 5.142a17.363 17.363 0 00-5.06 12.265v.076h11.963v-.076" fill="#575756"/><path d="M21.411 13.57l8.463-8.457A17.399 17.399 0 0017.645.008V11.97a5.482 5.482 0 013.758 1.608" fill="#7C7B7B"/><path d="M18.434 22.78a5.741 5.741 0 01-.856.071v11.961c3.055 0 6.055-.804 8.7-2.334a17.236 17.236 0 01-7.844-9.698" fill="#6F6F6E"/><path d="M34.935 18.386v-.899H22.992a5.448 5.448 0 01-4.558 5.293 17.236 17.236 0 007.843 9.698 17.405 17.405 0 008.645-14.09" fill="#292627"/><path d="M126.43 12.13h4.94c.827 0 1.624.126 2.392.38a5.81 5.81 0 012.036 1.16 5.677 5.677 0 011.417 1.957c.354.785.532 1.71.532 2.772 0 1.074-.204 2.004-.612 2.79a5.971 5.971 0 01-1.576 1.948 6.722 6.722 0 01-2.143 1.15 7.487 7.487 0 01-2.311.382h-4.676v-12.54zm3.896 10.52c.696 0 1.355-.08 1.974-.24a4.705 4.705 0 001.621-.743c.46-.337.824-.774 1.09-1.31.265-.538.398-1.19.398-1.958 0-.756-.118-1.405-.355-1.948a3.388 3.388 0 00-.982-1.32 4.101 4.101 0 00-1.488-.743 7.02 7.02 0 00-1.886-.24h-2.037v8.502h1.665zm10.183-1.488c.07.638.318 1.133.743 1.488.425.354.94.531 1.541.531.532 0 .977-.11 1.337-.328a3.72 3.72 0 00.948-.823l1.523 1.151c-.496.614-1.05 1.05-1.665 1.31-.614.26-1.257.39-1.93.39-.638 0-1.24-.106-1.807-.319a4.333 4.333 0 01-1.47-.903 4.286 4.286 0 01-.983-1.408 4.496 4.496 0 01-.363-1.833c0-.673.121-1.284.363-1.833.242-.549.57-1.018.983-1.408.414-.39.904-.69 1.47-.903a5.102 5.102 0 011.807-.32c.59 0 1.13.104 1.62.31a3.5 3.5 0 011.258.895c.348.39.62.871.814 1.444.195.572.293 1.23.293 1.974v.585h-6.482zm4.356-1.594c-.011-.626-.206-1.119-.584-1.479-.378-.36-.903-.54-1.576-.54-.638 0-1.143.183-1.515.549-.372.366-.599.856-.681 1.47h4.356zm2.09-3.4h2.32l2.267 5.95h.035l2.285-5.95h2.178l-3.347 8.5h-2.267l-3.472-8.5zm11.174 4.994c.071.638.319 1.133.744 1.488.425.354.939.531 1.54.531.532 0 .978-.11 1.338-.328a3.72 3.72 0 00.948-.823l1.523 1.151c-.496.614-1.051 1.05-1.665 1.31-.614.26-1.258.39-1.93.39-.638 0-1.24-.106-1.807-.319a4.333 4.333 0 01-1.47-.903 4.286 4.286 0 01-.983-1.408 4.496 4.496 0 01-.363-1.833c0-.673.12-1.284.363-1.833.242-.549.57-1.018.983-1.408a4.33 4.33 0 011.47-.903 5.102 5.102 0 011.806-.32c.59 0 1.13.104 1.62.31a3.5 3.5 0 011.258.895c.349.39.62.871.815 1.444.195.572.292 1.23.292 1.974v.585h-6.482zm4.357-1.594c-.012-.626-.207-1.119-.584-1.479-.378-.36-.904-.54-1.577-.54-.637 0-1.142.183-1.514.549-.372.366-.6.856-.682 1.47h4.357zm3.276-8.289h2.125v13.39h-2.125v-13.39zm3.275 9.14c0-.674.121-1.285.363-1.834.242-.549.57-1.018.983-1.408.414-.39.904-.69 1.47-.903a5.102 5.102 0 011.807-.32c.637 0 1.24.107 1.806.32a4.333 4.333 0 011.47.903c.414.39.741.859.983 1.408.242.549.363 1.16.363 1.833s-.12 1.284-.363 1.833a4.286 4.286 0 01-.983 1.408 4.33 4.33 0 01-1.47.903 5.102 5.102 0 01-1.806.32c-.638 0-1.24-.107-1.807-.32a4.333 4.333 0 01-1.47-.903 4.286 4.286 0 01-.983-1.408 4.496 4.496 0 01-.363-1.833zm2.126 0c0 .33.056.648.168.955a2.4 2.4 0 00.496.815c.218.236.481.425.788.567a2.46 2.46 0 001.045.212c.39 0 .738-.07 1.045-.212.307-.142.57-.33.788-.567a2.4 2.4 0 00.496-.815c.112-.307.168-.625.168-.956 0-.33-.056-.65-.168-.956a2.4 2.4 0 00-.496-.815 2.47 2.47 0 00-.788-.567 2.466 2.466 0 00-1.045-.212c-.39 0-.738.07-1.045.212a2.47 2.47 0 00-.788.567 2.4 2.4 0 00-.496.815 2.765 2.765 0 00-.168.956zm8.234-4.252h2.02v1.276h.035a2.73 2.73 0 011.24-1.134 4.018 4.018 0 011.682-.354c.65 0 1.234.115 1.753.345a3.914 3.914 0 012.161 2.365 5.27 5.27 0 01.284 1.753c0 .626-.1 1.21-.302 1.753a4.36 4.36 0 01-.84 1.417 3.87 3.87 0 01-1.303.948 3.983 3.983 0 01-1.664.345c-.402 0-.756-.041-1.063-.124a3.662 3.662 0 01-.815-.319 3.259 3.259 0 01-.602-.416 3.025 3.025 0 01-.407-.434h-.053v5.119h-2.126v-12.54zm7.05 4.251c0-.33-.057-.65-.169-.956a2.4 2.4 0 00-.496-.815 2.47 2.47 0 00-.788-.567 2.466 2.466 0 00-1.045-.212c-.39 0-.738.07-1.045.212a2.47 2.47 0 00-.788.567 2.4 2.4 0 00-.496.815 2.765 2.765 0 00-.168.956c0 .33.056.65.168.956a2.4 2.4 0 00.496.815c.218.236.481.425.788.567a2.46 2.46 0 001.045.212c.39 0 .738-.07 1.045-.212.307-.142.57-.33.788-.567a2.4 2.4 0 00.496-.815c.112-.307.168-.625.168-.956zm4.94.744c.07.638.319 1.133.744 1.488.425.354.938.531 1.54.531.532 0 .977-.11 1.338-.328.36-.218.676-.493.947-.823l1.523 1.151c-.496.614-1.05 1.05-1.665 1.31-.614.26-1.257.39-1.93.39-.638 0-1.24-.106-1.807-.319a4.333 4.333 0 01-1.47-.903 4.286 4.286 0 01-.982-1.408 4.496 4.496 0 01-.364-1.833c0-.673.121-1.284.364-1.833.242-.549.57-1.018.982-1.408.414-.39.904-.69 1.47-.903a5.102 5.102 0 011.807-.32c.59 0 1.13.104 1.62.31a3.5 3.5 0 011.258.895c.348.39.62.871.815 1.444.195.572.292 1.23.292 1.974v.585h-6.482zm4.357-1.594c-.012-.626-.207-1.119-.585-1.479-.378-.36-.903-.54-1.576-.54-.638 0-1.142.183-1.514.549-.372.366-.6.856-.682 1.47h4.357zm3.24-3.4h2.125v1.345h.036a2.67 2.67 0 011.01-1.15c.436-.272.938-.408 1.505-.408.13 0 .256.012.38.035.124.024.251.053.381.089v2.054a5.956 5.956 0 00-.522-.115 2.967 2.967 0 00-.505-.044c-.496 0-.895.091-1.196.274a2.09 2.09 0 00-1.01 1.337 2.67 2.67 0 00-.079.532v4.552h-2.125v-8.502zm10.555 2.355c-.414-.579-.969-.868-1.665-.868-.284 0-.561.071-.833.213-.271.141-.407.372-.407.69 0 .26.112.45.337.567.224.118.507.219.85.301.342.083.711.169 1.107.257.395.089.764.224 1.107.407.342.183.625.434.85.753.224.319.336.756.336 1.31 0 .508-.109.936-.327 1.285a2.573 2.573 0 01-.85.841 3.756 3.756 0 01-1.178.46 6.185 6.185 0 01-1.31.142 5.63 5.63 0 01-1.825-.283c-.555-.19-1.051-.531-1.488-1.027l1.417-1.329c.272.307.564.558.877.753.313.195.693.292 1.142.292.154 0 .313-.017.478-.053s.319-.094.46-.177c.142-.083.258-.186.346-.31a.727.727 0 00.133-.434c0-.295-.112-.513-.337-.655a2.998 2.998 0 00-.85-.346c-.342-.088-.711-.17-1.107-.247s-.764-.201-1.107-.372a2.326 2.326 0 01-.85-.718c-.224-.307-.336-.732-.336-1.275 0-.472.097-.882.292-1.23a2.57 2.57 0 01.77-.86 3.34 3.34 0 011.099-.496 5.03 5.03 0 012.94.133 2.749 2.749 0 011.346 1l-1.417 1.276z" fill="#94A1AE"/></g></svg>